solid OpenSCAD_Model
  facet normal -0 0 -1
    outer loop
      vertex -11.575 0 0
      vertex -11.4837 1.45073 0
      vertex -11.4837 -1.45073 0
    endloop
  endfacet
  facet normal 0 -0 -1
    outer loop
      vertex -11.4837 -1.45073 0
      vertex -11.4837 1.45073 0
      vertex -11.2113 2.87858 0
    endloop
  endfacet
  facet normal 0 0 -1
    outer loop
      vertex -11.4837 -1.45073 0
      vertex -11.2113 2.87858 0
      vertex -10.7622 4.26104 0
    endloop
  endfacet
  facet normal 0 0 -1
    outer loop
      vertex -11.4837 -1.45073 0
      vertex -10.7622 4.26104 0
      vertex -10.1433 5.5763 0
    endloop
  endfacet
  facet normal 0 0 -1
    outer loop
      vertex -11.4837 -1.45073 0
      vertex -10.1433 5.5763 0
      vertex -9.36437 6.80361 0
    endloop
  endfacet
  facet normal 0 0 -1
    outer loop
      vertex -11.4837 -1.45073 0
      vertex -9.36437 6.80361 0
      vertex -8.43781 7.92363 0
    endloop
  endfacet
  facet normal 0 0 -1
    outer loop
      vertex -11.4837 -1.45073 0
      vertex -8.43781 7.92363 0
      vertex -7.37818 8.91869 0
    endloop
  endfacet
  facet normal 0 0 -1
    outer loop
      vertex -11.4837 -1.45073 0
      vertex -7.37818 8.91869 0
      vertex -6.20219 9.7731 0
    endloop
  endfacet
  facet normal 0 0 -1
    outer loop
      vertex -11.4837 -1.45073 0
      vertex -6.20219 9.7731 0
      vertex -4.9284 10.4734 0
    endloop
  endfacet
  facet normal 0 0 -1
    outer loop
      vertex -11.4837 -1.45073 0
      vertex -4.9284 10.4734 0
      vertex -3.57687 11.0085 0
    endloop
  endfacet
  facet normal 0 0 -1
    outer loop
      vertex -11.4837 -1.45073 0
      vertex -3.57687 11.0085 0
      vertex -2.16894 11.37 0
    endloop
  endfacet
  facet normal 0 0 -1
    outer loop
      vertex -11.4837 -1.45073 0
      vertex -2.16894 11.37 0
      vertex -0.7268 11.5522 0
    endloop
  endfacet
  facet normal 0 0 -1
    outer loop
      vertex -11.4837 -1.45073 0
      vertex -0.7268 11.5522 0
      vertex 0 11.5522 0
    endloop
  endfacet
  facet normal 0 -0 -1
    outer loop
      vertex 0 11.5522 0
      vertex 0 11.575 0
      vertex 11.575 11.575 0
    endloop
  endfacet
  facet normal -0 0 -1
    outer loop
      vertex 0 11.5522 0
      vertex 11.575 11.575 0
      vertex -11.4837 -1.45073 0
    endloop
  endfacet
  facet normal -0 0 -1
    outer loop
      vertex -11.4837 -1.45073 0
      vertex 11.575 11.575 0
      vertex 11.575 -11.575 0
    endloop
  endfacet
  facet normal 0 0 -1
    outer loop
      vertex 0 -11.5522 0
      vertex 11.575 -11.575 0
      vertex 0 -11.575 0
    endloop
  endfacet
  facet normal 0 0 -1
    outer loop
      vertex -11.4837 -1.45073 0
      vertex 11.575 -11.575 0
      vertex 0 -11.5522 0
    endloop
  endfacet
  facet normal 0 0 -1
    outer loop
      vertex -11.4837 -1.45073 0
      vertex -0.7268 -11.5522 0
      vertex -2.16894 -11.37 0
    endloop
  endfacet
  facet normal 0 0 -1
    outer loop
      vertex -11.4837 -1.45073 0
      vertex -2.16894 -11.37 0
      vertex -3.57687 -11.0085 0
    endloop
  endfacet
  facet normal 0 0 -1
    outer loop
      vertex -11.4837 -1.45073 0
      vertex -3.57687 -11.0085 0
      vertex -4.9284 -10.4734 0
    endloop
  endfacet
  facet normal 0 0 -1
    outer loop
      vertex -11.4837 -1.45073 0
      vertex -4.9284 -10.4734 0
      vertex -6.20219 -9.7731 0
    endloop
  endfacet
  facet normal 0 0 -1
    outer loop
      vertex -11.4837 -1.45073 0
      vertex -6.20219 -9.7731 0
      vertex -7.37818 -8.91869 0
    endloop
  endfacet
  facet normal 0 0 -1
    outer loop
      vertex -11.4837 -1.45073 0
      vertex -7.37818 -8.91869 0
      vertex -8.43781 -7.92363 0
    endloop
  endfacet
  facet normal 0 0 -1
    outer loop
      vertex -11.4837 -1.45073 0
      vertex -8.43781 -7.92363 0
      vertex -9.36437 -6.80361 0
    endloop
  endfacet
  facet normal 0 0 -1
    outer loop
      vertex -11.4837 -1.45073 0
      vertex -9.36437 -6.80361 0
      vertex -10.1433 -5.5763 0
    endloop
  endfacet
  facet normal 0 0 -1
    outer loop
      vertex -11.4837 -1.45073 0
      vertex -10.1433 -5.5763 0
      vertex -10.7622 -4.26104 0
    endloop
  endfacet
  facet normal 0 0 -1
    outer loop
      vertex -11.4837 -1.45073 0
      vertex -10.7622 -4.26104 0
      vertex -11.2113 -2.87858 0
    endloop
  endfacet
  facet normal -0 -0 -1
    outer loop
      vertex -0.7268 -11.5522 0
      vertex -11.4837 -1.45073 0
      vertex 0 -11.5522 0
    endloop
  endfacet
  facet normal -0.998027 0.0627903 0
    outer loop
      vertex -11.575 0 0
      vertex -11.575 0 3
      vertex -11.4837 1.45073 0
    endloop
  endfacet
  facet normal -0.998027 0.0627903 0
    outer loop
      vertex -11.4837 1.45073 0
      vertex -11.575 0 3
      vertex -11.4837 1.45073 3
    endloop
  endfacet
  facet normal -0.998027 -0.0627903 -0
    outer loop
      vertex -11.575 0 0
      vertex -11.4837 -1.45073 0
      vertex -11.575 0 3
    endloop
  endfacet
  facet normal -0.998027 -0.0627903 0
    outer loop
      vertex -11.575 0 3
      vertex -11.4837 -1.45073 0
      vertex -11.4837 -1.45073 3
    endloop
  endfacet
  facet normal -0.982287 -0.187382 -0
    outer loop
      vertex -11.4837 -1.45073 0
      vertex -11.2113 -2.87858 0
      vertex -11.4837 -1.45073 3
    endloop
  endfacet
  facet normal -0.982287 -0.187382 0
    outer loop
      vertex -11.4837 -1.45073 3
      vertex -11.2113 -2.87858 0
      vertex -11.2113 -2.87858 3
    endloop
  endfacet
  facet normal -0.951057 -0.309017 -0
    outer loop
      vertex -11.2113 -2.87858 0
      vertex -10.7622 -4.26104 0
      vertex -11.2113 -2.87858 3
    endloop
  endfacet
  facet normal -0.951057 -0.309017 0
    outer loop
      vertex -11.2113 -2.87858 3
      vertex -10.7622 -4.26104 0
      vertex -10.7622 -4.26104 3
    endloop
  endfacet
  facet normal -0.904827 -0.425779 -0
    outer loop
      vertex -10.7622 -4.26104 0
      vertex -10.1433 -5.5763 0
      vertex -10.7622 -4.26104 3
    endloop
  endfacet
  facet normal -0.904827 -0.425779 0
    outer loop
      vertex -10.7622 -4.26104 3
      vertex -10.1433 -5.5763 0
      vertex -10.1433 -5.5763 3
    endloop
  endfacet
  facet normal -0.844328 -0.535827 -0
    outer loop
      vertex -10.1433 -5.5763 0
      vertex -9.36437 -6.80361 0
      vertex -10.1433 -5.5763 3
    endloop
  endfacet
  facet normal -0.844328 -0.535827 0
    outer loop
      vertex -10.1433 -5.5763 3
      vertex -9.36437 -6.80361 0
      vertex -9.36437 -6.80361 3
    endloop
  endfacet
  facet normal -0.770513 -0.637424 -0
    outer loop
      vertex -9.36437 -6.80361 0
      vertex -8.43781 -7.92363 0
      vertex -9.36437 -6.80361 3
    endloop
  endfacet
  facet normal -0.770513 -0.637424 0
    outer loop
      vertex -9.36437 -6.80361 3
      vertex -8.43781 -7.92363 0
      vertex -8.43781 -7.92363 3
    endloop
  endfacet
  facet normal -0.684547 -0.728969 0
    outer loop
      vertex -8.43781 -7.92363 3
      vertex -8.43781 -7.92363 0
      vertex -7.37818 -8.91869 0
    endloop
  endfacet
  facet normal -0.684547 -0.728969 0
    outer loop
      vertex -7.37818 -8.91869 3
      vertex -8.43781 -7.92363 3
      vertex -7.37818 -8.91869 0
    endloop
  endfacet
  facet normal -0.587785 -0.809017 0
    outer loop
      vertex -7.37818 -8.91869 3
      vertex -7.37818 -8.91869 0
      vertex -6.20219 -9.7731 0
    endloop
  endfacet
  facet normal -0.587785 -0.809017 0
    outer loop
      vertex -6.20219 -9.7731 3
      vertex -7.37818 -8.91869 3
      vertex -6.20219 -9.7731 0
    endloop
  endfacet
  facet normal -0.481753 -0.876307 0
    outer loop
      vertex -6.20219 -9.7731 3
      vertex -6.20219 -9.7731 0
      vertex -4.9284 -10.4734 0
    endloop
  endfacet
  facet normal -0.481753 -0.876307 0
    outer loop
      vertex -4.9284 -10.4734 3
      vertex -6.20219 -9.7731 3
      vertex -4.9284 -10.4734 0
    endloop
  endfacet
  facet normal -0.368125 -0.929776 0
    outer loop
      vertex -4.9284 -10.4734 3
      vertex -4.9284 -10.4734 0
      vertex -3.57687 -11.0085 0
    endloop
  endfacet
  facet normal -0.368125 -0.929776 0
    outer loop
      vertex -3.57687 -11.0085 3
      vertex -4.9284 -10.4734 3
      vertex -3.57687 -11.0085 0
    endloop
  endfacet
  facet normal -0.24869 -0.968583 0
    outer loop
      vertex -3.57687 -11.0085 3
      vertex -3.57687 -11.0085 0
      vertex -2.16894 -11.37 0
    endloop
  endfacet
  facet normal -0.24869 -0.968583 0
    outer loop
      vertex -2.16894 -11.37 3
      vertex -3.57687 -11.0085 3
      vertex -2.16894 -11.37 0
    endloop
  endfacet
  facet normal -0.125333 -0.992115 0
    outer loop
      vertex -2.16894 -11.37 3
      vertex -2.16894 -11.37 0
      vertex -0.7268 -11.5522 0
    endloop
  endfacet
  facet normal -0.125333 -0.992115 0
    outer loop
      vertex -0.7268 -11.5522 3
      vertex -2.16894 -11.37 3
      vertex -0.7268 -11.5522 0
    endloop
  endfacet
  facet normal 0 -1 0
    outer loop
      vertex -0.7268 -11.5522 3
      vertex -0.7268 -11.5522 0
      vertex 0 -11.5522 0
    endloop
  endfacet
  facet normal 0 -1 0
    outer loop
      vertex 0 -11.5522 3
      vertex -0.7268 -11.5522 3
      vertex 0 -11.5522 0
    endloop
  endfacet
  facet normal -1 -0 -0
    outer loop
      vertex 0 -11.575 0
      vertex 0 -11.575 141.15
      vertex 0 -11.5522 0
    endloop
  endfacet
  facet normal -1 0 -0
    outer loop
      vertex 0 -9.55611 128
      vertex 0 -11.575 141.15
      vertex 0 -8.65788 141.15
    endloop
  endfacet
  facet normal -1 -0 0
    outer loop
      vertex 0 -11.5522 3
      vertex 0 -8.65788 127
      vertex 0 -8.65788 3
    endloop
  endfacet
  facet normal -1 0 -0
    outer loop
      vertex 0 -11.5522 3
      vertex 0 -11.575 141.15
      vertex 0 -9.55611 128
    endloop
  endfacet
  facet normal -1 0 0
    outer loop
      vertex 0 -11.5522 3
      vertex 0 -9.55611 128
      vertex 0 -9.55611 127
    endloop
  endfacet
  facet normal -1 0 0
    outer loop
      vertex 0 -11.5522 0
      vertex 0 -11.575 141.15
      vertex 0 -11.5522 3
    endloop
  endfacet
  facet normal -1 -0 0
    outer loop
      vertex 0 -9.55611 128
      vertex 0 -8.65788 141.15
      vertex 0 -8.65788 128
    endloop
  endfacet
  facet normal -1 0 0
    outer loop
      vertex 0 -11.5522 3
      vertex 0 -9.55611 127
      vertex 0 -8.65788 127
    endloop
  endfacet
  facet normal 0 -1 0
    outer loop
      vertex 0 -11.575 141.15
      vertex 0 -11.575 0
      vertex 11.575 -11.575 0
    endloop
  endfacet
  facet normal 0 -1 0
    outer loop
      vertex 11.575 -11.575 141.15
      vertex 0 -11.575 141.15
      vertex 11.575 -11.575 0
    endloop
  endfacet
  facet normal 1 0 -0
    outer loop
      vertex 11.575 -11.575 141.15
      vertex 11.575 -11.575 0
      vertex 11.575 11.575 0
    endloop
  endfacet
  facet normal 1 0 0
    outer loop
      vertex 11.575 11.575 141.15
      vertex 11.575 -11.575 141.15
      vertex 11.575 11.575 0
    endloop
  endfacet
  facet normal 0 1 0
    outer loop
      vertex 0 11.575 0
      vertex 0 11.575 141.15
      vertex 11.575 11.575 0
    endloop
  endfacet
  facet normal 0 1 0
    outer loop
      vertex 11.575 11.575 0
      vertex 0 11.575 141.15
      vertex 11.575 11.575 141.15
    endloop
  endfacet
  facet normal -1 -0 -0
    outer loop
      vertex 0 8.65788 3
      vertex 0 8.65788 127
      vertex 0 11.5522 3
    endloop
  endfacet
  facet normal -1 0 0
    outer loop
      vertex 0 11.5522 3
      vertex 0 8.65788 127
      vertex 0 9.55611 127
    endloop
  endfacet
  facet normal -1 0 0
    outer loop
      vertex 0 11.5522 3
      vertex 0 9.55611 127
      vertex 0 9.55611 128
    endloop
  endfacet
  facet normal -1 0 0
    outer loop
      vertex 0 9.55611 128
      vertex 0 8.65788 128
      vertex 0 8.65788 141.15
    endloop
  endfacet
  facet normal -1 0 -0
    outer loop
      vertex 0 9.55611 128
      vertex 0 8.65788 141.15
      vertex 0 11.575 141.15
    endloop
  endfacet
  facet normal -1 -0 0
    outer loop
      vertex 0 9.55611 128
      vertex 0 11.575 141.15
      vertex 0 11.5522 3
    endloop
  endfacet
  facet normal -1 -0 0
    outer loop
      vertex 0 11.5522 3
      vertex 0 11.575 141.15
      vertex 0 11.575 0
    endloop
  endfacet
  facet normal -1 0 0
    outer loop
      vertex 0 11.5522 3
      vertex 0 11.575 0
      vertex 0 11.5522 0
    endloop
  endfacet
  facet normal 0 1 0
    outer loop
      vertex -0.7268 11.5522 0
      vertex -0.7268 11.5522 3
      vertex 0 11.5522 0
    endloop
  endfacet
  facet normal 0 1 0
    outer loop
      vertex 0 11.5522 0
      vertex -0.7268 11.5522 3
      vertex 0 11.5522 3
    endloop
  endfacet
  facet normal -0.125333 0.992115 0
    outer loop
      vertex -2.16894 11.37 0
      vertex -2.16894 11.37 3
      vertex -0.7268 11.5522 0
    endloop
  endfacet
  facet normal -0.125333 0.992115 0
    outer loop
      vertex -0.7268 11.5522 0
      vertex -2.16894 11.37 3
      vertex -0.7268 11.5522 3
    endloop
  endfacet
  facet normal -0.24869 0.968583 0
    outer loop
      vertex -3.57687 11.0085 0
      vertex -3.57687 11.0085 3
      vertex -2.16894 11.37 0
    endloop
  endfacet
  facet normal -0.24869 0.968583 0
    outer loop
      vertex -2.16894 11.37 0
      vertex -3.57687 11.0085 3
      vertex -2.16894 11.37 3
    endloop
  endfacet
  facet normal -0.368125 0.929776 0
    outer loop
      vertex -4.9284 10.4734 0
      vertex -4.9284 10.4734 3
      vertex -3.57687 11.0085 0
    endloop
  endfacet
  facet normal -0.368125 0.929776 0
    outer loop
      vertex -3.57687 11.0085 0
      vertex -4.9284 10.4734 3
      vertex -3.57687 11.0085 3
    endloop
  endfacet
  facet normal -0.481753 0.876307 0
    outer loop
      vertex -6.20219 9.7731 0
      vertex -6.20219 9.7731 3
      vertex -4.9284 10.4734 0
    endloop
  endfacet
  facet normal -0.481753 0.876307 0
    outer loop
      vertex -4.9284 10.4734 0
      vertex -6.20219 9.7731 3
      vertex -4.9284 10.4734 3
    endloop
  endfacet
  facet normal -0.587785 0.809017 0
    outer loop
      vertex -7.37818 8.91869 0
      vertex -7.37818 8.91869 3
      vertex -6.20219 9.7731 0
    endloop
  endfacet
  facet normal -0.587785 0.809017 0
    outer loop
      vertex -6.20219 9.7731 0
      vertex -7.37818 8.91869 3
      vertex -6.20219 9.7731 3
    endloop
  endfacet
  facet normal -0.684547 0.728969 0
    outer loop
      vertex -8.43781 7.92363 0
      vertex -8.43781 7.92363 3
      vertex -7.37818 8.91869 0
    endloop
  endfacet
  facet normal -0.684547 0.728969 0
    outer loop
      vertex -7.37818 8.91869 0
      vertex -8.43781 7.92363 3
      vertex -7.37818 8.91869 3
    endloop
  endfacet
  facet normal -0.770513 0.637424 0
    outer loop
      vertex -9.36437 6.80361 0
      vertex -9.36437 6.80361 3
      vertex -8.43781 7.92363 0
    endloop
  endfacet
  facet normal -0.770513 0.637424 0
    outer loop
      vertex -8.43781 7.92363 0
      vertex -9.36437 6.80361 3
      vertex -8.43781 7.92363 3
    endloop
  endfacet
  facet normal -0.844328 0.535827 0
    outer loop
      vertex -10.1433 5.5763 0
      vertex -10.1433 5.5763 3
      vertex -9.36437 6.80361 0
    endloop
  endfacet
  facet normal -0.844328 0.535827 0
    outer loop
      vertex -9.36437 6.80361 0
      vertex -10.1433 5.5763 3
      vertex -9.36437 6.80361 3
    endloop
  endfacet
  facet normal -0.904827 0.425779 0
    outer loop
      vertex -10.7622 4.26104 0
      vertex -10.7622 4.26104 3
      vertex -10.1433 5.5763 0
    endloop
  endfacet
  facet normal -0.904827 0.425779 0
    outer loop
      vertex -10.1433 5.5763 0
      vertex -10.7622 4.26104 3
      vertex -10.1433 5.5763 3
    endloop
  endfacet
  facet normal -0.951057 0.309017 0
    outer loop
      vertex -11.2113 2.87858 0
      vertex -11.2113 2.87858 3
      vertex -10.7622 4.26104 0
    endloop
  endfacet
  facet normal -0.951057 0.309017 0
    outer loop
      vertex -10.7622 4.26104 0
      vertex -11.2113 2.87858 3
      vertex -10.7622 4.26104 3
    endloop
  endfacet
  facet normal -0.982287 0.187382 0
    outer loop
      vertex -11.4837 1.45073 0
      vertex -11.4837 1.45073 3
      vertex -11.2113 2.87858 0
    endloop
  endfacet
  facet normal -0.982287 0.187382 0
    outer loop
      vertex -11.2113 2.87858 0
      vertex -11.4837 1.45073 3
      vertex -11.2113 2.87858 3
    endloop
  endfacet
  facet normal 0 0 1
    outer loop
      vertex -11.4837 1.45073 3
      vertex -11.575 0 3
      vertex -11.4837 -1.45073 3
    endloop
  endfacet
  facet normal 0 0 1
    outer loop
      vertex -10.7622 -4.26104 3
      vertex -11.4837 1.45073 3
      vertex -11.2113 -2.87858 3
    endloop
  endfacet
  facet normal 0 0 1
    outer loop
      vertex -11.2113 -2.87858 3
      vertex -11.4837 1.45073 3
      vertex -11.4837 -1.45073 3
    endloop
  endfacet
  facet normal 0 0 1
    outer loop
      vertex -10.1433 -5.5763 3
      vertex -11.4837 1.45073 3
      vertex -10.7622 -4.26104 3
    endloop
  endfacet
  facet normal 0 0 1
    outer loop
      vertex -9.36437 -6.80361 3
      vertex -11.4837 1.45073 3
      vertex -10.1433 -5.5763 3
    endloop
  endfacet
  facet normal 0 0 1
    outer loop
      vertex -8.43781 -7.92363 3
      vertex -11.4837 1.45073 3
      vertex -9.36437 -6.80361 3
    endloop
  endfacet
  facet normal 0 0 1
    outer loop
      vertex -7.37818 -8.91869 3
      vertex -11.4837 1.45073 3
      vertex -8.43781 -7.92363 3
    endloop
  endfacet
  facet normal 0 0 1
    outer loop
      vertex -6.20219 -9.7731 3
      vertex -11.4837 1.45073 3
      vertex -7.37818 -8.91869 3
    endloop
  endfacet
  facet normal 0 0 1
    outer loop
      vertex -4.9284 -10.4734 3
      vertex -11.4837 1.45073 3
      vertex -6.20219 -9.7731 3
    endloop
  endfacet
  facet normal 0 0 1
    outer loop
      vertex -3.57687 -11.0085 3
      vertex -11.4837 1.45073 3
      vertex -4.9284 -10.4734 3
    endloop
  endfacet
  facet normal 0 0 1
    outer loop
      vertex -2.16894 -11.37 3
      vertex -11.4837 1.45073 3
      vertex -3.57687 -11.0085 3
    endloop
  endfacet
  facet normal 0 0 1
    outer loop
      vertex -0.7268 -11.5522 3
      vertex -11.4837 1.45073 3
      vertex -2.16894 -11.37 3
    endloop
  endfacet
  facet normal -0 0 1
    outer loop
      vertex 0 -11.5522 3
      vertex -11.4837 1.45073 3
      vertex -0.7268 -11.5522 3
    endloop
  endfacet
  facet normal -0 0 1
    outer loop
      vertex 0 -8.65788 3
      vertex -11.4837 1.45073 3
      vertex 0 -11.5522 3
    endloop
  endfacet
  facet normal -0 0 1
    outer loop
      vertex 0.544708 -8.65788 3
      vertex -11.4837 1.45073 3
      vertex 0 -8.65788 3
    endloop
  endfacet
  facet normal -0 0 1
    outer loop
      vertex 1.62553 -8.52134 3
      vertex -11.4837 1.45073 3
      vertex 0.544708 -8.65788 3
    endloop
  endfacet
  facet normal -0 0 1
    outer loop
      vertex 2.68072 -8.25042 3
      vertex -11.4837 1.45073 3
      vertex 1.62553 -8.52134 3
    endloop
  endfacet
  facet normal -0 0 1
    outer loop
      vertex 3.69364 -7.84937 3
      vertex -11.4837 1.45073 3
      vertex 2.68072 -8.25042 3
    endloop
  endfacet
  facet normal -0 0 1
    outer loop
      vertex 4.6483 -7.32454 3
      vertex -11.4837 1.45073 3
      vertex 3.69364 -7.84937 3
    endloop
  endfacet
  facet normal -0 0 1
    outer loop
      vertex 5.52965 -6.6842 3
      vertex -11.4837 1.45073 3
      vertex 4.6483 -7.32454 3
    endloop
  endfacet
  facet normal -0 0 1
    outer loop
      vertex 6.3238 -5.93845 3
      vertex -11.4837 1.45073 3
      vertex 5.52965 -6.6842 3
    endloop
  endfacet
  facet normal -0 0 1
    outer loop
      vertex 7.01822 -5.09904 3
      vertex -11.4837 1.45073 3
      vertex 6.3238 -5.93845 3
    endloop
  endfacet
  facet normal -0 0 1
    outer loop
      vertex 7.60196 -4.17921 3
      vertex -11.4837 1.45073 3
      vertex 7.01822 -5.09904 3
    endloop
  endfacet
  facet normal -0 0 1
    outer loop
      vertex 8.06581 -3.19348 3
      vertex -11.4837 1.45073 3
      vertex 7.60196 -4.17921 3
    endloop
  endfacet
  facet normal -0 0 1
    outer loop
      vertex 8.40246 -2.15739 3
      vertex -11.4837 1.45073 3
      vertex 8.06581 -3.19348 3
    endloop
  endfacet
  facet normal -0 0 1
    outer loop
      vertex 8.6066 -1.08727 3
      vertex -11.4837 1.45073 3
      vertex 8.40246 -2.15739 3
    endloop
  endfacet
  facet normal -0 0 1
    outer loop
      vertex 8.675 0 3
      vertex -11.4837 1.45073 3
      vertex 8.6066 -1.08727 3
    endloop
  endfacet
  facet normal -0 -0 1
    outer loop
      vertex 8.6066 1.08727 3
      vertex -11.4837 1.45073 3
      vertex 8.675 0 3
    endloop
  endfacet
  facet normal 0 -0 1
    outer loop
      vertex 8.40246 2.15739 3
      vertex -11.4837 1.45073 3
      vertex 8.6066 1.08727 3
    endloop
  endfacet
  facet normal 0 -0 1
    outer loop
      vertex 8.06581 3.19348 3
      vertex -11.4837 1.45073 3
      vertex 8.40246 2.15739 3
    endloop
  endfacet
  facet normal 0 -0 1
    outer loop
      vertex 7.60196 4.17921 3
      vertex -11.4837 1.45073 3
      vertex 8.06581 3.19348 3
    endloop
  endfacet
  facet normal 0 -0 1
    outer loop
      vertex 7.01822 5.09904 3
      vertex -11.4837 1.45073 3
      vertex 7.60196 4.17921 3
    endloop
  endfacet
  facet normal 0 -0 1
    outer loop
      vertex 6.3238 5.93845 3
      vertex -11.4837 1.45073 3
      vertex 7.01822 5.09904 3
    endloop
  endfacet
  facet normal 0 -0 1
    outer loop
      vertex 5.52965 6.6842 3
      vertex -11.4837 1.45073 3
      vertex 6.3238 5.93845 3
    endloop
  endfacet
  facet normal 0 -0 1
    outer loop
      vertex 4.6483 7.32454 3
      vertex -11.4837 1.45073 3
      vertex 5.52965 6.6842 3
    endloop
  endfacet
  facet normal 0 -0 1
    outer loop
      vertex 3.69364 7.84937 3
      vertex -11.4837 1.45073 3
      vertex 4.6483 7.32454 3
    endloop
  endfacet
  facet normal 0 -0 1
    outer loop
      vertex 2.68072 8.25042 3
      vertex -11.4837 1.45073 3
      vertex 3.69364 7.84937 3
    endloop
  endfacet
  facet normal 0 -0 1
    outer loop
      vertex 1.62553 8.52134 3
      vertex -11.4837 1.45073 3
      vertex 2.68072 8.25042 3
    endloop
  endfacet
  facet normal 0 -0 1
    outer loop
      vertex 0.544708 8.65788 3
      vertex -11.4837 1.45073 3
      vertex 1.62553 8.52134 3
    endloop
  endfacet
  facet normal 0 -0 1
    outer loop
      vertex 0 8.65788 3
      vertex -11.4837 1.45073 3
      vertex 0.544708 8.65788 3
    endloop
  endfacet
  facet normal 0 0 1
    outer loop
      vertex 0 11.5522 3
      vertex -11.4837 1.45073 3
      vertex 0 8.65788 3
    endloop
  endfacet
  facet normal 0 -0 1
    outer loop
      vertex -0.7268 11.5522 3
      vertex -11.4837 1.45073 3
      vertex 0 11.5522 3
    endloop
  endfacet
  facet normal 0 -0 1
    outer loop
      vertex -2.16894 11.37 3
      vertex -11.4837 1.45073 3
      vertex -0.7268 11.5522 3
    endloop
  endfacet
  facet normal 0 -0 1
    outer loop
      vertex -3.57687 11.0085 3
      vertex -11.4837 1.45073 3
      vertex -2.16894 11.37 3
    endloop
  endfacet
  facet normal 0 -0 1
    outer loop
      vertex -4.9284 10.4734 3
      vertex -11.4837 1.45073 3
      vertex -3.57687 11.0085 3
    endloop
  endfacet
  facet normal 0 -0 1
    outer loop
      vertex -6.20219 9.7731 3
      vertex -11.4837 1.45073 3
      vertex -4.9284 10.4734 3
    endloop
  endfacet
  facet normal 0 -0 1
    outer loop
      vertex -7.37818 8.91869 3
      vertex -11.4837 1.45073 3
      vertex -6.20219 9.7731 3
    endloop
  endfacet
  facet normal 0 -0 1
    outer loop
      vertex -8.43781 7.92363 3
      vertex -11.4837 1.45073 3
      vertex -7.37818 8.91869 3
    endloop
  endfacet
  facet normal 0 -0 1
    outer loop
      vertex -9.36437 6.80361 3
      vertex -11.4837 1.45073 3
      vertex -8.43781 7.92363 3
    endloop
  endfacet
  facet normal 0 -0 1
    outer loop
      vertex -10.1433 5.5763 3
      vertex -11.4837 1.45073 3
      vertex -9.36437 6.80361 3
    endloop
  endfacet
  facet normal 0 -0 1
    outer loop
      vertex -10.7622 4.26104 3
      vertex -11.4837 1.45073 3
      vertex -10.1433 5.5763 3
    endloop
  endfacet
  facet normal 0 -0 1
    outer loop
      vertex -11.2113 2.87858 3
      vertex -11.4837 1.45073 3
      vertex -10.7622 4.26104 3
    endloop
  endfacet
  facet normal 0 1 0
    outer loop
      vertex 0.544708 -8.65788 127
      vertex 0.544708 -8.65788 3
      vertex 0 -8.65788 127
    endloop
  endfacet
  facet normal 0 1 -0
    outer loop
      vertex 0 -8.65788 127
      vertex 0.544708 -8.65788 3
      vertex 0 -8.65788 3
    endloop
  endfacet
  facet normal 0 0 1
    outer loop
      vertex 0.601219 -9.55611 127
      vertex 1.79418 -9.4054 127
      vertex 2.95884 -9.10637 127
    endloop
  endfacet
  facet normal 0 0 1
    outer loop
      vertex 5.13054 -8.08444 127
      vertex 0.601219 -9.55611 127
      vertex 4.07684 -8.66372 127
    endloop
  endfacet
  facet normal 0 0 1
    outer loop
      vertex 4.07684 -8.66372 127
      vertex 0.601219 -9.55611 127
      vertex 2.95884 -9.10637 127
    endloop
  endfacet
  facet normal 0 0 1
    outer loop
      vertex 6.10333 -7.37766 127
      vertex 0.601219 -9.55611 127
      vertex 5.13054 -8.08444 127
    endloop
  endfacet
  facet normal 0 0 1
    outer loop
      vertex 6.97987 -6.55454 127
      vertex 0.601219 -9.55611 127
      vertex 6.10333 -7.37766 127
    endloop
  endfacet
  facet normal 0 0 1
    outer loop
      vertex 7.74634 -5.62804 127
      vertex 0.601219 -9.55611 127
      vertex 6.97987 -6.55454 127
    endloop
  endfacet
  facet normal 0 -0 1
    outer loop
      vertex 4.6483 -7.32454 127
      vertex 0.601219 -9.55611 127
      vertex 7.74634 -5.62804 127
    endloop
  endfacet
  facet normal 0 0 1
    outer loop
      vertex 3.69364 -7.84937 127
      vertex 2.68072 -8.25042 127
      vertex 0.601219 -9.55611 127
    endloop
  endfacet
  facet normal 0 -0 1
    outer loop
      vertex 7.01822 -5.09904 127
      vertex 6.3238 -5.93845 127
      vertex 8.39064 -4.61279 127
    endloop
  endfacet
  facet normal 0 -0 1
    outer loop
      vertex 7.60196 -4.17921 127
      vertex 7.01822 -5.09904 127
      vertex 8.90261 -3.52479 127
    endloop
  endfacet
  facet normal 0 -0 1
    outer loop
      vertex 8.06581 -3.19348 127
      vertex 7.60196 -4.17921 127
      vertex 9.27418 -2.38121 127
    endloop
  endfacet
  facet normal 0 -0 1
    outer loop
      vertex 8.40246 -2.15739 127
      vertex 8.06581 -3.19348 127
      vertex 9.4995 -1.20007 127
    endloop
  endfacet
  facet normal 0 -0 1
    outer loop
      vertex 8.675 0 127
      vertex 8.6066 -1.08727 127
      vertex 9.575 0 127
    endloop
  endfacet
  facet normal 0 0 1
    outer loop
      vertex 8.6066 1.08727 127
      vertex 8.675 0 127
      vertex 9.4995 1.20007 127
    endloop
  endfacet
  facet normal 0 0 1
    outer loop
      vertex 8.40246 2.15739 127
      vertex 8.6066 1.08727 127
      vertex 9.27418 2.38121 127
    endloop
  endfacet
  facet normal 0 0 1
    outer loop
      vertex 8.06581 3.19348 127
      vertex 8.40246 2.15739 127
      vertex 8.90261 3.52479 127
    endloop
  endfacet
  facet normal 0 0 1
    outer loop
      vertex 7.60196 4.17921 127
      vertex 8.06581 3.19348 127
      vertex 8.39064 4.61279 127
    endloop
  endfacet
  facet normal 0 0 1
    outer loop
      vertex 7.01822 5.09904 127
      vertex 7.60196 4.17921 127
      vertex 7.74634 5.62804 127
    endloop
  endfacet
  facet normal 0 0 1
    outer loop
      vertex 6.3238 5.93845 127
      vertex 7.01822 5.09904 127
      vertex 6.97987 6.55454 127
    endloop
  endfacet
  facet normal 0 0 1
    outer loop
      vertex 5.52965 6.6842 127
      vertex 6.3238 5.93845 127
      vertex 6.10333 7.37766 127
    endloop
  endfacet
  facet normal 0 0 1
    outer loop
      vertex 4.6483 7.32454 127
      vertex 5.52965 6.6842 127
      vertex 5.13054 8.08444 127
    endloop
  endfacet
  facet normal 0 0 1
    outer loop
      vertex 3.69364 7.84937 127
      vertex 4.6483 7.32454 127
      vertex 4.07684 8.66372 127
    endloop
  endfacet
  facet normal 0 0 1
    outer loop
      vertex 2.68072 8.25042 127
      vertex 3.69364 7.84937 127
      vertex 2.95884 9.10637 127
    endloop
  endfacet
  facet normal 0 0 1
    outer loop
      vertex 1.62553 8.52134 127
      vertex 2.68072 8.25042 127
      vertex 1.79418 9.4054 127
    endloop
  endfacet
  facet normal 0 0 1
    outer loop
      vertex 0.544708 8.65788 127
      vertex 1.62553 8.52134 127
      vertex 0.601219 9.55611 127
    endloop
  endfacet
  facet normal 0 0 1
    outer loop
      vertex 0 9.55611 127
      vertex 0.544708 8.65788 127
      vertex 0.601219 9.55611 127
    endloop
  endfacet
  facet normal 0 0 1
    outer loop
      vertex 0.601219 9.55611 127
      vertex 1.62553 8.52134 127
      vertex 1.79418 9.4054 127
    endloop
  endfacet
  facet normal 0 0 1
    outer loop
      vertex 1.79418 9.4054 127
      vertex 2.68072 8.25042 127
      vertex 2.95884 9.10637 127
    endloop
  endfacet
  facet normal 0 0 1
    outer loop
      vertex 2.95884 9.10637 127
      vertex 3.69364 7.84937 127
      vertex 4.07684 8.66372 127
    endloop
  endfacet
  facet normal 0 0 1
    outer loop
      vertex 4.07684 8.66372 127
      vertex 4.6483 7.32454 127
      vertex 5.13054 8.08444 127
    endloop
  endfacet
  facet normal 0 0 1
    outer loop
      vertex 5.13054 8.08444 127
      vertex 5.52965 6.6842 127
      vertex 6.10333 7.37766 127
    endloop
  endfacet
  facet normal 0 0 1
    outer loop
      vertex 6.10333 7.37766 127
      vertex 6.3238 5.93845 127
      vertex 6.97987 6.55454 127
    endloop
  endfacet
  facet normal 0 0 1
    outer loop
      vertex 6.97987 6.55454 127
      vertex 7.01822 5.09904 127
      vertex 7.74634 5.62804 127
    endloop
  endfacet
  facet normal 0 -0 1
    outer loop
      vertex 7.74634 5.62804 127
      vertex 7.60196 4.17921 127
      vertex 8.39064 4.61279 127
    endloop
  endfacet
  facet normal 0 -0 1
    outer loop
      vertex 8.39064 4.61279 127
      vertex 8.06581 3.19348 127
      vertex 8.90261 3.52479 127
    endloop
  endfacet
  facet normal 0 -0 1
    outer loop
      vertex 8.90261 3.52479 127
      vertex 8.40246 2.15739 127
      vertex 9.27418 2.38121 127
    endloop
  endfacet
  facet normal 0 -0 1
    outer loop
      vertex 9.27418 2.38121 127
      vertex 8.6066 1.08727 127
      vertex 9.4995 1.20007 127
    endloop
  endfacet
  facet normal 0 -0 1
    outer loop
      vertex 9.4995 1.20007 127
      vertex 8.675 0 127
      vertex 9.575 0 127
    endloop
  endfacet
  facet normal 0 0 1
    outer loop
      vertex 9.575 0 127
      vertex 8.6066 -1.08727 127
      vertex 9.4995 -1.20007 127
    endloop
  endfacet
  facet normal 0 -0 1
    outer loop
      vertex 8.6066 -1.08727 127
      vertex 8.40246 -2.15739 127
      vertex 9.4995 -1.20007 127
    endloop
  endfacet
  facet normal 0 0 1
    outer loop
      vertex 9.4995 -1.20007 127
      vertex 8.06581 -3.19348 127
      vertex 9.27418 -2.38121 127
    endloop
  endfacet
  facet normal 0 0 1
    outer loop
      vertex 9.27418 -2.38121 127
      vertex 7.60196 -4.17921 127
      vertex 8.90261 -3.52479 127
    endloop
  endfacet
  facet normal 0 0 1
    outer loop
      vertex 8.90261 -3.52479 127
      vertex 7.01822 -5.09904 127
      vertex 8.39064 -4.61279 127
    endloop
  endfacet
  facet normal 0 0 1
    outer loop
      vertex 8.39064 -4.61279 127
      vertex 6.3238 -5.93845 127
      vertex 7.74634 -5.62804 127
    endloop
  endfacet
  facet normal 0 -0 1
    outer loop
      vertex 6.3238 -5.93845 127
      vertex 5.52965 -6.6842 127
      vertex 7.74634 -5.62804 127
    endloop
  endfacet
  facet normal 0 -0 1
    outer loop
      vertex 5.52965 -6.6842 127
      vertex 4.6483 -7.32454 127
      vertex 7.74634 -5.62804 127
    endloop
  endfacet
  facet normal 0 -0 1
    outer loop
      vertex 3.69364 -7.84937 127
      vertex 0.601219 -9.55611 127
      vertex 4.6483 -7.32454 127
    endloop
  endfacet
  facet normal 0 0 1
    outer loop
      vertex 0 -8.65788 127
      vertex 0.601219 -9.55611 127
      vertex 0.544708 -8.65788 127
    endloop
  endfacet
  facet normal 0 0 1
    outer loop
      vertex 0 -9.55611 127
      vertex 0.601219 -9.55611 127
      vertex 0 -8.65788 127
    endloop
  endfacet
  facet normal 0 0 1
    outer loop
      vertex 0 8.65788 127
      vertex 0.544708 8.65788 127
      vertex 0 9.55611 127
    endloop
  endfacet
  facet normal 0 0 1
    outer loop
      vertex 2.68072 -8.25042 127
      vertex 1.62553 -8.52134 127
      vertex 0.601219 -9.55611 127
    endloop
  endfacet
  facet normal 0 0 1
    outer loop
      vertex 1.62553 -8.52134 127
      vertex 0.544708 -8.65788 127
      vertex 0.601219 -9.55611 127
    endloop
  endfacet
  facet normal 0 1 0
    outer loop
      vertex 0.601219 -9.55611 128
      vertex 0.601219 -9.55611 127
      vertex 0 -9.55611 128
    endloop
  endfacet
  facet normal 0 1 -0
    outer loop
      vertex 0 -9.55611 128
      vertex 0.601219 -9.55611 127
      vertex 0 -9.55611 127
    endloop
  endfacet
  facet normal 0 -0 -1
    outer loop
      vertex 5.13054 -8.08444 128
      vertex 1.62553 -8.52134 128
      vertex 6.10333 -7.37766 128
    endloop
  endfacet
  facet normal 0 -0 -1
    outer loop
      vertex 6.10333 -7.37766 128
      vertex 2.68072 -8.25042 128
      vertex 6.97987 -6.55454 128
    endloop
  endfacet
  facet normal 0 -0 -1
    outer loop
      vertex 6.97987 -6.55454 128
      vertex 3.69364 -7.84937 128
      vertex 7.74634 -5.62804 128
    endloop
  endfacet
  facet normal 0 -0 -1
    outer loop
      vertex 7.74634 -5.62804 128
      vertex 4.6483 -7.32454 128
      vertex 8.39064 -4.61279 128
    endloop
  endfacet
  facet normal 0 -0 -1
    outer loop
      vertex 8.39064 -4.61279 128
      vertex 5.52965 -6.6842 128
      vertex 8.90261 -3.52479 128
    endloop
  endfacet
  facet normal 0 -0 -1
    outer loop
      vertex 8.90261 -3.52479 128
      vertex 6.3238 -5.93845 128
      vertex 9.27418 -2.38121 128
    endloop
  endfacet
  facet normal 0 -0 -1
    outer loop
      vertex 9.27418 -2.38121 128
      vertex 7.01822 -5.09904 128
      vertex 9.4995 -1.20007 128
    endloop
  endfacet
  facet normal 0 -0 -1
    outer loop
      vertex 9.4995 -1.20007 128
      vertex 7.60196 -4.17921 128
      vertex 9.575 0 128
    endloop
  endfacet
  facet normal 0 0 -1
    outer loop
      vertex 9.575 0 128
      vertex 8.06581 -3.19348 128
      vertex 9.4995 1.20007 128
    endloop
  endfacet
  facet normal 0 0 -1
    outer loop
      vertex 9.4995 1.20007 128
      vertex 8.40246 -2.15739 128
      vertex 9.27418 2.38121 128
    endloop
  endfacet
  facet normal 0 0 -1
    outer loop
      vertex 9.27418 2.38121 128
      vertex 8.6066 -1.08727 128
      vertex 8.90261 3.52479 128
    endloop
  endfacet
  facet normal 0 0 -1
    outer loop
      vertex 8.90261 3.52479 128
      vertex 8.675 0 128
      vertex 8.39064 4.61279 128
    endloop
  endfacet
  facet normal 0 0 -1
    outer loop
      vertex 8.39064 4.61279 128
      vertex 8.6066 1.08727 128
      vertex 7.74634 5.62804 128
    endloop
  endfacet
  facet normal 0 0 -1
    outer loop
      vertex 7.74634 5.62804 128
      vertex 8.40246 2.15739 128
      vertex 6.97987 6.55454 128
    endloop
  endfacet
  facet normal 0 0 -1
    outer loop
      vertex 6.97987 6.55454 128
      vertex 8.06581 3.19348 128
      vertex 6.10333 7.37766 128
    endloop
  endfacet
  facet normal 0 0 -1
    outer loop
      vertex 6.10333 7.37766 128
      vertex 7.60196 4.17921 128
      vertex 5.13054 8.08444 128
    endloop
  endfacet
  facet normal 0 0 -1
    outer loop
      vertex 5.13054 8.08444 128
      vertex 7.01822 5.09904 128
      vertex 4.07684 8.66372 128
    endloop
  endfacet
  facet normal 0 0 -1
    outer loop
      vertex 4.07684 8.66372 128
      vertex 6.3238 5.93845 128
      vertex 2.95884 9.10637 128
    endloop
  endfacet
  facet normal 0 0 -1
    outer loop
      vertex 2.95884 9.10637 128
      vertex 5.52965 6.6842 128
      vertex 1.79418 9.4054 128
    endloop
  endfacet
  facet normal 0 0 -1
    outer loop
      vertex 1.79418 9.4054 128
      vertex 4.6483 7.32454 128
      vertex 0.601219 9.55611 128
    endloop
  endfacet
  facet normal 0 0 -1
    outer loop
      vertex 0.601219 9.55611 128
      vertex 3.69364 7.84937 128
      vertex 0 9.55611 128
    endloop
  endfacet
  facet normal 0 0 -1
    outer loop
      vertex 3.69364 7.84937 128
      vertex 2.68072 8.25042 128
      vertex 0 9.55611 128
    endloop
  endfacet
  facet normal 0 0 -1
    outer loop
      vertex 2.68072 8.25042 128
      vertex 1.62553 8.52134 128
      vertex 0 9.55611 128
    endloop
  endfacet
  facet normal 0 0 -1
    outer loop
      vertex 0 9.55611 128
      vertex 0.544708 8.65788 128
      vertex 0 8.65788 128
    endloop
  endfacet
  facet normal 0 0 -1
    outer loop
      vertex 1.62553 8.52134 128
      vertex 0.544708 8.65788 128
      vertex 0 9.55611 128
    endloop
  endfacet
  facet normal 0 0 -1
    outer loop
      vertex 4.6483 7.32454 128
      vertex 3.69364 7.84937 128
      vertex 0.601219 9.55611 128
    endloop
  endfacet
  facet normal 0 0 -1
    outer loop
      vertex 5.52965 6.6842 128
      vertex 4.6483 7.32454 128
      vertex 1.79418 9.4054 128
    endloop
  endfacet
  facet normal 0 0 -1
    outer loop
      vertex 6.3238 5.93845 128
      vertex 5.52965 6.6842 128
      vertex 2.95884 9.10637 128
    endloop
  endfacet
  facet normal 0 0 -1
    outer loop
      vertex 7.01822 5.09904 128
      vertex 6.3238 5.93845 128
      vertex 4.07684 8.66372 128
    endloop
  endfacet
  facet normal 0 0 -1
    outer loop
      vertex 7.60196 4.17921 128
      vertex 7.01822 5.09904 128
      vertex 5.13054 8.08444 128
    endloop
  endfacet
  facet normal 0 0 -1
    outer loop
      vertex 8.06581 3.19348 128
      vertex 7.60196 4.17921 128
      vertex 6.10333 7.37766 128
    endloop
  endfacet
  facet normal 0 0 -1
    outer loop
      vertex 8.40246 2.15739 128
      vertex 8.06581 3.19348 128
      vertex 6.97987 6.55454 128
    endloop
  endfacet
  facet normal 0 0 -1
    outer loop
      vertex 8.6066 1.08727 128
      vertex 8.40246 2.15739 128
      vertex 7.74634 5.62804 128
    endloop
  endfacet
  facet normal 0 0 -1
    outer loop
      vertex 8.675 0 128
      vertex 8.6066 1.08727 128
      vertex 8.39064 4.61279 128
    endloop
  endfacet
  facet normal 0 0 -1
    outer loop
      vertex 8.6066 -1.08727 128
      vertex 8.675 0 128
      vertex 8.90261 3.52479 128
    endloop
  endfacet
  facet normal 0 0 -1
    outer loop
      vertex 8.40246 -2.15739 128
      vertex 8.6066 -1.08727 128
      vertex 9.27418 2.38121 128
    endloop
  endfacet
  facet normal 0 0 -1
    outer loop
      vertex 8.06581 -3.19348 128
      vertex 8.40246 -2.15739 128
      vertex 9.4995 1.20007 128
    endloop
  endfacet
  facet normal 0 0 -1
    outer loop
      vertex 7.60196 -4.17921 128
      vertex 8.06581 -3.19348 128
      vertex 9.575 0 128
    endloop
  endfacet
  facet normal 0 0 -1
    outer loop
      vertex 7.01822 -5.09904 128
      vertex 7.60196 -4.17921 128
      vertex 9.4995 -1.20007 128
    endloop
  endfacet
  facet normal 0 0 -1
    outer loop
      vertex 6.3238 -5.93845 128
      vertex 7.01822 -5.09904 128
      vertex 9.27418 -2.38121 128
    endloop
  endfacet
  facet normal 0 0 -1
    outer loop
      vertex 5.52965 -6.6842 128
      vertex 6.3238 -5.93845 128
      vertex 8.90261 -3.52479 128
    endloop
  endfacet
  facet normal 0 0 -1
    outer loop
      vertex 4.6483 -7.32454 128
      vertex 5.52965 -6.6842 128
      vertex 8.39064 -4.61279 128
    endloop
  endfacet
  facet normal 0 0 -1
    outer loop
      vertex 3.69364 -7.84937 128
      vertex 4.6483 -7.32454 128
      vertex 7.74634 -5.62804 128
    endloop
  endfacet
  facet normal 0 0 -1
    outer loop
      vertex 2.68072 -8.25042 128
      vertex 3.69364 -7.84937 128
      vertex 6.97987 -6.55454 128
    endloop
  endfacet
  facet normal 0 0 -1
    outer loop
      vertex 1.62553 -8.52134 128
      vertex 2.68072 -8.25042 128
      vertex 6.10333 -7.37766 128
    endloop
  endfacet
  facet normal 0 0 -1
    outer loop
      vertex 0.544708 -8.65788 128
      vertex 1.62553 -8.52134 128
      vertex 5.13054 -8.08444 128
    endloop
  endfacet
  facet normal -0 0 -1
    outer loop
      vertex 0.544708 -8.65788 128
      vertex 5.13054 -8.08444 128
      vertex 4.07684 -8.66372 128
    endloop
  endfacet
  facet normal 0 0 -1
    outer loop
      vertex 0.544708 -8.65788 128
      vertex 4.07684 -8.66372 128
      vertex 0 -8.65788 128
    endloop
  endfacet
  facet normal 0 0 -1
    outer loop
      vertex 4.07684 -8.66372 128
      vertex 2.95884 -9.10637 128
      vertex 0 -8.65788 128
    endloop
  endfacet
  facet normal 0 0 -1
    outer loop
      vertex 2.95884 -9.10637 128
      vertex 1.79418 -9.4054 128
      vertex 0 -8.65788 128
    endloop
  endfacet
  facet normal 0 0 -1
    outer loop
      vertex 1.79418 -9.4054 128
      vertex 0.601219 -9.55611 128
      vertex 0 -8.65788 128
    endloop
  endfacet
  facet normal 0 0 -1
    outer loop
      vertex 0.601219 -9.55611 128
      vertex 0 -9.55611 128
      vertex 0 -8.65788 128
    endloop
  endfacet
  facet normal 0 1 0
    outer loop
      vertex 0.544708 -8.65788 141.15
      vertex 0.544708 -8.65788 128
      vertex 0 -8.65788 141.15
    endloop
  endfacet
  facet normal 0 1 -0
    outer loop
      vertex 0 -8.65788 141.15
      vertex 0.544708 -8.65788 128
      vertex 0 -8.65788 128
    endloop
  endfacet
  facet normal 0 -0 1
    outer loop
      vertex 0 -8.65788 141.15
      vertex 0 -11.575 141.15
      vertex 11.575 -11.575 141.15
    endloop
  endfacet
  facet normal 0 0 1
    outer loop
      vertex 8.6066 1.08727 141.15
      vertex 8.675 0 141.15
      vertex 11.575 -11.575 141.15
    endloop
  endfacet
  facet normal 0 -0 1
    outer loop
      vertex 0.544708 -8.65788 141.15
      vertex 0 -8.65788 141.15
      vertex 11.575 -11.575 141.15
    endloop
  endfacet
  facet normal 0 -0 1
    outer loop
      vertex 0 11.575 141.15
      vertex 0 8.65788 141.15
      vertex 11.575 11.575 141.15
    endloop
  endfacet
  facet normal 0 0 1
    outer loop
      vertex 0 8.65788 141.15
      vertex 0.544708 8.65788 141.15
      vertex 11.575 11.575 141.15
    endloop
  endfacet
  facet normal 0 0 1
    outer loop
      vertex 0.544708 8.65788 141.15
      vertex 1.62553 8.52134 141.15
      vertex 11.575 11.575 141.15
    endloop
  endfacet
  facet normal 0 0 1
    outer loop
      vertex 1.62553 8.52134 141.15
      vertex 2.68072 8.25042 141.15
      vertex 11.575 11.575 141.15
    endloop
  endfacet
  facet normal 0 0 1
    outer loop
      vertex 2.68072 8.25042 141.15
      vertex 3.69364 7.84937 141.15
      vertex 11.575 11.575 141.15
    endloop
  endfacet
  facet normal 0 0 1
    outer loop
      vertex 3.69364 7.84937 141.15
      vertex 4.6483 7.32454 141.15
      vertex 11.575 11.575 141.15
    endloop
  endfacet
  facet normal 0 0 1
    outer loop
      vertex 4.6483 7.32454 141.15
      vertex 5.52965 6.6842 141.15
      vertex 11.575 11.575 141.15
    endloop
  endfacet
  facet normal 0 0 1
    outer loop
      vertex 5.52965 6.6842 141.15
      vertex 6.3238 5.93845 141.15
      vertex 11.575 11.575 141.15
    endloop
  endfacet
  facet normal 0 0 1
    outer loop
      vertex 6.3238 5.93845 141.15
      vertex 7.01822 5.09904 141.15
      vertex 11.575 11.575 141.15
    endloop
  endfacet
  facet normal 0 -0 1
    outer loop
      vertex 8.675 0 141.15
      vertex 8.6066 -1.08727 141.15
      vertex 11.575 -11.575 141.15
    endloop
  endfacet
  facet normal 0 0 1
    outer loop
      vertex 11.575 11.575 141.15
      vertex 7.60196 4.17921 141.15
      vertex 8.06581 3.19348 141.15
    endloop
  endfacet
  facet normal 0 0 1
    outer loop
      vertex 11.575 11.575 141.15
      vertex 8.40246 2.15739 141.15
      vertex 11.575 -11.575 141.15
    endloop
  endfacet
  facet normal 0 0 1
    outer loop
      vertex 11.575 11.575 141.15
      vertex 8.06581 3.19348 141.15
      vertex 8.40246 2.15739 141.15
    endloop
  endfacet
  facet normal 0 0 1
    outer loop
      vertex 8.40246 2.15739 141.15
      vertex 8.6066 1.08727 141.15
      vertex 11.575 -11.575 141.15
    endloop
  endfacet
  facet normal 0 -0 1
    outer loop
      vertex 8.6066 -1.08727 141.15
      vertex 8.40246 -2.15739 141.15
      vertex 11.575 -11.575 141.15
    endloop
  endfacet
  facet normal 0 -0 1
    outer loop
      vertex 8.40246 -2.15739 141.15
      vertex 8.06581 -3.19348 141.15
      vertex 11.575 -11.575 141.15
    endloop
  endfacet
  facet normal 0 -0 1
    outer loop
      vertex 8.06581 -3.19348 141.15
      vertex 7.60196 -4.17921 141.15
      vertex 11.575 -11.575 141.15
    endloop
  endfacet
  facet normal 0 -0 1
    outer loop
      vertex 7.60196 -4.17921 141.15
      vertex 7.01822 -5.09904 141.15
      vertex 11.575 -11.575 141.15
    endloop
  endfacet
  facet normal 0 -0 1
    outer loop
      vertex 7.01822 -5.09904 141.15
      vertex 6.3238 -5.93845 141.15
      vertex 11.575 -11.575 141.15
    endloop
  endfacet
  facet normal 0 -0 1
    outer loop
      vertex 6.3238 -5.93845 141.15
      vertex 5.52965 -6.6842 141.15
      vertex 11.575 -11.575 141.15
    endloop
  endfacet
  facet normal 0 -0 1
    outer loop
      vertex 5.52965 -6.6842 141.15
      vertex 4.6483 -7.32454 141.15
      vertex 11.575 -11.575 141.15
    endloop
  endfacet
  facet normal 0 -0 1
    outer loop
      vertex 4.6483 -7.32454 141.15
      vertex 3.69364 -7.84937 141.15
      vertex 11.575 -11.575 141.15
    endloop
  endfacet
  facet normal 0 -0 1
    outer loop
      vertex 3.69364 -7.84937 141.15
      vertex 2.68072 -8.25042 141.15
      vertex 11.575 -11.575 141.15
    endloop
  endfacet
  facet normal 0 -0 1
    outer loop
      vertex 2.68072 -8.25042 141.15
      vertex 1.62553 -8.52134 141.15
      vertex 11.575 -11.575 141.15
    endloop
  endfacet
  facet normal 0 -0 1
    outer loop
      vertex 1.62553 -8.52134 141.15
      vertex 0.544708 -8.65788 141.15
      vertex 11.575 -11.575 141.15
    endloop
  endfacet
  facet normal 0 0 1
    outer loop
      vertex 7.01822 5.09904 141.15
      vertex 7.60196 4.17921 141.15
      vertex 11.575 11.575 141.15
    endloop
  endfacet
  facet normal 0 -1 0
    outer loop
      vertex 0.544708 8.65788 128
      vertex 0.544708 8.65788 141.15
      vertex 0 8.65788 141.15
    endloop
  endfacet
  facet normal -0 -1 -0
    outer loop
      vertex 0 8.65788 128
      vertex 0.544708 8.65788 128
      vertex 0 8.65788 141.15
    endloop
  endfacet
  facet normal 0 -1 0
    outer loop
      vertex 0.601219 9.55611 127
      vertex 0.601219 9.55611 128
      vertex 0 9.55611 128
    endloop
  endfacet
  facet normal -0 -1 -0
    outer loop
      vertex 0 9.55611 127
      vertex 0.601219 9.55611 127
      vertex 0 9.55611 128
    endloop
  endfacet
  facet normal 0 -1 0
    outer loop
      vertex 0.544708 8.65788 3
      vertex 0.544708 8.65788 127
      vertex 0 8.65788 127
    endloop
  endfacet
  facet normal -0 -1 -0
    outer loop
      vertex 0 8.65788 3
      vertex 0.544708 8.65788 3
      vertex 0 8.65788 127
    endloop
  endfacet
  facet normal -0.125333 -0.992115 -0
    outer loop
      vertex 1.62553 8.52134 3
      vertex 1.62553 8.52134 127
      vertex 0.544708 8.65788 127
    endloop
  endfacet
  facet normal -0.125333 -0.992115 -0
    outer loop
      vertex 0.544708 8.65788 3
      vertex 1.62553 8.52134 3
      vertex 0.544708 8.65788 127
    endloop
  endfacet
  facet normal -0.24869 -0.968583 -0
    outer loop
      vertex 2.68072 8.25042 3
      vertex 2.68072 8.25042 127
      vertex 1.62553 8.52134 127
    endloop
  endfacet
  facet normal -0.24869 -0.968583 -0
    outer loop
      vertex 1.62553 8.52134 3
      vertex 2.68072 8.25042 3
      vertex 1.62553 8.52134 127
    endloop
  endfacet
  facet normal -0.368124 -0.929777 -0
    outer loop
      vertex 3.69364 7.84937 3
      vertex 3.69364 7.84937 127
      vertex 2.68072 8.25042 127
    endloop
  endfacet
  facet normal -0.368124 -0.929777 -0
    outer loop
      vertex 2.68072 8.25042 3
      vertex 3.69364 7.84937 3
      vertex 2.68072 8.25042 127
    endloop
  endfacet
  facet normal -0.481754 -0.876307 -0
    outer loop
      vertex 4.6483 7.32454 3
      vertex 4.6483 7.32454 127
      vertex 3.69364 7.84937 127
    endloop
  endfacet
  facet normal -0.481754 -0.876307 -0
    outer loop
      vertex 3.69364 7.84937 3
      vertex 4.6483 7.32454 3
      vertex 3.69364 7.84937 127
    endloop
  endfacet
  facet normal -0.587785 -0.809017 -0
    outer loop
      vertex 5.52965 6.6842 3
      vertex 5.52965 6.6842 127
      vertex 4.6483 7.32454 127
    endloop
  endfacet
  facet normal -0.587785 -0.809017 -0
    outer loop
      vertex 4.6483 7.32454 3
      vertex 5.52965 6.6842 3
      vertex 4.6483 7.32454 127
    endloop
  endfacet
  facet normal -0.684547 -0.728969 -0
    outer loop
      vertex 6.3238 5.93845 3
      vertex 6.3238 5.93845 127
      vertex 5.52965 6.6842 127
    endloop
  endfacet
  facet normal -0.684547 -0.728969 -0
    outer loop
      vertex 5.52965 6.6842 3
      vertex 6.3238 5.93845 3
      vertex 5.52965 6.6842 127
    endloop
  endfacet
  facet normal -0.770513 -0.637424 0
    outer loop
      vertex 7.01822 5.09904 127
      vertex 6.3238 5.93845 127
      vertex 7.01822 5.09904 3
    endloop
  endfacet
  facet normal -0.770513 -0.637424 0
    outer loop
      vertex 7.01822 5.09904 3
      vertex 6.3238 5.93845 127
      vertex 6.3238 5.93845 3
    endloop
  endfacet
  facet normal -0.844328 -0.535827 0
    outer loop
      vertex 7.60196 4.17921 127
      vertex 7.01822 5.09904 127
      vertex 7.60196 4.17921 3
    endloop
  endfacet
  facet normal -0.844328 -0.535827 0
    outer loop
      vertex 7.60196 4.17921 3
      vertex 7.01822 5.09904 127
      vertex 7.01822 5.09904 3
    endloop
  endfacet
  facet normal -0.904827 -0.425779 0
    outer loop
      vertex 8.06581 3.19348 127
      vertex 7.60196 4.17921 127
      vertex 8.06581 3.19348 3
    endloop
  endfacet
  facet normal -0.904827 -0.425779 0
    outer loop
      vertex 8.06581 3.19348 3
      vertex 7.60196 4.17921 127
      vertex 7.60196 4.17921 3
    endloop
  endfacet
  facet normal -0.951056 -0.309017 0
    outer loop
      vertex 8.40246 2.15739 127
      vertex 8.06581 3.19348 127
      vertex 8.40246 2.15739 3
    endloop
  endfacet
  facet normal -0.951056 -0.309017 0
    outer loop
      vertex 8.40246 2.15739 3
      vertex 8.06581 3.19348 127
      vertex 8.06581 3.19348 3
    endloop
  endfacet
  facet normal -0.982287 -0.187381 0
    outer loop
      vertex 8.6066 1.08727 127
      vertex 8.40246 2.15739 127
      vertex 8.6066 1.08727 3
    endloop
  endfacet
  facet normal -0.982287 -0.187381 0
    outer loop
      vertex 8.6066 1.08727 3
      vertex 8.40246 2.15739 127
      vertex 8.40246 2.15739 3
    endloop
  endfacet
  facet normal -0.998027 -0.0627905 0
    outer loop
      vertex 8.675 0 127
      vertex 8.6066 1.08727 127
      vertex 8.675 0 3
    endloop
  endfacet
  facet normal -0.998027 -0.0627905 0
    outer loop
      vertex 8.675 0 3
      vertex 8.6066 1.08727 127
      vertex 8.6066 1.08727 3
    endloop
  endfacet
  facet normal -0.998027 0.0627905 0
    outer loop
      vertex 8.675 0 127
      vertex 8.675 0 3
      vertex 8.6066 -1.08727 127
    endloop
  endfacet
  facet normal -0.998027 0.0627905 0
    outer loop
      vertex 8.6066 -1.08727 127
      vertex 8.675 0 3
      vertex 8.6066 -1.08727 3
    endloop
  endfacet
  facet normal -0.982287 0.187381 0
    outer loop
      vertex 8.6066 -1.08727 127
      vertex 8.6066 -1.08727 3
      vertex 8.40246 -2.15739 127
    endloop
  endfacet
  facet normal -0.982287 0.187381 0
    outer loop
      vertex 8.40246 -2.15739 127
      vertex 8.6066 -1.08727 3
      vertex 8.40246 -2.15739 3
    endloop
  endfacet
  facet normal -0.951056 0.309017 0
    outer loop
      vertex 8.40246 -2.15739 127
      vertex 8.40246 -2.15739 3
      vertex 8.06581 -3.19348 127
    endloop
  endfacet
  facet normal -0.951056 0.309017 0
    outer loop
      vertex 8.06581 -3.19348 127
      vertex 8.40246 -2.15739 3
      vertex 8.06581 -3.19348 3
    endloop
  endfacet
  facet normal -0.904827 0.425779 0
    outer loop
      vertex 8.06581 -3.19348 127
      vertex 8.06581 -3.19348 3
      vertex 7.60196 -4.17921 127
    endloop
  endfacet
  facet normal -0.904827 0.425779 0
    outer loop
      vertex 7.60196 -4.17921 127
      vertex 8.06581 -3.19348 3
      vertex 7.60196 -4.17921 3
    endloop
  endfacet
  facet normal -0.844328 0.535827 0
    outer loop
      vertex 7.60196 -4.17921 127
      vertex 7.60196 -4.17921 3
      vertex 7.01822 -5.09904 127
    endloop
  endfacet
  facet normal -0.844328 0.535827 0
    outer loop
      vertex 7.01822 -5.09904 127
      vertex 7.60196 -4.17921 3
      vertex 7.01822 -5.09904 3
    endloop
  endfacet
  facet normal -0.770513 0.637424 0
    outer loop
      vertex 7.01822 -5.09904 127
      vertex 7.01822 -5.09904 3
      vertex 6.3238 -5.93845 127
    endloop
  endfacet
  facet normal -0.770513 0.637424 0
    outer loop
      vertex 6.3238 -5.93845 127
      vertex 7.01822 -5.09904 3
      vertex 6.3238 -5.93845 3
    endloop
  endfacet
  facet normal -0.684547 0.728969 0
    outer loop
      vertex 6.3238 -5.93845 127
      vertex 6.3238 -5.93845 3
      vertex 5.52965 -6.6842 127
    endloop
  endfacet
  facet normal -0.684547 0.728969 0
    outer loop
      vertex 5.52965 -6.6842 127
      vertex 6.3238 -5.93845 3
      vertex 5.52965 -6.6842 3
    endloop
  endfacet
  facet normal -0.587785 0.809017 0
    outer loop
      vertex 5.52965 -6.6842 127
      vertex 5.52965 -6.6842 3
      vertex 4.6483 -7.32454 127
    endloop
  endfacet
  facet normal -0.587785 0.809017 0
    outer loop
      vertex 4.6483 -7.32454 127
      vertex 5.52965 -6.6842 3
      vertex 4.6483 -7.32454 3
    endloop
  endfacet
  facet normal -0.481754 0.876307 0
    outer loop
      vertex 4.6483 -7.32454 127
      vertex 4.6483 -7.32454 3
      vertex 3.69364 -7.84937 127
    endloop
  endfacet
  facet normal -0.481754 0.876307 0
    outer loop
      vertex 3.69364 -7.84937 127
      vertex 4.6483 -7.32454 3
      vertex 3.69364 -7.84937 3
    endloop
  endfacet
  facet normal -0.368124 0.929777 0
    outer loop
      vertex 3.69364 -7.84937 127
      vertex 3.69364 -7.84937 3
      vertex 2.68072 -8.25042 127
    endloop
  endfacet
  facet normal -0.368124 0.929777 0
    outer loop
      vertex 2.68072 -8.25042 127
      vertex 3.69364 -7.84937 3
      vertex 2.68072 -8.25042 3
    endloop
  endfacet
  facet normal -0.24869 0.968583 0
    outer loop
      vertex 2.68072 -8.25042 127
      vertex 2.68072 -8.25042 3
      vertex 1.62553 -8.52134 127
    endloop
  endfacet
  facet normal -0.24869 0.968583 0
    outer loop
      vertex 1.62553 -8.52134 127
      vertex 2.68072 -8.25042 3
      vertex 1.62553 -8.52134 3
    endloop
  endfacet
  facet normal -0.125333 0.992115 0
    outer loop
      vertex 1.62553 -8.52134 127
      vertex 1.62553 -8.52134 3
      vertex 0.544708 -8.65788 127
    endloop
  endfacet
  facet normal -0.125333 0.992115 0
    outer loop
      vertex 0.544708 -8.65788 127
      vertex 1.62553 -8.52134 3
      vertex 0.544708 -8.65788 3
    endloop
  endfacet
  facet normal -0.125334 0.992115 0
    outer loop
      vertex 1.79418 -9.4054 128
      vertex 1.79418 -9.4054 127
      vertex 0.601219 -9.55611 128
    endloop
  endfacet
  facet normal -0.125334 0.992115 0
    outer loop
      vertex 0.601219 -9.55611 128
      vertex 1.79418 -9.4054 127
      vertex 0.601219 -9.55611 127
    endloop
  endfacet
  facet normal -0.125334 -0.992115 -0
    outer loop
      vertex 1.79418 9.4054 127
      vertex 1.79418 9.4054 128
      vertex 0.601219 9.55611 128
    endloop
  endfacet
  facet normal -0.125334 -0.992115 -0
    outer loop
      vertex 0.601219 9.55611 127
      vertex 1.79418 9.4054 127
      vertex 0.601219 9.55611 128
    endloop
  endfacet
  facet normal -0.24869 -0.968583 -0
    outer loop
      vertex 2.95884 9.10637 127
      vertex 2.95884 9.10637 128
      vertex 1.79418 9.4054 128
    endloop
  endfacet
  facet normal -0.24869 -0.968583 -0
    outer loop
      vertex 1.79418 9.4054 127
      vertex 2.95884 9.10637 127
      vertex 1.79418 9.4054 128
    endloop
  endfacet
  facet normal -0.368124 -0.929777 -0
    outer loop
      vertex 4.07684 8.66372 127
      vertex 4.07684 8.66372 128
      vertex 2.95884 9.10637 128
    endloop
  endfacet
  facet normal -0.368124 -0.929777 -0
    outer loop
      vertex 2.95884 9.10637 127
      vertex 4.07684 8.66372 127
      vertex 2.95884 9.10637 128
    endloop
  endfacet
  facet normal -0.481754 -0.876307 -0
    outer loop
      vertex 5.13054 8.08444 127
      vertex 5.13054 8.08444 128
      vertex 4.07684 8.66372 128
    endloop
  endfacet
  facet normal -0.481754 -0.876307 -0
    outer loop
      vertex 4.07684 8.66372 127
      vertex 5.13054 8.08444 127
      vertex 4.07684 8.66372 128
    endloop
  endfacet
  facet normal -0.587786 -0.809017 -0
    outer loop
      vertex 6.10333 7.37766 127
      vertex 6.10333 7.37766 128
      vertex 5.13054 8.08444 128
    endloop
  endfacet
  facet normal -0.587786 -0.809017 -0
    outer loop
      vertex 5.13054 8.08444 127
      vertex 6.10333 7.37766 127
      vertex 5.13054 8.08444 128
    endloop
  endfacet
  facet normal -0.684547 -0.728969 -0
    outer loop
      vertex 6.97987 6.55454 127
      vertex 6.97987 6.55454 128
      vertex 6.10333 7.37766 128
    endloop
  endfacet
  facet normal -0.684547 -0.728969 -0
    outer loop
      vertex 6.10333 7.37766 127
      vertex 6.97987 6.55454 127
      vertex 6.10333 7.37766 128
    endloop
  endfacet
  facet normal -0.770513 -0.637424 0
    outer loop
      vertex 7.74634 5.62804 128
      vertex 6.97987 6.55454 128
      vertex 7.74634 5.62804 127
    endloop
  endfacet
  facet normal -0.770513 -0.637424 0
    outer loop
      vertex 7.74634 5.62804 127
      vertex 6.97987 6.55454 128
      vertex 6.97987 6.55454 127
    endloop
  endfacet
  facet normal -0.844328 -0.535826 0
    outer loop
      vertex 8.39064 4.61279 128
      vertex 7.74634 5.62804 128
      vertex 8.39064 4.61279 127
    endloop
  endfacet
  facet normal -0.844328 -0.535826 0
    outer loop
      vertex 8.39064 4.61279 127
      vertex 7.74634 5.62804 128
      vertex 7.74634 5.62804 127
    endloop
  endfacet
  facet normal -0.904827 -0.42578 0
    outer loop
      vertex 8.90261 3.52479 128
      vertex 8.39064 4.61279 128
      vertex 8.90261 3.52479 127
    endloop
  endfacet
  facet normal -0.904827 -0.42578 0
    outer loop
      vertex 8.90261 3.52479 127
      vertex 8.39064 4.61279 128
      vertex 8.39064 4.61279 127
    endloop
  endfacet
  facet normal -0.951057 -0.309017 0
    outer loop
      vertex 9.27418 2.38121 128
      vertex 8.90261 3.52479 128
      vertex 9.27418 2.38121 127
    endloop
  endfacet
  facet normal -0.951057 -0.309017 0
    outer loop
      vertex 9.27418 2.38121 127
      vertex 8.90261 3.52479 128
      vertex 8.90261 3.52479 127
    endloop
  endfacet
  facet normal -0.982287 -0.187381 0
    outer loop
      vertex 9.4995 1.20007 128
      vertex 9.27418 2.38121 128
      vertex 9.4995 1.20007 127
    endloop
  endfacet
  facet normal -0.982287 -0.187381 0
    outer loop
      vertex 9.4995 1.20007 127
      vertex 9.27418 2.38121 128
      vertex 9.27418 2.38121 127
    endloop
  endfacet
  facet normal -0.998027 -0.0627907 0
    outer loop
      vertex 9.575 0 128
      vertex 9.4995 1.20007 128
      vertex 9.575 0 127
    endloop
  endfacet
  facet normal -0.998027 -0.0627907 0
    outer loop
      vertex 9.575 0 127
      vertex 9.4995 1.20007 128
      vertex 9.4995 1.20007 127
    endloop
  endfacet
  facet normal -0.998027 0.0627907 0
    outer loop
      vertex 9.575 0 128
      vertex 9.575 0 127
      vertex 9.4995 -1.20007 128
    endloop
  endfacet
  facet normal -0.998027 0.0627907 0
    outer loop
      vertex 9.4995 -1.20007 128
      vertex 9.575 0 127
      vertex 9.4995 -1.20007 127
    endloop
  endfacet
  facet normal -0.982287 0.187381 0
    outer loop
      vertex 9.4995 -1.20007 128
      vertex 9.4995 -1.20007 127
      vertex 9.27418 -2.38121 128
    endloop
  endfacet
  facet normal -0.982287 0.187381 0
    outer loop
      vertex 9.27418 -2.38121 128
      vertex 9.4995 -1.20007 127
      vertex 9.27418 -2.38121 127
    endloop
  endfacet
  facet normal -0.951057 0.309017 0
    outer loop
      vertex 9.27418 -2.38121 128
      vertex 9.27418 -2.38121 127
      vertex 8.90261 -3.52479 128
    endloop
  endfacet
  facet normal -0.951057 0.309017 0
    outer loop
      vertex 8.90261 -3.52479 128
      vertex 9.27418 -2.38121 127
      vertex 8.90261 -3.52479 127
    endloop
  endfacet
  facet normal -0.904827 0.42578 0
    outer loop
      vertex 8.90261 -3.52479 128
      vertex 8.90261 -3.52479 127
      vertex 8.39064 -4.61279 128
    endloop
  endfacet
  facet normal -0.904827 0.42578 0
    outer loop
      vertex 8.39064 -4.61279 128
      vertex 8.90261 -3.52479 127
      vertex 8.39064 -4.61279 127
    endloop
  endfacet
  facet normal -0.844328 0.535826 0
    outer loop
      vertex 8.39064 -4.61279 128
      vertex 8.39064 -4.61279 127
      vertex 7.74634 -5.62804 128
    endloop
  endfacet
  facet normal -0.844328 0.535826 0
    outer loop
      vertex 7.74634 -5.62804 128
      vertex 8.39064 -4.61279 127
      vertex 7.74634 -5.62804 127
    endloop
  endfacet
  facet normal -0.770513 0.637424 0
    outer loop
      vertex 7.74634 -5.62804 128
      vertex 7.74634 -5.62804 127
      vertex 6.97987 -6.55454 128
    endloop
  endfacet
  facet normal -0.770513 0.637424 0
    outer loop
      vertex 6.97987 -6.55454 128
      vertex 7.74634 -5.62804 127
      vertex 6.97987 -6.55454 127
    endloop
  endfacet
  facet normal -0.684547 0.728969 0
    outer loop
      vertex 6.97987 -6.55454 128
      vertex 6.97987 -6.55454 127
      vertex 6.10333 -7.37766 128
    endloop
  endfacet
  facet normal -0.684547 0.728969 0
    outer loop
      vertex 6.10333 -7.37766 128
      vertex 6.97987 -6.55454 127
      vertex 6.10333 -7.37766 127
    endloop
  endfacet
  facet normal -0.587786 0.809017 0
    outer loop
      vertex 6.10333 -7.37766 128
      vertex 6.10333 -7.37766 127
      vertex 5.13054 -8.08444 128
    endloop
  endfacet
  facet normal -0.587786 0.809017 0
    outer loop
      vertex 5.13054 -8.08444 128
      vertex 6.10333 -7.37766 127
      vertex 5.13054 -8.08444 127
    endloop
  endfacet
  facet normal -0.481754 0.876307 0
    outer loop
      vertex 5.13054 -8.08444 128
      vertex 5.13054 -8.08444 127
      vertex 4.07684 -8.66372 128
    endloop
  endfacet
  facet normal -0.481754 0.876307 0
    outer loop
      vertex 4.07684 -8.66372 128
      vertex 5.13054 -8.08444 127
      vertex 4.07684 -8.66372 127
    endloop
  endfacet
  facet normal -0.368124 0.929777 0
    outer loop
      vertex 4.07684 -8.66372 128
      vertex 4.07684 -8.66372 127
      vertex 2.95884 -9.10637 128
    endloop
  endfacet
  facet normal -0.368124 0.929777 0
    outer loop
      vertex 2.95884 -9.10637 128
      vertex 4.07684 -8.66372 127
      vertex 2.95884 -9.10637 127
    endloop
  endfacet
  facet normal -0.24869 0.968583 0
    outer loop
      vertex 2.95884 -9.10637 128
      vertex 2.95884 -9.10637 127
      vertex 1.79418 -9.4054 128
    endloop
  endfacet
  facet normal -0.24869 0.968583 0
    outer loop
      vertex 1.79418 -9.4054 128
      vertex 2.95884 -9.10637 127
      vertex 1.79418 -9.4054 127
    endloop
  endfacet
  facet normal -0.125333 -0.992115 -0
    outer loop
      vertex 1.62553 8.52134 128
      vertex 1.62553 8.52134 141.15
      vertex 0.544708 8.65788 141.15
    endloop
  endfacet
  facet normal -0.125333 -0.992115 -0
    outer loop
      vertex 0.544708 8.65788 128
      vertex 1.62553 8.52134 128
      vertex 0.544708 8.65788 141.15
    endloop
  endfacet
  facet normal -0.24869 -0.968583 -0
    outer loop
      vertex 2.68072 8.25042 128
      vertex 2.68072 8.25042 141.15
      vertex 1.62553 8.52134 141.15
    endloop
  endfacet
  facet normal -0.24869 -0.968583 -0
    outer loop
      vertex 1.62553 8.52134 128
      vertex 2.68072 8.25042 128
      vertex 1.62553 8.52134 141.15
    endloop
  endfacet
  facet normal -0.368124 -0.929777 -0
    outer loop
      vertex 3.69364 7.84937 128
      vertex 3.69364 7.84937 141.15
      vertex 2.68072 8.25042 141.15
    endloop
  endfacet
  facet normal -0.368124 -0.929777 -0
    outer loop
      vertex 2.68072 8.25042 128
      vertex 3.69364 7.84937 128
      vertex 2.68072 8.25042 141.15
    endloop
  endfacet
  facet normal -0.481754 -0.876307 -0
    outer loop
      vertex 4.6483 7.32454 128
      vertex 4.6483 7.32454 141.15
      vertex 3.69364 7.84937 141.15
    endloop
  endfacet
  facet normal -0.481754 -0.876307 -0
    outer loop
      vertex 3.69364 7.84937 128
      vertex 4.6483 7.32454 128
      vertex 3.69364 7.84937 141.15
    endloop
  endfacet
  facet normal -0.587785 -0.809017 -0
    outer loop
      vertex 5.52965 6.6842 128
      vertex 5.52965 6.6842 141.15
      vertex 4.6483 7.32454 141.15
    endloop
  endfacet
  facet normal -0.587785 -0.809017 -0
    outer loop
      vertex 4.6483 7.32454 128
      vertex 5.52965 6.6842 128
      vertex 4.6483 7.32454 141.15
    endloop
  endfacet
  facet normal -0.684547 -0.728969 -0
    outer loop
      vertex 6.3238 5.93845 128
      vertex 6.3238 5.93845 141.15
      vertex 5.52965 6.6842 141.15
    endloop
  endfacet
  facet normal -0.684547 -0.728969 -0
    outer loop
      vertex 5.52965 6.6842 128
      vertex 6.3238 5.93845 128
      vertex 5.52965 6.6842 141.15
    endloop
  endfacet
  facet normal -0.770513 -0.637424 0
    outer loop
      vertex 7.01822 5.09904 141.15
      vertex 6.3238 5.93845 141.15
      vertex 7.01822 5.09904 128
    endloop
  endfacet
  facet normal -0.770513 -0.637424 0
    outer loop
      vertex 7.01822 5.09904 128
      vertex 6.3238 5.93845 141.15
      vertex 6.3238 5.93845 128
    endloop
  endfacet
  facet normal -0.844328 -0.535827 0
    outer loop
      vertex 7.60196 4.17921 141.15
      vertex 7.01822 5.09904 141.15
      vertex 7.60196 4.17921 128
    endloop
  endfacet
  facet normal -0.844328 -0.535827 0
    outer loop
      vertex 7.60196 4.17921 128
      vertex 7.01822 5.09904 141.15
      vertex 7.01822 5.09904 128
    endloop
  endfacet
  facet normal -0.904827 -0.425779 0
    outer loop
      vertex 8.06581 3.19348 141.15
      vertex 7.60196 4.17921 141.15
      vertex 8.06581 3.19348 128
    endloop
  endfacet
  facet normal -0.904827 -0.425779 0
    outer loop
      vertex 8.06581 3.19348 128
      vertex 7.60196 4.17921 141.15
      vertex 7.60196 4.17921 128
    endloop
  endfacet
  facet normal -0.951056 -0.309017 0
    outer loop
      vertex 8.40246 2.15739 141.15
      vertex 8.06581 3.19348 141.15
      vertex 8.40246 2.15739 128
    endloop
  endfacet
  facet normal -0.951056 -0.309017 0
    outer loop
      vertex 8.40246 2.15739 128
      vertex 8.06581 3.19348 141.15
      vertex 8.06581 3.19348 128
    endloop
  endfacet
  facet normal -0.982287 -0.187381 0
    outer loop
      vertex 8.6066 1.08727 141.15
      vertex 8.40246 2.15739 141.15
      vertex 8.6066 1.08727 128
    endloop
  endfacet
  facet normal -0.982287 -0.187381 0
    outer loop
      vertex 8.6066 1.08727 128
      vertex 8.40246 2.15739 141.15
      vertex 8.40246 2.15739 128
    endloop
  endfacet
  facet normal -0.998027 -0.0627905 0
    outer loop
      vertex 8.675 0 141.15
      vertex 8.6066 1.08727 141.15
      vertex 8.675 0 128
    endloop
  endfacet
  facet normal -0.998027 -0.0627905 0
    outer loop
      vertex 8.675 0 128
      vertex 8.6066 1.08727 141.15
      vertex 8.6066 1.08727 128
    endloop
  endfacet
  facet normal -0.998027 0.0627905 0
    outer loop
      vertex 8.675 0 141.15
      vertex 8.675 0 128
      vertex 8.6066 -1.08727 141.15
    endloop
  endfacet
  facet normal -0.998027 0.0627905 0
    outer loop
      vertex 8.6066 -1.08727 141.15
      vertex 8.675 0 128
      vertex 8.6066 -1.08727 128
    endloop
  endfacet
  facet normal -0.982287 0.187381 0
    outer loop
      vertex 8.6066 -1.08727 141.15
      vertex 8.6066 -1.08727 128
      vertex 8.40246 -2.15739 141.15
    endloop
  endfacet
  facet normal -0.982287 0.187381 0
    outer loop
      vertex 8.40246 -2.15739 141.15
      vertex 8.6066 -1.08727 128
      vertex 8.40246 -2.15739 128
    endloop
  endfacet
  facet normal -0.951056 0.309017 0
    outer loop
      vertex 8.40246 -2.15739 141.15
      vertex 8.40246 -2.15739 128
      vertex 8.06581 -3.19348 141.15
    endloop
  endfacet
  facet normal -0.951056 0.309017 0
    outer loop
      vertex 8.06581 -3.19348 141.15
      vertex 8.40246 -2.15739 128
      vertex 8.06581 -3.19348 128
    endloop
  endfacet
  facet normal -0.904827 0.425779 0
    outer loop
      vertex 8.06581 -3.19348 141.15
      vertex 8.06581 -3.19348 128
      vertex 7.60196 -4.17921 141.15
    endloop
  endfacet
  facet normal -0.904827 0.425779 0
    outer loop
      vertex 7.60196 -4.17921 141.15
      vertex 8.06581 -3.19348 128
      vertex 7.60196 -4.17921 128
    endloop
  endfacet
  facet normal -0.844328 0.535827 0
    outer loop
      vertex 7.60196 -4.17921 141.15
      vertex 7.60196 -4.17921 128
      vertex 7.01822 -5.09904 141.15
    endloop
  endfacet
  facet normal -0.844328 0.535827 0
    outer loop
      vertex 7.01822 -5.09904 141.15
      vertex 7.60196 -4.17921 128
      vertex 7.01822 -5.09904 128
    endloop
  endfacet
  facet normal -0.770513 0.637424 0
    outer loop
      vertex 7.01822 -5.09904 141.15
      vertex 7.01822 -5.09904 128
      vertex 6.3238 -5.93845 141.15
    endloop
  endfacet
  facet normal -0.770513 0.637424 0
    outer loop
      vertex 6.3238 -5.93845 141.15
      vertex 7.01822 -5.09904 128
      vertex 6.3238 -5.93845 128
    endloop
  endfacet
  facet normal -0.684547 0.728969 0
    outer loop
      vertex 6.3238 -5.93845 141.15
      vertex 6.3238 -5.93845 128
      vertex 5.52965 -6.6842 141.15
    endloop
  endfacet
  facet normal -0.684547 0.728969 0
    outer loop
      vertex 5.52965 -6.6842 141.15
      vertex 6.3238 -5.93845 128
      vertex 5.52965 -6.6842 128
    endloop
  endfacet
  facet normal -0.587785 0.809017 0
    outer loop
      vertex 5.52965 -6.6842 141.15
      vertex 5.52965 -6.6842 128
      vertex 4.6483 -7.32454 141.15
    endloop
  endfacet
  facet normal -0.587785 0.809017 0
    outer loop
      vertex 4.6483 -7.32454 141.15
      vertex 5.52965 -6.6842 128
      vertex 4.6483 -7.32454 128
    endloop
  endfacet
  facet normal -0.481754 0.876307 0
    outer loop
      vertex 4.6483 -7.32454 141.15
      vertex 4.6483 -7.32454 128
      vertex 3.69364 -7.84937 141.15
    endloop
  endfacet
  facet normal -0.481754 0.876307 0
    outer loop
      vertex 3.69364 -7.84937 141.15
      vertex 4.6483 -7.32454 128
      vertex 3.69364 -7.84937 128
    endloop
  endfacet
  facet normal -0.368124 0.929777 0
    outer loop
      vertex 3.69364 -7.84937 141.15
      vertex 3.69364 -7.84937 128
      vertex 2.68072 -8.25042 141.15
    endloop
  endfacet
  facet normal -0.368124 0.929777 0
    outer loop
      vertex 2.68072 -8.25042 141.15
      vertex 3.69364 -7.84937 128
      vertex 2.68072 -8.25042 128
    endloop
  endfacet
  facet normal -0.24869 0.968583 0
    outer loop
      vertex 2.68072 -8.25042 141.15
      vertex 2.68072 -8.25042 128
      vertex 1.62553 -8.52134 141.15
    endloop
  endfacet
  facet normal -0.24869 0.968583 0
    outer loop
      vertex 1.62553 -8.52134 141.15
      vertex 2.68072 -8.25042 128
      vertex 1.62553 -8.52134 128
    endloop
  endfacet
  facet normal -0.125333 0.992115 0
    outer loop
      vertex 1.62553 -8.52134 141.15
      vertex 1.62553 -8.52134 128
      vertex 0.544708 -8.65788 141.15
    endloop
  endfacet
  facet normal -0.125333 0.992115 0
    outer loop
      vertex 0.544708 -8.65788 141.15
      vertex 1.62553 -8.52134 128
      vertex 0.544708 -8.65788 128
    endloop
  endfacet
endsolid OpenSCAD_Model
