solid OpenSCAD_Model
  facet normal -0 0 -1
    outer loop
      vertex -12.575 0 0
      vertex -12.4758 1.57606 0
      vertex -12.4758 -1.57606 0
    endloop
  endfacet
  facet normal 0 -0 -1
    outer loop
      vertex -12.4758 -1.57606 0
      vertex -12.4758 1.57606 0
      vertex -12.1799 3.12728 0
    endloop
  endfacet
  facet normal 0 0 -1
    outer loop
      vertex -12.4758 -1.57606 0
      vertex -12.1799 3.12728 0
      vertex -11.6919 4.62917 0
    endloop
  endfacet
  facet normal 0 0 -1
    outer loop
      vertex -12.4758 -1.57606 0
      vertex -11.6919 4.62917 0
      vertex -11.0196 6.05805 0
    endloop
  endfacet
  facet normal 0 0 -1
    outer loop
      vertex -12.4758 -1.57606 0
      vertex -11.0196 6.05805 0
      vertex -10.1734 7.3914 0
    endloop
  endfacet
  facet normal 0 0 -1
    outer loop
      vertex -12.4758 -1.57606 0
      vertex -10.1734 7.3914 0
      vertex -9.16678 8.60818 0
    endloop
  endfacet
  facet normal 0 0 -1
    outer loop
      vertex -12.4758 -1.57606 0
      vertex -9.16678 8.60818 0
      vertex -8.01561 9.6892 0
    endloop
  endfacet
  facet normal 0 0 -1
    outer loop
      vertex -12.4758 -1.57606 0
      vertex -8.01561 9.6892 0
      vertex -6.73802 10.6174 0
    endloop
  endfacet
  facet normal 0 0 -1
    outer loop
      vertex -12.4758 -1.57606 0
      vertex -6.73802 10.6174 0
      vertex -5.35417 11.3782 0
    endloop
  endfacet
  facet normal 0 0 -1
    outer loop
      vertex -12.4758 -1.57606 0
      vertex -5.35417 11.3782 0
      vertex -3.88589 11.9595 0
    endloop
  endfacet
  facet normal 0 0 -1
    outer loop
      vertex -12.4758 -1.57606 0
      vertex -3.88589 11.9595 0
      vertex -2.35632 12.3523 0
    endloop
  endfacet
  facet normal 0 0 -1
    outer loop
      vertex -12.4758 -1.57606 0
      vertex -2.35632 12.3523 0
      vertex -0.789591 12.5502 0
    endloop
  endfacet
  facet normal 0 0 -1
    outer loop
      vertex -12.4758 -1.57606 0
      vertex -0.789591 12.5502 0
      vertex 0 12.5502 0
    endloop
  endfacet
  facet normal 0 -0 -1
    outer loop
      vertex 0 12.5502 0
      vertex 0 12.575 0
      vertex 12.575 12.575 0
    endloop
  endfacet
  facet normal -0 0 -1
    outer loop
      vertex 0 12.5502 0
      vertex 12.575 12.575 0
      vertex -12.4758 -1.57606 0
    endloop
  endfacet
  facet normal -0 0 -1
    outer loop
      vertex -12.4758 -1.57606 0
      vertex 12.575 12.575 0
      vertex 12.575 -12.575 0
    endloop
  endfacet
  facet normal 0 0 -1
    outer loop
      vertex 0 -12.5502 0
      vertex 12.575 -12.575 0
      vertex 0 -12.575 0
    endloop
  endfacet
  facet normal 0 0 -1
    outer loop
      vertex -12.4758 -1.57606 0
      vertex 12.575 -12.575 0
      vertex 0 -12.5502 0
    endloop
  endfacet
  facet normal 0 0 -1
    outer loop
      vertex -12.4758 -1.57606 0
      vertex -0.789591 -12.5502 0
      vertex -2.35632 -12.3523 0
    endloop
  endfacet
  facet normal 0 0 -1
    outer loop
      vertex -12.4758 -1.57606 0
      vertex -2.35632 -12.3523 0
      vertex -3.88589 -11.9595 0
    endloop
  endfacet
  facet normal 0 0 -1
    outer loop
      vertex -12.4758 -1.57606 0
      vertex -3.88589 -11.9595 0
      vertex -5.35417 -11.3782 0
    endloop
  endfacet
  facet normal 0 0 -1
    outer loop
      vertex -12.4758 -1.57606 0
      vertex -5.35417 -11.3782 0
      vertex -6.73802 -10.6174 0
    endloop
  endfacet
  facet normal 0 0 -1
    outer loop
      vertex -12.4758 -1.57606 0
      vertex -6.73802 -10.6174 0
      vertex -8.01561 -9.6892 0
    endloop
  endfacet
  facet normal 0 0 -1
    outer loop
      vertex -12.4758 -1.57606 0
      vertex -8.01561 -9.6892 0
      vertex -9.16678 -8.60818 0
    endloop
  endfacet
  facet normal 0 0 -1
    outer loop
      vertex -12.4758 -1.57606 0
      vertex -9.16678 -8.60818 0
      vertex -10.1734 -7.3914 0
    endloop
  endfacet
  facet normal 0 0 -1
    outer loop
      vertex -12.4758 -1.57606 0
      vertex -10.1734 -7.3914 0
      vertex -11.0196 -6.05805 0
    endloop
  endfacet
  facet normal 0 0 -1
    outer loop
      vertex -12.4758 -1.57606 0
      vertex -11.0196 -6.05805 0
      vertex -11.6919 -4.62917 0
    endloop
  endfacet
  facet normal 0 0 -1
    outer loop
      vertex -12.4758 -1.57606 0
      vertex -11.6919 -4.62917 0
      vertex -12.1799 -3.12728 0
    endloop
  endfacet
  facet normal -0 -0 -1
    outer loop
      vertex -0.789591 -12.5502 0
      vertex -12.4758 -1.57606 0
      vertex 0 -12.5502 0
    endloop
  endfacet
  facet normal -0.998027 0.0627908 0
    outer loop
      vertex -12.575 0 0
      vertex -12.575 0 3
      vertex -12.4758 1.57606 0
    endloop
  endfacet
  facet normal -0.998027 0.0627908 0
    outer loop
      vertex -12.4758 1.57606 0
      vertex -12.575 0 3
      vertex -12.4758 1.57606 3
    endloop
  endfacet
  facet normal -0.998027 -0.0627908 -0
    outer loop
      vertex -12.575 0 0
      vertex -12.4758 -1.57606 0
      vertex -12.575 0 3
    endloop
  endfacet
  facet normal -0.998027 -0.0627908 0
    outer loop
      vertex -12.575 0 3
      vertex -12.4758 -1.57606 0
      vertex -12.4758 -1.57606 3
    endloop
  endfacet
  facet normal -0.982287 -0.187381 -0
    outer loop
      vertex -12.4758 -1.57606 0
      vertex -12.1799 -3.12728 0
      vertex -12.4758 -1.57606 3
    endloop
  endfacet
  facet normal -0.982287 -0.187381 0
    outer loop
      vertex -12.4758 -1.57606 3
      vertex -12.1799 -3.12728 0
      vertex -12.1799 -3.12728 3
    endloop
  endfacet
  facet normal -0.951057 -0.309017 -0
    outer loop
      vertex -12.1799 -3.12728 0
      vertex -11.6919 -4.62917 0
      vertex -12.1799 -3.12728 3
    endloop
  endfacet
  facet normal -0.951057 -0.309017 0
    outer loop
      vertex -12.1799 -3.12728 3
      vertex -11.6919 -4.62917 0
      vertex -11.6919 -4.62917 3
    endloop
  endfacet
  facet normal -0.904827 -0.425779 -0
    outer loop
      vertex -11.6919 -4.62917 0
      vertex -11.0196 -6.05805 0
      vertex -11.6919 -4.62917 3
    endloop
  endfacet
  facet normal -0.904827 -0.425779 0
    outer loop
      vertex -11.6919 -4.62917 3
      vertex -11.0196 -6.05805 0
      vertex -11.0196 -6.05805 3
    endloop
  endfacet
  facet normal -0.844328 -0.535827 -0
    outer loop
      vertex -11.0196 -6.05805 0
      vertex -10.1734 -7.3914 0
      vertex -11.0196 -6.05805 3
    endloop
  endfacet
  facet normal -0.844328 -0.535827 0
    outer loop
      vertex -11.0196 -6.05805 3
      vertex -10.1734 -7.3914 0
      vertex -10.1734 -7.3914 3
    endloop
  endfacet
  facet normal -0.770513 -0.637424 -0
    outer loop
      vertex -10.1734 -7.3914 0
      vertex -9.16678 -8.60818 0
      vertex -10.1734 -7.3914 3
    endloop
  endfacet
  facet normal -0.770513 -0.637424 0
    outer loop
      vertex -10.1734 -7.3914 3
      vertex -9.16678 -8.60818 0
      vertex -9.16678 -8.60818 3
    endloop
  endfacet
  facet normal -0.684547 -0.728968 0
    outer loop
      vertex -9.16678 -8.60818 3
      vertex -9.16678 -8.60818 0
      vertex -8.01561 -9.6892 0
    endloop
  endfacet
  facet normal -0.684547 -0.728968 0
    outer loop
      vertex -8.01561 -9.6892 3
      vertex -9.16678 -8.60818 3
      vertex -8.01561 -9.6892 0
    endloop
  endfacet
  facet normal -0.587785 -0.809017 0
    outer loop
      vertex -8.01561 -9.6892 3
      vertex -8.01561 -9.6892 0
      vertex -6.73802 -10.6174 0
    endloop
  endfacet
  facet normal -0.587785 -0.809017 0
    outer loop
      vertex -6.73802 -10.6174 3
      vertex -8.01561 -9.6892 3
      vertex -6.73802 -10.6174 0
    endloop
  endfacet
  facet normal -0.481754 -0.876307 0
    outer loop
      vertex -6.73802 -10.6174 3
      vertex -6.73802 -10.6174 0
      vertex -5.35417 -11.3782 0
    endloop
  endfacet
  facet normal -0.481754 -0.876307 0
    outer loop
      vertex -5.35417 -11.3782 3
      vertex -6.73802 -10.6174 3
      vertex -5.35417 -11.3782 0
    endloop
  endfacet
  facet normal -0.368125 -0.929776 0
    outer loop
      vertex -5.35417 -11.3782 3
      vertex -5.35417 -11.3782 0
      vertex -3.88589 -11.9595 0
    endloop
  endfacet
  facet normal -0.368125 -0.929776 0
    outer loop
      vertex -3.88589 -11.9595 3
      vertex -5.35417 -11.3782 3
      vertex -3.88589 -11.9595 0
    endloop
  endfacet
  facet normal -0.24869 -0.968583 0
    outer loop
      vertex -3.88589 -11.9595 3
      vertex -3.88589 -11.9595 0
      vertex -2.35632 -12.3523 0
    endloop
  endfacet
  facet normal -0.24869 -0.968583 0
    outer loop
      vertex -2.35632 -12.3523 3
      vertex -3.88589 -11.9595 3
      vertex -2.35632 -12.3523 0
    endloop
  endfacet
  facet normal -0.125333 -0.992115 0
    outer loop
      vertex -2.35632 -12.3523 3
      vertex -2.35632 -12.3523 0
      vertex -0.789591 -12.5502 0
    endloop
  endfacet
  facet normal -0.125333 -0.992115 0
    outer loop
      vertex -0.789591 -12.5502 3
      vertex -2.35632 -12.3523 3
      vertex -0.789591 -12.5502 0
    endloop
  endfacet
  facet normal 0 -1 0
    outer loop
      vertex -0.789591 -12.5502 3
      vertex -0.789591 -12.5502 0
      vertex 0 -12.5502 0
    endloop
  endfacet
  facet normal 0 -1 0
    outer loop
      vertex 0 -12.5502 3
      vertex -0.789591 -12.5502 3
      vertex 0 -12.5502 0
    endloop
  endfacet
  facet normal -1 -0 -0
    outer loop
      vertex 0 -12.575 0
      vertex 0 -12.575 93.15
      vertex 0 -12.5502 0
    endloop
  endfacet
  facet normal -1 0 -0
    outer loop
      vertex 0 -10.5541 78
      vertex 0 -12.575 93.15
      vertex 0 -9.65591 93.15
    endloop
  endfacet
  facet normal -1 -0 0
    outer loop
      vertex 0 -12.5502 3
      vertex 0 -9.65591 77
      vertex 0 -9.65591 3
    endloop
  endfacet
  facet normal -1 0 -0
    outer loop
      vertex 0 -12.5502 3
      vertex 0 -12.575 93.15
      vertex 0 -10.5541 78
    endloop
  endfacet
  facet normal -1 0 0
    outer loop
      vertex 0 -12.5502 3
      vertex 0 -10.5541 78
      vertex 0 -10.5541 77
    endloop
  endfacet
  facet normal -1 0 0
    outer loop
      vertex 0 -12.5502 0
      vertex 0 -12.575 93.15
      vertex 0 -12.5502 3
    endloop
  endfacet
  facet normal -1 -0 0
    outer loop
      vertex 0 -10.5541 78
      vertex 0 -9.65591 93.15
      vertex 0 -9.65591 78
    endloop
  endfacet
  facet normal -1 0 0
    outer loop
      vertex 0 -12.5502 3
      vertex 0 -10.5541 77
      vertex 0 -9.65591 77
    endloop
  endfacet
  facet normal 0 -1 0
    outer loop
      vertex 0 -12.575 93.15
      vertex 0 -12.575 0
      vertex 12.575 -12.575 0
    endloop
  endfacet
  facet normal 0 -1 0
    outer loop
      vertex 12.575 -12.575 93.15
      vertex 0 -12.575 93.15
      vertex 12.575 -12.575 0
    endloop
  endfacet
  facet normal 1 0 -0
    outer loop
      vertex 12.575 -12.575 93.15
      vertex 12.575 -12.575 0
      vertex 12.575 12.575 0
    endloop
  endfacet
  facet normal 1 0 0
    outer loop
      vertex 12.575 12.575 93.15
      vertex 12.575 -12.575 93.15
      vertex 12.575 12.575 0
    endloop
  endfacet
  facet normal 0 1 0
    outer loop
      vertex 0 12.575 0
      vertex 0 12.575 93.15
      vertex 12.575 12.575 0
    endloop
  endfacet
  facet normal 0 1 0
    outer loop
      vertex 12.575 12.575 0
      vertex 0 12.575 93.15
      vertex 12.575 12.575 93.15
    endloop
  endfacet
  facet normal -1 -0 -0
    outer loop
      vertex 0 9.65591 3
      vertex 0 9.65591 77
      vertex 0 12.5502 3
    endloop
  endfacet
  facet normal -1 0 0
    outer loop
      vertex 0 12.5502 3
      vertex 0 9.65591 77
      vertex 0 10.5541 77
    endloop
  endfacet
  facet normal -1 0 0
    outer loop
      vertex 0 12.5502 3
      vertex 0 10.5541 77
      vertex 0 10.5541 78
    endloop
  endfacet
  facet normal -1 0 0
    outer loop
      vertex 0 10.5541 78
      vertex 0 9.65591 78
      vertex 0 9.65591 93.15
    endloop
  endfacet
  facet normal -1 0 -0
    outer loop
      vertex 0 10.5541 78
      vertex 0 9.65591 93.15
      vertex 0 12.575 93.15
    endloop
  endfacet
  facet normal -1 -0 0
    outer loop
      vertex 0 10.5541 78
      vertex 0 12.575 93.15
      vertex 0 12.5502 3
    endloop
  endfacet
  facet normal -1 -0 0
    outer loop
      vertex 0 12.5502 3
      vertex 0 12.575 93.15
      vertex 0 12.575 0
    endloop
  endfacet
  facet normal -1 0 0
    outer loop
      vertex 0 12.5502 3
      vertex 0 12.575 0
      vertex 0 12.5502 0
    endloop
  endfacet
  facet normal 0 1 0
    outer loop
      vertex -0.789591 12.5502 0
      vertex -0.789591 12.5502 3
      vertex 0 12.5502 0
    endloop
  endfacet
  facet normal 0 1 0
    outer loop
      vertex 0 12.5502 0
      vertex -0.789591 12.5502 3
      vertex 0 12.5502 3
    endloop
  endfacet
  facet normal -0.125333 0.992115 0
    outer loop
      vertex -2.35632 12.3523 0
      vertex -2.35632 12.3523 3
      vertex -0.789591 12.5502 0
    endloop
  endfacet
  facet normal -0.125333 0.992115 0
    outer loop
      vertex -0.789591 12.5502 0
      vertex -2.35632 12.3523 3
      vertex -0.789591 12.5502 3
    endloop
  endfacet
  facet normal -0.24869 0.968583 0
    outer loop
      vertex -3.88589 11.9595 0
      vertex -3.88589 11.9595 3
      vertex -2.35632 12.3523 0
    endloop
  endfacet
  facet normal -0.24869 0.968583 0
    outer loop
      vertex -2.35632 12.3523 0
      vertex -3.88589 11.9595 3
      vertex -2.35632 12.3523 3
    endloop
  endfacet
  facet normal -0.368125 0.929776 0
    outer loop
      vertex -5.35417 11.3782 0
      vertex -5.35417 11.3782 3
      vertex -3.88589 11.9595 0
    endloop
  endfacet
  facet normal -0.368125 0.929776 0
    outer loop
      vertex -3.88589 11.9595 0
      vertex -5.35417 11.3782 3
      vertex -3.88589 11.9595 3
    endloop
  endfacet
  facet normal -0.481754 0.876307 0
    outer loop
      vertex -6.73802 10.6174 0
      vertex -6.73802 10.6174 3
      vertex -5.35417 11.3782 0
    endloop
  endfacet
  facet normal -0.481754 0.876307 0
    outer loop
      vertex -5.35417 11.3782 0
      vertex -6.73802 10.6174 3
      vertex -5.35417 11.3782 3
    endloop
  endfacet
  facet normal -0.587785 0.809017 0
    outer loop
      vertex -8.01561 9.6892 0
      vertex -8.01561 9.6892 3
      vertex -6.73802 10.6174 0
    endloop
  endfacet
  facet normal -0.587785 0.809017 0
    outer loop
      vertex -6.73802 10.6174 0
      vertex -8.01561 9.6892 3
      vertex -6.73802 10.6174 3
    endloop
  endfacet
  facet normal -0.684547 0.728968 0
    outer loop
      vertex -9.16678 8.60818 0
      vertex -9.16678 8.60818 3
      vertex -8.01561 9.6892 0
    endloop
  endfacet
  facet normal -0.684547 0.728968 0
    outer loop
      vertex -8.01561 9.6892 0
      vertex -9.16678 8.60818 3
      vertex -8.01561 9.6892 3
    endloop
  endfacet
  facet normal -0.770513 0.637424 0
    outer loop
      vertex -10.1734 7.3914 0
      vertex -10.1734 7.3914 3
      vertex -9.16678 8.60818 0
    endloop
  endfacet
  facet normal -0.770513 0.637424 0
    outer loop
      vertex -9.16678 8.60818 0
      vertex -10.1734 7.3914 3
      vertex -9.16678 8.60818 3
    endloop
  endfacet
  facet normal -0.844328 0.535827 0
    outer loop
      vertex -11.0196 6.05805 0
      vertex -11.0196 6.05805 3
      vertex -10.1734 7.3914 0
    endloop
  endfacet
  facet normal -0.844328 0.535827 0
    outer loop
      vertex -10.1734 7.3914 0
      vertex -11.0196 6.05805 3
      vertex -10.1734 7.3914 3
    endloop
  endfacet
  facet normal -0.904827 0.425779 0
    outer loop
      vertex -11.6919 4.62917 0
      vertex -11.6919 4.62917 3
      vertex -11.0196 6.05805 0
    endloop
  endfacet
  facet normal -0.904827 0.425779 0
    outer loop
      vertex -11.0196 6.05805 0
      vertex -11.6919 4.62917 3
      vertex -11.0196 6.05805 3
    endloop
  endfacet
  facet normal -0.951057 0.309017 0
    outer loop
      vertex -12.1799 3.12728 0
      vertex -12.1799 3.12728 3
      vertex -11.6919 4.62917 0
    endloop
  endfacet
  facet normal -0.951057 0.309017 0
    outer loop
      vertex -11.6919 4.62917 0
      vertex -12.1799 3.12728 3
      vertex -11.6919 4.62917 3
    endloop
  endfacet
  facet normal -0.982287 0.187381 0
    outer loop
      vertex -12.4758 1.57606 0
      vertex -12.4758 1.57606 3
      vertex -12.1799 3.12728 0
    endloop
  endfacet
  facet normal -0.982287 0.187381 0
    outer loop
      vertex -12.1799 3.12728 0
      vertex -12.4758 1.57606 3
      vertex -12.1799 3.12728 3
    endloop
  endfacet
  facet normal 0 0 1
    outer loop
      vertex -12.4758 1.57606 3
      vertex -12.575 0 3
      vertex -12.4758 -1.57606 3
    endloop
  endfacet
  facet normal 0 0 1
    outer loop
      vertex -11.6919 -4.62917 3
      vertex -12.4758 1.57606 3
      vertex -12.1799 -3.12728 3
    endloop
  endfacet
  facet normal 0 0 1
    outer loop
      vertex -12.1799 -3.12728 3
      vertex -12.4758 1.57606 3
      vertex -12.4758 -1.57606 3
    endloop
  endfacet
  facet normal 0 0 1
    outer loop
      vertex -11.0196 -6.05805 3
      vertex -12.4758 1.57606 3
      vertex -11.6919 -4.62917 3
    endloop
  endfacet
  facet normal 0 0 1
    outer loop
      vertex -10.1734 -7.3914 3
      vertex -12.4758 1.57606 3
      vertex -11.0196 -6.05805 3
    endloop
  endfacet
  facet normal 0 0 1
    outer loop
      vertex -9.16678 -8.60818 3
      vertex -12.4758 1.57606 3
      vertex -10.1734 -7.3914 3
    endloop
  endfacet
  facet normal 0 0 1
    outer loop
      vertex -8.01561 -9.6892 3
      vertex -12.4758 1.57606 3
      vertex -9.16678 -8.60818 3
    endloop
  endfacet
  facet normal 0 0 1
    outer loop
      vertex -6.73802 -10.6174 3
      vertex -12.4758 1.57606 3
      vertex -8.01561 -9.6892 3
    endloop
  endfacet
  facet normal 0 0 1
    outer loop
      vertex -5.35417 -11.3782 3
      vertex -12.4758 1.57606 3
      vertex -6.73802 -10.6174 3
    endloop
  endfacet
  facet normal 0 0 1
    outer loop
      vertex -3.88589 -11.9595 3
      vertex -12.4758 1.57606 3
      vertex -5.35417 -11.3782 3
    endloop
  endfacet
  facet normal 0 0 1
    outer loop
      vertex -2.35632 -12.3523 3
      vertex -12.4758 1.57606 3
      vertex -3.88589 -11.9595 3
    endloop
  endfacet
  facet normal 0 0 1
    outer loop
      vertex -0.789591 -12.5502 3
      vertex -12.4758 1.57606 3
      vertex -2.35632 -12.3523 3
    endloop
  endfacet
  facet normal -0 0 1
    outer loop
      vertex 0 -12.5502 3
      vertex -12.4758 1.57606 3
      vertex -0.789591 -12.5502 3
    endloop
  endfacet
  facet normal -0 0 1
    outer loop
      vertex 0 -9.65591 3
      vertex -12.4758 1.57606 3
      vertex 0 -12.5502 3
    endloop
  endfacet
  facet normal -0 0 1
    outer loop
      vertex 0.607498 -9.65591 3
      vertex -12.4758 1.57606 3
      vertex 0 -9.65591 3
    endloop
  endfacet
  facet normal -0 0 1
    outer loop
      vertex 1.81291 -9.50363 3
      vertex -12.4758 1.57606 3
      vertex 0.607498 -9.65591 3
    endloop
  endfacet
  facet normal -0 0 1
    outer loop
      vertex 2.98974 -9.20147 3
      vertex -12.4758 1.57606 3
      vertex 1.81291 -9.50363 3
    endloop
  endfacet
  facet normal -0 0 1
    outer loop
      vertex 4.11942 -8.7542 3
      vertex -12.4758 1.57606 3
      vertex 2.98974 -9.20147 3
    endloop
  endfacet
  facet normal -0 0 1
    outer loop
      vertex 5.18412 -8.16887 3
      vertex -12.4758 1.57606 3
      vertex 4.11942 -8.7542 3
    endloop
  endfacet
  facet normal -0 0 1
    outer loop
      vertex 6.16708 -7.45472 3
      vertex -12.4758 1.57606 3
      vertex 5.18412 -8.16887 3
    endloop
  endfacet
  facet normal -0 0 1
    outer loop
      vertex 7.05277 -6.62299 3
      vertex -12.4758 1.57606 3
      vertex 6.16708 -7.45472 3
    endloop
  endfacet
  facet normal -0 0 1
    outer loop
      vertex 7.82724 -5.68682 3
      vertex -12.4758 1.57606 3
      vertex 7.05277 -6.62299 3
    endloop
  endfacet
  facet normal -0 0 1
    outer loop
      vertex 8.47827 -4.66097 3
      vertex -12.4758 1.57606 3
      vertex 7.82724 -5.68682 3
    endloop
  endfacet
  facet normal -0 0 1
    outer loop
      vertex 8.99559 -3.5616 3
      vertex -12.4758 1.57606 3
      vertex 8.47827 -4.66097 3
    endloop
  endfacet
  facet normal -0 0 1
    outer loop
      vertex 9.37104 -2.40607 3
      vertex -12.4758 1.57606 3
      vertex 8.99559 -3.5616 3
    endloop
  endfacet
  facet normal -0 0 1
    outer loop
      vertex 9.59871 -1.2126 3
      vertex -12.4758 1.57606 3
      vertex 9.37104 -2.40607 3
    endloop
  endfacet
  facet normal -0 0 1
    outer loop
      vertex 9.675 0 3
      vertex -12.4758 1.57606 3
      vertex 9.59871 -1.2126 3
    endloop
  endfacet
  facet normal -0 -0 1
    outer loop
      vertex 9.59871 1.2126 3
      vertex -12.4758 1.57606 3
      vertex 9.675 0 3
    endloop
  endfacet
  facet normal 0 -0 1
    outer loop
      vertex 9.37104 2.40607 3
      vertex -12.4758 1.57606 3
      vertex 9.59871 1.2126 3
    endloop
  endfacet
  facet normal 0 -0 1
    outer loop
      vertex 8.99559 3.5616 3
      vertex -12.4758 1.57606 3
      vertex 9.37104 2.40607 3
    endloop
  endfacet
  facet normal 0 -0 1
    outer loop
      vertex 8.47827 4.66097 3
      vertex -12.4758 1.57606 3
      vertex 8.99559 3.5616 3
    endloop
  endfacet
  facet normal 0 -0 1
    outer loop
      vertex 7.82724 5.68682 3
      vertex -12.4758 1.57606 3
      vertex 8.47827 4.66097 3
    endloop
  endfacet
  facet normal 0 -0 1
    outer loop
      vertex 7.05277 6.62299 3
      vertex -12.4758 1.57606 3
      vertex 7.82724 5.68682 3
    endloop
  endfacet
  facet normal 0 -0 1
    outer loop
      vertex 6.16708 7.45472 3
      vertex -12.4758 1.57606 3
      vertex 7.05277 6.62299 3
    endloop
  endfacet
  facet normal 0 -0 1
    outer loop
      vertex 5.18412 8.16887 3
      vertex -12.4758 1.57606 3
      vertex 6.16708 7.45472 3
    endloop
  endfacet
  facet normal 0 -0 1
    outer loop
      vertex 4.11942 8.7542 3
      vertex -12.4758 1.57606 3
      vertex 5.18412 8.16887 3
    endloop
  endfacet
  facet normal 0 -0 1
    outer loop
      vertex 2.98974 9.20147 3
      vertex -12.4758 1.57606 3
      vertex 4.11942 8.7542 3
    endloop
  endfacet
  facet normal 0 -0 1
    outer loop
      vertex 1.81291 9.50363 3
      vertex -12.4758 1.57606 3
      vertex 2.98974 9.20147 3
    endloop
  endfacet
  facet normal 0 -0 1
    outer loop
      vertex 0.607498 9.65591 3
      vertex -12.4758 1.57606 3
      vertex 1.81291 9.50363 3
    endloop
  endfacet
  facet normal 0 -0 1
    outer loop
      vertex 0 9.65591 3
      vertex -12.4758 1.57606 3
      vertex 0.607498 9.65591 3
    endloop
  endfacet
  facet normal 0 0 1
    outer loop
      vertex 0 12.5502 3
      vertex -12.4758 1.57606 3
      vertex 0 9.65591 3
    endloop
  endfacet
  facet normal 0 -0 1
    outer loop
      vertex -0.789591 12.5502 3
      vertex -12.4758 1.57606 3
      vertex 0 12.5502 3
    endloop
  endfacet
  facet normal 0 -0 1
    outer loop
      vertex -2.35632 12.3523 3
      vertex -12.4758 1.57606 3
      vertex -0.789591 12.5502 3
    endloop
  endfacet
  facet normal 0 -0 1
    outer loop
      vertex -3.88589 11.9595 3
      vertex -12.4758 1.57606 3
      vertex -2.35632 12.3523 3
    endloop
  endfacet
  facet normal 0 -0 1
    outer loop
      vertex -5.35417 11.3782 3
      vertex -12.4758 1.57606 3
      vertex -3.88589 11.9595 3
    endloop
  endfacet
  facet normal 0 -0 1
    outer loop
      vertex -6.73802 10.6174 3
      vertex -12.4758 1.57606 3
      vertex -5.35417 11.3782 3
    endloop
  endfacet
  facet normal 0 -0 1
    outer loop
      vertex -8.01561 9.6892 3
      vertex -12.4758 1.57606 3
      vertex -6.73802 10.6174 3
    endloop
  endfacet
  facet normal 0 -0 1
    outer loop
      vertex -9.16678 8.60818 3
      vertex -12.4758 1.57606 3
      vertex -8.01561 9.6892 3
    endloop
  endfacet
  facet normal 0 -0 1
    outer loop
      vertex -10.1734 7.3914 3
      vertex -12.4758 1.57606 3
      vertex -9.16678 8.60818 3
    endloop
  endfacet
  facet normal 0 -0 1
    outer loop
      vertex -11.0196 6.05805 3
      vertex -12.4758 1.57606 3
      vertex -10.1734 7.3914 3
    endloop
  endfacet
  facet normal 0 -0 1
    outer loop
      vertex -11.6919 4.62917 3
      vertex -12.4758 1.57606 3
      vertex -11.0196 6.05805 3
    endloop
  endfacet
  facet normal 0 -0 1
    outer loop
      vertex -12.1799 3.12728 3
      vertex -12.4758 1.57606 3
      vertex -11.6919 4.62917 3
    endloop
  endfacet
  facet normal 0 1 0
    outer loop
      vertex 0.607498 -9.65591 77
      vertex 0.607498 -9.65591 3
      vertex 0 -9.65591 77
    endloop
  endfacet
  facet normal 0 1 -0
    outer loop
      vertex 0 -9.65591 77
      vertex 0.607498 -9.65591 3
      vertex 0 -9.65591 3
    endloop
  endfacet
  facet normal 0 0 1
    outer loop
      vertex 0.66401 -10.5541 77
      vertex 1.98156 -10.3877 77
      vertex 3.26785 -10.0574 77
    endloop
  endfacet
  facet normal 0 0 1
    outer loop
      vertex 5.66637 -8.92877 77
      vertex 0.66401 -10.5541 77
      vertex 4.50262 -9.56855 77
    endloop
  endfacet
  facet normal 0 0 1
    outer loop
      vertex 4.50262 -9.56855 77
      vertex 0.66401 -10.5541 77
      vertex 3.26785 -10.0574 77
    endloop
  endfacet
  facet normal 0 0 1
    outer loop
      vertex 6.74076 -8.14818 77
      vertex 0.66401 -10.5541 77
      vertex 5.66637 -8.92877 77
    endloop
  endfacet
  facet normal 0 0 1
    outer loop
      vertex 7.70884 -7.23909 77
      vertex 0.66401 -10.5541 77
      vertex 6.74076 -8.14818 77
    endloop
  endfacet
  facet normal 0 -0 1
    outer loop
      vertex 4.11942 -8.7542 77
      vertex 0.66401 -10.5541 77
      vertex 7.70884 -7.23909 77
    endloop
  endfacet
  facet normal 0 -0 1
    outer loop
      vertex 6.16708 -7.45472 77
      vertex 5.18412 -8.16887 77
      vertex 8.55536 -6.21583 77
    endloop
  endfacet
  facet normal 0 -0 1
    outer loop
      vertex 7.82724 -5.68682 77
      vertex 7.05277 -6.62299 77
      vertex 9.26694 -5.09455 77
    endloop
  endfacet
  facet normal 0 -0 1
    outer loop
      vertex 8.47827 -4.66097 77
      vertex 7.82724 -5.68682 77
      vertex 9.83239 -3.89292 77
    endloop
  endfacet
  facet normal 0 -0 1
    outer loop
      vertex 8.99559 -3.5616 77
      vertex 8.47827 -4.66097 77
      vertex 10.2428 -2.6299 77
    endloop
  endfacet
  facet normal 0 -0 1
    outer loop
      vertex 9.59871 -1.2126 77
      vertex 9.37104 -2.40607 77
      vertex 10.4916 -1.3254 77
    endloop
  endfacet
  facet normal 0 -0 1
    outer loop
      vertex 9.675 0 77
      vertex 9.59871 -1.2126 77
      vertex 10.575 0 77
    endloop
  endfacet
  facet normal 0 0 1
    outer loop
      vertex 9.59871 1.2126 77
      vertex 9.675 0 77
      vertex 10.4916 1.3254 77
    endloop
  endfacet
  facet normal 0 0 1
    outer loop
      vertex 9.37104 2.40607 77
      vertex 9.59871 1.2126 77
      vertex 10.2428 2.6299 77
    endloop
  endfacet
  facet normal 0 0 1
    outer loop
      vertex 8.99559 3.5616 77
      vertex 9.37104 2.40607 77
      vertex 9.83239 3.89292 77
    endloop
  endfacet
  facet normal 0 0 1
    outer loop
      vertex 8.47827 4.66097 77
      vertex 8.99559 3.5616 77
      vertex 9.26694 5.09455 77
    endloop
  endfacet
  facet normal 0 0 1
    outer loop
      vertex 7.82724 5.68682 77
      vertex 8.47827 4.66097 77
      vertex 8.55536 6.21583 77
    endloop
  endfacet
  facet normal 0 0 1
    outer loop
      vertex 7.05277 6.62299 77
      vertex 7.82724 5.68682 77
      vertex 7.70884 7.23909 77
    endloop
  endfacet
  facet normal 0 0 1
    outer loop
      vertex 6.16708 7.45472 77
      vertex 7.05277 6.62299 77
      vertex 6.74076 8.14818 77
    endloop
  endfacet
  facet normal 0 0 1
    outer loop
      vertex 5.18412 8.16887 77
      vertex 6.16708 7.45472 77
      vertex 5.66637 8.92877 77
    endloop
  endfacet
  facet normal 0 0 1
    outer loop
      vertex 4.11942 8.7542 77
      vertex 5.18412 8.16887 77
      vertex 4.50262 9.56855 77
    endloop
  endfacet
  facet normal 0 0 1
    outer loop
      vertex 2.98974 9.20147 77
      vertex 4.11942 8.7542 77
      vertex 3.26785 10.0574 77
    endloop
  endfacet
  facet normal 0 0 1
    outer loop
      vertex 1.81291 9.50363 77
      vertex 2.98974 9.20147 77
      vertex 1.98156 10.3877 77
    endloop
  endfacet
  facet normal 0 0 1
    outer loop
      vertex 0.607498 9.65591 77
      vertex 1.81291 9.50363 77
      vertex 0.66401 10.5541 77
    endloop
  endfacet
  facet normal 0 0 1
    outer loop
      vertex 0 10.5541 77
      vertex 0.607498 9.65591 77
      vertex 0.66401 10.5541 77
    endloop
  endfacet
  facet normal 0 0 1
    outer loop
      vertex 0.66401 10.5541 77
      vertex 1.81291 9.50363 77
      vertex 1.98156 10.3877 77
    endloop
  endfacet
  facet normal 0 0 1
    outer loop
      vertex 1.98156 10.3877 77
      vertex 2.98974 9.20147 77
      vertex 3.26785 10.0574 77
    endloop
  endfacet
  facet normal 0 0 1
    outer loop
      vertex 3.26785 10.0574 77
      vertex 4.11942 8.7542 77
      vertex 4.50262 9.56855 77
    endloop
  endfacet
  facet normal 0 0 1
    outer loop
      vertex 4.50262 9.56855 77
      vertex 5.18412 8.16887 77
      vertex 5.66637 8.92877 77
    endloop
  endfacet
  facet normal 0 0 1
    outer loop
      vertex 5.66637 8.92877 77
      vertex 6.16708 7.45472 77
      vertex 6.74076 8.14818 77
    endloop
  endfacet
  facet normal 0 0 1
    outer loop
      vertex 6.74076 8.14818 77
      vertex 7.05277 6.62299 77
      vertex 7.70884 7.23909 77
    endloop
  endfacet
  facet normal 0 0 1
    outer loop
      vertex 7.70884 7.23909 77
      vertex 7.82724 5.68682 77
      vertex 8.55536 6.21583 77
    endloop
  endfacet
  facet normal 0 -0 1
    outer loop
      vertex 8.55536 6.21583 77
      vertex 8.47827 4.66097 77
      vertex 9.26694 5.09455 77
    endloop
  endfacet
  facet normal 0 -0 1
    outer loop
      vertex 9.26694 5.09455 77
      vertex 8.99559 3.5616 77
      vertex 9.83239 3.89292 77
    endloop
  endfacet
  facet normal 0 -0 1
    outer loop
      vertex 9.83239 3.89292 77
      vertex 9.37104 2.40607 77
      vertex 10.2428 2.6299 77
    endloop
  endfacet
  facet normal 0 -0 1
    outer loop
      vertex 10.2428 2.6299 77
      vertex 9.59871 1.2126 77
      vertex 10.4916 1.3254 77
    endloop
  endfacet
  facet normal 0 -0 1
    outer loop
      vertex 10.4916 1.3254 77
      vertex 9.675 0 77
      vertex 10.575 0 77
    endloop
  endfacet
  facet normal 0 0 1
    outer loop
      vertex 10.575 0 77
      vertex 9.59871 -1.2126 77
      vertex 10.4916 -1.3254 77
    endloop
  endfacet
  facet normal 0 0 1
    outer loop
      vertex 10.4916 -1.3254 77
      vertex 9.37104 -2.40607 77
      vertex 10.2428 -2.6299 77
    endloop
  endfacet
  facet normal 0 -0 1
    outer loop
      vertex 9.37104 -2.40607 77
      vertex 8.99559 -3.5616 77
      vertex 10.2428 -2.6299 77
    endloop
  endfacet
  facet normal 0 0 1
    outer loop
      vertex 10.2428 -2.6299 77
      vertex 8.47827 -4.66097 77
      vertex 9.83239 -3.89292 77
    endloop
  endfacet
  facet normal 0 0 1
    outer loop
      vertex 9.83239 -3.89292 77
      vertex 7.82724 -5.68682 77
      vertex 9.26694 -5.09455 77
    endloop
  endfacet
  facet normal 0 0 1
    outer loop
      vertex 9.26694 -5.09455 77
      vertex 7.05277 -6.62299 77
      vertex 8.55536 -6.21583 77
    endloop
  endfacet
  facet normal 0 -0 1
    outer loop
      vertex 7.05277 -6.62299 77
      vertex 6.16708 -7.45472 77
      vertex 8.55536 -6.21583 77
    endloop
  endfacet
  facet normal 0 0 1
    outer loop
      vertex 8.55536 -6.21583 77
      vertex 5.18412 -8.16887 77
      vertex 7.70884 -7.23909 77
    endloop
  endfacet
  facet normal 0 -0 1
    outer loop
      vertex 5.18412 -8.16887 77
      vertex 4.11942 -8.7542 77
      vertex 7.70884 -7.23909 77
    endloop
  endfacet
  facet normal 0 0 1
    outer loop
      vertex 0 -9.65591 77
      vertex 0.66401 -10.5541 77
      vertex 0.607498 -9.65591 77
    endloop
  endfacet
  facet normal 0 0 1
    outer loop
      vertex 0 -10.5541 77
      vertex 0.66401 -10.5541 77
      vertex 0 -9.65591 77
    endloop
  endfacet
  facet normal 0 0 1
    outer loop
      vertex 0 9.65591 77
      vertex 0.607498 9.65591 77
      vertex 0 10.5541 77
    endloop
  endfacet
  facet normal 0 0 1
    outer loop
      vertex 4.11942 -8.7542 77
      vertex 2.98974 -9.20147 77
      vertex 0.66401 -10.5541 77
    endloop
  endfacet
  facet normal 0 0 1
    outer loop
      vertex 2.98974 -9.20147 77
      vertex 1.81291 -9.50363 77
      vertex 0.66401 -10.5541 77
    endloop
  endfacet
  facet normal 0 0 1
    outer loop
      vertex 1.81291 -9.50363 77
      vertex 0.607498 -9.65591 77
      vertex 0.66401 -10.5541 77
    endloop
  endfacet
  facet normal 0 1 0
    outer loop
      vertex 0.66401 -10.5541 78
      vertex 0.66401 -10.5541 77
      vertex 0 -10.5541 78
    endloop
  endfacet
  facet normal 0 1 -0
    outer loop
      vertex 0 -10.5541 78
      vertex 0.66401 -10.5541 77
      vertex 0 -10.5541 77
    endloop
  endfacet
  facet normal 0 -0 -1
    outer loop
      vertex 4.50262 -9.56855 78
      vertex 1.81291 -9.50363 78
      vertex 5.66637 -8.92877 78
    endloop
  endfacet
  facet normal 0 -0 -1
    outer loop
      vertex 5.66637 -8.92877 78
      vertex 2.98974 -9.20147 78
      vertex 6.74076 -8.14818 78
    endloop
  endfacet
  facet normal 0 -0 -1
    outer loop
      vertex 6.74076 -8.14818 78
      vertex 4.11942 -8.7542 78
      vertex 7.70884 -7.23909 78
    endloop
  endfacet
  facet normal 0 -0 -1
    outer loop
      vertex 7.70884 -7.23909 78
      vertex 5.18412 -8.16887 78
      vertex 8.55536 -6.21583 78
    endloop
  endfacet
  facet normal 0 -0 -1
    outer loop
      vertex 8.55536 -6.21583 78
      vertex 6.16708 -7.45472 78
      vertex 9.26694 -5.09455 78
    endloop
  endfacet
  facet normal 0 -0 -1
    outer loop
      vertex 9.26694 -5.09455 78
      vertex 7.05277 -6.62299 78
      vertex 9.83239 -3.89292 78
    endloop
  endfacet
  facet normal 0 -0 -1
    outer loop
      vertex 9.83239 -3.89292 78
      vertex 7.82724 -5.68682 78
      vertex 10.2428 -2.6299 78
    endloop
  endfacet
  facet normal 0 -0 -1
    outer loop
      vertex 10.2428 -2.6299 78
      vertex 8.47827 -4.66097 78
      vertex 10.4916 -1.3254 78
    endloop
  endfacet
  facet normal 0 -0 -1
    outer loop
      vertex 10.4916 -1.3254 78
      vertex 8.99559 -3.5616 78
      vertex 10.575 0 78
    endloop
  endfacet
  facet normal 0 0 -1
    outer loop
      vertex 10.575 0 78
      vertex 9.37104 -2.40607 78
      vertex 10.4916 1.3254 78
    endloop
  endfacet
  facet normal 0 0 -1
    outer loop
      vertex 10.4916 1.3254 78
      vertex 9.59871 -1.2126 78
      vertex 10.2428 2.6299 78
    endloop
  endfacet
  facet normal 0 0 -1
    outer loop
      vertex 10.2428 2.6299 78
      vertex 9.675 0 78
      vertex 9.83239 3.89292 78
    endloop
  endfacet
  facet normal 0 0 -1
    outer loop
      vertex 9.83239 3.89292 78
      vertex 9.59871 1.2126 78
      vertex 9.26694 5.09455 78
    endloop
  endfacet
  facet normal 0 0 -1
    outer loop
      vertex 9.26694 5.09455 78
      vertex 9.37104 2.40607 78
      vertex 8.55536 6.21583 78
    endloop
  endfacet
  facet normal 0 0 -1
    outer loop
      vertex 8.55536 6.21583 78
      vertex 8.99559 3.5616 78
      vertex 7.70884 7.23909 78
    endloop
  endfacet
  facet normal 0 0 -1
    outer loop
      vertex 7.70884 7.23909 78
      vertex 8.47827 4.66097 78
      vertex 6.74076 8.14818 78
    endloop
  endfacet
  facet normal 0 0 -1
    outer loop
      vertex 6.74076 8.14818 78
      vertex 7.82724 5.68682 78
      vertex 5.66637 8.92877 78
    endloop
  endfacet
  facet normal 0 0 -1
    outer loop
      vertex 5.66637 8.92877 78
      vertex 7.05277 6.62299 78
      vertex 4.50262 9.56855 78
    endloop
  endfacet
  facet normal 0 0 -1
    outer loop
      vertex 4.50262 9.56855 78
      vertex 6.16708 7.45472 78
      vertex 3.26785 10.0574 78
    endloop
  endfacet
  facet normal 0 0 -1
    outer loop
      vertex 3.26785 10.0574 78
      vertex 5.18412 8.16887 78
      vertex 1.98156 10.3877 78
    endloop
  endfacet
  facet normal 0 0 -1
    outer loop
      vertex 0.66401 10.5541 78
      vertex 4.11942 8.7542 78
      vertex 0 10.5541 78
    endloop
  endfacet
  facet normal 0 0 -1
    outer loop
      vertex 4.11942 8.7542 78
      vertex 2.98974 9.20147 78
      vertex 0 10.5541 78
    endloop
  endfacet
  facet normal 0 0 -1
    outer loop
      vertex 2.98974 9.20147 78
      vertex 1.81291 9.50363 78
      vertex 0 10.5541 78
    endloop
  endfacet
  facet normal 0 0 -1
    outer loop
      vertex 0 10.5541 78
      vertex 0.607498 9.65591 78
      vertex 0 9.65591 78
    endloop
  endfacet
  facet normal 0 0 -1
    outer loop
      vertex 1.81291 9.50363 78
      vertex 0.607498 9.65591 78
      vertex 0 10.5541 78
    endloop
  endfacet
  facet normal 0 0 -1
    outer loop
      vertex 1.98156 10.3877 78
      vertex 4.11942 8.7542 78
      vertex 0.66401 10.5541 78
    endloop
  endfacet
  facet normal 0 0 -1
    outer loop
      vertex 5.18412 8.16887 78
      vertex 4.11942 8.7542 78
      vertex 1.98156 10.3877 78
    endloop
  endfacet
  facet normal 0 0 -1
    outer loop
      vertex 6.16708 7.45472 78
      vertex 5.18412 8.16887 78
      vertex 3.26785 10.0574 78
    endloop
  endfacet
  facet normal 0 0 -1
    outer loop
      vertex 7.05277 6.62299 78
      vertex 6.16708 7.45472 78
      vertex 4.50262 9.56855 78
    endloop
  endfacet
  facet normal 0 0 -1
    outer loop
      vertex 7.82724 5.68682 78
      vertex 7.05277 6.62299 78
      vertex 5.66637 8.92877 78
    endloop
  endfacet
  facet normal 0 0 -1
    outer loop
      vertex 8.47827 4.66097 78
      vertex 7.82724 5.68682 78
      vertex 6.74076 8.14818 78
    endloop
  endfacet
  facet normal 0 0 -1
    outer loop
      vertex 8.99559 3.5616 78
      vertex 8.47827 4.66097 78
      vertex 7.70884 7.23909 78
    endloop
  endfacet
  facet normal 0 0 -1
    outer loop
      vertex 9.37104 2.40607 78
      vertex 8.99559 3.5616 78
      vertex 8.55536 6.21583 78
    endloop
  endfacet
  facet normal 0 0 -1
    outer loop
      vertex 9.59871 1.2126 78
      vertex 9.37104 2.40607 78
      vertex 9.26694 5.09455 78
    endloop
  endfacet
  facet normal 0 -0 -1
    outer loop
      vertex 9.675 0 78
      vertex 9.59871 1.2126 78
      vertex 9.83239 3.89292 78
    endloop
  endfacet
  facet normal 0 0 -1
    outer loop
      vertex 9.59871 -1.2126 78
      vertex 9.675 0 78
      vertex 10.2428 2.6299 78
    endloop
  endfacet
  facet normal 0 0 -1
    outer loop
      vertex 9.37104 -2.40607 78
      vertex 9.59871 -1.2126 78
      vertex 10.4916 1.3254 78
    endloop
  endfacet
  facet normal 0 0 -1
    outer loop
      vertex 8.99559 -3.5616 78
      vertex 9.37104 -2.40607 78
      vertex 10.575 0 78
    endloop
  endfacet
  facet normal 0 0 -1
    outer loop
      vertex 8.47827 -4.66097 78
      vertex 8.99559 -3.5616 78
      vertex 10.4916 -1.3254 78
    endloop
  endfacet
  facet normal 0 0 -1
    outer loop
      vertex 7.82724 -5.68682 78
      vertex 8.47827 -4.66097 78
      vertex 10.2428 -2.6299 78
    endloop
  endfacet
  facet normal 0 0 -1
    outer loop
      vertex 7.05277 -6.62299 78
      vertex 7.82724 -5.68682 78
      vertex 9.83239 -3.89292 78
    endloop
  endfacet
  facet normal 0 0 -1
    outer loop
      vertex 6.16708 -7.45472 78
      vertex 7.05277 -6.62299 78
      vertex 9.26694 -5.09455 78
    endloop
  endfacet
  facet normal 0 0 -1
    outer loop
      vertex 5.18412 -8.16887 78
      vertex 6.16708 -7.45472 78
      vertex 8.55536 -6.21583 78
    endloop
  endfacet
  facet normal 0 0 -1
    outer loop
      vertex 4.11942 -8.7542 78
      vertex 5.18412 -8.16887 78
      vertex 7.70884 -7.23909 78
    endloop
  endfacet
  facet normal 0 0 -1
    outer loop
      vertex 2.98974 -9.20147 78
      vertex 4.11942 -8.7542 78
      vertex 6.74076 -8.14818 78
    endloop
  endfacet
  facet normal 0 0 -1
    outer loop
      vertex 1.81291 -9.50363 78
      vertex 2.98974 -9.20147 78
      vertex 5.66637 -8.92877 78
    endloop
  endfacet
  facet normal 0 0 -1
    outer loop
      vertex 0.607498 -9.65591 78
      vertex 1.81291 -9.50363 78
      vertex 4.50262 -9.56855 78
    endloop
  endfacet
  facet normal -0 0 -1
    outer loop
      vertex 0.607498 -9.65591 78
      vertex 4.50262 -9.56855 78
      vertex 3.26785 -10.0574 78
    endloop
  endfacet
  facet normal 0 0 -1
    outer loop
      vertex 0.607498 -9.65591 78
      vertex 3.26785 -10.0574 78
      vertex 0 -9.65591 78
    endloop
  endfacet
  facet normal 0 0 -1
    outer loop
      vertex 3.26785 -10.0574 78
      vertex 1.98156 -10.3877 78
      vertex 0 -9.65591 78
    endloop
  endfacet
  facet normal 0 0 -1
    outer loop
      vertex 1.98156 -10.3877 78
      vertex 0.66401 -10.5541 78
      vertex 0 -9.65591 78
    endloop
  endfacet
  facet normal 0 0 -1
    outer loop
      vertex 0.66401 -10.5541 78
      vertex 0 -10.5541 78
      vertex 0 -9.65591 78
    endloop
  endfacet
  facet normal 0 1 0
    outer loop
      vertex 0.607498 -9.65591 93.15
      vertex 0.607498 -9.65591 78
      vertex 0 -9.65591 93.15
    endloop
  endfacet
  facet normal 0 1 -0
    outer loop
      vertex 0 -9.65591 93.15
      vertex 0.607498 -9.65591 78
      vertex 0 -9.65591 78
    endloop
  endfacet
  facet normal 0 -0 1
    outer loop
      vertex 0 -9.65591 93.15
      vertex 0 -12.575 93.15
      vertex 12.575 -12.575 93.15
    endloop
  endfacet
  facet normal 0 0 1
    outer loop
      vertex 9.59871 1.2126 93.15
      vertex 9.675 0 93.15
      vertex 12.575 -12.575 93.15
    endloop
  endfacet
  facet normal 0 -0 1
    outer loop
      vertex 0.607498 -9.65591 93.15
      vertex 0 -9.65591 93.15
      vertex 12.575 -12.575 93.15
    endloop
  endfacet
  facet normal 0 -0 1
    outer loop
      vertex 0 12.575 93.15
      vertex 0 9.65591 93.15
      vertex 12.575 12.575 93.15
    endloop
  endfacet
  facet normal 0 0 1
    outer loop
      vertex 0 9.65591 93.15
      vertex 0.607498 9.65591 93.15
      vertex 12.575 12.575 93.15
    endloop
  endfacet
  facet normal 0 0 1
    outer loop
      vertex 0.607498 9.65591 93.15
      vertex 1.81291 9.50363 93.15
      vertex 12.575 12.575 93.15
    endloop
  endfacet
  facet normal 0 0 1
    outer loop
      vertex 1.81291 9.50363 93.15
      vertex 2.98974 9.20147 93.15
      vertex 12.575 12.575 93.15
    endloop
  endfacet
  facet normal 0 0 1
    outer loop
      vertex 2.98974 9.20147 93.15
      vertex 4.11942 8.7542 93.15
      vertex 12.575 12.575 93.15
    endloop
  endfacet
  facet normal 0 0 1
    outer loop
      vertex 4.11942 8.7542 93.15
      vertex 5.18412 8.16887 93.15
      vertex 12.575 12.575 93.15
    endloop
  endfacet
  facet normal 0 0 1
    outer loop
      vertex 5.18412 8.16887 93.15
      vertex 6.16708 7.45472 93.15
      vertex 12.575 12.575 93.15
    endloop
  endfacet
  facet normal 0 0 1
    outer loop
      vertex 6.16708 7.45472 93.15
      vertex 7.05277 6.62299 93.15
      vertex 12.575 12.575 93.15
    endloop
  endfacet
  facet normal 0 0 1
    outer loop
      vertex 7.05277 6.62299 93.15
      vertex 7.82724 5.68682 93.15
      vertex 12.575 12.575 93.15
    endloop
  endfacet
  facet normal 0 -0 1
    outer loop
      vertex 9.675 0 93.15
      vertex 9.59871 -1.2126 93.15
      vertex 12.575 -12.575 93.15
    endloop
  endfacet
  facet normal 0 0 1
    outer loop
      vertex 12.575 12.575 93.15
      vertex 8.47827 4.66097 93.15
      vertex 8.99559 3.5616 93.15
    endloop
  endfacet
  facet normal 0 0 1
    outer loop
      vertex 12.575 12.575 93.15
      vertex 9.37104 2.40607 93.15
      vertex 12.575 -12.575 93.15
    endloop
  endfacet
  facet normal 0 0 1
    outer loop
      vertex 12.575 12.575 93.15
      vertex 8.99559 3.5616 93.15
      vertex 9.37104 2.40607 93.15
    endloop
  endfacet
  facet normal 0 0 1
    outer loop
      vertex 9.37104 2.40607 93.15
      vertex 9.59871 1.2126 93.15
      vertex 12.575 -12.575 93.15
    endloop
  endfacet
  facet normal 0 -0 1
    outer loop
      vertex 9.59871 -1.2126 93.15
      vertex 9.37104 -2.40607 93.15
      vertex 12.575 -12.575 93.15
    endloop
  endfacet
  facet normal 0 -0 1
    outer loop
      vertex 9.37104 -2.40607 93.15
      vertex 8.99559 -3.5616 93.15
      vertex 12.575 -12.575 93.15
    endloop
  endfacet
  facet normal 0 -0 1
    outer loop
      vertex 8.99559 -3.5616 93.15
      vertex 8.47827 -4.66097 93.15
      vertex 12.575 -12.575 93.15
    endloop
  endfacet
  facet normal 0 -0 1
    outer loop
      vertex 8.47827 -4.66097 93.15
      vertex 7.82724 -5.68682 93.15
      vertex 12.575 -12.575 93.15
    endloop
  endfacet
  facet normal 0 -0 1
    outer loop
      vertex 7.82724 -5.68682 93.15
      vertex 7.05277 -6.62299 93.15
      vertex 12.575 -12.575 93.15
    endloop
  endfacet
  facet normal 0 -0 1
    outer loop
      vertex 7.05277 -6.62299 93.15
      vertex 6.16708 -7.45472 93.15
      vertex 12.575 -12.575 93.15
    endloop
  endfacet
  facet normal 0 -0 1
    outer loop
      vertex 6.16708 -7.45472 93.15
      vertex 5.18412 -8.16887 93.15
      vertex 12.575 -12.575 93.15
    endloop
  endfacet
  facet normal 0 -0 1
    outer loop
      vertex 5.18412 -8.16887 93.15
      vertex 4.11942 -8.7542 93.15
      vertex 12.575 -12.575 93.15
    endloop
  endfacet
  facet normal 0 -0 1
    outer loop
      vertex 4.11942 -8.7542 93.15
      vertex 2.98974 -9.20147 93.15
      vertex 12.575 -12.575 93.15
    endloop
  endfacet
  facet normal 0 -0 1
    outer loop
      vertex 2.98974 -9.20147 93.15
      vertex 1.81291 -9.50363 93.15
      vertex 12.575 -12.575 93.15
    endloop
  endfacet
  facet normal 0 -0 1
    outer loop
      vertex 1.81291 -9.50363 93.15
      vertex 0.607498 -9.65591 93.15
      vertex 12.575 -12.575 93.15
    endloop
  endfacet
  facet normal 0 0 1
    outer loop
      vertex 7.82724 5.68682 93.15
      vertex 8.47827 4.66097 93.15
      vertex 12.575 12.575 93.15
    endloop
  endfacet
  facet normal 0 -1 0
    outer loop
      vertex 0.607498 9.65591 78
      vertex 0.607498 9.65591 93.15
      vertex 0 9.65591 93.15
    endloop
  endfacet
  facet normal -0 -1 -0
    outer loop
      vertex 0 9.65591 78
      vertex 0.607498 9.65591 78
      vertex 0 9.65591 93.15
    endloop
  endfacet
  facet normal 0 -1 0
    outer loop
      vertex 0.66401 10.5541 77
      vertex 0.66401 10.5541 78
      vertex 0 10.5541 78
    endloop
  endfacet
  facet normal -0 -1 -0
    outer loop
      vertex 0 10.5541 77
      vertex 0.66401 10.5541 77
      vertex 0 10.5541 78
    endloop
  endfacet
  facet normal 0 -1 0
    outer loop
      vertex 0.607498 9.65591 3
      vertex 0.607498 9.65591 77
      vertex 0 9.65591 77
    endloop
  endfacet
  facet normal -0 -1 -0
    outer loop
      vertex 0 9.65591 3
      vertex 0.607498 9.65591 3
      vertex 0 9.65591 77
    endloop
  endfacet
  facet normal -0.125334 -0.992115 -0
    outer loop
      vertex 1.81291 9.50363 3
      vertex 1.81291 9.50363 77
      vertex 0.607498 9.65591 77
    endloop
  endfacet
  facet normal -0.125334 -0.992115 -0
    outer loop
      vertex 0.607498 9.65591 3
      vertex 1.81291 9.50363 3
      vertex 0.607498 9.65591 77
    endloop
  endfacet
  facet normal -0.24869 -0.968583 -0
    outer loop
      vertex 2.98974 9.20147 3
      vertex 2.98974 9.20147 77
      vertex 1.81291 9.50363 77
    endloop
  endfacet
  facet normal -0.24869 -0.968583 -0
    outer loop
      vertex 1.81291 9.50363 3
      vertex 2.98974 9.20147 3
      vertex 1.81291 9.50363 77
    endloop
  endfacet
  facet normal -0.368124 -0.929777 -0
    outer loop
      vertex 4.11942 8.7542 3
      vertex 4.11942 8.7542 77
      vertex 2.98974 9.20147 77
    endloop
  endfacet
  facet normal -0.368124 -0.929777 -0
    outer loop
      vertex 2.98974 9.20147 3
      vertex 4.11942 8.7542 3
      vertex 2.98974 9.20147 77
    endloop
  endfacet
  facet normal -0.481754 -0.876307 -0
    outer loop
      vertex 5.18412 8.16887 3
      vertex 5.18412 8.16887 77
      vertex 4.11942 8.7542 77
    endloop
  endfacet
  facet normal -0.481754 -0.876307 -0
    outer loop
      vertex 4.11942 8.7542 3
      vertex 5.18412 8.16887 3
      vertex 4.11942 8.7542 77
    endloop
  endfacet
  facet normal -0.587785 -0.809017 -0
    outer loop
      vertex 6.16708 7.45472 3
      vertex 6.16708 7.45472 77
      vertex 5.18412 8.16887 77
    endloop
  endfacet
  facet normal -0.587785 -0.809017 -0
    outer loop
      vertex 5.18412 8.16887 3
      vertex 6.16708 7.45472 3
      vertex 5.18412 8.16887 77
    endloop
  endfacet
  facet normal -0.684548 -0.728968 -0
    outer loop
      vertex 7.05277 6.62299 3
      vertex 7.05277 6.62299 77
      vertex 6.16708 7.45472 77
    endloop
  endfacet
  facet normal -0.684548 -0.728968 -0
    outer loop
      vertex 6.16708 7.45472 3
      vertex 7.05277 6.62299 3
      vertex 6.16708 7.45472 77
    endloop
  endfacet
  facet normal -0.770513 -0.637424 0
    outer loop
      vertex 7.82724 5.68682 77
      vertex 7.05277 6.62299 77
      vertex 7.82724 5.68682 3
    endloop
  endfacet
  facet normal -0.770513 -0.637424 0
    outer loop
      vertex 7.82724 5.68682 3
      vertex 7.05277 6.62299 77
      vertex 7.05277 6.62299 3
    endloop
  endfacet
  facet normal -0.844328 -0.535827 0
    outer loop
      vertex 8.47827 4.66097 77
      vertex 7.82724 5.68682 77
      vertex 8.47827 4.66097 3
    endloop
  endfacet
  facet normal -0.844328 -0.535827 0
    outer loop
      vertex 8.47827 4.66097 3
      vertex 7.82724 5.68682 77
      vertex 7.82724 5.68682 3
    endloop
  endfacet
  facet normal -0.904827 -0.42578 0
    outer loop
      vertex 8.99559 3.5616 77
      vertex 8.47827 4.66097 77
      vertex 8.99559 3.5616 3
    endloop
  endfacet
  facet normal -0.904827 -0.42578 0
    outer loop
      vertex 8.99559 3.5616 3
      vertex 8.47827 4.66097 77
      vertex 8.47827 4.66097 3
    endloop
  endfacet
  facet normal -0.951057 -0.309017 0
    outer loop
      vertex 9.37104 2.40607 77
      vertex 8.99559 3.5616 77
      vertex 9.37104 2.40607 3
    endloop
  endfacet
  facet normal -0.951057 -0.309017 0
    outer loop
      vertex 9.37104 2.40607 3
      vertex 8.99559 3.5616 77
      vertex 8.99559 3.5616 3
    endloop
  endfacet
  facet normal -0.982287 -0.187382 0
    outer loop
      vertex 9.59871 1.2126 77
      vertex 9.37104 2.40607 77
      vertex 9.59871 1.2126 3
    endloop
  endfacet
  facet normal -0.982287 -0.187382 0
    outer loop
      vertex 9.59871 1.2126 3
      vertex 9.37104 2.40607 77
      vertex 9.37104 2.40607 3
    endloop
  endfacet
  facet normal -0.998027 -0.0627903 0
    outer loop
      vertex 9.675 0 77
      vertex 9.59871 1.2126 77
      vertex 9.675 0 3
    endloop
  endfacet
  facet normal -0.998027 -0.0627903 0
    outer loop
      vertex 9.675 0 3
      vertex 9.59871 1.2126 77
      vertex 9.59871 1.2126 3
    endloop
  endfacet
  facet normal -0.998027 0.0627903 0
    outer loop
      vertex 9.675 0 77
      vertex 9.675 0 3
      vertex 9.59871 -1.2126 77
    endloop
  endfacet
  facet normal -0.998027 0.0627903 0
    outer loop
      vertex 9.59871 -1.2126 77
      vertex 9.675 0 3
      vertex 9.59871 -1.2126 3
    endloop
  endfacet
  facet normal -0.982287 0.187382 0
    outer loop
      vertex 9.59871 -1.2126 77
      vertex 9.59871 -1.2126 3
      vertex 9.37104 -2.40607 77
    endloop
  endfacet
  facet normal -0.982287 0.187382 0
    outer loop
      vertex 9.37104 -2.40607 77
      vertex 9.59871 -1.2126 3
      vertex 9.37104 -2.40607 3
    endloop
  endfacet
  facet normal -0.951057 0.309017 0
    outer loop
      vertex 9.37104 -2.40607 77
      vertex 9.37104 -2.40607 3
      vertex 8.99559 -3.5616 77
    endloop
  endfacet
  facet normal -0.951057 0.309017 0
    outer loop
      vertex 8.99559 -3.5616 77
      vertex 9.37104 -2.40607 3
      vertex 8.99559 -3.5616 3
    endloop
  endfacet
  facet normal -0.904827 0.42578 0
    outer loop
      vertex 8.99559 -3.5616 77
      vertex 8.99559 -3.5616 3
      vertex 8.47827 -4.66097 77
    endloop
  endfacet
  facet normal -0.904827 0.42578 0
    outer loop
      vertex 8.47827 -4.66097 77
      vertex 8.99559 -3.5616 3
      vertex 8.47827 -4.66097 3
    endloop
  endfacet
  facet normal -0.844328 0.535827 0
    outer loop
      vertex 8.47827 -4.66097 77
      vertex 8.47827 -4.66097 3
      vertex 7.82724 -5.68682 77
    endloop
  endfacet
  facet normal -0.844328 0.535827 0
    outer loop
      vertex 7.82724 -5.68682 77
      vertex 8.47827 -4.66097 3
      vertex 7.82724 -5.68682 3
    endloop
  endfacet
  facet normal -0.770513 0.637424 0
    outer loop
      vertex 7.82724 -5.68682 77
      vertex 7.82724 -5.68682 3
      vertex 7.05277 -6.62299 77
    endloop
  endfacet
  facet normal -0.770513 0.637424 0
    outer loop
      vertex 7.05277 -6.62299 77
      vertex 7.82724 -5.68682 3
      vertex 7.05277 -6.62299 3
    endloop
  endfacet
  facet normal -0.684548 0.728968 0
    outer loop
      vertex 7.05277 -6.62299 77
      vertex 7.05277 -6.62299 3
      vertex 6.16708 -7.45472 77
    endloop
  endfacet
  facet normal -0.684548 0.728968 0
    outer loop
      vertex 6.16708 -7.45472 77
      vertex 7.05277 -6.62299 3
      vertex 6.16708 -7.45472 3
    endloop
  endfacet
  facet normal -0.587785 0.809017 0
    outer loop
      vertex 6.16708 -7.45472 77
      vertex 6.16708 -7.45472 3
      vertex 5.18412 -8.16887 77
    endloop
  endfacet
  facet normal -0.587785 0.809017 0
    outer loop
      vertex 5.18412 -8.16887 77
      vertex 6.16708 -7.45472 3
      vertex 5.18412 -8.16887 3
    endloop
  endfacet
  facet normal -0.481754 0.876307 0
    outer loop
      vertex 5.18412 -8.16887 77
      vertex 5.18412 -8.16887 3
      vertex 4.11942 -8.7542 77
    endloop
  endfacet
  facet normal -0.481754 0.876307 0
    outer loop
      vertex 4.11942 -8.7542 77
      vertex 5.18412 -8.16887 3
      vertex 4.11942 -8.7542 3
    endloop
  endfacet
  facet normal -0.368124 0.929777 0
    outer loop
      vertex 4.11942 -8.7542 77
      vertex 4.11942 -8.7542 3
      vertex 2.98974 -9.20147 77
    endloop
  endfacet
  facet normal -0.368124 0.929777 0
    outer loop
      vertex 2.98974 -9.20147 77
      vertex 4.11942 -8.7542 3
      vertex 2.98974 -9.20147 3
    endloop
  endfacet
  facet normal -0.24869 0.968583 0
    outer loop
      vertex 2.98974 -9.20147 77
      vertex 2.98974 -9.20147 3
      vertex 1.81291 -9.50363 77
    endloop
  endfacet
  facet normal -0.24869 0.968583 0
    outer loop
      vertex 1.81291 -9.50363 77
      vertex 2.98974 -9.20147 3
      vertex 1.81291 -9.50363 3
    endloop
  endfacet
  facet normal -0.125334 0.992115 0
    outer loop
      vertex 1.81291 -9.50363 77
      vertex 1.81291 -9.50363 3
      vertex 0.607498 -9.65591 77
    endloop
  endfacet
  facet normal -0.125334 0.992115 0
    outer loop
      vertex 0.607498 -9.65591 77
      vertex 1.81291 -9.50363 3
      vertex 0.607498 -9.65591 3
    endloop
  endfacet
  facet normal -0.125333 0.992115 0
    outer loop
      vertex 1.98156 -10.3877 78
      vertex 1.98156 -10.3877 77
      vertex 0.66401 -10.5541 78
    endloop
  endfacet
  facet normal -0.125333 0.992115 0
    outer loop
      vertex 0.66401 -10.5541 78
      vertex 1.98156 -10.3877 77
      vertex 0.66401 -10.5541 77
    endloop
  endfacet
  facet normal -0.125333 -0.992115 -0
    outer loop
      vertex 1.98156 10.3877 77
      vertex 1.98156 10.3877 78
      vertex 0.66401 10.5541 78
    endloop
  endfacet
  facet normal -0.125333 -0.992115 -0
    outer loop
      vertex 0.66401 10.5541 77
      vertex 1.98156 10.3877 77
      vertex 0.66401 10.5541 78
    endloop
  endfacet
  facet normal -0.24869 -0.968583 -0
    outer loop
      vertex 3.26785 10.0574 77
      vertex 3.26785 10.0574 78
      vertex 1.98156 10.3877 78
    endloop
  endfacet
  facet normal -0.24869 -0.968583 -0
    outer loop
      vertex 1.98156 10.3877 77
      vertex 3.26785 10.0574 77
      vertex 1.98156 10.3877 78
    endloop
  endfacet
  facet normal -0.368125 -0.929776 -0
    outer loop
      vertex 4.50262 9.56855 77
      vertex 4.50262 9.56855 78
      vertex 3.26785 10.0574 78
    endloop
  endfacet
  facet normal -0.368125 -0.929776 -0
    outer loop
      vertex 3.26785 10.0574 77
      vertex 4.50262 9.56855 77
      vertex 3.26785 10.0574 78
    endloop
  endfacet
  facet normal -0.481754 -0.876307 -0
    outer loop
      vertex 5.66637 8.92877 77
      vertex 5.66637 8.92877 78
      vertex 4.50262 9.56855 78
    endloop
  endfacet
  facet normal -0.481754 -0.876307 -0
    outer loop
      vertex 4.50262 9.56855 77
      vertex 5.66637 8.92877 77
      vertex 4.50262 9.56855 78
    endloop
  endfacet
  facet normal -0.587785 -0.809017 -0
    outer loop
      vertex 6.74076 8.14818 77
      vertex 6.74076 8.14818 78
      vertex 5.66637 8.92877 78
    endloop
  endfacet
  facet normal -0.587785 -0.809017 -0
    outer loop
      vertex 5.66637 8.92877 77
      vertex 6.74076 8.14818 77
      vertex 5.66637 8.92877 78
    endloop
  endfacet
  facet normal -0.684547 -0.728968 -0
    outer loop
      vertex 7.70884 7.23909 77
      vertex 7.70884 7.23909 78
      vertex 6.74076 8.14818 78
    endloop
  endfacet
  facet normal -0.684547 -0.728968 -0
    outer loop
      vertex 6.74076 8.14818 77
      vertex 7.70884 7.23909 77
      vertex 6.74076 8.14818 78
    endloop
  endfacet
  facet normal -0.770513 -0.637424 0
    outer loop
      vertex 8.55536 6.21583 78
      vertex 7.70884 7.23909 78
      vertex 8.55536 6.21583 77
    endloop
  endfacet
  facet normal -0.770513 -0.637424 0
    outer loop
      vertex 8.55536 6.21583 77
      vertex 7.70884 7.23909 78
      vertex 7.70884 7.23909 77
    endloop
  endfacet
  facet normal -0.844328 -0.535827 0
    outer loop
      vertex 9.26694 5.09455 78
      vertex 8.55536 6.21583 78
      vertex 9.26694 5.09455 77
    endloop
  endfacet
  facet normal -0.844328 -0.535827 0
    outer loop
      vertex 9.26694 5.09455 77
      vertex 8.55536 6.21583 78
      vertex 8.55536 6.21583 77
    endloop
  endfacet
  facet normal -0.904827 -0.425779 0
    outer loop
      vertex 9.83239 3.89292 78
      vertex 9.26694 5.09455 78
      vertex 9.83239 3.89292 77
    endloop
  endfacet
  facet normal -0.904827 -0.425779 0
    outer loop
      vertex 9.83239 3.89292 77
      vertex 9.26694 5.09455 78
      vertex 9.26694 5.09455 77
    endloop
  endfacet
  facet normal -0.951056 -0.309017 0
    outer loop
      vertex 10.2428 2.6299 78
      vertex 9.83239 3.89292 78
      vertex 10.2428 2.6299 77
    endloop
  endfacet
  facet normal -0.951056 -0.309017 0
    outer loop
      vertex 10.2428 2.6299 77
      vertex 9.83239 3.89292 78
      vertex 9.83239 3.89292 77
    endloop
  endfacet
  facet normal -0.982287 -0.187381 0
    outer loop
      vertex 10.4916 1.3254 78
      vertex 10.2428 2.6299 78
      vertex 10.4916 1.3254 77
    endloop
  endfacet
  facet normal -0.982287 -0.187381 0
    outer loop
      vertex 10.4916 1.3254 77
      vertex 10.2428 2.6299 78
      vertex 10.2428 2.6299 77
    endloop
  endfacet
  facet normal -0.998027 -0.0627905 0
    outer loop
      vertex 10.575 0 78
      vertex 10.4916 1.3254 78
      vertex 10.575 0 77
    endloop
  endfacet
  facet normal -0.998027 -0.0627905 0
    outer loop
      vertex 10.575 0 77
      vertex 10.4916 1.3254 78
      vertex 10.4916 1.3254 77
    endloop
  endfacet
  facet normal -0.998027 0.0627905 0
    outer loop
      vertex 10.575 0 78
      vertex 10.575 0 77
      vertex 10.4916 -1.3254 78
    endloop
  endfacet
  facet normal -0.998027 0.0627905 0
    outer loop
      vertex 10.4916 -1.3254 78
      vertex 10.575 0 77
      vertex 10.4916 -1.3254 77
    endloop
  endfacet
  facet normal -0.982287 0.187381 0
    outer loop
      vertex 10.4916 -1.3254 78
      vertex 10.4916 -1.3254 77
      vertex 10.2428 -2.6299 78
    endloop
  endfacet
  facet normal -0.982287 0.187381 0
    outer loop
      vertex 10.2428 -2.6299 78
      vertex 10.4916 -1.3254 77
      vertex 10.2428 -2.6299 77
    endloop
  endfacet
  facet normal -0.951056 0.309017 0
    outer loop
      vertex 10.2428 -2.6299 78
      vertex 10.2428 -2.6299 77
      vertex 9.83239 -3.89292 78
    endloop
  endfacet
  facet normal -0.951056 0.309017 0
    outer loop
      vertex 9.83239 -3.89292 78
      vertex 10.2428 -2.6299 77
      vertex 9.83239 -3.89292 77
    endloop
  endfacet
  facet normal -0.904827 0.425779 0
    outer loop
      vertex 9.83239 -3.89292 78
      vertex 9.83239 -3.89292 77
      vertex 9.26694 -5.09455 78
    endloop
  endfacet
  facet normal -0.904827 0.425779 0
    outer loop
      vertex 9.26694 -5.09455 78
      vertex 9.83239 -3.89292 77
      vertex 9.26694 -5.09455 77
    endloop
  endfacet
  facet normal -0.844328 0.535827 0
    outer loop
      vertex 9.26694 -5.09455 78
      vertex 9.26694 -5.09455 77
      vertex 8.55536 -6.21583 78
    endloop
  endfacet
  facet normal -0.844328 0.535827 0
    outer loop
      vertex 8.55536 -6.21583 78
      vertex 9.26694 -5.09455 77
      vertex 8.55536 -6.21583 77
    endloop
  endfacet
  facet normal -0.770513 0.637424 0
    outer loop
      vertex 8.55536 -6.21583 78
      vertex 8.55536 -6.21583 77
      vertex 7.70884 -7.23909 78
    endloop
  endfacet
  facet normal -0.770513 0.637424 0
    outer loop
      vertex 7.70884 -7.23909 78
      vertex 8.55536 -6.21583 77
      vertex 7.70884 -7.23909 77
    endloop
  endfacet
  facet normal -0.684547 0.728968 0
    outer loop
      vertex 7.70884 -7.23909 78
      vertex 7.70884 -7.23909 77
      vertex 6.74076 -8.14818 78
    endloop
  endfacet
  facet normal -0.684547 0.728968 0
    outer loop
      vertex 6.74076 -8.14818 78
      vertex 7.70884 -7.23909 77
      vertex 6.74076 -8.14818 77
    endloop
  endfacet
  facet normal -0.587785 0.809017 0
    outer loop
      vertex 6.74076 -8.14818 78
      vertex 6.74076 -8.14818 77
      vertex 5.66637 -8.92877 78
    endloop
  endfacet
  facet normal -0.587785 0.809017 0
    outer loop
      vertex 5.66637 -8.92877 78
      vertex 6.74076 -8.14818 77
      vertex 5.66637 -8.92877 77
    endloop
  endfacet
  facet normal -0.481754 0.876307 0
    outer loop
      vertex 5.66637 -8.92877 78
      vertex 5.66637 -8.92877 77
      vertex 4.50262 -9.56855 78
    endloop
  endfacet
  facet normal -0.481754 0.876307 0
    outer loop
      vertex 4.50262 -9.56855 78
      vertex 5.66637 -8.92877 77
      vertex 4.50262 -9.56855 77
    endloop
  endfacet
  facet normal -0.368125 0.929776 0
    outer loop
      vertex 4.50262 -9.56855 78
      vertex 4.50262 -9.56855 77
      vertex 3.26785 -10.0574 78
    endloop
  endfacet
  facet normal -0.368125 0.929776 0
    outer loop
      vertex 3.26785 -10.0574 78
      vertex 4.50262 -9.56855 77
      vertex 3.26785 -10.0574 77
    endloop
  endfacet
  facet normal -0.24869 0.968583 0
    outer loop
      vertex 3.26785 -10.0574 78
      vertex 3.26785 -10.0574 77
      vertex 1.98156 -10.3877 78
    endloop
  endfacet
  facet normal -0.24869 0.968583 0
    outer loop
      vertex 1.98156 -10.3877 78
      vertex 3.26785 -10.0574 77
      vertex 1.98156 -10.3877 77
    endloop
  endfacet
  facet normal -0.125334 -0.992115 -0
    outer loop
      vertex 1.81291 9.50363 78
      vertex 1.81291 9.50363 93.15
      vertex 0.607498 9.65591 93.15
    endloop
  endfacet
  facet normal -0.125334 -0.992115 -0
    outer loop
      vertex 0.607498 9.65591 78
      vertex 1.81291 9.50363 78
      vertex 0.607498 9.65591 93.15
    endloop
  endfacet
  facet normal -0.24869 -0.968583 -0
    outer loop
      vertex 2.98974 9.20147 78
      vertex 2.98974 9.20147 93.15
      vertex 1.81291 9.50363 93.15
    endloop
  endfacet
  facet normal -0.24869 -0.968583 -0
    outer loop
      vertex 1.81291 9.50363 78
      vertex 2.98974 9.20147 78
      vertex 1.81291 9.50363 93.15
    endloop
  endfacet
  facet normal -0.368124 -0.929777 -0
    outer loop
      vertex 4.11942 8.7542 78
      vertex 4.11942 8.7542 93.15
      vertex 2.98974 9.20147 93.15
    endloop
  endfacet
  facet normal -0.368124 -0.929777 -0
    outer loop
      vertex 2.98974 9.20147 78
      vertex 4.11942 8.7542 78
      vertex 2.98974 9.20147 93.15
    endloop
  endfacet
  facet normal -0.481754 -0.876307 -0
    outer loop
      vertex 5.18412 8.16887 78
      vertex 5.18412 8.16887 93.15
      vertex 4.11942 8.7542 93.15
    endloop
  endfacet
  facet normal -0.481754 -0.876307 -0
    outer loop
      vertex 4.11942 8.7542 78
      vertex 5.18412 8.16887 78
      vertex 4.11942 8.7542 93.15
    endloop
  endfacet
  facet normal -0.587785 -0.809017 -0
    outer loop
      vertex 6.16708 7.45472 78
      vertex 6.16708 7.45472 93.15
      vertex 5.18412 8.16887 93.15
    endloop
  endfacet
  facet normal -0.587785 -0.809017 -0
    outer loop
      vertex 5.18412 8.16887 78
      vertex 6.16708 7.45472 78
      vertex 5.18412 8.16887 93.15
    endloop
  endfacet
  facet normal -0.684548 -0.728968 -0
    outer loop
      vertex 7.05277 6.62299 78
      vertex 7.05277 6.62299 93.15
      vertex 6.16708 7.45472 93.15
    endloop
  endfacet
  facet normal -0.684548 -0.728968 -0
    outer loop
      vertex 6.16708 7.45472 78
      vertex 7.05277 6.62299 78
      vertex 6.16708 7.45472 93.15
    endloop
  endfacet
  facet normal -0.770513 -0.637424 0
    outer loop
      vertex 7.82724 5.68682 93.15
      vertex 7.05277 6.62299 93.15
      vertex 7.82724 5.68682 78
    endloop
  endfacet
  facet normal -0.770513 -0.637424 0
    outer loop
      vertex 7.82724 5.68682 78
      vertex 7.05277 6.62299 93.15
      vertex 7.05277 6.62299 78
    endloop
  endfacet
  facet normal -0.844328 -0.535827 0
    outer loop
      vertex 8.47827 4.66097 93.15
      vertex 7.82724 5.68682 93.15
      vertex 8.47827 4.66097 78
    endloop
  endfacet
  facet normal -0.844328 -0.535827 0
    outer loop
      vertex 8.47827 4.66097 78
      vertex 7.82724 5.68682 93.15
      vertex 7.82724 5.68682 78
    endloop
  endfacet
  facet normal -0.904827 -0.42578 0
    outer loop
      vertex 8.99559 3.5616 93.15
      vertex 8.47827 4.66097 93.15
      vertex 8.99559 3.5616 78
    endloop
  endfacet
  facet normal -0.904827 -0.42578 0
    outer loop
      vertex 8.99559 3.5616 78
      vertex 8.47827 4.66097 93.15
      vertex 8.47827 4.66097 78
    endloop
  endfacet
  facet normal -0.951057 -0.309017 0
    outer loop
      vertex 9.37104 2.40607 93.15
      vertex 8.99559 3.5616 93.15
      vertex 9.37104 2.40607 78
    endloop
  endfacet
  facet normal -0.951057 -0.309017 0
    outer loop
      vertex 9.37104 2.40607 78
      vertex 8.99559 3.5616 93.15
      vertex 8.99559 3.5616 78
    endloop
  endfacet
  facet normal -0.982287 -0.187382 0
    outer loop
      vertex 9.59871 1.2126 93.15
      vertex 9.37104 2.40607 93.15
      vertex 9.59871 1.2126 78
    endloop
  endfacet
  facet normal -0.982287 -0.187382 0
    outer loop
      vertex 9.59871 1.2126 78
      vertex 9.37104 2.40607 93.15
      vertex 9.37104 2.40607 78
    endloop
  endfacet
  facet normal -0.998027 -0.0627903 0
    outer loop
      vertex 9.675 0 93.15
      vertex 9.59871 1.2126 93.15
      vertex 9.675 0 78
    endloop
  endfacet
  facet normal -0.998027 -0.0627903 0
    outer loop
      vertex 9.675 0 78
      vertex 9.59871 1.2126 93.15
      vertex 9.59871 1.2126 78
    endloop
  endfacet
  facet normal -0.998027 0.0627903 0
    outer loop
      vertex 9.675 0 93.15
      vertex 9.675 0 78
      vertex 9.59871 -1.2126 93.15
    endloop
  endfacet
  facet normal -0.998027 0.0627903 0
    outer loop
      vertex 9.59871 -1.2126 93.15
      vertex 9.675 0 78
      vertex 9.59871 -1.2126 78
    endloop
  endfacet
  facet normal -0.982287 0.187382 0
    outer loop
      vertex 9.59871 -1.2126 93.15
      vertex 9.59871 -1.2126 78
      vertex 9.37104 -2.40607 93.15
    endloop
  endfacet
  facet normal -0.982287 0.187382 0
    outer loop
      vertex 9.37104 -2.40607 93.15
      vertex 9.59871 -1.2126 78
      vertex 9.37104 -2.40607 78
    endloop
  endfacet
  facet normal -0.951057 0.309017 0
    outer loop
      vertex 9.37104 -2.40607 93.15
      vertex 9.37104 -2.40607 78
      vertex 8.99559 -3.5616 93.15
    endloop
  endfacet
  facet normal -0.951057 0.309017 0
    outer loop
      vertex 8.99559 -3.5616 93.15
      vertex 9.37104 -2.40607 78
      vertex 8.99559 -3.5616 78
    endloop
  endfacet
  facet normal -0.904827 0.42578 0
    outer loop
      vertex 8.99559 -3.5616 93.15
      vertex 8.99559 -3.5616 78
      vertex 8.47827 -4.66097 93.15
    endloop
  endfacet
  facet normal -0.904827 0.42578 0
    outer loop
      vertex 8.47827 -4.66097 93.15
      vertex 8.99559 -3.5616 78
      vertex 8.47827 -4.66097 78
    endloop
  endfacet
  facet normal -0.844328 0.535827 0
    outer loop
      vertex 8.47827 -4.66097 93.15
      vertex 8.47827 -4.66097 78
      vertex 7.82724 -5.68682 93.15
    endloop
  endfacet
  facet normal -0.844328 0.535827 0
    outer loop
      vertex 7.82724 -5.68682 93.15
      vertex 8.47827 -4.66097 78
      vertex 7.82724 -5.68682 78
    endloop
  endfacet
  facet normal -0.770513 0.637424 0
    outer loop
      vertex 7.82724 -5.68682 93.15
      vertex 7.82724 -5.68682 78
      vertex 7.05277 -6.62299 93.15
    endloop
  endfacet
  facet normal -0.770513 0.637424 0
    outer loop
      vertex 7.05277 -6.62299 93.15
      vertex 7.82724 -5.68682 78
      vertex 7.05277 -6.62299 78
    endloop
  endfacet
  facet normal -0.684548 0.728968 0
    outer loop
      vertex 7.05277 -6.62299 93.15
      vertex 7.05277 -6.62299 78
      vertex 6.16708 -7.45472 93.15
    endloop
  endfacet
  facet normal -0.684548 0.728968 0
    outer loop
      vertex 6.16708 -7.45472 93.15
      vertex 7.05277 -6.62299 78
      vertex 6.16708 -7.45472 78
    endloop
  endfacet
  facet normal -0.587785 0.809017 0
    outer loop
      vertex 6.16708 -7.45472 93.15
      vertex 6.16708 -7.45472 78
      vertex 5.18412 -8.16887 93.15
    endloop
  endfacet
  facet normal -0.587785 0.809017 0
    outer loop
      vertex 5.18412 -8.16887 93.15
      vertex 6.16708 -7.45472 78
      vertex 5.18412 -8.16887 78
    endloop
  endfacet
  facet normal -0.481754 0.876307 0
    outer loop
      vertex 5.18412 -8.16887 93.15
      vertex 5.18412 -8.16887 78
      vertex 4.11942 -8.7542 93.15
    endloop
  endfacet
  facet normal -0.481754 0.876307 0
    outer loop
      vertex 4.11942 -8.7542 93.15
      vertex 5.18412 -8.16887 78
      vertex 4.11942 -8.7542 78
    endloop
  endfacet
  facet normal -0.368124 0.929777 0
    outer loop
      vertex 4.11942 -8.7542 93.15
      vertex 4.11942 -8.7542 78
      vertex 2.98974 -9.20147 93.15
    endloop
  endfacet
  facet normal -0.368124 0.929777 0
    outer loop
      vertex 2.98974 -9.20147 93.15
      vertex 4.11942 -8.7542 78
      vertex 2.98974 -9.20147 78
    endloop
  endfacet
  facet normal -0.24869 0.968583 0
    outer loop
      vertex 2.98974 -9.20147 93.15
      vertex 2.98974 -9.20147 78
      vertex 1.81291 -9.50363 93.15
    endloop
  endfacet
  facet normal -0.24869 0.968583 0
    outer loop
      vertex 1.81291 -9.50363 93.15
      vertex 2.98974 -9.20147 78
      vertex 1.81291 -9.50363 78
    endloop
  endfacet
  facet normal -0.125334 0.992115 0
    outer loop
      vertex 1.81291 -9.50363 93.15
      vertex 1.81291 -9.50363 78
      vertex 0.607498 -9.65591 93.15
    endloop
  endfacet
  facet normal -0.125334 0.992115 0
    outer loop
      vertex 0.607498 -9.65591 93.15
      vertex 1.81291 -9.50363 78
      vertex 0.607498 -9.65591 78
    endloop
  endfacet
endsolid OpenSCAD_Model
