solid OpenSCAD_Model
  facet normal -0 0 -1
    outer loop
      vertex -18.725 0 0
      vertex -18.5773 2.34686 0
      vertex -18.5773 -2.34686 0
    endloop
  endfacet
  facet normal 0 -0 -1
    outer loop
      vertex -18.5773 -2.34686 0
      vertex -18.5773 2.34686 0
      vertex -18.1367 4.65672 0
    endloop
  endfacet
  facet normal 0 0 -1
    outer loop
      vertex -18.5773 -2.34686 0
      vertex -18.1367 4.65672 0
      vertex -17.4101 6.89313 0
    endloop
  endfacet
  facet normal 0 0 -1
    outer loop
      vertex -18.5773 -2.34686 0
      vertex -17.4101 6.89313 0
      vertex -16.4088 9.02084 0
    endloop
  endfacet
  facet normal 0 0 -1
    outer loop
      vertex -18.5773 -2.34686 0
      vertex -16.4088 9.02084 0
      vertex -15.1488 11.0063 0
    endloop
  endfacet
  facet normal 0 0 -1
    outer loop
      vertex -18.5773 -2.34686 0
      vertex -15.1488 11.0063 0
      vertex -13.6499 12.8181 0
    endloop
  endfacet
  facet normal 0 0 -1
    outer loop
      vertex -18.5773 -2.34686 0
      vertex -13.6499 12.8181 0
      vertex -11.9358 14.4279 0
    endloop
  endfacet
  facet normal 0 0 -1
    outer loop
      vertex -18.5773 -2.34686 0
      vertex -11.9358 14.4279 0
      vertex -10.0334 15.81 0
    endloop
  endfacet
  facet normal 0 0 -1
    outer loop
      vertex -18.5773 -2.34686 0
      vertex -10.0334 15.81 0
      vertex -7.97272 16.9429 0
    endloop
  endfacet
  facet normal 0 0 -1
    outer loop
      vertex -18.5773 -2.34686 0
      vertex -7.97272 16.9429 0
      vertex -5.78634 17.8085 0
    endloop
  endfacet
  facet normal 0 0 -1
    outer loop
      vertex -18.5773 -2.34686 0
      vertex -5.78634 17.8085 0
      vertex -3.50872 18.3933 0
    endloop
  endfacet
  facet normal 0 0 -1
    outer loop
      vertex -18.5773 -2.34686 0
      vertex -3.50872 18.3933 0
      vertex -1.17575 18.6881 0
    endloop
  endfacet
  facet normal 0 0 -1
    outer loop
      vertex -18.5773 -2.34686 0
      vertex -1.17575 18.6881 0
      vertex 0 18.6881 0
    endloop
  endfacet
  facet normal 0 -0 -1
    outer loop
      vertex 0 18.6881 0
      vertex 0 18.725 0
      vertex 18.725 18.725 0
    endloop
  endfacet
  facet normal -0 0 -1
    outer loop
      vertex 0 18.6881 0
      vertex 18.725 18.725 0
      vertex -18.5773 -2.34686 0
    endloop
  endfacet
  facet normal -0 0 -1
    outer loop
      vertex -18.5773 -2.34686 0
      vertex 18.725 18.725 0
      vertex 18.725 -18.725 0
    endloop
  endfacet
  facet normal 0 0 -1
    outer loop
      vertex 0 -18.6881 0
      vertex 18.725 -18.725 0
      vertex 0 -18.725 0
    endloop
  endfacet
  facet normal 0 0 -1
    outer loop
      vertex -18.5773 -2.34686 0
      vertex 18.725 -18.725 0
      vertex 0 -18.6881 0
    endloop
  endfacet
  facet normal 0 0 -1
    outer loop
      vertex -18.5773 -2.34686 0
      vertex -1.17575 -18.6881 0
      vertex -3.50872 -18.3933 0
    endloop
  endfacet
  facet normal 0 0 -1
    outer loop
      vertex -18.5773 -2.34686 0
      vertex -3.50872 -18.3933 0
      vertex -5.78634 -17.8085 0
    endloop
  endfacet
  facet normal 0 0 -1
    outer loop
      vertex -18.5773 -2.34686 0
      vertex -5.78634 -17.8085 0
      vertex -7.97272 -16.9429 0
    endloop
  endfacet
  facet normal 0 0 -1
    outer loop
      vertex -18.5773 -2.34686 0
      vertex -7.97272 -16.9429 0
      vertex -10.0334 -15.81 0
    endloop
  endfacet
  facet normal 0 0 -1
    outer loop
      vertex -18.5773 -2.34686 0
      vertex -10.0334 -15.81 0
      vertex -11.9358 -14.4279 0
    endloop
  endfacet
  facet normal 0 0 -1
    outer loop
      vertex -18.5773 -2.34686 0
      vertex -11.9358 -14.4279 0
      vertex -13.6499 -12.8181 0
    endloop
  endfacet
  facet normal 0 0 -1
    outer loop
      vertex -18.5773 -2.34686 0
      vertex -13.6499 -12.8181 0
      vertex -15.1488 -11.0063 0
    endloop
  endfacet
  facet normal 0 0 -1
    outer loop
      vertex -18.5773 -2.34686 0
      vertex -15.1488 -11.0063 0
      vertex -16.4088 -9.02084 0
    endloop
  endfacet
  facet normal 0 0 -1
    outer loop
      vertex -18.5773 -2.34686 0
      vertex -16.4088 -9.02084 0
      vertex -17.4101 -6.89313 0
    endloop
  endfacet
  facet normal 0 0 -1
    outer loop
      vertex -18.5773 -2.34686 0
      vertex -17.4101 -6.89313 0
      vertex -18.1367 -4.65672 0
    endloop
  endfacet
  facet normal -0 -0 -1
    outer loop
      vertex -1.17575 -18.6881 0
      vertex -18.5773 -2.34686 0
      vertex 0 -18.6881 0
    endloop
  endfacet
  facet normal -0.998027 0.0627904 0
    outer loop
      vertex -18.725 0 0
      vertex -18.725 0 3
      vertex -18.5773 2.34686 0
    endloop
  endfacet
  facet normal -0.998027 0.0627904 0
    outer loop
      vertex -18.5773 2.34686 0
      vertex -18.725 0 3
      vertex -18.5773 2.34686 3
    endloop
  endfacet
  facet normal -0.998027 -0.0627904 -0
    outer loop
      vertex -18.725 0 0
      vertex -18.5773 -2.34686 0
      vertex -18.725 0 3
    endloop
  endfacet
  facet normal -0.998027 -0.0627904 0
    outer loop
      vertex -18.725 0 3
      vertex -18.5773 -2.34686 0
      vertex -18.5773 -2.34686 3
    endloop
  endfacet
  facet normal -0.982287 -0.187381 -0
    outer loop
      vertex -18.5773 -2.34686 0
      vertex -18.1367 -4.65672 0
      vertex -18.5773 -2.34686 3
    endloop
  endfacet
  facet normal -0.982287 -0.187381 0
    outer loop
      vertex -18.5773 -2.34686 3
      vertex -18.1367 -4.65672 0
      vertex -18.1367 -4.65672 3
    endloop
  endfacet
  facet normal -0.951057 -0.309017 -0
    outer loop
      vertex -18.1367 -4.65672 0
      vertex -17.4101 -6.89313 0
      vertex -18.1367 -4.65672 3
    endloop
  endfacet
  facet normal -0.951057 -0.309017 0
    outer loop
      vertex -18.1367 -4.65672 3
      vertex -17.4101 -6.89313 0
      vertex -17.4101 -6.89313 3
    endloop
  endfacet
  facet normal -0.904827 -0.425779 -0
    outer loop
      vertex -17.4101 -6.89313 0
      vertex -16.4088 -9.02084 0
      vertex -17.4101 -6.89313 3
    endloop
  endfacet
  facet normal -0.904827 -0.425779 0
    outer loop
      vertex -17.4101 -6.89313 3
      vertex -16.4088 -9.02084 0
      vertex -16.4088 -9.02084 3
    endloop
  endfacet
  facet normal -0.844328 -0.535827 -0
    outer loop
      vertex -16.4088 -9.02084 0
      vertex -15.1488 -11.0063 0
      vertex -16.4088 -9.02084 3
    endloop
  endfacet
  facet normal -0.844328 -0.535827 0
    outer loop
      vertex -16.4088 -9.02084 3
      vertex -15.1488 -11.0063 0
      vertex -15.1488 -11.0063 3
    endloop
  endfacet
  facet normal -0.770513 -0.637424 -0
    outer loop
      vertex -15.1488 -11.0063 0
      vertex -13.6499 -12.8181 0
      vertex -15.1488 -11.0063 3
    endloop
  endfacet
  facet normal -0.770513 -0.637424 0
    outer loop
      vertex -15.1488 -11.0063 3
      vertex -13.6499 -12.8181 0
      vertex -13.6499 -12.8181 3
    endloop
  endfacet
  facet normal -0.684547 -0.728969 0
    outer loop
      vertex -13.6499 -12.8181 3
      vertex -13.6499 -12.8181 0
      vertex -11.9358 -14.4279 0
    endloop
  endfacet
  facet normal -0.684547 -0.728969 0
    outer loop
      vertex -11.9358 -14.4279 3
      vertex -13.6499 -12.8181 3
      vertex -11.9358 -14.4279 0
    endloop
  endfacet
  facet normal -0.587785 -0.809017 0
    outer loop
      vertex -11.9358 -14.4279 3
      vertex -11.9358 -14.4279 0
      vertex -10.0334 -15.81 0
    endloop
  endfacet
  facet normal -0.587785 -0.809017 0
    outer loop
      vertex -10.0334 -15.81 3
      vertex -11.9358 -14.4279 3
      vertex -10.0334 -15.81 0
    endloop
  endfacet
  facet normal -0.481754 -0.876307 0
    outer loop
      vertex -10.0334 -15.81 3
      vertex -10.0334 -15.81 0
      vertex -7.97272 -16.9429 0
    endloop
  endfacet
  facet normal -0.481754 -0.876307 0
    outer loop
      vertex -7.97272 -16.9429 3
      vertex -10.0334 -15.81 3
      vertex -7.97272 -16.9429 0
    endloop
  endfacet
  facet normal -0.368124 -0.929777 0
    outer loop
      vertex -7.97272 -16.9429 3
      vertex -7.97272 -16.9429 0
      vertex -5.78634 -17.8085 0
    endloop
  endfacet
  facet normal -0.368124 -0.929777 0
    outer loop
      vertex -5.78634 -17.8085 3
      vertex -7.97272 -16.9429 3
      vertex -5.78634 -17.8085 0
    endloop
  endfacet
  facet normal -0.24869 -0.968583 0
    outer loop
      vertex -5.78634 -17.8085 3
      vertex -5.78634 -17.8085 0
      vertex -3.50872 -18.3933 0
    endloop
  endfacet
  facet normal -0.24869 -0.968583 0
    outer loop
      vertex -3.50872 -18.3933 3
      vertex -5.78634 -17.8085 3
      vertex -3.50872 -18.3933 0
    endloop
  endfacet
  facet normal -0.125333 -0.992115 0
    outer loop
      vertex -3.50872 -18.3933 3
      vertex -3.50872 -18.3933 0
      vertex -1.17575 -18.6881 0
    endloop
  endfacet
  facet normal -0.125333 -0.992115 0
    outer loop
      vertex -1.17575 -18.6881 3
      vertex -3.50872 -18.3933 3
      vertex -1.17575 -18.6881 0
    endloop
  endfacet
  facet normal 0 -1 0
    outer loop
      vertex -1.17575 -18.6881 3
      vertex -1.17575 -18.6881 0
      vertex 0 -18.6881 0
    endloop
  endfacet
  facet normal 0 -1 0
    outer loop
      vertex 0 -18.6881 3
      vertex -1.17575 -18.6881 3
      vertex 0 -18.6881 0
    endloop
  endfacet
  facet normal -1 -0 -0
    outer loop
      vertex 0 -18.725 0
      vertex 0 -18.725 154.45
      vertex 0 -18.6881 0
    endloop
  endfacet
  facet normal -1 0 -0
    outer loop
      vertex 0 -16.692 127
      vertex 0 -18.725 154.45
      vertex 0 -15.7938 154.45
    endloop
  endfacet
  facet normal -1 -0 0
    outer loop
      vertex 0 -18.6881 3
      vertex 0 -15.7938 126
      vertex 0 -15.7938 3
    endloop
  endfacet
  facet normal -1 0 -0
    outer loop
      vertex 0 -18.6881 3
      vertex 0 -18.725 154.45
      vertex 0 -16.692 127
    endloop
  endfacet
  facet normal -1 0 0
    outer loop
      vertex 0 -18.6881 3
      vertex 0 -16.692 127
      vertex 0 -16.692 126
    endloop
  endfacet
  facet normal -1 0 0
    outer loop
      vertex 0 -18.6881 0
      vertex 0 -18.725 154.45
      vertex 0 -18.6881 3
    endloop
  endfacet
  facet normal -1 -0 0
    outer loop
      vertex 0 -16.692 127
      vertex 0 -15.7938 154.45
      vertex 0 -15.7938 127
    endloop
  endfacet
  facet normal -1 0 0
    outer loop
      vertex 0 -18.6881 3
      vertex 0 -16.692 126
      vertex 0 -15.7938 126
    endloop
  endfacet
  facet normal 0 -1 0
    outer loop
      vertex 0 -18.725 154.45
      vertex 0 -18.725 0
      vertex 18.725 -18.725 0
    endloop
  endfacet
  facet normal 0 -1 0
    outer loop
      vertex 18.725 -18.725 154.45
      vertex 0 -18.725 154.45
      vertex 18.725 -18.725 0
    endloop
  endfacet
  facet normal 1 0 -0
    outer loop
      vertex 18.725 -18.725 154.45
      vertex 18.725 -18.725 0
      vertex 18.725 18.725 0
    endloop
  endfacet
  facet normal 1 0 0
    outer loop
      vertex 18.725 18.725 154.45
      vertex 18.725 -18.725 154.45
      vertex 18.725 18.725 0
    endloop
  endfacet
  facet normal 0 1 0
    outer loop
      vertex 0 18.725 0
      vertex 0 18.725 154.45
      vertex 18.725 18.725 0
    endloop
  endfacet
  facet normal 0 1 0
    outer loop
      vertex 18.725 18.725 0
      vertex 0 18.725 154.45
      vertex 18.725 18.725 154.45
    endloop
  endfacet
  facet normal -1 -0 -0
    outer loop
      vertex 0 15.7938 3
      vertex 0 15.7938 126
      vertex 0 18.6881 3
    endloop
  endfacet
  facet normal -1 0 0
    outer loop
      vertex 0 18.6881 3
      vertex 0 15.7938 126
      vertex 0 16.692 126
    endloop
  endfacet
  facet normal -1 0 0
    outer loop
      vertex 0 18.6881 3
      vertex 0 16.692 126
      vertex 0 16.692 127
    endloop
  endfacet
  facet normal -1 0 0
    outer loop
      vertex 0 16.692 127
      vertex 0 15.7938 127
      vertex 0 15.7938 154.45
    endloop
  endfacet
  facet normal -1 0 -0
    outer loop
      vertex 0 16.692 127
      vertex 0 15.7938 154.45
      vertex 0 18.725 154.45
    endloop
  endfacet
  facet normal -1 -0 0
    outer loop
      vertex 0 16.692 127
      vertex 0 18.725 154.45
      vertex 0 18.6881 3
    endloop
  endfacet
  facet normal -1 -0 0
    outer loop
      vertex 0 18.6881 3
      vertex 0 18.725 154.45
      vertex 0 18.725 0
    endloop
  endfacet
  facet normal -1 0 0
    outer loop
      vertex 0 18.6881 3
      vertex 0 18.725 0
      vertex 0 18.6881 0
    endloop
  endfacet
  facet normal 0 1 0
    outer loop
      vertex -1.17575 18.6881 0
      vertex -1.17575 18.6881 3
      vertex 0 18.6881 0
    endloop
  endfacet
  facet normal 0 1 0
    outer loop
      vertex 0 18.6881 0
      vertex -1.17575 18.6881 3
      vertex 0 18.6881 3
    endloop
  endfacet
  facet normal -0.125333 0.992115 0
    outer loop
      vertex -3.50872 18.3933 0
      vertex -3.50872 18.3933 3
      vertex -1.17575 18.6881 0
    endloop
  endfacet
  facet normal -0.125333 0.992115 0
    outer loop
      vertex -1.17575 18.6881 0
      vertex -3.50872 18.3933 3
      vertex -1.17575 18.6881 3
    endloop
  endfacet
  facet normal -0.24869 0.968583 0
    outer loop
      vertex -5.78634 17.8085 0
      vertex -5.78634 17.8085 3
      vertex -3.50872 18.3933 0
    endloop
  endfacet
  facet normal -0.24869 0.968583 0
    outer loop
      vertex -3.50872 18.3933 0
      vertex -5.78634 17.8085 3
      vertex -3.50872 18.3933 3
    endloop
  endfacet
  facet normal -0.368124 0.929777 0
    outer loop
      vertex -7.97272 16.9429 0
      vertex -7.97272 16.9429 3
      vertex -5.78634 17.8085 0
    endloop
  endfacet
  facet normal -0.368124 0.929777 0
    outer loop
      vertex -5.78634 17.8085 0
      vertex -7.97272 16.9429 3
      vertex -5.78634 17.8085 3
    endloop
  endfacet
  facet normal -0.481754 0.876307 0
    outer loop
      vertex -10.0334 15.81 0
      vertex -10.0334 15.81 3
      vertex -7.97272 16.9429 0
    endloop
  endfacet
  facet normal -0.481754 0.876307 0
    outer loop
      vertex -7.97272 16.9429 0
      vertex -10.0334 15.81 3
      vertex -7.97272 16.9429 3
    endloop
  endfacet
  facet normal -0.587785 0.809017 0
    outer loop
      vertex -11.9358 14.4279 0
      vertex -11.9358 14.4279 3
      vertex -10.0334 15.81 0
    endloop
  endfacet
  facet normal -0.587785 0.809017 0
    outer loop
      vertex -10.0334 15.81 0
      vertex -11.9358 14.4279 3
      vertex -10.0334 15.81 3
    endloop
  endfacet
  facet normal -0.684547 0.728969 0
    outer loop
      vertex -13.6499 12.8181 0
      vertex -13.6499 12.8181 3
      vertex -11.9358 14.4279 0
    endloop
  endfacet
  facet normal -0.684547 0.728969 0
    outer loop
      vertex -11.9358 14.4279 0
      vertex -13.6499 12.8181 3
      vertex -11.9358 14.4279 3
    endloop
  endfacet
  facet normal -0.770513 0.637424 0
    outer loop
      vertex -15.1488 11.0063 0
      vertex -15.1488 11.0063 3
      vertex -13.6499 12.8181 0
    endloop
  endfacet
  facet normal -0.770513 0.637424 0
    outer loop
      vertex -13.6499 12.8181 0
      vertex -15.1488 11.0063 3
      vertex -13.6499 12.8181 3
    endloop
  endfacet
  facet normal -0.844328 0.535827 0
    outer loop
      vertex -16.4088 9.02084 0
      vertex -16.4088 9.02084 3
      vertex -15.1488 11.0063 0
    endloop
  endfacet
  facet normal -0.844328 0.535827 0
    outer loop
      vertex -15.1488 11.0063 0
      vertex -16.4088 9.02084 3
      vertex -15.1488 11.0063 3
    endloop
  endfacet
  facet normal -0.904827 0.425779 0
    outer loop
      vertex -17.4101 6.89313 0
      vertex -17.4101 6.89313 3
      vertex -16.4088 9.02084 0
    endloop
  endfacet
  facet normal -0.904827 0.425779 0
    outer loop
      vertex -16.4088 9.02084 0
      vertex -17.4101 6.89313 3
      vertex -16.4088 9.02084 3
    endloop
  endfacet
  facet normal -0.951057 0.309017 0
    outer loop
      vertex -18.1367 4.65672 0
      vertex -18.1367 4.65672 3
      vertex -17.4101 6.89313 0
    endloop
  endfacet
  facet normal -0.951057 0.309017 0
    outer loop
      vertex -17.4101 6.89313 0
      vertex -18.1367 4.65672 3
      vertex -17.4101 6.89313 3
    endloop
  endfacet
  facet normal -0.982287 0.187381 0
    outer loop
      vertex -18.5773 2.34686 0
      vertex -18.5773 2.34686 3
      vertex -18.1367 4.65672 0
    endloop
  endfacet
  facet normal -0.982287 0.187381 0
    outer loop
      vertex -18.1367 4.65672 0
      vertex -18.5773 2.34686 3
      vertex -18.1367 4.65672 3
    endloop
  endfacet
  facet normal 0 0 1
    outer loop
      vertex -18.5773 2.34686 3
      vertex -18.725 0 3
      vertex -18.5773 -2.34686 3
    endloop
  endfacet
  facet normal 0 0 1
    outer loop
      vertex -17.4101 -6.89313 3
      vertex -18.5773 2.34686 3
      vertex -18.1367 -4.65672 3
    endloop
  endfacet
  facet normal 0 0 1
    outer loop
      vertex -18.1367 -4.65672 3
      vertex -18.5773 2.34686 3
      vertex -18.5773 -2.34686 3
    endloop
  endfacet
  facet normal 0 0 1
    outer loop
      vertex -16.4088 -9.02084 3
      vertex -18.5773 2.34686 3
      vertex -17.4101 -6.89313 3
    endloop
  endfacet
  facet normal 0 0 1
    outer loop
      vertex -15.1488 -11.0063 3
      vertex -18.5773 2.34686 3
      vertex -16.4088 -9.02084 3
    endloop
  endfacet
  facet normal 0 0 1
    outer loop
      vertex -13.6499 -12.8181 3
      vertex -18.5773 2.34686 3
      vertex -15.1488 -11.0063 3
    endloop
  endfacet
  facet normal 0 0 1
    outer loop
      vertex -11.9358 -14.4279 3
      vertex -18.5773 2.34686 3
      vertex -13.6499 -12.8181 3
    endloop
  endfacet
  facet normal 0 0 1
    outer loop
      vertex -10.0334 -15.81 3
      vertex -18.5773 2.34686 3
      vertex -11.9358 -14.4279 3
    endloop
  endfacet
  facet normal 0 0 1
    outer loop
      vertex -7.97272 -16.9429 3
      vertex -18.5773 2.34686 3
      vertex -10.0334 -15.81 3
    endloop
  endfacet
  facet normal 0 0 1
    outer loop
      vertex -5.78634 -17.8085 3
      vertex -18.5773 2.34686 3
      vertex -7.97272 -16.9429 3
    endloop
  endfacet
  facet normal 0 0 1
    outer loop
      vertex -3.50872 -18.3933 3
      vertex -18.5773 2.34686 3
      vertex -5.78634 -17.8085 3
    endloop
  endfacet
  facet normal 0 0 1
    outer loop
      vertex -1.17575 -18.6881 3
      vertex -18.5773 2.34686 3
      vertex -3.50872 -18.3933 3
    endloop
  endfacet
  facet normal -0 0 1
    outer loop
      vertex 0 -18.6881 3
      vertex -18.5773 2.34686 3
      vertex -1.17575 -18.6881 3
    endloop
  endfacet
  facet normal -0 0 1
    outer loop
      vertex 0 -15.7938 3
      vertex -18.5773 2.34686 3
      vertex 0 -18.6881 3
    endloop
  endfacet
  facet normal -0 0 1
    outer loop
      vertex 0.99366 -15.7938 3
      vertex -18.5773 2.34686 3
      vertex 0 -15.7938 3
    endloop
  endfacet
  facet normal -0 0 1
    outer loop
      vertex 2.96531 -15.5447 3
      vertex -18.5773 2.34686 3
      vertex 0.99366 -15.7938 3
    endloop
  endfacet
  facet normal -0 0 1
    outer loop
      vertex 4.89019 -15.0505 3
      vertex -18.5773 2.34686 3
      vertex 2.96531 -15.5447 3
    endloop
  endfacet
  facet normal -0 0 1
    outer loop
      vertex 6.73796 -14.3189 3
      vertex -18.5773 2.34686 3
      vertex 4.89019 -15.0505 3
    endloop
  endfacet
  facet normal -0 0 1
    outer loop
      vertex 8.47946 -13.3615 3
      vertex -18.5773 2.34686 3
      vertex 6.73796 -14.3189 3
    endloop
  endfacet
  facet normal -0 0 1
    outer loop
      vertex 10.0872 -12.1934 3
      vertex -18.5773 2.34686 3
      vertex 8.47946 -13.3615 3
    endloop
  endfacet
  facet normal -0 0 1
    outer loop
      vertex 11.5359 -10.833 3
      vertex -18.5773 2.34686 3
      vertex 10.0872 -12.1934 3
    endloop
  endfacet
  facet normal -0 0 1
    outer loop
      vertex 12.8027 -9.3017 3
      vertex -18.5773 2.34686 3
      vertex 11.5359 -10.833 3
    endloop
  endfacet
  facet normal -0 0 1
    outer loop
      vertex 13.8676 -7.62375 3
      vertex -18.5773 2.34686 3
      vertex 12.8027 -9.3017 3
    endloop
  endfacet
  facet normal -0 0 1
    outer loop
      vertex 14.7137 -5.82557 3
      vertex -18.5773 2.34686 3
      vertex 13.8676 -7.62375 3
    endloop
  endfacet
  facet normal -0 0 1
    outer loop
      vertex 15.3278 -3.93552 3
      vertex -18.5773 2.34686 3
      vertex 14.7137 -5.82557 3
    endloop
  endfacet
  facet normal -0 0 1
    outer loop
      vertex 15.7002 -1.9834 3
      vertex -18.5773 2.34686 3
      vertex 15.3278 -3.93552 3
    endloop
  endfacet
  facet normal -0 0 1
    outer loop
      vertex 15.825 0 3
      vertex -18.5773 2.34686 3
      vertex 15.7002 -1.9834 3
    endloop
  endfacet
  facet normal -0 -0 1
    outer loop
      vertex 15.7002 1.9834 3
      vertex -18.5773 2.34686 3
      vertex 15.825 0 3
    endloop
  endfacet
  facet normal 0 -0 1
    outer loop
      vertex 15.3278 3.93552 3
      vertex -18.5773 2.34686 3
      vertex 15.7002 1.9834 3
    endloop
  endfacet
  facet normal 0 -0 1
    outer loop
      vertex 14.7137 5.82557 3
      vertex -18.5773 2.34686 3
      vertex 15.3278 3.93552 3
    endloop
  endfacet
  facet normal 0 -0 1
    outer loop
      vertex 13.8676 7.62375 3
      vertex -18.5773 2.34686 3
      vertex 14.7137 5.82557 3
    endloop
  endfacet
  facet normal 0 -0 1
    outer loop
      vertex 12.8027 9.3017 3
      vertex -18.5773 2.34686 3
      vertex 13.8676 7.62375 3
    endloop
  endfacet
  facet normal 0 -0 1
    outer loop
      vertex 11.5359 10.833 3
      vertex -18.5773 2.34686 3
      vertex 12.8027 9.3017 3
    endloop
  endfacet
  facet normal 0 -0 1
    outer loop
      vertex 10.0872 12.1934 3
      vertex -18.5773 2.34686 3
      vertex 11.5359 10.833 3
    endloop
  endfacet
  facet normal 0 -0 1
    outer loop
      vertex 8.47946 13.3615 3
      vertex -18.5773 2.34686 3
      vertex 10.0872 12.1934 3
    endloop
  endfacet
  facet normal 0 -0 1
    outer loop
      vertex 6.73796 14.3189 3
      vertex -18.5773 2.34686 3
      vertex 8.47946 13.3615 3
    endloop
  endfacet
  facet normal 0 -0 1
    outer loop
      vertex 4.89019 15.0505 3
      vertex -18.5773 2.34686 3
      vertex 6.73796 14.3189 3
    endloop
  endfacet
  facet normal 0 -0 1
    outer loop
      vertex 2.96531 15.5447 3
      vertex -18.5773 2.34686 3
      vertex 4.89019 15.0505 3
    endloop
  endfacet
  facet normal 0 -0 1
    outer loop
      vertex 0.99366 15.7938 3
      vertex -18.5773 2.34686 3
      vertex 2.96531 15.5447 3
    endloop
  endfacet
  facet normal 0 -0 1
    outer loop
      vertex 0 15.7938 3
      vertex -18.5773 2.34686 3
      vertex 0.99366 15.7938 3
    endloop
  endfacet
  facet normal 0 0 1
    outer loop
      vertex 0 18.6881 3
      vertex -18.5773 2.34686 3
      vertex 0 15.7938 3
    endloop
  endfacet
  facet normal 0 -0 1
    outer loop
      vertex -1.17575 18.6881 3
      vertex -18.5773 2.34686 3
      vertex 0 18.6881 3
    endloop
  endfacet
  facet normal 0 -0 1
    outer loop
      vertex -3.50872 18.3933 3
      vertex -18.5773 2.34686 3
      vertex -1.17575 18.6881 3
    endloop
  endfacet
  facet normal 0 -0 1
    outer loop
      vertex -5.78634 17.8085 3
      vertex -18.5773 2.34686 3
      vertex -3.50872 18.3933 3
    endloop
  endfacet
  facet normal 0 -0 1
    outer loop
      vertex -7.97272 16.9429 3
      vertex -18.5773 2.34686 3
      vertex -5.78634 17.8085 3
    endloop
  endfacet
  facet normal 0 -0 1
    outer loop
      vertex -10.0334 15.81 3
      vertex -18.5773 2.34686 3
      vertex -7.97272 16.9429 3
    endloop
  endfacet
  facet normal 0 -0 1
    outer loop
      vertex -11.9358 14.4279 3
      vertex -18.5773 2.34686 3
      vertex -10.0334 15.81 3
    endloop
  endfacet
  facet normal 0 -0 1
    outer loop
      vertex -13.6499 12.8181 3
      vertex -18.5773 2.34686 3
      vertex -11.9358 14.4279 3
    endloop
  endfacet
  facet normal 0 -0 1
    outer loop
      vertex -15.1488 11.0063 3
      vertex -18.5773 2.34686 3
      vertex -13.6499 12.8181 3
    endloop
  endfacet
  facet normal 0 -0 1
    outer loop
      vertex -16.4088 9.02084 3
      vertex -18.5773 2.34686 3
      vertex -15.1488 11.0063 3
    endloop
  endfacet
  facet normal 0 -0 1
    outer loop
      vertex -17.4101 6.89313 3
      vertex -18.5773 2.34686 3
      vertex -16.4088 9.02084 3
    endloop
  endfacet
  facet normal 0 -0 1
    outer loop
      vertex -18.1367 4.65672 3
      vertex -18.5773 2.34686 3
      vertex -17.4101 6.89313 3
    endloop
  endfacet
  facet normal 0 1 0
    outer loop
      vertex 0.99366 -15.7938 126
      vertex 0.99366 -15.7938 3
      vertex 0 -15.7938 126
    endloop
  endfacet
  facet normal 0 1 -0
    outer loop
      vertex 0 -15.7938 126
      vertex 0.99366 -15.7938 3
      vertex 0 -15.7938 3
    endloop
  endfacet
  facet normal 0 0 1
    outer loop
      vertex 1.05017 -16.692 126
      vertex 3.13395 -16.4288 126
      vertex 5.16831 -15.9064 126
    endloop
  endfacet
  facet normal 0 0 1
    outer loop
      vertex 8.9617 -14.1214 126
      vertex 1.05017 -16.692 126
      vertex 7.12116 -15.1332 126
    endloop
  endfacet
  facet normal 0 0 1
    outer loop
      vertex 7.12116 -15.1332 126
      vertex 1.05017 -16.692 126
      vertex 5.16831 -15.9064 126
    endloop
  endfacet
  facet normal 0 0 1
    outer loop
      vertex 10.6609 -12.8868 126
      vertex 1.05017 -16.692 126
      vertex 8.9617 -14.1214 126
    endloop
  endfacet
  facet normal 0 -0 1
    outer loop
      vertex 6.73796 -14.3189 126
      vertex 1.05017 -16.692 126
      vertex 10.6609 -12.8868 126
    endloop
  endfacet
  facet normal 0 -0 1
    outer loop
      vertex 10.0872 -12.1934 126
      vertex 8.47946 -13.3615 126
      vertex 12.192 -11.449 126
    endloop
  endfacet
  facet normal 0 -0 1
    outer loop
      vertex 11.5359 -10.833 126
      vertex 10.0872 -12.1934 126
      vertex 13.5308 -9.83071 126
    endloop
  endfacet
  facet normal 0 -0 1
    outer loop
      vertex 13.8676 -7.62375 126
      vertex 12.8027 -9.3017 126
      vertex 14.6562 -8.05733 126
    endloop
  endfacet
  facet normal 0 -0 1
    outer loop
      vertex 14.7137 -5.82557 126
      vertex 13.8676 -7.62375 126
      vertex 15.5505 -6.15688 126
    endloop
  endfacet
  facet normal 0 -0 1
    outer loop
      vertex 15.3278 -3.93552 126
      vertex 14.7137 -5.82557 126
      vertex 16.1996 -4.15934 126
    endloop
  endfacet
  facet normal 0 -0 1
    outer loop
      vertex 15.7002 -1.9834 126
      vertex 15.3278 -3.93552 126
      vertex 16.5931 -2.0962 126
    endloop
  endfacet
  facet normal 0 -0 1
    outer loop
      vertex 15.825 0 126
      vertex 15.7002 -1.9834 126
      vertex 16.725 0 126
    endloop
  endfacet
  facet normal 0 0 1
    outer loop
      vertex 15.7002 1.9834 126
      vertex 15.825 0 126
      vertex 16.5931 2.0962 126
    endloop
  endfacet
  facet normal 0 0 1
    outer loop
      vertex 15.3278 3.93552 126
      vertex 15.7002 1.9834 126
      vertex 16.1996 4.15934 126
    endloop
  endfacet
  facet normal 0 0 1
    outer loop
      vertex 14.7137 5.82557 126
      vertex 15.3278 3.93552 126
      vertex 15.5505 6.15688 126
    endloop
  endfacet
  facet normal 0 0 1
    outer loop
      vertex 13.8676 7.62375 126
      vertex 14.7137 5.82557 126
      vertex 14.6562 8.05733 126
    endloop
  endfacet
  facet normal 0 0 1
    outer loop
      vertex 12.8027 9.3017 126
      vertex 13.8676 7.62375 126
      vertex 13.5308 9.83071 126
    endloop
  endfacet
  facet normal 0 0 1
    outer loop
      vertex 11.5359 10.833 126
      vertex 12.8027 9.3017 126
      vertex 12.192 11.449 126
    endloop
  endfacet
  facet normal 0 0 1
    outer loop
      vertex 10.0872 12.1934 126
      vertex 11.5359 10.833 126
      vertex 10.6609 12.8868 126
    endloop
  endfacet
  facet normal 0 0 1
    outer loop
      vertex 8.47946 13.3615 126
      vertex 10.0872 12.1934 126
      vertex 8.9617 14.1214 126
    endloop
  endfacet
  facet normal 0 0 1
    outer loop
      vertex 6.73796 14.3189 126
      vertex 8.47946 13.3615 126
      vertex 7.12116 15.1332 126
    endloop
  endfacet
  facet normal 0 0 1
    outer loop
      vertex 4.89019 15.0505 126
      vertex 6.73796 14.3189 126
      vertex 5.16831 15.9064 126
    endloop
  endfacet
  facet normal 0 0 1
    outer loop
      vertex 2.96531 15.5447 126
      vertex 4.89019 15.0505 126
      vertex 3.13395 16.4288 126
    endloop
  endfacet
  facet normal 0 0 1
    outer loop
      vertex 0.99366 15.7938 126
      vertex 2.96531 15.5447 126
      vertex 1.05017 16.692 126
    endloop
  endfacet
  facet normal 0 0 1
    outer loop
      vertex 0 16.692 126
      vertex 0.99366 15.7938 126
      vertex 1.05017 16.692 126
    endloop
  endfacet
  facet normal 0 0 1
    outer loop
      vertex 1.05017 16.692 126
      vertex 2.96531 15.5447 126
      vertex 3.13395 16.4288 126
    endloop
  endfacet
  facet normal 0 0 1
    outer loop
      vertex 3.13395 16.4288 126
      vertex 4.89019 15.0505 126
      vertex 5.16831 15.9064 126
    endloop
  endfacet
  facet normal 0 0 1
    outer loop
      vertex 5.16831 15.9064 126
      vertex 6.73796 14.3189 126
      vertex 7.12116 15.1332 126
    endloop
  endfacet
  facet normal 0 0 1
    outer loop
      vertex 7.12116 15.1332 126
      vertex 8.47946 13.3615 126
      vertex 8.9617 14.1214 126
    endloop
  endfacet
  facet normal 0 0 1
    outer loop
      vertex 8.9617 14.1214 126
      vertex 10.0872 12.1934 126
      vertex 10.6609 12.8868 126
    endloop
  endfacet
  facet normal 0 0 1
    outer loop
      vertex 10.6609 12.8868 126
      vertex 11.5359 10.833 126
      vertex 12.192 11.449 126
    endloop
  endfacet
  facet normal 0 0 1
    outer loop
      vertex 12.192 11.449 126
      vertex 12.8027 9.3017 126
      vertex 13.5308 9.83071 126
    endloop
  endfacet
  facet normal 0 0 1
    outer loop
      vertex 13.5308 9.83071 126
      vertex 13.8676 7.62375 126
      vertex 14.6562 8.05733 126
    endloop
  endfacet
  facet normal 0 0 1
    outer loop
      vertex 14.6562 8.05733 126
      vertex 14.7137 5.82557 126
      vertex 15.5505 6.15688 126
    endloop
  endfacet
  facet normal 0 -0 1
    outer loop
      vertex 15.5505 6.15688 126
      vertex 15.3278 3.93552 126
      vertex 16.1996 4.15934 126
    endloop
  endfacet
  facet normal 0 -0 1
    outer loop
      vertex 16.1996 4.15934 126
      vertex 15.7002 1.9834 126
      vertex 16.5931 2.0962 126
    endloop
  endfacet
  facet normal 0 -0 1
    outer loop
      vertex 16.5931 2.0962 126
      vertex 15.825 0 126
      vertex 16.725 0 126
    endloop
  endfacet
  facet normal 0 0 1
    outer loop
      vertex 16.725 0 126
      vertex 15.7002 -1.9834 126
      vertex 16.5931 -2.0962 126
    endloop
  endfacet
  facet normal 0 0 1
    outer loop
      vertex 16.5931 -2.0962 126
      vertex 15.3278 -3.93552 126
      vertex 16.1996 -4.15934 126
    endloop
  endfacet
  facet normal 0 0 1
    outer loop
      vertex 16.1996 -4.15934 126
      vertex 14.7137 -5.82557 126
      vertex 15.5505 -6.15688 126
    endloop
  endfacet
  facet normal 0 0 1
    outer loop
      vertex 15.5505 -6.15688 126
      vertex 13.8676 -7.62375 126
      vertex 14.6562 -8.05733 126
    endloop
  endfacet
  facet normal 0 0 1
    outer loop
      vertex 14.6562 -8.05733 126
      vertex 12.8027 -9.3017 126
      vertex 13.5308 -9.83071 126
    endloop
  endfacet
  facet normal 0 -0 1
    outer loop
      vertex 12.8027 -9.3017 126
      vertex 11.5359 -10.833 126
      vertex 13.5308 -9.83071 126
    endloop
  endfacet
  facet normal 0 0 1
    outer loop
      vertex 13.5308 -9.83071 126
      vertex 10.0872 -12.1934 126
      vertex 12.192 -11.449 126
    endloop
  endfacet
  facet normal 0 0 1
    outer loop
      vertex 12.192 -11.449 126
      vertex 8.47946 -13.3615 126
      vertex 10.6609 -12.8868 126
    endloop
  endfacet
  facet normal 0 -0 1
    outer loop
      vertex 8.47946 -13.3615 126
      vertex 6.73796 -14.3189 126
      vertex 10.6609 -12.8868 126
    endloop
  endfacet
  facet normal 0 -0 1
    outer loop
      vertex 4.89019 -15.0505 126
      vertex 1.05017 -16.692 126
      vertex 6.73796 -14.3189 126
    endloop
  endfacet
  facet normal 0 0 1
    outer loop
      vertex 0 -15.7938 126
      vertex 1.05017 -16.692 126
      vertex 0.99366 -15.7938 126
    endloop
  endfacet
  facet normal 0 0 1
    outer loop
      vertex 0 -16.692 126
      vertex 1.05017 -16.692 126
      vertex 0 -15.7938 126
    endloop
  endfacet
  facet normal 0 0 1
    outer loop
      vertex 0 15.7938 126
      vertex 0.99366 15.7938 126
      vertex 0 16.692 126
    endloop
  endfacet
  facet normal 0 0 1
    outer loop
      vertex 4.89019 -15.0505 126
      vertex 2.96531 -15.5447 126
      vertex 1.05017 -16.692 126
    endloop
  endfacet
  facet normal 0 0 1
    outer loop
      vertex 2.96531 -15.5447 126
      vertex 0.99366 -15.7938 126
      vertex 1.05017 -16.692 126
    endloop
  endfacet
  facet normal 0 1 0
    outer loop
      vertex 1.05017 -16.692 127
      vertex 1.05017 -16.692 126
      vertex 0 -16.692 127
    endloop
  endfacet
  facet normal 0 1 -0
    outer loop
      vertex 0 -16.692 127
      vertex 1.05017 -16.692 126
      vertex 0 -16.692 126
    endloop
  endfacet
  facet normal 0 -0 -1
    outer loop
      vertex 7.12116 -15.1332 127
      vertex 2.96531 -15.5447 127
      vertex 8.9617 -14.1214 127
    endloop
  endfacet
  facet normal 0 -0 -1
    outer loop
      vertex 8.9617 -14.1214 127
      vertex 4.89019 -15.0505 127
      vertex 10.6609 -12.8868 127
    endloop
  endfacet
  facet normal 0 -0 -1
    outer loop
      vertex 10.6609 -12.8868 127
      vertex 6.73796 -14.3189 127
      vertex 12.192 -11.449 127
    endloop
  endfacet
  facet normal 0 -0 -1
    outer loop
      vertex 12.192 -11.449 127
      vertex 8.47946 -13.3615 127
      vertex 13.5308 -9.83071 127
    endloop
  endfacet
  facet normal 0 -0 -1
    outer loop
      vertex 13.5308 -9.83071 127
      vertex 10.0872 -12.1934 127
      vertex 14.6562 -8.05733 127
    endloop
  endfacet
  facet normal 0 -0 -1
    outer loop
      vertex 14.6562 -8.05733 127
      vertex 11.5359 -10.833 127
      vertex 15.5505 -6.15688 127
    endloop
  endfacet
  facet normal 0 -0 -1
    outer loop
      vertex 15.5505 -6.15688 127
      vertex 12.8027 -9.3017 127
      vertex 16.1996 -4.15934 127
    endloop
  endfacet
  facet normal 0 -0 -1
    outer loop
      vertex 16.1996 -4.15934 127
      vertex 13.8676 -7.62375 127
      vertex 16.5931 -2.0962 127
    endloop
  endfacet
  facet normal 0 -0 -1
    outer loop
      vertex 16.5931 -2.0962 127
      vertex 14.7137 -5.82557 127
      vertex 16.725 0 127
    endloop
  endfacet
  facet normal 0 0 -1
    outer loop
      vertex 16.725 0 127
      vertex 15.3278 -3.93552 127
      vertex 16.5931 2.0962 127
    endloop
  endfacet
  facet normal 0 0 -1
    outer loop
      vertex 16.5931 2.0962 127
      vertex 15.7002 -1.9834 127
      vertex 16.1996 4.15934 127
    endloop
  endfacet
  facet normal 0 0 -1
    outer loop
      vertex 16.1996 4.15934 127
      vertex 15.825 0 127
      vertex 15.5505 6.15688 127
    endloop
  endfacet
  facet normal 0 0 -1
    outer loop
      vertex 15.5505 6.15688 127
      vertex 15.7002 1.9834 127
      vertex 14.6562 8.05733 127
    endloop
  endfacet
  facet normal 0 0 -1
    outer loop
      vertex 14.6562 8.05733 127
      vertex 15.3278 3.93552 127
      vertex 13.5308 9.83071 127
    endloop
  endfacet
  facet normal 0 0 -1
    outer loop
      vertex 13.5308 9.83071 127
      vertex 14.7137 5.82557 127
      vertex 12.192 11.449 127
    endloop
  endfacet
  facet normal 0 0 -1
    outer loop
      vertex 12.192 11.449 127
      vertex 13.8676 7.62375 127
      vertex 10.6609 12.8868 127
    endloop
  endfacet
  facet normal 0 0 -1
    outer loop
      vertex 10.6609 12.8868 127
      vertex 12.8027 9.3017 127
      vertex 8.9617 14.1214 127
    endloop
  endfacet
  facet normal 0 0 -1
    outer loop
      vertex 8.9617 14.1214 127
      vertex 11.5359 10.833 127
      vertex 7.12116 15.1332 127
    endloop
  endfacet
  facet normal 0 0 -1
    outer loop
      vertex 7.12116 15.1332 127
      vertex 10.0872 12.1934 127
      vertex 5.16831 15.9064 127
    endloop
  endfacet
  facet normal 0 0 -1
    outer loop
      vertex 5.16831 15.9064 127
      vertex 8.47946 13.3615 127
      vertex 3.13395 16.4288 127
    endloop
  endfacet
  facet normal 0 0 -1
    outer loop
      vertex 3.13395 16.4288 127
      vertex 6.73796 14.3189 127
      vertex 1.05017 16.692 127
    endloop
  endfacet
  facet normal 0 0 -1
    outer loop
      vertex 1.05017 16.692 127
      vertex 4.89019 15.0505 127
      vertex 0 16.692 127
    endloop
  endfacet
  facet normal 0 0 -1
    outer loop
      vertex 4.89019 15.0505 127
      vertex 2.96531 15.5447 127
      vertex 0 16.692 127
    endloop
  endfacet
  facet normal 0 0 -1
    outer loop
      vertex 0 16.692 127
      vertex 0.99366 15.7938 127
      vertex 0 15.7938 127
    endloop
  endfacet
  facet normal 0 0 -1
    outer loop
      vertex 2.96531 15.5447 127
      vertex 0.99366 15.7938 127
      vertex 0 16.692 127
    endloop
  endfacet
  facet normal 0 0 -1
    outer loop
      vertex 6.73796 14.3189 127
      vertex 4.89019 15.0505 127
      vertex 1.05017 16.692 127
    endloop
  endfacet
  facet normal 0 0 -1
    outer loop
      vertex 8.47946 13.3615 127
      vertex 6.73796 14.3189 127
      vertex 3.13395 16.4288 127
    endloop
  endfacet
  facet normal 0 0 -1
    outer loop
      vertex 10.0872 12.1934 127
      vertex 8.47946 13.3615 127
      vertex 5.16831 15.9064 127
    endloop
  endfacet
  facet normal 0 0 -1
    outer loop
      vertex 11.5359 10.833 127
      vertex 10.0872 12.1934 127
      vertex 7.12116 15.1332 127
    endloop
  endfacet
  facet normal 0 0 -1
    outer loop
      vertex 12.8027 9.3017 127
      vertex 11.5359 10.833 127
      vertex 8.9617 14.1214 127
    endloop
  endfacet
  facet normal 0 0 -1
    outer loop
      vertex 13.8676 7.62375 127
      vertex 12.8027 9.3017 127
      vertex 10.6609 12.8868 127
    endloop
  endfacet
  facet normal 0 0 -1
    outer loop
      vertex 14.7137 5.82557 127
      vertex 13.8676 7.62375 127
      vertex 12.192 11.449 127
    endloop
  endfacet
  facet normal 0 0 -1
    outer loop
      vertex 15.3278 3.93552 127
      vertex 14.7137 5.82557 127
      vertex 13.5308 9.83071 127
    endloop
  endfacet
  facet normal 0 0 -1
    outer loop
      vertex 15.7002 1.9834 127
      vertex 15.3278 3.93552 127
      vertex 14.6562 8.05733 127
    endloop
  endfacet
  facet normal 0 0 -1
    outer loop
      vertex 15.825 0 127
      vertex 15.7002 1.9834 127
      vertex 15.5505 6.15688 127
    endloop
  endfacet
  facet normal 0 0 -1
    outer loop
      vertex 15.7002 -1.9834 127
      vertex 15.825 0 127
      vertex 16.1996 4.15934 127
    endloop
  endfacet
  facet normal 0 0 -1
    outer loop
      vertex 15.3278 -3.93552 127
      vertex 15.7002 -1.9834 127
      vertex 16.5931 2.0962 127
    endloop
  endfacet
  facet normal 0 0 -1
    outer loop
      vertex 14.7137 -5.82557 127
      vertex 15.3278 -3.93552 127
      vertex 16.725 0 127
    endloop
  endfacet
  facet normal 0 0 -1
    outer loop
      vertex 13.8676 -7.62375 127
      vertex 14.7137 -5.82557 127
      vertex 16.5931 -2.0962 127
    endloop
  endfacet
  facet normal 0 0 -1
    outer loop
      vertex 12.8027 -9.3017 127
      vertex 13.8676 -7.62375 127
      vertex 16.1996 -4.15934 127
    endloop
  endfacet
  facet normal 0 0 -1
    outer loop
      vertex 11.5359 -10.833 127
      vertex 12.8027 -9.3017 127
      vertex 15.5505 -6.15688 127
    endloop
  endfacet
  facet normal 0 0 -1
    outer loop
      vertex 10.0872 -12.1934 127
      vertex 11.5359 -10.833 127
      vertex 14.6562 -8.05733 127
    endloop
  endfacet
  facet normal 0 0 -1
    outer loop
      vertex 8.47946 -13.3615 127
      vertex 10.0872 -12.1934 127
      vertex 13.5308 -9.83071 127
    endloop
  endfacet
  facet normal 0 0 -1
    outer loop
      vertex 6.73796 -14.3189 127
      vertex 8.47946 -13.3615 127
      vertex 12.192 -11.449 127
    endloop
  endfacet
  facet normal 0 0 -1
    outer loop
      vertex 4.89019 -15.0505 127
      vertex 6.73796 -14.3189 127
      vertex 10.6609 -12.8868 127
    endloop
  endfacet
  facet normal 0 0 -1
    outer loop
      vertex 2.96531 -15.5447 127
      vertex 4.89019 -15.0505 127
      vertex 8.9617 -14.1214 127
    endloop
  endfacet
  facet normal 0 0 -1
    outer loop
      vertex 0.99366 -15.7938 127
      vertex 2.96531 -15.5447 127
      vertex 7.12116 -15.1332 127
    endloop
  endfacet
  facet normal -0 0 -1
    outer loop
      vertex 0.99366 -15.7938 127
      vertex 7.12116 -15.1332 127
      vertex 5.16831 -15.9064 127
    endloop
  endfacet
  facet normal 0 0 -1
    outer loop
      vertex 0.99366 -15.7938 127
      vertex 5.16831 -15.9064 127
      vertex 0 -15.7938 127
    endloop
  endfacet
  facet normal 0 0 -1
    outer loop
      vertex 5.16831 -15.9064 127
      vertex 3.13395 -16.4288 127
      vertex 0 -15.7938 127
    endloop
  endfacet
  facet normal 0 0 -1
    outer loop
      vertex 3.13395 -16.4288 127
      vertex 1.05017 -16.692 127
      vertex 0 -15.7938 127
    endloop
  endfacet
  facet normal 0 0 -1
    outer loop
      vertex 1.05017 -16.692 127
      vertex 0 -16.692 127
      vertex 0 -15.7938 127
    endloop
  endfacet
  facet normal 0 1 0
    outer loop
      vertex 0.99366 -15.7938 154.45
      vertex 0.99366 -15.7938 127
      vertex 0 -15.7938 154.45
    endloop
  endfacet
  facet normal 0 1 -0
    outer loop
      vertex 0 -15.7938 154.45
      vertex 0.99366 -15.7938 127
      vertex 0 -15.7938 127
    endloop
  endfacet
  facet normal 0 -0 1
    outer loop
      vertex 0 -15.7938 154.45
      vertex 0 -18.725 154.45
      vertex 18.725 -18.725 154.45
    endloop
  endfacet
  facet normal 0 0 1
    outer loop
      vertex 15.7002 1.9834 154.45
      vertex 15.825 0 154.45
      vertex 18.725 -18.725 154.45
    endloop
  endfacet
  facet normal 0 -0 1
    outer loop
      vertex 0.99366 -15.7938 154.45
      vertex 0 -15.7938 154.45
      vertex 18.725 -18.725 154.45
    endloop
  endfacet
  facet normal 0 -0 1
    outer loop
      vertex 0 18.725 154.45
      vertex 0 15.7938 154.45
      vertex 18.725 18.725 154.45
    endloop
  endfacet
  facet normal 0 0 1
    outer loop
      vertex 0 15.7938 154.45
      vertex 0.99366 15.7938 154.45
      vertex 18.725 18.725 154.45
    endloop
  endfacet
  facet normal 0 0 1
    outer loop
      vertex 0.99366 15.7938 154.45
      vertex 2.96531 15.5447 154.45
      vertex 18.725 18.725 154.45
    endloop
  endfacet
  facet normal 0 0 1
    outer loop
      vertex 2.96531 15.5447 154.45
      vertex 4.89019 15.0505 154.45
      vertex 18.725 18.725 154.45
    endloop
  endfacet
  facet normal 0 0 1
    outer loop
      vertex 4.89019 15.0505 154.45
      vertex 6.73796 14.3189 154.45
      vertex 18.725 18.725 154.45
    endloop
  endfacet
  facet normal 0 0 1
    outer loop
      vertex 6.73796 14.3189 154.45
      vertex 8.47946 13.3615 154.45
      vertex 18.725 18.725 154.45
    endloop
  endfacet
  facet normal 0 0 1
    outer loop
      vertex 8.47946 13.3615 154.45
      vertex 10.0872 12.1934 154.45
      vertex 18.725 18.725 154.45
    endloop
  endfacet
  facet normal 0 0 1
    outer loop
      vertex 10.0872 12.1934 154.45
      vertex 11.5359 10.833 154.45
      vertex 18.725 18.725 154.45
    endloop
  endfacet
  facet normal 0 0 1
    outer loop
      vertex 11.5359 10.833 154.45
      vertex 12.8027 9.3017 154.45
      vertex 18.725 18.725 154.45
    endloop
  endfacet
  facet normal 0 -0 1
    outer loop
      vertex 15.7002 -1.9834 154.45
      vertex 15.3278 -3.93552 154.45
      vertex 18.725 -18.725 154.45
    endloop
  endfacet
  facet normal 0 0 1
    outer loop
      vertex 18.725 18.725 154.45
      vertex 13.8676 7.62375 154.45
      vertex 14.7137 5.82557 154.45
    endloop
  endfacet
  facet normal 0 -0 1
    outer loop
      vertex 15.825 0 154.45
      vertex 15.7002 -1.9834 154.45
      vertex 18.725 -18.725 154.45
    endloop
  endfacet
  facet normal 0 0 1
    outer loop
      vertex 18.725 18.725 154.45
      vertex 14.7137 5.82557 154.45
      vertex 15.3278 3.93552 154.45
    endloop
  endfacet
  facet normal 0 0 1
    outer loop
      vertex 18.725 18.725 154.45
      vertex 15.7002 1.9834 154.45
      vertex 18.725 -18.725 154.45
    endloop
  endfacet
  facet normal 0 0 1
    outer loop
      vertex 18.725 18.725 154.45
      vertex 15.3278 3.93552 154.45
      vertex 15.7002 1.9834 154.45
    endloop
  endfacet
  facet normal 0 -0 1
    outer loop
      vertex 15.3278 -3.93552 154.45
      vertex 14.7137 -5.82557 154.45
      vertex 18.725 -18.725 154.45
    endloop
  endfacet
  facet normal 0 -0 1
    outer loop
      vertex 14.7137 -5.82557 154.45
      vertex 13.8676 -7.62375 154.45
      vertex 18.725 -18.725 154.45
    endloop
  endfacet
  facet normal 0 -0 1
    outer loop
      vertex 13.8676 -7.62375 154.45
      vertex 12.8027 -9.3017 154.45
      vertex 18.725 -18.725 154.45
    endloop
  endfacet
  facet normal 0 -0 1
    outer loop
      vertex 12.8027 -9.3017 154.45
      vertex 11.5359 -10.833 154.45
      vertex 18.725 -18.725 154.45
    endloop
  endfacet
  facet normal 0 -0 1
    outer loop
      vertex 11.5359 -10.833 154.45
      vertex 10.0872 -12.1934 154.45
      vertex 18.725 -18.725 154.45
    endloop
  endfacet
  facet normal 0 -0 1
    outer loop
      vertex 10.0872 -12.1934 154.45
      vertex 8.47946 -13.3615 154.45
      vertex 18.725 -18.725 154.45
    endloop
  endfacet
  facet normal 0 -0 1
    outer loop
      vertex 8.47946 -13.3615 154.45
      vertex 6.73796 -14.3189 154.45
      vertex 18.725 -18.725 154.45
    endloop
  endfacet
  facet normal 0 -0 1
    outer loop
      vertex 6.73796 -14.3189 154.45
      vertex 4.89019 -15.0505 154.45
      vertex 18.725 -18.725 154.45
    endloop
  endfacet
  facet normal 0 -0 1
    outer loop
      vertex 4.89019 -15.0505 154.45
      vertex 2.96531 -15.5447 154.45
      vertex 18.725 -18.725 154.45
    endloop
  endfacet
  facet normal 0 -0 1
    outer loop
      vertex 2.96531 -15.5447 154.45
      vertex 0.99366 -15.7938 154.45
      vertex 18.725 -18.725 154.45
    endloop
  endfacet
  facet normal 0 0 1
    outer loop
      vertex 12.8027 9.3017 154.45
      vertex 13.8676 7.62375 154.45
      vertex 18.725 18.725 154.45
    endloop
  endfacet
  facet normal 0 -1 0
    outer loop
      vertex 0.99366 15.7938 127
      vertex 0.99366 15.7938 154.45
      vertex 0 15.7938 154.45
    endloop
  endfacet
  facet normal -0 -1 -0
    outer loop
      vertex 0 15.7938 127
      vertex 0.99366 15.7938 127
      vertex 0 15.7938 154.45
    endloop
  endfacet
  facet normal 0 -1 0
    outer loop
      vertex 1.05017 16.692 126
      vertex 1.05017 16.692 127
      vertex 0 16.692 127
    endloop
  endfacet
  facet normal -0 -1 -0
    outer loop
      vertex 0 16.692 126
      vertex 1.05017 16.692 126
      vertex 0 16.692 127
    endloop
  endfacet
  facet normal 0 -1 0
    outer loop
      vertex 0.99366 15.7938 3
      vertex 0.99366 15.7938 126
      vertex 0 15.7938 126
    endloop
  endfacet
  facet normal -0 -1 -0
    outer loop
      vertex 0 15.7938 3
      vertex 0.99366 15.7938 3
      vertex 0 15.7938 126
    endloop
  endfacet
  facet normal -0.125333 -0.992115 -0
    outer loop
      vertex 2.96531 15.5447 3
      vertex 2.96531 15.5447 126
      vertex 0.99366 15.7938 126
    endloop
  endfacet
  facet normal -0.125333 -0.992115 -0
    outer loop
      vertex 0.99366 15.7938 3
      vertex 2.96531 15.5447 3
      vertex 0.99366 15.7938 126
    endloop
  endfacet
  facet normal -0.24869 -0.968583 -0
    outer loop
      vertex 4.89019 15.0505 3
      vertex 4.89019 15.0505 126
      vertex 2.96531 15.5447 126
    endloop
  endfacet
  facet normal -0.24869 -0.968583 -0
    outer loop
      vertex 2.96531 15.5447 3
      vertex 4.89019 15.0505 3
      vertex 2.96531 15.5447 126
    endloop
  endfacet
  facet normal -0.368124 -0.929777 -0
    outer loop
      vertex 6.73796 14.3189 3
      vertex 6.73796 14.3189 126
      vertex 4.89019 15.0505 126
    endloop
  endfacet
  facet normal -0.368124 -0.929777 -0
    outer loop
      vertex 4.89019 15.0505 3
      vertex 6.73796 14.3189 3
      vertex 4.89019 15.0505 126
    endloop
  endfacet
  facet normal -0.481754 -0.876307 -0
    outer loop
      vertex 8.47946 13.3615 3
      vertex 8.47946 13.3615 126
      vertex 6.73796 14.3189 126
    endloop
  endfacet
  facet normal -0.481754 -0.876307 -0
    outer loop
      vertex 6.73796 14.3189 3
      vertex 8.47946 13.3615 3
      vertex 6.73796 14.3189 126
    endloop
  endfacet
  facet normal -0.587785 -0.809017 -0
    outer loop
      vertex 10.0872 12.1934 3
      vertex 10.0872 12.1934 126
      vertex 8.47946 13.3615 126
    endloop
  endfacet
  facet normal -0.587785 -0.809017 -0
    outer loop
      vertex 8.47946 13.3615 3
      vertex 10.0872 12.1934 3
      vertex 8.47946 13.3615 126
    endloop
  endfacet
  facet normal -0.684547 -0.728969 -0
    outer loop
      vertex 11.5359 10.833 3
      vertex 11.5359 10.833 126
      vertex 10.0872 12.1934 126
    endloop
  endfacet
  facet normal -0.684547 -0.728969 -0
    outer loop
      vertex 10.0872 12.1934 3
      vertex 11.5359 10.833 3
      vertex 10.0872 12.1934 126
    endloop
  endfacet
  facet normal -0.770513 -0.637424 0
    outer loop
      vertex 12.8027 9.3017 126
      vertex 11.5359 10.833 126
      vertex 12.8027 9.3017 3
    endloop
  endfacet
  facet normal -0.770513 -0.637424 0
    outer loop
      vertex 12.8027 9.3017 3
      vertex 11.5359 10.833 126
      vertex 11.5359 10.833 3
    endloop
  endfacet
  facet normal -0.844328 -0.535827 0
    outer loop
      vertex 13.8676 7.62375 126
      vertex 12.8027 9.3017 126
      vertex 13.8676 7.62375 3
    endloop
  endfacet
  facet normal -0.844328 -0.535827 0
    outer loop
      vertex 13.8676 7.62375 3
      vertex 12.8027 9.3017 126
      vertex 12.8027 9.3017 3
    endloop
  endfacet
  facet normal -0.904827 -0.425779 0
    outer loop
      vertex 14.7137 5.82557 126
      vertex 13.8676 7.62375 126
      vertex 14.7137 5.82557 3
    endloop
  endfacet
  facet normal -0.904827 -0.425779 0
    outer loop
      vertex 14.7137 5.82557 3
      vertex 13.8676 7.62375 126
      vertex 13.8676 7.62375 3
    endloop
  endfacet
  facet normal -0.951056 -0.309017 0
    outer loop
      vertex 15.3278 3.93552 126
      vertex 14.7137 5.82557 126
      vertex 15.3278 3.93552 3
    endloop
  endfacet
  facet normal -0.951056 -0.309017 0
    outer loop
      vertex 15.3278 3.93552 3
      vertex 14.7137 5.82557 126
      vertex 14.7137 5.82557 3
    endloop
  endfacet
  facet normal -0.982287 -0.187381 0
    outer loop
      vertex 15.7002 1.9834 126
      vertex 15.3278 3.93552 126
      vertex 15.7002 1.9834 3
    endloop
  endfacet
  facet normal -0.982287 -0.187381 0
    outer loop
      vertex 15.7002 1.9834 3
      vertex 15.3278 3.93552 126
      vertex 15.3278 3.93552 3
    endloop
  endfacet
  facet normal -0.998027 -0.0627906 0
    outer loop
      vertex 15.825 0 126
      vertex 15.7002 1.9834 126
      vertex 15.825 0 3
    endloop
  endfacet
  facet normal -0.998027 -0.0627906 0
    outer loop
      vertex 15.825 0 3
      vertex 15.7002 1.9834 126
      vertex 15.7002 1.9834 3
    endloop
  endfacet
  facet normal -0.998027 0.0627906 0
    outer loop
      vertex 15.825 0 126
      vertex 15.825 0 3
      vertex 15.7002 -1.9834 126
    endloop
  endfacet
  facet normal -0.998027 0.0627906 0
    outer loop
      vertex 15.7002 -1.9834 126
      vertex 15.825 0 3
      vertex 15.7002 -1.9834 3
    endloop
  endfacet
  facet normal -0.982287 0.187381 0
    outer loop
      vertex 15.7002 -1.9834 126
      vertex 15.7002 -1.9834 3
      vertex 15.3278 -3.93552 126
    endloop
  endfacet
  facet normal -0.982287 0.187381 0
    outer loop
      vertex 15.3278 -3.93552 126
      vertex 15.7002 -1.9834 3
      vertex 15.3278 -3.93552 3
    endloop
  endfacet
  facet normal -0.951056 0.309017 0
    outer loop
      vertex 15.3278 -3.93552 126
      vertex 15.3278 -3.93552 3
      vertex 14.7137 -5.82557 126
    endloop
  endfacet
  facet normal -0.951056 0.309017 0
    outer loop
      vertex 14.7137 -5.82557 126
      vertex 15.3278 -3.93552 3
      vertex 14.7137 -5.82557 3
    endloop
  endfacet
  facet normal -0.904827 0.425779 0
    outer loop
      vertex 14.7137 -5.82557 126
      vertex 14.7137 -5.82557 3
      vertex 13.8676 -7.62375 126
    endloop
  endfacet
  facet normal -0.904827 0.425779 0
    outer loop
      vertex 13.8676 -7.62375 126
      vertex 14.7137 -5.82557 3
      vertex 13.8676 -7.62375 3
    endloop
  endfacet
  facet normal -0.844328 0.535827 0
    outer loop
      vertex 13.8676 -7.62375 126
      vertex 13.8676 -7.62375 3
      vertex 12.8027 -9.3017 126
    endloop
  endfacet
  facet normal -0.844328 0.535827 0
    outer loop
      vertex 12.8027 -9.3017 126
      vertex 13.8676 -7.62375 3
      vertex 12.8027 -9.3017 3
    endloop
  endfacet
  facet normal -0.770513 0.637424 0
    outer loop
      vertex 12.8027 -9.3017 126
      vertex 12.8027 -9.3017 3
      vertex 11.5359 -10.833 126
    endloop
  endfacet
  facet normal -0.770513 0.637424 0
    outer loop
      vertex 11.5359 -10.833 126
      vertex 12.8027 -9.3017 3
      vertex 11.5359 -10.833 3
    endloop
  endfacet
  facet normal -0.684547 0.728969 0
    outer loop
      vertex 11.5359 -10.833 126
      vertex 11.5359 -10.833 3
      vertex 10.0872 -12.1934 126
    endloop
  endfacet
  facet normal -0.684547 0.728969 0
    outer loop
      vertex 10.0872 -12.1934 126
      vertex 11.5359 -10.833 3
      vertex 10.0872 -12.1934 3
    endloop
  endfacet
  facet normal -0.587785 0.809017 0
    outer loop
      vertex 10.0872 -12.1934 126
      vertex 10.0872 -12.1934 3
      vertex 8.47946 -13.3615 126
    endloop
  endfacet
  facet normal -0.587785 0.809017 0
    outer loop
      vertex 8.47946 -13.3615 126
      vertex 10.0872 -12.1934 3
      vertex 8.47946 -13.3615 3
    endloop
  endfacet
  facet normal -0.481754 0.876307 0
    outer loop
      vertex 8.47946 -13.3615 126
      vertex 8.47946 -13.3615 3
      vertex 6.73796 -14.3189 126
    endloop
  endfacet
  facet normal -0.481754 0.876307 0
    outer loop
      vertex 6.73796 -14.3189 126
      vertex 8.47946 -13.3615 3
      vertex 6.73796 -14.3189 3
    endloop
  endfacet
  facet normal -0.368124 0.929777 0
    outer loop
      vertex 6.73796 -14.3189 126
      vertex 6.73796 -14.3189 3
      vertex 4.89019 -15.0505 126
    endloop
  endfacet
  facet normal -0.368124 0.929777 0
    outer loop
      vertex 4.89019 -15.0505 126
      vertex 6.73796 -14.3189 3
      vertex 4.89019 -15.0505 3
    endloop
  endfacet
  facet normal -0.24869 0.968583 0
    outer loop
      vertex 4.89019 -15.0505 126
      vertex 4.89019 -15.0505 3
      vertex 2.96531 -15.5447 126
    endloop
  endfacet
  facet normal -0.24869 0.968583 0
    outer loop
      vertex 2.96531 -15.5447 126
      vertex 4.89019 -15.0505 3
      vertex 2.96531 -15.5447 3
    endloop
  endfacet
  facet normal -0.125333 0.992115 0
    outer loop
      vertex 2.96531 -15.5447 126
      vertex 2.96531 -15.5447 3
      vertex 0.99366 -15.7938 126
    endloop
  endfacet
  facet normal -0.125333 0.992115 0
    outer loop
      vertex 0.99366 -15.7938 126
      vertex 2.96531 -15.5447 3
      vertex 0.99366 -15.7938 3
    endloop
  endfacet
  facet normal -0.125333 0.992115 0
    outer loop
      vertex 3.13395 -16.4288 127
      vertex 3.13395 -16.4288 126
      vertex 1.05017 -16.692 127
    endloop
  endfacet
  facet normal -0.125333 0.992115 0
    outer loop
      vertex 1.05017 -16.692 127
      vertex 3.13395 -16.4288 126
      vertex 1.05017 -16.692 126
    endloop
  endfacet
  facet normal -0.125333 -0.992115 -0
    outer loop
      vertex 3.13395 16.4288 126
      vertex 3.13395 16.4288 127
      vertex 1.05017 16.692 127
    endloop
  endfacet
  facet normal -0.125333 -0.992115 -0
    outer loop
      vertex 1.05017 16.692 126
      vertex 3.13395 16.4288 126
      vertex 1.05017 16.692 127
    endloop
  endfacet
  facet normal -0.24869 -0.968583 -0
    outer loop
      vertex 5.16831 15.9064 126
      vertex 5.16831 15.9064 127
      vertex 3.13395 16.4288 127
    endloop
  endfacet
  facet normal -0.24869 -0.968583 -0
    outer loop
      vertex 3.13395 16.4288 126
      vertex 5.16831 15.9064 126
      vertex 3.13395 16.4288 127
    endloop
  endfacet
  facet normal -0.368125 -0.929776 -0
    outer loop
      vertex 7.12116 15.1332 126
      vertex 7.12116 15.1332 127
      vertex 5.16831 15.9064 127
    endloop
  endfacet
  facet normal -0.368125 -0.929776 -0
    outer loop
      vertex 5.16831 15.9064 126
      vertex 7.12116 15.1332 126
      vertex 5.16831 15.9064 127
    endloop
  endfacet
  facet normal -0.481753 -0.876307 -0
    outer loop
      vertex 8.9617 14.1214 126
      vertex 8.9617 14.1214 127
      vertex 7.12116 15.1332 127
    endloop
  endfacet
  facet normal -0.481753 -0.876307 -0
    outer loop
      vertex 7.12116 15.1332 126
      vertex 8.9617 14.1214 126
      vertex 7.12116 15.1332 127
    endloop
  endfacet
  facet normal -0.587785 -0.809017 -0
    outer loop
      vertex 10.6609 12.8868 126
      vertex 10.6609 12.8868 127
      vertex 8.9617 14.1214 127
    endloop
  endfacet
  facet normal -0.587785 -0.809017 -0
    outer loop
      vertex 8.9617 14.1214 126
      vertex 10.6609 12.8868 126
      vertex 8.9617 14.1214 127
    endloop
  endfacet
  facet normal -0.684547 -0.728969 -0
    outer loop
      vertex 12.192 11.449 126
      vertex 12.192 11.449 127
      vertex 10.6609 12.8868 127
    endloop
  endfacet
  facet normal -0.684547 -0.728969 -0
    outer loop
      vertex 10.6609 12.8868 126
      vertex 12.192 11.449 126
      vertex 10.6609 12.8868 127
    endloop
  endfacet
  facet normal -0.770513 -0.637424 0
    outer loop
      vertex 13.5308 9.83071 127
      vertex 12.192 11.449 127
      vertex 13.5308 9.83071 126
    endloop
  endfacet
  facet normal -0.770513 -0.637424 0
    outer loop
      vertex 13.5308 9.83071 126
      vertex 12.192 11.449 127
      vertex 12.192 11.449 126
    endloop
  endfacet
  facet normal -0.844328 -0.535827 0
    outer loop
      vertex 14.6562 8.05733 127
      vertex 13.5308 9.83071 127
      vertex 14.6562 8.05733 126
    endloop
  endfacet
  facet normal -0.844328 -0.535827 0
    outer loop
      vertex 14.6562 8.05733 126
      vertex 13.5308 9.83071 127
      vertex 13.5308 9.83071 126
    endloop
  endfacet
  facet normal -0.904827 -0.425779 0
    outer loop
      vertex 15.5505 6.15688 127
      vertex 14.6562 8.05733 127
      vertex 15.5505 6.15688 126
    endloop
  endfacet
  facet normal -0.904827 -0.425779 0
    outer loop
      vertex 15.5505 6.15688 126
      vertex 14.6562 8.05733 127
      vertex 14.6562 8.05733 126
    endloop
  endfacet
  facet normal -0.951057 -0.309017 0
    outer loop
      vertex 16.1996 4.15934 127
      vertex 15.5505 6.15688 127
      vertex 16.1996 4.15934 126
    endloop
  endfacet
  facet normal -0.951057 -0.309017 0
    outer loop
      vertex 16.1996 4.15934 126
      vertex 15.5505 6.15688 127
      vertex 15.5505 6.15688 126
    endloop
  endfacet
  facet normal -0.982287 -0.187381 0
    outer loop
      vertex 16.5931 2.0962 127
      vertex 16.1996 4.15934 127
      vertex 16.5931 2.0962 126
    endloop
  endfacet
  facet normal -0.982287 -0.187381 0
    outer loop
      vertex 16.5931 2.0962 126
      vertex 16.1996 4.15934 127
      vertex 16.1996 4.15934 126
    endloop
  endfacet
  facet normal -0.998027 -0.0627907 0
    outer loop
      vertex 16.725 0 127
      vertex 16.5931 2.0962 127
      vertex 16.725 0 126
    endloop
  endfacet
  facet normal -0.998027 -0.0627907 0
    outer loop
      vertex 16.725 0 126
      vertex 16.5931 2.0962 127
      vertex 16.5931 2.0962 126
    endloop
  endfacet
  facet normal -0.998027 0.0627907 0
    outer loop
      vertex 16.725 0 127
      vertex 16.725 0 126
      vertex 16.5931 -2.0962 127
    endloop
  endfacet
  facet normal -0.998027 0.0627907 0
    outer loop
      vertex 16.5931 -2.0962 127
      vertex 16.725 0 126
      vertex 16.5931 -2.0962 126
    endloop
  endfacet
  facet normal -0.982287 0.187381 0
    outer loop
      vertex 16.5931 -2.0962 127
      vertex 16.5931 -2.0962 126
      vertex 16.1996 -4.15934 127
    endloop
  endfacet
  facet normal -0.982287 0.187381 0
    outer loop
      vertex 16.1996 -4.15934 127
      vertex 16.5931 -2.0962 126
      vertex 16.1996 -4.15934 126
    endloop
  endfacet
  facet normal -0.951057 0.309017 0
    outer loop
      vertex 16.1996 -4.15934 127
      vertex 16.1996 -4.15934 126
      vertex 15.5505 -6.15688 127
    endloop
  endfacet
  facet normal -0.951057 0.309017 0
    outer loop
      vertex 15.5505 -6.15688 127
      vertex 16.1996 -4.15934 126
      vertex 15.5505 -6.15688 126
    endloop
  endfacet
  facet normal -0.904827 0.425779 0
    outer loop
      vertex 15.5505 -6.15688 127
      vertex 15.5505 -6.15688 126
      vertex 14.6562 -8.05733 127
    endloop
  endfacet
  facet normal -0.904827 0.425779 0
    outer loop
      vertex 14.6562 -8.05733 127
      vertex 15.5505 -6.15688 126
      vertex 14.6562 -8.05733 126
    endloop
  endfacet
  facet normal -0.844328 0.535827 0
    outer loop
      vertex 14.6562 -8.05733 127
      vertex 14.6562 -8.05733 126
      vertex 13.5308 -9.83071 127
    endloop
  endfacet
  facet normal -0.844328 0.535827 0
    outer loop
      vertex 13.5308 -9.83071 127
      vertex 14.6562 -8.05733 126
      vertex 13.5308 -9.83071 126
    endloop
  endfacet
  facet normal -0.770513 0.637424 0
    outer loop
      vertex 13.5308 -9.83071 127
      vertex 13.5308 -9.83071 126
      vertex 12.192 -11.449 127
    endloop
  endfacet
  facet normal -0.770513 0.637424 0
    outer loop
      vertex 12.192 -11.449 127
      vertex 13.5308 -9.83071 126
      vertex 12.192 -11.449 126
    endloop
  endfacet
  facet normal -0.684547 0.728969 0
    outer loop
      vertex 12.192 -11.449 127
      vertex 12.192 -11.449 126
      vertex 10.6609 -12.8868 127
    endloop
  endfacet
  facet normal -0.684547 0.728969 0
    outer loop
      vertex 10.6609 -12.8868 127
      vertex 12.192 -11.449 126
      vertex 10.6609 -12.8868 126
    endloop
  endfacet
  facet normal -0.587785 0.809017 0
    outer loop
      vertex 10.6609 -12.8868 127
      vertex 10.6609 -12.8868 126
      vertex 8.9617 -14.1214 127
    endloop
  endfacet
  facet normal -0.587785 0.809017 0
    outer loop
      vertex 8.9617 -14.1214 127
      vertex 10.6609 -12.8868 126
      vertex 8.9617 -14.1214 126
    endloop
  endfacet
  facet normal -0.481753 0.876307 0
    outer loop
      vertex 8.9617 -14.1214 127
      vertex 8.9617 -14.1214 126
      vertex 7.12116 -15.1332 127
    endloop
  endfacet
  facet normal -0.481753 0.876307 0
    outer loop
      vertex 7.12116 -15.1332 127
      vertex 8.9617 -14.1214 126
      vertex 7.12116 -15.1332 126
    endloop
  endfacet
  facet normal -0.368125 0.929776 0
    outer loop
      vertex 7.12116 -15.1332 127
      vertex 7.12116 -15.1332 126
      vertex 5.16831 -15.9064 127
    endloop
  endfacet
  facet normal -0.368125 0.929776 0
    outer loop
      vertex 5.16831 -15.9064 127
      vertex 7.12116 -15.1332 126
      vertex 5.16831 -15.9064 126
    endloop
  endfacet
  facet normal -0.24869 0.968583 0
    outer loop
      vertex 5.16831 -15.9064 127
      vertex 5.16831 -15.9064 126
      vertex 3.13395 -16.4288 127
    endloop
  endfacet
  facet normal -0.24869 0.968583 0
    outer loop
      vertex 3.13395 -16.4288 127
      vertex 5.16831 -15.9064 126
      vertex 3.13395 -16.4288 126
    endloop
  endfacet
  facet normal -0.125333 -0.992115 -0
    outer loop
      vertex 2.96531 15.5447 127
      vertex 2.96531 15.5447 154.45
      vertex 0.99366 15.7938 154.45
    endloop
  endfacet
  facet normal -0.125333 -0.992115 -0
    outer loop
      vertex 0.99366 15.7938 127
      vertex 2.96531 15.5447 127
      vertex 0.99366 15.7938 154.45
    endloop
  endfacet
  facet normal -0.24869 -0.968583 -0
    outer loop
      vertex 4.89019 15.0505 127
      vertex 4.89019 15.0505 154.45
      vertex 2.96531 15.5447 154.45
    endloop
  endfacet
  facet normal -0.24869 -0.968583 -0
    outer loop
      vertex 2.96531 15.5447 127
      vertex 4.89019 15.0505 127
      vertex 2.96531 15.5447 154.45
    endloop
  endfacet
  facet normal -0.368124 -0.929777 -0
    outer loop
      vertex 6.73796 14.3189 127
      vertex 6.73796 14.3189 154.45
      vertex 4.89019 15.0505 154.45
    endloop
  endfacet
  facet normal -0.368124 -0.929777 -0
    outer loop
      vertex 4.89019 15.0505 127
      vertex 6.73796 14.3189 127
      vertex 4.89019 15.0505 154.45
    endloop
  endfacet
  facet normal -0.481754 -0.876307 -0
    outer loop
      vertex 8.47946 13.3615 127
      vertex 8.47946 13.3615 154.45
      vertex 6.73796 14.3189 154.45
    endloop
  endfacet
  facet normal -0.481754 -0.876307 -0
    outer loop
      vertex 6.73796 14.3189 127
      vertex 8.47946 13.3615 127
      vertex 6.73796 14.3189 154.45
    endloop
  endfacet
  facet normal -0.587785 -0.809017 -0
    outer loop
      vertex 10.0872 12.1934 127
      vertex 10.0872 12.1934 154.45
      vertex 8.47946 13.3615 154.45
    endloop
  endfacet
  facet normal -0.587785 -0.809017 -0
    outer loop
      vertex 8.47946 13.3615 127
      vertex 10.0872 12.1934 127
      vertex 8.47946 13.3615 154.45
    endloop
  endfacet
  facet normal -0.684547 -0.728969 -0
    outer loop
      vertex 11.5359 10.833 127
      vertex 11.5359 10.833 154.45
      vertex 10.0872 12.1934 154.45
    endloop
  endfacet
  facet normal -0.684547 -0.728969 -0
    outer loop
      vertex 10.0872 12.1934 127
      vertex 11.5359 10.833 127
      vertex 10.0872 12.1934 154.45
    endloop
  endfacet
  facet normal -0.770513 -0.637424 0
    outer loop
      vertex 12.8027 9.3017 154.45
      vertex 11.5359 10.833 154.45
      vertex 12.8027 9.3017 127
    endloop
  endfacet
  facet normal -0.770513 -0.637424 0
    outer loop
      vertex 12.8027 9.3017 127
      vertex 11.5359 10.833 154.45
      vertex 11.5359 10.833 127
    endloop
  endfacet
  facet normal -0.844328 -0.535827 0
    outer loop
      vertex 13.8676 7.62375 154.45
      vertex 12.8027 9.3017 154.45
      vertex 13.8676 7.62375 127
    endloop
  endfacet
  facet normal -0.844328 -0.535827 0
    outer loop
      vertex 13.8676 7.62375 127
      vertex 12.8027 9.3017 154.45
      vertex 12.8027 9.3017 127
    endloop
  endfacet
  facet normal -0.904827 -0.425779 0
    outer loop
      vertex 14.7137 5.82557 154.45
      vertex 13.8676 7.62375 154.45
      vertex 14.7137 5.82557 127
    endloop
  endfacet
  facet normal -0.904827 -0.425779 0
    outer loop
      vertex 14.7137 5.82557 127
      vertex 13.8676 7.62375 154.45
      vertex 13.8676 7.62375 127
    endloop
  endfacet
  facet normal -0.951056 -0.309017 0
    outer loop
      vertex 15.3278 3.93552 154.45
      vertex 14.7137 5.82557 154.45
      vertex 15.3278 3.93552 127
    endloop
  endfacet
  facet normal -0.951056 -0.309017 0
    outer loop
      vertex 15.3278 3.93552 127
      vertex 14.7137 5.82557 154.45
      vertex 14.7137 5.82557 127
    endloop
  endfacet
  facet normal -0.982287 -0.187381 0
    outer loop
      vertex 15.7002 1.9834 154.45
      vertex 15.3278 3.93552 154.45
      vertex 15.7002 1.9834 127
    endloop
  endfacet
  facet normal -0.982287 -0.187381 0
    outer loop
      vertex 15.7002 1.9834 127
      vertex 15.3278 3.93552 154.45
      vertex 15.3278 3.93552 127
    endloop
  endfacet
  facet normal -0.998027 -0.0627906 0
    outer loop
      vertex 15.825 0 154.45
      vertex 15.7002 1.9834 154.45
      vertex 15.825 0 127
    endloop
  endfacet
  facet normal -0.998027 -0.0627906 0
    outer loop
      vertex 15.825 0 127
      vertex 15.7002 1.9834 154.45
      vertex 15.7002 1.9834 127
    endloop
  endfacet
  facet normal -0.998027 0.0627906 0
    outer loop
      vertex 15.825 0 154.45
      vertex 15.825 0 127
      vertex 15.7002 -1.9834 154.45
    endloop
  endfacet
  facet normal -0.998027 0.0627906 0
    outer loop
      vertex 15.7002 -1.9834 154.45
      vertex 15.825 0 127
      vertex 15.7002 -1.9834 127
    endloop
  endfacet
  facet normal -0.982287 0.187381 0
    outer loop
      vertex 15.7002 -1.9834 154.45
      vertex 15.7002 -1.9834 127
      vertex 15.3278 -3.93552 154.45
    endloop
  endfacet
  facet normal -0.982287 0.187381 0
    outer loop
      vertex 15.3278 -3.93552 154.45
      vertex 15.7002 -1.9834 127
      vertex 15.3278 -3.93552 127
    endloop
  endfacet
  facet normal -0.951056 0.309017 0
    outer loop
      vertex 15.3278 -3.93552 154.45
      vertex 15.3278 -3.93552 127
      vertex 14.7137 -5.82557 154.45
    endloop
  endfacet
  facet normal -0.951056 0.309017 0
    outer loop
      vertex 14.7137 -5.82557 154.45
      vertex 15.3278 -3.93552 127
      vertex 14.7137 -5.82557 127
    endloop
  endfacet
  facet normal -0.904827 0.425779 0
    outer loop
      vertex 14.7137 -5.82557 154.45
      vertex 14.7137 -5.82557 127
      vertex 13.8676 -7.62375 154.45
    endloop
  endfacet
  facet normal -0.904827 0.425779 0
    outer loop
      vertex 13.8676 -7.62375 154.45
      vertex 14.7137 -5.82557 127
      vertex 13.8676 -7.62375 127
    endloop
  endfacet
  facet normal -0.844328 0.535827 0
    outer loop
      vertex 13.8676 -7.62375 154.45
      vertex 13.8676 -7.62375 127
      vertex 12.8027 -9.3017 154.45
    endloop
  endfacet
  facet normal -0.844328 0.535827 0
    outer loop
      vertex 12.8027 -9.3017 154.45
      vertex 13.8676 -7.62375 127
      vertex 12.8027 -9.3017 127
    endloop
  endfacet
  facet normal -0.770513 0.637424 0
    outer loop
      vertex 12.8027 -9.3017 154.45
      vertex 12.8027 -9.3017 127
      vertex 11.5359 -10.833 154.45
    endloop
  endfacet
  facet normal -0.770513 0.637424 0
    outer loop
      vertex 11.5359 -10.833 154.45
      vertex 12.8027 -9.3017 127
      vertex 11.5359 -10.833 127
    endloop
  endfacet
  facet normal -0.684547 0.728969 0
    outer loop
      vertex 11.5359 -10.833 154.45
      vertex 11.5359 -10.833 127
      vertex 10.0872 -12.1934 154.45
    endloop
  endfacet
  facet normal -0.684547 0.728969 0
    outer loop
      vertex 10.0872 -12.1934 154.45
      vertex 11.5359 -10.833 127
      vertex 10.0872 -12.1934 127
    endloop
  endfacet
  facet normal -0.587785 0.809017 0
    outer loop
      vertex 10.0872 -12.1934 154.45
      vertex 10.0872 -12.1934 127
      vertex 8.47946 -13.3615 154.45
    endloop
  endfacet
  facet normal -0.587785 0.809017 0
    outer loop
      vertex 8.47946 -13.3615 154.45
      vertex 10.0872 -12.1934 127
      vertex 8.47946 -13.3615 127
    endloop
  endfacet
  facet normal -0.481754 0.876307 0
    outer loop
      vertex 8.47946 -13.3615 154.45
      vertex 8.47946 -13.3615 127
      vertex 6.73796 -14.3189 154.45
    endloop
  endfacet
  facet normal -0.481754 0.876307 0
    outer loop
      vertex 6.73796 -14.3189 154.45
      vertex 8.47946 -13.3615 127
      vertex 6.73796 -14.3189 127
    endloop
  endfacet
  facet normal -0.368124 0.929777 0
    outer loop
      vertex 6.73796 -14.3189 154.45
      vertex 6.73796 -14.3189 127
      vertex 4.89019 -15.0505 154.45
    endloop
  endfacet
  facet normal -0.368124 0.929777 0
    outer loop
      vertex 4.89019 -15.0505 154.45
      vertex 6.73796 -14.3189 127
      vertex 4.89019 -15.0505 127
    endloop
  endfacet
  facet normal -0.24869 0.968583 0
    outer loop
      vertex 4.89019 -15.0505 154.45
      vertex 4.89019 -15.0505 127
      vertex 2.96531 -15.5447 154.45
    endloop
  endfacet
  facet normal -0.24869 0.968583 0
    outer loop
      vertex 2.96531 -15.5447 154.45
      vertex 4.89019 -15.0505 127
      vertex 2.96531 -15.5447 127
    endloop
  endfacet
  facet normal -0.125333 0.992115 0
    outer loop
      vertex 2.96531 -15.5447 154.45
      vertex 2.96531 -15.5447 127
      vertex 0.99366 -15.7938 154.45
    endloop
  endfacet
  facet normal -0.125333 0.992115 0
    outer loop
      vertex 0.99366 -15.7938 154.45
      vertex 2.96531 -15.5447 127
      vertex 0.99366 -15.7938 127
    endloop
  endfacet
endsolid OpenSCAD_Model
