solid OpenSCAD_Model
  facet normal -0 0 -1
    outer loop
      vertex -12.1 0 0
      vertex -12.0046 1.51653 0
      vertex -12.0046 -1.51653 0
    endloop
  endfacet
  facet normal 0 -0 -1
    outer loop
      vertex -12.0046 -1.51653 0
      vertex -12.0046 1.51653 0
      vertex -11.7199 3.00915 0
    endloop
  endfacet
  facet normal 0 0 -1
    outer loop
      vertex -12.0046 -1.51653 0
      vertex -11.7199 3.00915 0
      vertex -11.2503 4.45431 0
    endloop
  endfacet
  facet normal 0 0 -1
    outer loop
      vertex -12.0046 -1.51653 0
      vertex -11.2503 4.45431 0
      vertex -10.6033 5.82922 0
    endloop
  endfacet
  facet normal 0 0 -1
    outer loop
      vertex -12.0046 -1.51653 0
      vertex -10.6033 5.82922 0
      vertex -9.78911 7.1122 0
    endloop
  endfacet
  facet normal 0 0 -1
    outer loop
      vertex -12.0046 -1.51653 0
      vertex -9.78911 7.1122 0
      vertex -8.82052 8.28302 0
    endloop
  endfacet
  facet normal 0 0 -1
    outer loop
      vertex -12.0046 -1.51653 0
      vertex -8.82052 8.28302 0
      vertex -7.71283 9.32321 0
    endloop
  endfacet
  facet normal 0 0 -1
    outer loop
      vertex -12.0046 -1.51653 0
      vertex -7.71283 9.32321 0
      vertex -6.4835 10.2164 0
    endloop
  endfacet
  facet normal 0 0 -1
    outer loop
      vertex -12.0046 -1.51653 0
      vertex -6.4835 10.2164 0
      vertex -5.15193 10.9484 0
    endloop
  endfacet
  facet normal 0 0 -1
    outer loop
      vertex -12.0046 -1.51653 0
      vertex -5.15193 10.9484 0
      vertex -3.73911 11.5078 0
    endloop
  endfacet
  facet normal 0 0 -1
    outer loop
      vertex -12.0046 -1.51653 0
      vertex -3.73911 11.5078 0
      vertex -2.26731 11.8857 0
    endloop
  endfacet
  facet normal 0 0 -1
    outer loop
      vertex -12.0046 -1.51653 0
      vertex -2.26731 11.8857 0
      vertex -0.759765 12.0761 0
    endloop
  endfacet
  facet normal 0 0 -1
    outer loop
      vertex -12.0046 -1.51653 0
      vertex -0.759765 12.0761 0
      vertex 0 12.0761 0
    endloop
  endfacet
  facet normal 0 -0 -1
    outer loop
      vertex 0 12.0761 0
      vertex 0 12.1 0
      vertex 12.1 12.1 0
    endloop
  endfacet
  facet normal -0 0 -1
    outer loop
      vertex 0 12.0761 0
      vertex 12.1 12.1 0
      vertex -12.0046 -1.51653 0
    endloop
  endfacet
  facet normal -0 0 -1
    outer loop
      vertex -12.0046 -1.51653 0
      vertex 12.1 12.1 0
      vertex 12.1 -12.1 0
    endloop
  endfacet
  facet normal 0 0 -1
    outer loop
      vertex 0 -12.0761 0
      vertex 12.1 -12.1 0
      vertex 0 -12.1 0
    endloop
  endfacet
  facet normal 0 0 -1
    outer loop
      vertex -12.0046 -1.51653 0
      vertex 12.1 -12.1 0
      vertex 0 -12.0761 0
    endloop
  endfacet
  facet normal 0 0 -1
    outer loop
      vertex -12.0046 -1.51653 0
      vertex -0.759765 -12.0761 0
      vertex -2.26731 -11.8857 0
    endloop
  endfacet
  facet normal 0 0 -1
    outer loop
      vertex -12.0046 -1.51653 0
      vertex -2.26731 -11.8857 0
      vertex -3.73911 -11.5078 0
    endloop
  endfacet
  facet normal 0 0 -1
    outer loop
      vertex -12.0046 -1.51653 0
      vertex -3.73911 -11.5078 0
      vertex -5.15193 -10.9484 0
    endloop
  endfacet
  facet normal 0 0 -1
    outer loop
      vertex -12.0046 -1.51653 0
      vertex -5.15193 -10.9484 0
      vertex -6.4835 -10.2164 0
    endloop
  endfacet
  facet normal 0 0 -1
    outer loop
      vertex -12.0046 -1.51653 0
      vertex -6.4835 -10.2164 0
      vertex -7.71283 -9.32321 0
    endloop
  endfacet
  facet normal 0 0 -1
    outer loop
      vertex -12.0046 -1.51653 0
      vertex -7.71283 -9.32321 0
      vertex -8.82052 -8.28302 0
    endloop
  endfacet
  facet normal 0 0 -1
    outer loop
      vertex -12.0046 -1.51653 0
      vertex -8.82052 -8.28302 0
      vertex -9.78911 -7.1122 0
    endloop
  endfacet
  facet normal 0 0 -1
    outer loop
      vertex -12.0046 -1.51653 0
      vertex -9.78911 -7.1122 0
      vertex -10.6033 -5.82922 0
    endloop
  endfacet
  facet normal 0 0 -1
    outer loop
      vertex -12.0046 -1.51653 0
      vertex -10.6033 -5.82922 0
      vertex -11.2503 -4.45431 0
    endloop
  endfacet
  facet normal 0 0 -1
    outer loop
      vertex -12.0046 -1.51653 0
      vertex -11.2503 -4.45431 0
      vertex -11.7199 -3.00915 0
    endloop
  endfacet
  facet normal -0 -0 -1
    outer loop
      vertex -0.759765 -12.0761 0
      vertex -12.0046 -1.51653 0
      vertex 0 -12.0761 0
    endloop
  endfacet
  facet normal -0.998027 0.0627904 0
    outer loop
      vertex -12.1 0 0
      vertex -12.1 0 3
      vertex -12.0046 1.51653 0
    endloop
  endfacet
  facet normal -0.998027 0.0627904 0
    outer loop
      vertex -12.0046 1.51653 0
      vertex -12.1 0 3
      vertex -12.0046 1.51653 3
    endloop
  endfacet
  facet normal -0.998027 -0.0627904 -0
    outer loop
      vertex -12.1 0 0
      vertex -12.0046 -1.51653 0
      vertex -12.1 0 3
    endloop
  endfacet
  facet normal -0.998027 -0.0627904 0
    outer loop
      vertex -12.1 0 3
      vertex -12.0046 -1.51653 0
      vertex -12.0046 -1.51653 3
    endloop
  endfacet
  facet normal -0.982287 -0.187381 -0
    outer loop
      vertex -12.0046 -1.51653 0
      vertex -11.7199 -3.00915 0
      vertex -12.0046 -1.51653 3
    endloop
  endfacet
  facet normal -0.982287 -0.187381 0
    outer loop
      vertex -12.0046 -1.51653 3
      vertex -11.7199 -3.00915 0
      vertex -11.7199 -3.00915 3
    endloop
  endfacet
  facet normal -0.951056 -0.309017 -0
    outer loop
      vertex -11.7199 -3.00915 0
      vertex -11.2503 -4.45431 0
      vertex -11.7199 -3.00915 3
    endloop
  endfacet
  facet normal -0.951056 -0.309017 0
    outer loop
      vertex -11.7199 -3.00915 3
      vertex -11.2503 -4.45431 0
      vertex -11.2503 -4.45431 3
    endloop
  endfacet
  facet normal -0.904827 -0.425779 -0
    outer loop
      vertex -11.2503 -4.45431 0
      vertex -10.6033 -5.82922 0
      vertex -11.2503 -4.45431 3
    endloop
  endfacet
  facet normal -0.904827 -0.425779 0
    outer loop
      vertex -11.2503 -4.45431 3
      vertex -10.6033 -5.82922 0
      vertex -10.6033 -5.82922 3
    endloop
  endfacet
  facet normal -0.844328 -0.535826 -0
    outer loop
      vertex -10.6033 -5.82922 0
      vertex -9.78911 -7.1122 0
      vertex -10.6033 -5.82922 3
    endloop
  endfacet
  facet normal -0.844328 -0.535826 0
    outer loop
      vertex -10.6033 -5.82922 3
      vertex -9.78911 -7.1122 0
      vertex -9.78911 -7.1122 3
    endloop
  endfacet
  facet normal -0.770513 -0.637424 -0
    outer loop
      vertex -9.78911 -7.1122 0
      vertex -8.82052 -8.28302 0
      vertex -9.78911 -7.1122 3
    endloop
  endfacet
  facet normal -0.770513 -0.637424 0
    outer loop
      vertex -9.78911 -7.1122 3
      vertex -8.82052 -8.28302 0
      vertex -8.82052 -8.28302 3
    endloop
  endfacet
  facet normal -0.684547 -0.728969 0
    outer loop
      vertex -8.82052 -8.28302 3
      vertex -8.82052 -8.28302 0
      vertex -7.71283 -9.32321 0
    endloop
  endfacet
  facet normal -0.684547 -0.728969 0
    outer loop
      vertex -7.71283 -9.32321 3
      vertex -8.82052 -8.28302 3
      vertex -7.71283 -9.32321 0
    endloop
  endfacet
  facet normal -0.587785 -0.809017 0
    outer loop
      vertex -7.71283 -9.32321 3
      vertex -7.71283 -9.32321 0
      vertex -6.4835 -10.2164 0
    endloop
  endfacet
  facet normal -0.587785 -0.809017 0
    outer loop
      vertex -6.4835 -10.2164 3
      vertex -7.71283 -9.32321 3
      vertex -6.4835 -10.2164 0
    endloop
  endfacet
  facet normal -0.481753 -0.876307 0
    outer loop
      vertex -6.4835 -10.2164 3
      vertex -6.4835 -10.2164 0
      vertex -5.15193 -10.9484 0
    endloop
  endfacet
  facet normal -0.481753 -0.876307 0
    outer loop
      vertex -5.15193 -10.9484 3
      vertex -6.4835 -10.2164 3
      vertex -5.15193 -10.9484 0
    endloop
  endfacet
  facet normal -0.368125 -0.929776 0
    outer loop
      vertex -5.15193 -10.9484 3
      vertex -5.15193 -10.9484 0
      vertex -3.73911 -11.5078 0
    endloop
  endfacet
  facet normal -0.368125 -0.929776 0
    outer loop
      vertex -3.73911 -11.5078 3
      vertex -5.15193 -10.9484 3
      vertex -3.73911 -11.5078 0
    endloop
  endfacet
  facet normal -0.24869 -0.968583 0
    outer loop
      vertex -3.73911 -11.5078 3
      vertex -3.73911 -11.5078 0
      vertex -2.26731 -11.8857 0
    endloop
  endfacet
  facet normal -0.24869 -0.968583 0
    outer loop
      vertex -2.26731 -11.8857 3
      vertex -3.73911 -11.5078 3
      vertex -2.26731 -11.8857 0
    endloop
  endfacet
  facet normal -0.125333 -0.992115 0
    outer loop
      vertex -2.26731 -11.8857 3
      vertex -2.26731 -11.8857 0
      vertex -0.759765 -12.0761 0
    endloop
  endfacet
  facet normal -0.125333 -0.992115 0
    outer loop
      vertex -0.759765 -12.0761 3
      vertex -2.26731 -11.8857 3
      vertex -0.759765 -12.0761 0
    endloop
  endfacet
  facet normal 0 -1 0
    outer loop
      vertex -0.759765 -12.0761 3
      vertex -0.759765 -12.0761 0
      vertex 0 -12.0761 0
    endloop
  endfacet
  facet normal 0 -1 0
    outer loop
      vertex 0 -12.0761 3
      vertex -0.759765 -12.0761 3
      vertex 0 -12.0761 0
    endloop
  endfacet
  facet normal -1 -0 -0
    outer loop
      vertex 0 -12.1 0
      vertex 0 -12.1 80.2
      vertex 0 -12.0761 0
    endloop
  endfacet
  facet normal -1 0 -0
    outer loop
      vertex 0 -10.0801 66
      vertex 0 -12.1 80.2
      vertex 0 -9.18185 80.2
    endloop
  endfacet
  facet normal -1 -0 0
    outer loop
      vertex 0 -12.0761 3
      vertex 0 -9.18185 65
      vertex 0 -9.18185 3
    endloop
  endfacet
  facet normal -1 0 -0
    outer loop
      vertex 0 -12.0761 3
      vertex 0 -12.1 80.2
      vertex 0 -10.0801 66
    endloop
  endfacet
  facet normal -1 0 0
    outer loop
      vertex 0 -12.0761 3
      vertex 0 -10.0801 66
      vertex 0 -10.0801 65
    endloop
  endfacet
  facet normal -1 0 0
    outer loop
      vertex 0 -12.0761 0
      vertex 0 -12.1 80.2
      vertex 0 -12.0761 3
    endloop
  endfacet
  facet normal -1 -0 0
    outer loop
      vertex 0 -10.0801 66
      vertex 0 -9.18185 80.2
      vertex 0 -9.18185 66
    endloop
  endfacet
  facet normal -1 0 0
    outer loop
      vertex 0 -12.0761 3
      vertex 0 -10.0801 65
      vertex 0 -9.18185 65
    endloop
  endfacet
  facet normal 0 -1 0
    outer loop
      vertex 0 -12.1 80.2
      vertex 0 -12.1 0
      vertex 12.1 -12.1 0
    endloop
  endfacet
  facet normal 0 -1 0
    outer loop
      vertex 12.1 -12.1 80.2
      vertex 0 -12.1 80.2
      vertex 12.1 -12.1 0
    endloop
  endfacet
  facet normal 1 0 -0
    outer loop
      vertex 12.1 -12.1 80.2
      vertex 12.1 -12.1 0
      vertex 12.1 12.1 0
    endloop
  endfacet
  facet normal 1 0 0
    outer loop
      vertex 12.1 12.1 80.2
      vertex 12.1 -12.1 80.2
      vertex 12.1 12.1 0
    endloop
  endfacet
  facet normal 0 1 0
    outer loop
      vertex 0 12.1 0
      vertex 0 12.1 80.2
      vertex 12.1 12.1 0
    endloop
  endfacet
  facet normal 0 1 0
    outer loop
      vertex 12.1 12.1 0
      vertex 0 12.1 80.2
      vertex 12.1 12.1 80.2
    endloop
  endfacet
  facet normal -1 -0 -0
    outer loop
      vertex 0 9.18185 3
      vertex 0 9.18185 65
      vertex 0 12.0761 3
    endloop
  endfacet
  facet normal -1 0 0
    outer loop
      vertex 0 12.0761 3
      vertex 0 9.18185 65
      vertex 0 10.0801 65
    endloop
  endfacet
  facet normal -1 0 0
    outer loop
      vertex 0 12.0761 3
      vertex 0 10.0801 65
      vertex 0 10.0801 66
    endloop
  endfacet
  facet normal -1 0 0
    outer loop
      vertex 0 10.0801 66
      vertex 0 9.18185 66
      vertex 0 9.18185 80.2
    endloop
  endfacet
  facet normal -1 0 -0
    outer loop
      vertex 0 10.0801 66
      vertex 0 9.18185 80.2
      vertex 0 12.1 80.2
    endloop
  endfacet
  facet normal -1 -0 0
    outer loop
      vertex 0 10.0801 66
      vertex 0 12.1 80.2
      vertex 0 12.0761 3
    endloop
  endfacet
  facet normal -1 -0 0
    outer loop
      vertex 0 12.0761 3
      vertex 0 12.1 80.2
      vertex 0 12.1 0
    endloop
  endfacet
  facet normal -1 0 0
    outer loop
      vertex 0 12.0761 3
      vertex 0 12.1 0
      vertex 0 12.0761 0
    endloop
  endfacet
  facet normal 0 1 0
    outer loop
      vertex -0.759765 12.0761 0
      vertex -0.759765 12.0761 3
      vertex 0 12.0761 0
    endloop
  endfacet
  facet normal 0 1 0
    outer loop
      vertex 0 12.0761 0
      vertex -0.759765 12.0761 3
      vertex 0 12.0761 3
    endloop
  endfacet
  facet normal -0.125333 0.992115 0
    outer loop
      vertex -2.26731 11.8857 0
      vertex -2.26731 11.8857 3
      vertex -0.759765 12.0761 0
    endloop
  endfacet
  facet normal -0.125333 0.992115 0
    outer loop
      vertex -0.759765 12.0761 0
      vertex -2.26731 11.8857 3
      vertex -0.759765 12.0761 3
    endloop
  endfacet
  facet normal -0.24869 0.968583 0
    outer loop
      vertex -3.73911 11.5078 0
      vertex -3.73911 11.5078 3
      vertex -2.26731 11.8857 0
    endloop
  endfacet
  facet normal -0.24869 0.968583 0
    outer loop
      vertex -2.26731 11.8857 0
      vertex -3.73911 11.5078 3
      vertex -2.26731 11.8857 3
    endloop
  endfacet
  facet normal -0.368125 0.929776 0
    outer loop
      vertex -5.15193 10.9484 0
      vertex -5.15193 10.9484 3
      vertex -3.73911 11.5078 0
    endloop
  endfacet
  facet normal -0.368125 0.929776 0
    outer loop
      vertex -3.73911 11.5078 0
      vertex -5.15193 10.9484 3
      vertex -3.73911 11.5078 3
    endloop
  endfacet
  facet normal -0.481753 0.876307 0
    outer loop
      vertex -6.4835 10.2164 0
      vertex -6.4835 10.2164 3
      vertex -5.15193 10.9484 0
    endloop
  endfacet
  facet normal -0.481753 0.876307 0
    outer loop
      vertex -5.15193 10.9484 0
      vertex -6.4835 10.2164 3
      vertex -5.15193 10.9484 3
    endloop
  endfacet
  facet normal -0.587785 0.809017 0
    outer loop
      vertex -7.71283 9.32321 0
      vertex -7.71283 9.32321 3
      vertex -6.4835 10.2164 0
    endloop
  endfacet
  facet normal -0.587785 0.809017 0
    outer loop
      vertex -6.4835 10.2164 0
      vertex -7.71283 9.32321 3
      vertex -6.4835 10.2164 3
    endloop
  endfacet
  facet normal -0.684547 0.728969 0
    outer loop
      vertex -8.82052 8.28302 0
      vertex -8.82052 8.28302 3
      vertex -7.71283 9.32321 0
    endloop
  endfacet
  facet normal -0.684547 0.728969 0
    outer loop
      vertex -7.71283 9.32321 0
      vertex -8.82052 8.28302 3
      vertex -7.71283 9.32321 3
    endloop
  endfacet
  facet normal -0.770513 0.637424 0
    outer loop
      vertex -9.78911 7.1122 0
      vertex -9.78911 7.1122 3
      vertex -8.82052 8.28302 0
    endloop
  endfacet
  facet normal -0.770513 0.637424 0
    outer loop
      vertex -8.82052 8.28302 0
      vertex -9.78911 7.1122 3
      vertex -8.82052 8.28302 3
    endloop
  endfacet
  facet normal -0.844328 0.535826 0
    outer loop
      vertex -10.6033 5.82922 0
      vertex -10.6033 5.82922 3
      vertex -9.78911 7.1122 0
    endloop
  endfacet
  facet normal -0.844328 0.535826 0
    outer loop
      vertex -9.78911 7.1122 0
      vertex -10.6033 5.82922 3
      vertex -9.78911 7.1122 3
    endloop
  endfacet
  facet normal -0.904827 0.425779 0
    outer loop
      vertex -11.2503 4.45431 0
      vertex -11.2503 4.45431 3
      vertex -10.6033 5.82922 0
    endloop
  endfacet
  facet normal -0.904827 0.425779 0
    outer loop
      vertex -10.6033 5.82922 0
      vertex -11.2503 4.45431 3
      vertex -10.6033 5.82922 3
    endloop
  endfacet
  facet normal -0.951056 0.309017 0
    outer loop
      vertex -11.7199 3.00915 0
      vertex -11.7199 3.00915 3
      vertex -11.2503 4.45431 0
    endloop
  endfacet
  facet normal -0.951056 0.309017 0
    outer loop
      vertex -11.2503 4.45431 0
      vertex -11.7199 3.00915 3
      vertex -11.2503 4.45431 3
    endloop
  endfacet
  facet normal -0.982287 0.187381 0
    outer loop
      vertex -12.0046 1.51653 0
      vertex -12.0046 1.51653 3
      vertex -11.7199 3.00915 0
    endloop
  endfacet
  facet normal -0.982287 0.187381 0
    outer loop
      vertex -11.7199 3.00915 0
      vertex -12.0046 1.51653 3
      vertex -11.7199 3.00915 3
    endloop
  endfacet
  facet normal 0 0 1
    outer loop
      vertex -12.0046 1.51653 3
      vertex -12.1 0 3
      vertex -12.0046 -1.51653 3
    endloop
  endfacet
  facet normal 0 0 1
    outer loop
      vertex -11.2503 -4.45431 3
      vertex -12.0046 1.51653 3
      vertex -11.7199 -3.00915 3
    endloop
  endfacet
  facet normal 0 0 1
    outer loop
      vertex -11.7199 -3.00915 3
      vertex -12.0046 1.51653 3
      vertex -12.0046 -1.51653 3
    endloop
  endfacet
  facet normal 0 0 1
    outer loop
      vertex -10.6033 -5.82922 3
      vertex -12.0046 1.51653 3
      vertex -11.2503 -4.45431 3
    endloop
  endfacet
  facet normal 0 0 1
    outer loop
      vertex -9.78911 -7.1122 3
      vertex -12.0046 1.51653 3
      vertex -10.6033 -5.82922 3
    endloop
  endfacet
  facet normal 0 0 1
    outer loop
      vertex -8.82052 -8.28302 3
      vertex -12.0046 1.51653 3
      vertex -9.78911 -7.1122 3
    endloop
  endfacet
  facet normal 0 0 1
    outer loop
      vertex -7.71283 -9.32321 3
      vertex -12.0046 1.51653 3
      vertex -8.82052 -8.28302 3
    endloop
  endfacet
  facet normal 0 0 1
    outer loop
      vertex -6.4835 -10.2164 3
      vertex -12.0046 1.51653 3
      vertex -7.71283 -9.32321 3
    endloop
  endfacet
  facet normal 0 0 1
    outer loop
      vertex -5.15193 -10.9484 3
      vertex -12.0046 1.51653 3
      vertex -6.4835 -10.2164 3
    endloop
  endfacet
  facet normal 0 0 1
    outer loop
      vertex -3.73911 -11.5078 3
      vertex -12.0046 1.51653 3
      vertex -5.15193 -10.9484 3
    endloop
  endfacet
  facet normal 0 0 1
    outer loop
      vertex -2.26731 -11.8857 3
      vertex -12.0046 1.51653 3
      vertex -3.73911 -11.5078 3
    endloop
  endfacet
  facet normal 0 0 1
    outer loop
      vertex -0.759765 -12.0761 3
      vertex -12.0046 1.51653 3
      vertex -2.26731 -11.8857 3
    endloop
  endfacet
  facet normal -0 0 1
    outer loop
      vertex 0 -12.0761 3
      vertex -12.0046 1.51653 3
      vertex -0.759765 -12.0761 3
    endloop
  endfacet
  facet normal -0 0 1
    outer loop
      vertex 0 -9.18185 3
      vertex -12.0046 1.51653 3
      vertex 0 -12.0761 3
    endloop
  endfacet
  facet normal -0 0 1
    outer loop
      vertex 0.577673 -9.18185 3
      vertex -12.0046 1.51653 3
      vertex 0 -9.18185 3
    endloop
  endfacet
  facet normal -0 0 1
    outer loop
      vertex 1.72391 -9.03704 3
      vertex -12.0046 1.51653 3
      vertex 0.577673 -9.18185 3
    endloop
  endfacet
  facet normal -0 0 1
    outer loop
      vertex 2.84296 -8.74972 3
      vertex -12.0046 1.51653 3
      vertex 1.72391 -9.03704 3
    endloop
  endfacet
  facet normal -0 0 1
    outer loop
      vertex 3.91717 -8.32441 3
      vertex -12.0046 1.51653 3
      vertex 2.84296 -8.74972 3
    endloop
  endfacet
  facet normal -0 0 1
    outer loop
      vertex 4.92961 -7.76782 3
      vertex -12.0046 1.51653 3
      vertex 3.91717 -8.32441 3
    endloop
  endfacet
  facet normal -0 0 1
    outer loop
      vertex 5.8643 -7.08872 3
      vertex -12.0046 1.51653 3
      vertex 4.92961 -7.76782 3
    endloop
  endfacet
  facet normal -0 0 1
    outer loop
      vertex 6.70651 -6.29783 3
      vertex -12.0046 1.51653 3
      vertex 5.8643 -7.08872 3
    endloop
  endfacet
  facet normal -0 0 1
    outer loop
      vertex 7.44296 -5.40762 3
      vertex -12.0046 1.51653 3
      vertex 6.70651 -6.29783 3
    endloop
  endfacet
  facet normal -0 0 1
    outer loop
      vertex 8.06202 -4.43213 3
      vertex -12.0046 1.51653 3
      vertex 7.44296 -5.40762 3
    endloop
  endfacet
  facet normal -0 0 1
    outer loop
      vertex 8.55394 -3.38675 3
      vertex -12.0046 1.51653 3
      vertex 8.06202 -4.43213 3
    endloop
  endfacet
  facet normal -0 0 1
    outer loop
      vertex 8.91096 -2.28795 3
      vertex -12.0046 1.51653 3
      vertex 8.55394 -3.38675 3
    endloop
  endfacet
  facet normal -0 0 1
    outer loop
      vertex 9.12745 -1.15307 3
      vertex -12.0046 1.51653 3
      vertex 8.91096 -2.28795 3
    endloop
  endfacet
  facet normal -0 0 1
    outer loop
      vertex 9.2 0 3
      vertex -12.0046 1.51653 3
      vertex 9.12745 -1.15307 3
    endloop
  endfacet
  facet normal -0 -0 1
    outer loop
      vertex 9.12745 1.15307 3
      vertex -12.0046 1.51653 3
      vertex 9.2 0 3
    endloop
  endfacet
  facet normal 0 -0 1
    outer loop
      vertex 8.91096 2.28795 3
      vertex -12.0046 1.51653 3
      vertex 9.12745 1.15307 3
    endloop
  endfacet
  facet normal 0 -0 1
    outer loop
      vertex 8.55394 3.38675 3
      vertex -12.0046 1.51653 3
      vertex 8.91096 2.28795 3
    endloop
  endfacet
  facet normal 0 -0 1
    outer loop
      vertex 8.06202 4.43213 3
      vertex -12.0046 1.51653 3
      vertex 8.55394 3.38675 3
    endloop
  endfacet
  facet normal 0 -0 1
    outer loop
      vertex 7.44296 5.40762 3
      vertex -12.0046 1.51653 3
      vertex 8.06202 4.43213 3
    endloop
  endfacet
  facet normal 0 -0 1
    outer loop
      vertex 6.70651 6.29783 3
      vertex -12.0046 1.51653 3
      vertex 7.44296 5.40762 3
    endloop
  endfacet
  facet normal 0 -0 1
    outer loop
      vertex 5.8643 7.08872 3
      vertex -12.0046 1.51653 3
      vertex 6.70651 6.29783 3
    endloop
  endfacet
  facet normal 0 -0 1
    outer loop
      vertex 4.92961 7.76782 3
      vertex -12.0046 1.51653 3
      vertex 5.8643 7.08872 3
    endloop
  endfacet
  facet normal 0 -0 1
    outer loop
      vertex 3.91717 8.32441 3
      vertex -12.0046 1.51653 3
      vertex 4.92961 7.76782 3
    endloop
  endfacet
  facet normal 0 -0 1
    outer loop
      vertex 2.84296 8.74972 3
      vertex -12.0046 1.51653 3
      vertex 3.91717 8.32441 3
    endloop
  endfacet
  facet normal 0 -0 1
    outer loop
      vertex 1.72391 9.03704 3
      vertex -12.0046 1.51653 3
      vertex 2.84296 8.74972 3
    endloop
  endfacet
  facet normal 0 -0 1
    outer loop
      vertex 0.577673 9.18185 3
      vertex -12.0046 1.51653 3
      vertex 1.72391 9.03704 3
    endloop
  endfacet
  facet normal 0 -0 1
    outer loop
      vertex 0 9.18185 3
      vertex -12.0046 1.51653 3
      vertex 0.577673 9.18185 3
    endloop
  endfacet
  facet normal 0 0 1
    outer loop
      vertex 0 12.0761 3
      vertex -12.0046 1.51653 3
      vertex 0 9.18185 3
    endloop
  endfacet
  facet normal 0 -0 1
    outer loop
      vertex -0.759765 12.0761 3
      vertex -12.0046 1.51653 3
      vertex 0 12.0761 3
    endloop
  endfacet
  facet normal 0 -0 1
    outer loop
      vertex -2.26731 11.8857 3
      vertex -12.0046 1.51653 3
      vertex -0.759765 12.0761 3
    endloop
  endfacet
  facet normal 0 -0 1
    outer loop
      vertex -3.73911 11.5078 3
      vertex -12.0046 1.51653 3
      vertex -2.26731 11.8857 3
    endloop
  endfacet
  facet normal 0 -0 1
    outer loop
      vertex -5.15193 10.9484 3
      vertex -12.0046 1.51653 3
      vertex -3.73911 11.5078 3
    endloop
  endfacet
  facet normal 0 -0 1
    outer loop
      vertex -6.4835 10.2164 3
      vertex -12.0046 1.51653 3
      vertex -5.15193 10.9484 3
    endloop
  endfacet
  facet normal 0 -0 1
    outer loop
      vertex -7.71283 9.32321 3
      vertex -12.0046 1.51653 3
      vertex -6.4835 10.2164 3
    endloop
  endfacet
  facet normal 0 -0 1
    outer loop
      vertex -8.82052 8.28302 3
      vertex -12.0046 1.51653 3
      vertex -7.71283 9.32321 3
    endloop
  endfacet
  facet normal 0 -0 1
    outer loop
      vertex -9.78911 7.1122 3
      vertex -12.0046 1.51653 3
      vertex -8.82052 8.28302 3
    endloop
  endfacet
  facet normal 0 -0 1
    outer loop
      vertex -10.6033 5.82922 3
      vertex -12.0046 1.51653 3
      vertex -9.78911 7.1122 3
    endloop
  endfacet
  facet normal 0 -0 1
    outer loop
      vertex -11.2503 4.45431 3
      vertex -12.0046 1.51653 3
      vertex -10.6033 5.82922 3
    endloop
  endfacet
  facet normal 0 -0 1
    outer loop
      vertex -11.7199 3.00915 3
      vertex -12.0046 1.51653 3
      vertex -11.2503 4.45431 3
    endloop
  endfacet
  facet normal 0 1 0
    outer loop
      vertex 0.577673 -9.18185 65
      vertex 0.577673 -9.18185 3
      vertex 0 -9.18185 65
    endloop
  endfacet
  facet normal 0 1 -0
    outer loop
      vertex 0 -9.18185 65
      vertex 0.577673 -9.18185 3
      vertex 0 -9.18185 3
    endloop
  endfacet
  facet normal 0 0 1
    outer loop
      vertex 0.634184 -10.0801 65
      vertex 1.89255 -9.9211 65
      vertex 3.12107 -9.60567 65
    endloop
  endfacet
  facet normal 0 0 1
    outer loop
      vertex 5.41185 -8.52771 65
      vertex 0.634184 -10.0801 65
      vertex 4.30037 -9.13875 65
    endloop
  endfacet
  facet normal 0 0 1
    outer loop
      vertex 4.30037 -9.13875 65
      vertex 0.634184 -10.0801 65
      vertex 3.12107 -9.60567 65
    endloop
  endfacet
  facet normal 0 0 1
    outer loop
      vertex 6.43798 -7.78218 65
      vertex 0.634184 -10.0801 65
      vertex 5.41185 -8.52771 65
    endloop
  endfacet
  facet normal 0 0 1
    outer loop
      vertex 7.36258 -6.91393 65
      vertex 0.634184 -10.0801 65
      vertex 6.43798 -7.78218 65
    endloop
  endfacet
  facet normal 0 -0 1
    outer loop
      vertex 3.91717 -8.32441 65
      vertex 0.634184 -10.0801 65
      vertex 7.36258 -6.91393 65
    endloop
  endfacet
  facet normal 0 -0 1
    outer loop
      vertex 5.8643 -7.08872 65
      vertex 4.92961 -7.76782 65
      vertex 8.17107 -5.93663 65
    endloop
  endfacet
  facet normal 0 -0 1
    outer loop
      vertex 7.44296 -5.40762 65
      vertex 6.70651 -6.29783 65
      vertex 8.8507 -4.86571 65
    endloop
  endfacet
  facet normal 0 -0 1
    outer loop
      vertex 8.06202 -4.43213 65
      vertex 7.44296 -5.40762 65
      vertex 9.39074 -3.71806 65
    endloop
  endfacet
  facet normal 0 -0 1
    outer loop
      vertex 8.55394 -3.38675 65
      vertex 8.06202 -4.43213 65
      vertex 9.78269 -2.51177 65
    endloop
  endfacet
  facet normal 0 -0 1
    outer loop
      vertex 8.91096 -2.28795 65
      vertex 8.55394 -3.38675 65
      vertex 10.0204 -1.26587 65
    endloop
  endfacet
  facet normal 0 -0 1
    outer loop
      vertex 9.2 0 65
      vertex 9.12745 -1.15307 65
      vertex 10.1 0 65
    endloop
  endfacet
  facet normal 0 0 1
    outer loop
      vertex 9.12745 1.15307 65
      vertex 9.2 0 65
      vertex 10.0204 1.26587 65
    endloop
  endfacet
  facet normal 0 0 1
    outer loop
      vertex 8.91096 2.28795 65
      vertex 9.12745 1.15307 65
      vertex 9.78269 2.51177 65
    endloop
  endfacet
  facet normal 0 0 1
    outer loop
      vertex 8.55394 3.38675 65
      vertex 8.91096 2.28795 65
      vertex 9.39074 3.71806 65
    endloop
  endfacet
  facet normal 0 0 1
    outer loop
      vertex 8.06202 4.43213 65
      vertex 8.55394 3.38675 65
      vertex 8.8507 4.86571 65
    endloop
  endfacet
  facet normal 0 0 1
    outer loop
      vertex 7.44296 5.40762 65
      vertex 8.06202 4.43213 65
      vertex 8.17107 5.93663 65
    endloop
  endfacet
  facet normal 0 0 1
    outer loop
      vertex 6.70651 6.29783 65
      vertex 7.44296 5.40762 65
      vertex 7.36258 6.91393 65
    endloop
  endfacet
  facet normal 0 0 1
    outer loop
      vertex 5.8643 7.08872 65
      vertex 6.70651 6.29783 65
      vertex 6.43798 7.78218 65
    endloop
  endfacet
  facet normal 0 0 1
    outer loop
      vertex 4.92961 7.76782 65
      vertex 5.8643 7.08872 65
      vertex 5.41185 8.52771 65
    endloop
  endfacet
  facet normal 0 0 1
    outer loop
      vertex 3.91717 8.32441 65
      vertex 4.92961 7.76782 65
      vertex 4.30037 9.13875 65
    endloop
  endfacet
  facet normal 0 0 1
    outer loop
      vertex 2.84296 8.74972 65
      vertex 3.91717 8.32441 65
      vertex 3.12107 9.60567 65
    endloop
  endfacet
  facet normal 0 0 1
    outer loop
      vertex 1.72391 9.03704 65
      vertex 2.84296 8.74972 65
      vertex 1.89255 9.9211 65
    endloop
  endfacet
  facet normal 0 0 1
    outer loop
      vertex 0.577673 9.18185 65
      vertex 1.72391 9.03704 65
      vertex 0.634184 10.0801 65
    endloop
  endfacet
  facet normal 0 0 1
    outer loop
      vertex 0 10.0801 65
      vertex 0.577673 9.18185 65
      vertex 0.634184 10.0801 65
    endloop
  endfacet
  facet normal 0 0 1
    outer loop
      vertex 0.634184 10.0801 65
      vertex 1.72391 9.03704 65
      vertex 1.89255 9.9211 65
    endloop
  endfacet
  facet normal 0 0 1
    outer loop
      vertex 1.89255 9.9211 65
      vertex 2.84296 8.74972 65
      vertex 3.12107 9.60567 65
    endloop
  endfacet
  facet normal 0 0 1
    outer loop
      vertex 3.12107 9.60567 65
      vertex 3.91717 8.32441 65
      vertex 4.30037 9.13875 65
    endloop
  endfacet
  facet normal 0 0 1
    outer loop
      vertex 4.30037 9.13875 65
      vertex 4.92961 7.76782 65
      vertex 5.41185 8.52771 65
    endloop
  endfacet
  facet normal 0 0 1
    outer loop
      vertex 5.41185 8.52771 65
      vertex 5.8643 7.08872 65
      vertex 6.43798 7.78218 65
    endloop
  endfacet
  facet normal 0 0 1
    outer loop
      vertex 6.43798 7.78218 65
      vertex 6.70651 6.29783 65
      vertex 7.36258 6.91393 65
    endloop
  endfacet
  facet normal 0 0 1
    outer loop
      vertex 7.36258 6.91393 65
      vertex 7.44296 5.40762 65
      vertex 8.17107 5.93663 65
    endloop
  endfacet
  facet normal 0 -0 1
    outer loop
      vertex 8.17107 5.93663 65
      vertex 8.06202 4.43213 65
      vertex 8.8507 4.86571 65
    endloop
  endfacet
  facet normal 0 -0 1
    outer loop
      vertex 8.8507 4.86571 65
      vertex 8.55394 3.38675 65
      vertex 9.39074 3.71806 65
    endloop
  endfacet
  facet normal 0 -0 1
    outer loop
      vertex 9.39074 3.71806 65
      vertex 8.91096 2.28795 65
      vertex 9.78269 2.51177 65
    endloop
  endfacet
  facet normal 0 -0 1
    outer loop
      vertex 9.78269 2.51177 65
      vertex 9.12745 1.15307 65
      vertex 10.0204 1.26587 65
    endloop
  endfacet
  facet normal 0 -0 1
    outer loop
      vertex 10.0204 1.26587 65
      vertex 9.2 0 65
      vertex 10.1 0 65
    endloop
  endfacet
  facet normal 0 0 1
    outer loop
      vertex 10.1 0 65
      vertex 9.12745 -1.15307 65
      vertex 10.0204 -1.26587 65
    endloop
  endfacet
  facet normal 0 -0 1
    outer loop
      vertex 9.12745 -1.15307 65
      vertex 8.91096 -2.28795 65
      vertex 10.0204 -1.26587 65
    endloop
  endfacet
  facet normal 0 0 1
    outer loop
      vertex 10.0204 -1.26587 65
      vertex 8.55394 -3.38675 65
      vertex 9.78269 -2.51177 65
    endloop
  endfacet
  facet normal 0 0 1
    outer loop
      vertex 9.78269 -2.51177 65
      vertex 8.06202 -4.43213 65
      vertex 9.39074 -3.71806 65
    endloop
  endfacet
  facet normal 0 0 1
    outer loop
      vertex 9.39074 -3.71806 65
      vertex 7.44296 -5.40762 65
      vertex 8.8507 -4.86571 65
    endloop
  endfacet
  facet normal 0 0 1
    outer loop
      vertex 8.8507 -4.86571 65
      vertex 6.70651 -6.29783 65
      vertex 8.17107 -5.93663 65
    endloop
  endfacet
  facet normal 0 -0 1
    outer loop
      vertex 6.70651 -6.29783 65
      vertex 5.8643 -7.08872 65
      vertex 8.17107 -5.93663 65
    endloop
  endfacet
  facet normal 0 0 1
    outer loop
      vertex 8.17107 -5.93663 65
      vertex 4.92961 -7.76782 65
      vertex 7.36258 -6.91393 65
    endloop
  endfacet
  facet normal 0 -0 1
    outer loop
      vertex 4.92961 -7.76782 65
      vertex 3.91717 -8.32441 65
      vertex 7.36258 -6.91393 65
    endloop
  endfacet
  facet normal 0 0 1
    outer loop
      vertex 0 -9.18185 65
      vertex 0.634184 -10.0801 65
      vertex 0.577673 -9.18185 65
    endloop
  endfacet
  facet normal 0 0 1
    outer loop
      vertex 0 -10.0801 65
      vertex 0.634184 -10.0801 65
      vertex 0 -9.18185 65
    endloop
  endfacet
  facet normal 0 0 1
    outer loop
      vertex 0 9.18185 65
      vertex 0.577673 9.18185 65
      vertex 0 10.0801 65
    endloop
  endfacet
  facet normal 0 0 1
    outer loop
      vertex 3.91717 -8.32441 65
      vertex 2.84296 -8.74972 65
      vertex 0.634184 -10.0801 65
    endloop
  endfacet
  facet normal 0 0 1
    outer loop
      vertex 2.84296 -8.74972 65
      vertex 1.72391 -9.03704 65
      vertex 0.634184 -10.0801 65
    endloop
  endfacet
  facet normal 0 0 1
    outer loop
      vertex 1.72391 -9.03704 65
      vertex 0.577673 -9.18185 65
      vertex 0.634184 -10.0801 65
    endloop
  endfacet
  facet normal 0 1 0
    outer loop
      vertex 0.634184 -10.0801 66
      vertex 0.634184 -10.0801 65
      vertex 0 -10.0801 66
    endloop
  endfacet
  facet normal 0 1 -0
    outer loop
      vertex 0 -10.0801 66
      vertex 0.634184 -10.0801 65
      vertex 0 -10.0801 65
    endloop
  endfacet
  facet normal 0 -0 -1
    outer loop
      vertex 4.30037 -9.13875 66
      vertex 1.72391 -9.03704 66
      vertex 5.41185 -8.52771 66
    endloop
  endfacet
  facet normal 0 -0 -1
    outer loop
      vertex 5.41185 -8.52771 66
      vertex 2.84296 -8.74972 66
      vertex 6.43798 -7.78218 66
    endloop
  endfacet
  facet normal 0 -0 -1
    outer loop
      vertex 6.43798 -7.78218 66
      vertex 3.91717 -8.32441 66
      vertex 7.36258 -6.91393 66
    endloop
  endfacet
  facet normal 0 -0 -1
    outer loop
      vertex 7.36258 -6.91393 66
      vertex 4.92961 -7.76782 66
      vertex 8.17107 -5.93663 66
    endloop
  endfacet
  facet normal 0 -0 -1
    outer loop
      vertex 8.17107 -5.93663 66
      vertex 5.8643 -7.08872 66
      vertex 8.8507 -4.86571 66
    endloop
  endfacet
  facet normal 0 -0 -1
    outer loop
      vertex 8.8507 -4.86571 66
      vertex 6.70651 -6.29783 66
      vertex 9.39074 -3.71806 66
    endloop
  endfacet
  facet normal 0 -0 -1
    outer loop
      vertex 9.39074 -3.71806 66
      vertex 7.44296 -5.40762 66
      vertex 9.78269 -2.51177 66
    endloop
  endfacet
  facet normal 0 -0 -1
    outer loop
      vertex 9.78269 -2.51177 66
      vertex 8.06202 -4.43213 66
      vertex 10.0204 -1.26587 66
    endloop
  endfacet
  facet normal 0 -0 -1
    outer loop
      vertex 10.0204 -1.26587 66
      vertex 8.55394 -3.38675 66
      vertex 10.1 0 66
    endloop
  endfacet
  facet normal 0 0 -1
    outer loop
      vertex 10.1 0 66
      vertex 8.91096 -2.28795 66
      vertex 10.0204 1.26587 66
    endloop
  endfacet
  facet normal 0 0 -1
    outer loop
      vertex 10.0204 1.26587 66
      vertex 9.12745 -1.15307 66
      vertex 9.78269 2.51177 66
    endloop
  endfacet
  facet normal 0 0 -1
    outer loop
      vertex 9.78269 2.51177 66
      vertex 9.2 0 66
      vertex 9.39074 3.71806 66
    endloop
  endfacet
  facet normal 0 0 -1
    outer loop
      vertex 9.39074 3.71806 66
      vertex 9.12745 1.15307 66
      vertex 8.8507 4.86571 66
    endloop
  endfacet
  facet normal 0 0 -1
    outer loop
      vertex 8.8507 4.86571 66
      vertex 8.91096 2.28795 66
      vertex 8.17107 5.93663 66
    endloop
  endfacet
  facet normal 0 0 -1
    outer loop
      vertex 8.17107 5.93663 66
      vertex 8.55394 3.38675 66
      vertex 7.36258 6.91393 66
    endloop
  endfacet
  facet normal 0 0 -1
    outer loop
      vertex 7.36258 6.91393 66
      vertex 8.06202 4.43213 66
      vertex 6.43798 7.78218 66
    endloop
  endfacet
  facet normal 0 0 -1
    outer loop
      vertex 6.43798 7.78218 66
      vertex 7.44296 5.40762 66
      vertex 5.41185 8.52771 66
    endloop
  endfacet
  facet normal 0 0 -1
    outer loop
      vertex 5.41185 8.52771 66
      vertex 6.70651 6.29783 66
      vertex 4.30037 9.13875 66
    endloop
  endfacet
  facet normal 0 0 -1
    outer loop
      vertex 4.30037 9.13875 66
      vertex 5.8643 7.08872 66
      vertex 3.12107 9.60567 66
    endloop
  endfacet
  facet normal 0 0 -1
    outer loop
      vertex 3.12107 9.60567 66
      vertex 4.92961 7.76782 66
      vertex 1.89255 9.9211 66
    endloop
  endfacet
  facet normal 0 0 -1
    outer loop
      vertex 0.634184 10.0801 66
      vertex 3.91717 8.32441 66
      vertex 0 10.0801 66
    endloop
  endfacet
  facet normal 0 0 -1
    outer loop
      vertex 3.91717 8.32441 66
      vertex 2.84296 8.74972 66
      vertex 0 10.0801 66
    endloop
  endfacet
  facet normal 0 0 -1
    outer loop
      vertex 2.84296 8.74972 66
      vertex 1.72391 9.03704 66
      vertex 0 10.0801 66
    endloop
  endfacet
  facet normal 0 0 -1
    outer loop
      vertex 0 10.0801 66
      vertex 0.577673 9.18185 66
      vertex 0 9.18185 66
    endloop
  endfacet
  facet normal 0 0 -1
    outer loop
      vertex 1.72391 9.03704 66
      vertex 0.577673 9.18185 66
      vertex 0 10.0801 66
    endloop
  endfacet
  facet normal 0 0 -1
    outer loop
      vertex 1.89255 9.9211 66
      vertex 3.91717 8.32441 66
      vertex 0.634184 10.0801 66
    endloop
  endfacet
  facet normal 0 0 -1
    outer loop
      vertex 4.92961 7.76782 66
      vertex 3.91717 8.32441 66
      vertex 1.89255 9.9211 66
    endloop
  endfacet
  facet normal 0 0 -1
    outer loop
      vertex 5.8643 7.08872 66
      vertex 4.92961 7.76782 66
      vertex 3.12107 9.60567 66
    endloop
  endfacet
  facet normal 0 0 -1
    outer loop
      vertex 6.70651 6.29783 66
      vertex 5.8643 7.08872 66
      vertex 4.30037 9.13875 66
    endloop
  endfacet
  facet normal 0 0 -1
    outer loop
      vertex 7.44296 5.40762 66
      vertex 6.70651 6.29783 66
      vertex 5.41185 8.52771 66
    endloop
  endfacet
  facet normal 0 0 -1
    outer loop
      vertex 8.06202 4.43213 66
      vertex 7.44296 5.40762 66
      vertex 6.43798 7.78218 66
    endloop
  endfacet
  facet normal 0 0 -1
    outer loop
      vertex 8.55394 3.38675 66
      vertex 8.06202 4.43213 66
      vertex 7.36258 6.91393 66
    endloop
  endfacet
  facet normal 0 0 -1
    outer loop
      vertex 8.91096 2.28795 66
      vertex 8.55394 3.38675 66
      vertex 8.17107 5.93663 66
    endloop
  endfacet
  facet normal 0 0 -1
    outer loop
      vertex 9.12745 1.15307 66
      vertex 8.91096 2.28795 66
      vertex 8.8507 4.86571 66
    endloop
  endfacet
  facet normal 0 -0 -1
    outer loop
      vertex 9.2 0 66
      vertex 9.12745 1.15307 66
      vertex 9.39074 3.71806 66
    endloop
  endfacet
  facet normal 0 0 -1
    outer loop
      vertex 9.12745 -1.15307 66
      vertex 9.2 0 66
      vertex 9.78269 2.51177 66
    endloop
  endfacet
  facet normal 0 0 -1
    outer loop
      vertex 8.91096 -2.28795 66
      vertex 9.12745 -1.15307 66
      vertex 10.0204 1.26587 66
    endloop
  endfacet
  facet normal 0 0 -1
    outer loop
      vertex 8.55394 -3.38675 66
      vertex 8.91096 -2.28795 66
      vertex 10.1 0 66
    endloop
  endfacet
  facet normal 0 0 -1
    outer loop
      vertex 8.06202 -4.43213 66
      vertex 8.55394 -3.38675 66
      vertex 10.0204 -1.26587 66
    endloop
  endfacet
  facet normal 0 0 -1
    outer loop
      vertex 7.44296 -5.40762 66
      vertex 8.06202 -4.43213 66
      vertex 9.78269 -2.51177 66
    endloop
  endfacet
  facet normal 0 0 -1
    outer loop
      vertex 6.70651 -6.29783 66
      vertex 7.44296 -5.40762 66
      vertex 9.39074 -3.71806 66
    endloop
  endfacet
  facet normal 0 0 -1
    outer loop
      vertex 5.8643 -7.08872 66
      vertex 6.70651 -6.29783 66
      vertex 8.8507 -4.86571 66
    endloop
  endfacet
  facet normal 0 0 -1
    outer loop
      vertex 4.92961 -7.76782 66
      vertex 5.8643 -7.08872 66
      vertex 8.17107 -5.93663 66
    endloop
  endfacet
  facet normal 0 0 -1
    outer loop
      vertex 3.91717 -8.32441 66
      vertex 4.92961 -7.76782 66
      vertex 7.36258 -6.91393 66
    endloop
  endfacet
  facet normal 0 0 -1
    outer loop
      vertex 2.84296 -8.74972 66
      vertex 3.91717 -8.32441 66
      vertex 6.43798 -7.78218 66
    endloop
  endfacet
  facet normal 0 0 -1
    outer loop
      vertex 1.72391 -9.03704 66
      vertex 2.84296 -8.74972 66
      vertex 5.41185 -8.52771 66
    endloop
  endfacet
  facet normal 0 0 -1
    outer loop
      vertex 0.577673 -9.18185 66
      vertex 1.72391 -9.03704 66
      vertex 4.30037 -9.13875 66
    endloop
  endfacet
  facet normal -0 0 -1
    outer loop
      vertex 0.577673 -9.18185 66
      vertex 4.30037 -9.13875 66
      vertex 3.12107 -9.60567 66
    endloop
  endfacet
  facet normal 0 0 -1
    outer loop
      vertex 0.577673 -9.18185 66
      vertex 3.12107 -9.60567 66
      vertex 0 -9.18185 66
    endloop
  endfacet
  facet normal 0 0 -1
    outer loop
      vertex 3.12107 -9.60567 66
      vertex 1.89255 -9.9211 66
      vertex 0 -9.18185 66
    endloop
  endfacet
  facet normal 0 0 -1
    outer loop
      vertex 1.89255 -9.9211 66
      vertex 0.634184 -10.0801 66
      vertex 0 -9.18185 66
    endloop
  endfacet
  facet normal 0 0 -1
    outer loop
      vertex 0.634184 -10.0801 66
      vertex 0 -10.0801 66
      vertex 0 -9.18185 66
    endloop
  endfacet
  facet normal 0 1 0
    outer loop
      vertex 0.577673 -9.18185 80.2
      vertex 0.577673 -9.18185 66
      vertex 0 -9.18185 80.2
    endloop
  endfacet
  facet normal 0 1 -0
    outer loop
      vertex 0 -9.18185 80.2
      vertex 0.577673 -9.18185 66
      vertex 0 -9.18185 66
    endloop
  endfacet
  facet normal 0 -0 1
    outer loop
      vertex 0 -9.18185 80.2
      vertex 0 -12.1 80.2
      vertex 12.1 -12.1 80.2
    endloop
  endfacet
  facet normal 0 0 1
    outer loop
      vertex 9.12745 1.15307 80.2
      vertex 9.2 0 80.2
      vertex 12.1 -12.1 80.2
    endloop
  endfacet
  facet normal 0 -0 1
    outer loop
      vertex 0.577673 -9.18185 80.2
      vertex 0 -9.18185 80.2
      vertex 12.1 -12.1 80.2
    endloop
  endfacet
  facet normal 0 -0 1
    outer loop
      vertex 0 12.1 80.2
      vertex 0 9.18185 80.2
      vertex 12.1 12.1 80.2
    endloop
  endfacet
  facet normal 0 0 1
    outer loop
      vertex 0 9.18185 80.2
      vertex 0.577673 9.18185 80.2
      vertex 12.1 12.1 80.2
    endloop
  endfacet
  facet normal 0 0 1
    outer loop
      vertex 0.577673 9.18185 80.2
      vertex 1.72391 9.03704 80.2
      vertex 12.1 12.1 80.2
    endloop
  endfacet
  facet normal 0 0 1
    outer loop
      vertex 1.72391 9.03704 80.2
      vertex 2.84296 8.74972 80.2
      vertex 12.1 12.1 80.2
    endloop
  endfacet
  facet normal 0 0 1
    outer loop
      vertex 2.84296 8.74972 80.2
      vertex 3.91717 8.32441 80.2
      vertex 12.1 12.1 80.2
    endloop
  endfacet
  facet normal 0 0 1
    outer loop
      vertex 3.91717 8.32441 80.2
      vertex 4.92961 7.76782 80.2
      vertex 12.1 12.1 80.2
    endloop
  endfacet
  facet normal 0 0 1
    outer loop
      vertex 4.92961 7.76782 80.2
      vertex 5.8643 7.08872 80.2
      vertex 12.1 12.1 80.2
    endloop
  endfacet
  facet normal 0 0 1
    outer loop
      vertex 5.8643 7.08872 80.2
      vertex 6.70651 6.29783 80.2
      vertex 12.1 12.1 80.2
    endloop
  endfacet
  facet normal 0 0 1
    outer loop
      vertex 6.70651 6.29783 80.2
      vertex 7.44296 5.40762 80.2
      vertex 12.1 12.1 80.2
    endloop
  endfacet
  facet normal 0 -0 1
    outer loop
      vertex 9.2 0 80.2
      vertex 9.12745 -1.15307 80.2
      vertex 12.1 -12.1 80.2
    endloop
  endfacet
  facet normal 0 0 1
    outer loop
      vertex 12.1 12.1 80.2
      vertex 8.06202 4.43213 80.2
      vertex 8.55394 3.38675 80.2
    endloop
  endfacet
  facet normal 0 0 1
    outer loop
      vertex 12.1 12.1 80.2
      vertex 8.91096 2.28795 80.2
      vertex 12.1 -12.1 80.2
    endloop
  endfacet
  facet normal 0 0 1
    outer loop
      vertex 12.1 12.1 80.2
      vertex 8.55394 3.38675 80.2
      vertex 8.91096 2.28795 80.2
    endloop
  endfacet
  facet normal 0 0 1
    outer loop
      vertex 8.91096 2.28795 80.2
      vertex 9.12745 1.15307 80.2
      vertex 12.1 -12.1 80.2
    endloop
  endfacet
  facet normal 0 -0 1
    outer loop
      vertex 9.12745 -1.15307 80.2
      vertex 8.91096 -2.28795 80.2
      vertex 12.1 -12.1 80.2
    endloop
  endfacet
  facet normal 0 -0 1
    outer loop
      vertex 8.91096 -2.28795 80.2
      vertex 8.55394 -3.38675 80.2
      vertex 12.1 -12.1 80.2
    endloop
  endfacet
  facet normal 0 -0 1
    outer loop
      vertex 8.55394 -3.38675 80.2
      vertex 8.06202 -4.43213 80.2
      vertex 12.1 -12.1 80.2
    endloop
  endfacet
  facet normal 0 -0 1
    outer loop
      vertex 8.06202 -4.43213 80.2
      vertex 7.44296 -5.40762 80.2
      vertex 12.1 -12.1 80.2
    endloop
  endfacet
  facet normal 0 -0 1
    outer loop
      vertex 7.44296 -5.40762 80.2
      vertex 6.70651 -6.29783 80.2
      vertex 12.1 -12.1 80.2
    endloop
  endfacet
  facet normal 0 -0 1
    outer loop
      vertex 6.70651 -6.29783 80.2
      vertex 5.8643 -7.08872 80.2
      vertex 12.1 -12.1 80.2
    endloop
  endfacet
  facet normal 0 -0 1
    outer loop
      vertex 5.8643 -7.08872 80.2
      vertex 4.92961 -7.76782 80.2
      vertex 12.1 -12.1 80.2
    endloop
  endfacet
  facet normal 0 -0 1
    outer loop
      vertex 4.92961 -7.76782 80.2
      vertex 3.91717 -8.32441 80.2
      vertex 12.1 -12.1 80.2
    endloop
  endfacet
  facet normal 0 -0 1
    outer loop
      vertex 3.91717 -8.32441 80.2
      vertex 2.84296 -8.74972 80.2
      vertex 12.1 -12.1 80.2
    endloop
  endfacet
  facet normal 0 -0 1
    outer loop
      vertex 2.84296 -8.74972 80.2
      vertex 1.72391 -9.03704 80.2
      vertex 12.1 -12.1 80.2
    endloop
  endfacet
  facet normal 0 -0 1
    outer loop
      vertex 1.72391 -9.03704 80.2
      vertex 0.577673 -9.18185 80.2
      vertex 12.1 -12.1 80.2
    endloop
  endfacet
  facet normal 0 0 1
    outer loop
      vertex 7.44296 5.40762 80.2
      vertex 8.06202 4.43213 80.2
      vertex 12.1 12.1 80.2
    endloop
  endfacet
  facet normal 0 -1 0
    outer loop
      vertex 0.577673 9.18185 66
      vertex 0.577673 9.18185 80.2
      vertex 0 9.18185 80.2
    endloop
  endfacet
  facet normal -0 -1 -0
    outer loop
      vertex 0 9.18185 66
      vertex 0.577673 9.18185 66
      vertex 0 9.18185 80.2
    endloop
  endfacet
  facet normal 0 -1 0
    outer loop
      vertex 0.634184 10.0801 65
      vertex 0.634184 10.0801 66
      vertex 0 10.0801 66
    endloop
  endfacet
  facet normal -0 -1 -0
    outer loop
      vertex 0 10.0801 65
      vertex 0.634184 10.0801 65
      vertex 0 10.0801 66
    endloop
  endfacet
  facet normal 0 -1 0
    outer loop
      vertex 0.577673 9.18185 3
      vertex 0.577673 9.18185 65
      vertex 0 9.18185 65
    endloop
  endfacet
  facet normal -0 -1 -0
    outer loop
      vertex 0 9.18185 3
      vertex 0.577673 9.18185 3
      vertex 0 9.18185 65
    endloop
  endfacet
  facet normal -0.125333 -0.992115 -0
    outer loop
      vertex 1.72391 9.03704 3
      vertex 1.72391 9.03704 65
      vertex 0.577673 9.18185 65
    endloop
  endfacet
  facet normal -0.125333 -0.992115 -0
    outer loop
      vertex 0.577673 9.18185 3
      vertex 1.72391 9.03704 3
      vertex 0.577673 9.18185 65
    endloop
  endfacet
  facet normal -0.24869 -0.968583 -0
    outer loop
      vertex 2.84296 8.74972 3
      vertex 2.84296 8.74972 65
      vertex 1.72391 9.03704 65
    endloop
  endfacet
  facet normal -0.24869 -0.968583 -0
    outer loop
      vertex 1.72391 9.03704 3
      vertex 2.84296 8.74972 3
      vertex 1.72391 9.03704 65
    endloop
  endfacet
  facet normal -0.368125 -0.929776 -0
    outer loop
      vertex 3.91717 8.32441 3
      vertex 3.91717 8.32441 65
      vertex 2.84296 8.74972 65
    endloop
  endfacet
  facet normal -0.368125 -0.929776 -0
    outer loop
      vertex 2.84296 8.74972 3
      vertex 3.91717 8.32441 3
      vertex 2.84296 8.74972 65
    endloop
  endfacet
  facet normal -0.481753 -0.876307 -0
    outer loop
      vertex 4.92961 7.76782 3
      vertex 4.92961 7.76782 65
      vertex 3.91717 8.32441 65
    endloop
  endfacet
  facet normal -0.481753 -0.876307 -0
    outer loop
      vertex 3.91717 8.32441 3
      vertex 4.92961 7.76782 3
      vertex 3.91717 8.32441 65
    endloop
  endfacet
  facet normal -0.587785 -0.809017 -0
    outer loop
      vertex 5.8643 7.08872 3
      vertex 5.8643 7.08872 65
      vertex 4.92961 7.76782 65
    endloop
  endfacet
  facet normal -0.587785 -0.809017 -0
    outer loop
      vertex 4.92961 7.76782 3
      vertex 5.8643 7.08872 3
      vertex 4.92961 7.76782 65
    endloop
  endfacet
  facet normal -0.684548 -0.728968 -0
    outer loop
      vertex 6.70651 6.29783 3
      vertex 6.70651 6.29783 65
      vertex 5.8643 7.08872 65
    endloop
  endfacet
  facet normal -0.684548 -0.728968 -0
    outer loop
      vertex 5.8643 7.08872 3
      vertex 6.70651 6.29783 3
      vertex 5.8643 7.08872 65
    endloop
  endfacet
  facet normal -0.770513 -0.637424 0
    outer loop
      vertex 7.44296 5.40762 65
      vertex 6.70651 6.29783 65
      vertex 7.44296 5.40762 3
    endloop
  endfacet
  facet normal -0.770513 -0.637424 0
    outer loop
      vertex 7.44296 5.40762 3
      vertex 6.70651 6.29783 65
      vertex 6.70651 6.29783 3
    endloop
  endfacet
  facet normal -0.844328 -0.535827 0
    outer loop
      vertex 8.06202 4.43213 65
      vertex 7.44296 5.40762 65
      vertex 8.06202 4.43213 3
    endloop
  endfacet
  facet normal -0.844328 -0.535827 0
    outer loop
      vertex 8.06202 4.43213 3
      vertex 7.44296 5.40762 65
      vertex 7.44296 5.40762 3
    endloop
  endfacet
  facet normal -0.904827 -0.42578 0
    outer loop
      vertex 8.55394 3.38675 65
      vertex 8.06202 4.43213 65
      vertex 8.55394 3.38675 3
    endloop
  endfacet
  facet normal -0.904827 -0.42578 0
    outer loop
      vertex 8.55394 3.38675 3
      vertex 8.06202 4.43213 65
      vertex 8.06202 4.43213 3
    endloop
  endfacet
  facet normal -0.951057 -0.309017 0
    outer loop
      vertex 8.91096 2.28795 65
      vertex 8.55394 3.38675 65
      vertex 8.91096 2.28795 3
    endloop
  endfacet
  facet normal -0.951057 -0.309017 0
    outer loop
      vertex 8.91096 2.28795 3
      vertex 8.55394 3.38675 65
      vertex 8.55394 3.38675 3
    endloop
  endfacet
  facet normal -0.982287 -0.187381 0
    outer loop
      vertex 9.12745 1.15307 65
      vertex 8.91096 2.28795 65
      vertex 9.12745 1.15307 3
    endloop
  endfacet
  facet normal -0.982287 -0.187381 0
    outer loop
      vertex 9.12745 1.15307 3
      vertex 8.91096 2.28795 65
      vertex 8.91096 2.28795 3
    endloop
  endfacet
  facet normal -0.998027 -0.0627907 0
    outer loop
      vertex 9.2 0 65
      vertex 9.12745 1.15307 65
      vertex 9.2 0 3
    endloop
  endfacet
  facet normal -0.998027 -0.0627907 0
    outer loop
      vertex 9.2 0 3
      vertex 9.12745 1.15307 65
      vertex 9.12745 1.15307 3
    endloop
  endfacet
  facet normal -0.998027 0.0627907 0
    outer loop
      vertex 9.2 0 65
      vertex 9.2 0 3
      vertex 9.12745 -1.15307 65
    endloop
  endfacet
  facet normal -0.998027 0.0627907 0
    outer loop
      vertex 9.12745 -1.15307 65
      vertex 9.2 0 3
      vertex 9.12745 -1.15307 3
    endloop
  endfacet
  facet normal -0.982287 0.187381 0
    outer loop
      vertex 9.12745 -1.15307 65
      vertex 9.12745 -1.15307 3
      vertex 8.91096 -2.28795 65
    endloop
  endfacet
  facet normal -0.982287 0.187381 0
    outer loop
      vertex 8.91096 -2.28795 65
      vertex 9.12745 -1.15307 3
      vertex 8.91096 -2.28795 3
    endloop
  endfacet
  facet normal -0.951057 0.309017 0
    outer loop
      vertex 8.91096 -2.28795 65
      vertex 8.91096 -2.28795 3
      vertex 8.55394 -3.38675 65
    endloop
  endfacet
  facet normal -0.951057 0.309017 0
    outer loop
      vertex 8.55394 -3.38675 65
      vertex 8.91096 -2.28795 3
      vertex 8.55394 -3.38675 3
    endloop
  endfacet
  facet normal -0.904827 0.42578 0
    outer loop
      vertex 8.55394 -3.38675 65
      vertex 8.55394 -3.38675 3
      vertex 8.06202 -4.43213 65
    endloop
  endfacet
  facet normal -0.904827 0.42578 0
    outer loop
      vertex 8.06202 -4.43213 65
      vertex 8.55394 -3.38675 3
      vertex 8.06202 -4.43213 3
    endloop
  endfacet
  facet normal -0.844328 0.535827 0
    outer loop
      vertex 8.06202 -4.43213 65
      vertex 8.06202 -4.43213 3
      vertex 7.44296 -5.40762 65
    endloop
  endfacet
  facet normal -0.844328 0.535827 0
    outer loop
      vertex 7.44296 -5.40762 65
      vertex 8.06202 -4.43213 3
      vertex 7.44296 -5.40762 3
    endloop
  endfacet
  facet normal -0.770513 0.637424 0
    outer loop
      vertex 7.44296 -5.40762 65
      vertex 7.44296 -5.40762 3
      vertex 6.70651 -6.29783 65
    endloop
  endfacet
  facet normal -0.770513 0.637424 0
    outer loop
      vertex 6.70651 -6.29783 65
      vertex 7.44296 -5.40762 3
      vertex 6.70651 -6.29783 3
    endloop
  endfacet
  facet normal -0.684548 0.728968 0
    outer loop
      vertex 6.70651 -6.29783 65
      vertex 6.70651 -6.29783 3
      vertex 5.8643 -7.08872 65
    endloop
  endfacet
  facet normal -0.684548 0.728968 0
    outer loop
      vertex 5.8643 -7.08872 65
      vertex 6.70651 -6.29783 3
      vertex 5.8643 -7.08872 3
    endloop
  endfacet
  facet normal -0.587785 0.809017 0
    outer loop
      vertex 5.8643 -7.08872 65
      vertex 5.8643 -7.08872 3
      vertex 4.92961 -7.76782 65
    endloop
  endfacet
  facet normal -0.587785 0.809017 0
    outer loop
      vertex 4.92961 -7.76782 65
      vertex 5.8643 -7.08872 3
      vertex 4.92961 -7.76782 3
    endloop
  endfacet
  facet normal -0.481753 0.876307 0
    outer loop
      vertex 4.92961 -7.76782 65
      vertex 4.92961 -7.76782 3
      vertex 3.91717 -8.32441 65
    endloop
  endfacet
  facet normal -0.481753 0.876307 0
    outer loop
      vertex 3.91717 -8.32441 65
      vertex 4.92961 -7.76782 3
      vertex 3.91717 -8.32441 3
    endloop
  endfacet
  facet normal -0.368125 0.929776 0
    outer loop
      vertex 3.91717 -8.32441 65
      vertex 3.91717 -8.32441 3
      vertex 2.84296 -8.74972 65
    endloop
  endfacet
  facet normal -0.368125 0.929776 0
    outer loop
      vertex 2.84296 -8.74972 65
      vertex 3.91717 -8.32441 3
      vertex 2.84296 -8.74972 3
    endloop
  endfacet
  facet normal -0.24869 0.968583 0
    outer loop
      vertex 2.84296 -8.74972 65
      vertex 2.84296 -8.74972 3
      vertex 1.72391 -9.03704 65
    endloop
  endfacet
  facet normal -0.24869 0.968583 0
    outer loop
      vertex 1.72391 -9.03704 65
      vertex 2.84296 -8.74972 3
      vertex 1.72391 -9.03704 3
    endloop
  endfacet
  facet normal -0.125333 0.992115 0
    outer loop
      vertex 1.72391 -9.03704 65
      vertex 1.72391 -9.03704 3
      vertex 0.577673 -9.18185 65
    endloop
  endfacet
  facet normal -0.125333 0.992115 0
    outer loop
      vertex 0.577673 -9.18185 65
      vertex 1.72391 -9.03704 3
      vertex 0.577673 -9.18185 3
    endloop
  endfacet
  facet normal -0.125333 0.992115 0
    outer loop
      vertex 1.89255 -9.9211 66
      vertex 1.89255 -9.9211 65
      vertex 0.634184 -10.0801 66
    endloop
  endfacet
  facet normal -0.125333 0.992115 0
    outer loop
      vertex 0.634184 -10.0801 66
      vertex 1.89255 -9.9211 65
      vertex 0.634184 -10.0801 65
    endloop
  endfacet
  facet normal -0.125333 -0.992115 -0
    outer loop
      vertex 1.89255 9.9211 65
      vertex 1.89255 9.9211 66
      vertex 0.634184 10.0801 66
    endloop
  endfacet
  facet normal -0.125333 -0.992115 -0
    outer loop
      vertex 0.634184 10.0801 65
      vertex 1.89255 9.9211 65
      vertex 0.634184 10.0801 66
    endloop
  endfacet
  facet normal -0.248689 -0.968583 -0
    outer loop
      vertex 3.12107 9.60567 65
      vertex 3.12107 9.60567 66
      vertex 1.89255 9.9211 66
    endloop
  endfacet
  facet normal -0.248689 -0.968583 -0
    outer loop
      vertex 1.89255 9.9211 65
      vertex 3.12107 9.60567 65
      vertex 1.89255 9.9211 66
    endloop
  endfacet
  facet normal -0.368125 -0.929776 -0
    outer loop
      vertex 4.30037 9.13875 65
      vertex 4.30037 9.13875 66
      vertex 3.12107 9.60567 66
    endloop
  endfacet
  facet normal -0.368125 -0.929776 -0
    outer loop
      vertex 3.12107 9.60567 65
      vertex 4.30037 9.13875 65
      vertex 3.12107 9.60567 66
    endloop
  endfacet
  facet normal -0.481753 -0.876307 -0
    outer loop
      vertex 5.41185 8.52771 65
      vertex 5.41185 8.52771 66
      vertex 4.30037 9.13875 66
    endloop
  endfacet
  facet normal -0.481753 -0.876307 -0
    outer loop
      vertex 4.30037 9.13875 65
      vertex 5.41185 8.52771 65
      vertex 4.30037 9.13875 66
    endloop
  endfacet
  facet normal -0.587785 -0.809017 -0
    outer loop
      vertex 6.43798 7.78218 65
      vertex 6.43798 7.78218 66
      vertex 5.41185 8.52771 66
    endloop
  endfacet
  facet normal -0.587785 -0.809017 -0
    outer loop
      vertex 5.41185 8.52771 65
      vertex 6.43798 7.78218 65
      vertex 5.41185 8.52771 66
    endloop
  endfacet
  facet normal -0.684547 -0.728969 -0
    outer loop
      vertex 7.36258 6.91393 65
      vertex 7.36258 6.91393 66
      vertex 6.43798 7.78218 66
    endloop
  endfacet
  facet normal -0.684547 -0.728969 -0
    outer loop
      vertex 6.43798 7.78218 65
      vertex 7.36258 6.91393 65
      vertex 6.43798 7.78218 66
    endloop
  endfacet
  facet normal -0.770513 -0.637424 0
    outer loop
      vertex 8.17107 5.93663 66
      vertex 7.36258 6.91393 66
      vertex 8.17107 5.93663 65
    endloop
  endfacet
  facet normal -0.770513 -0.637424 0
    outer loop
      vertex 8.17107 5.93663 65
      vertex 7.36258 6.91393 66
      vertex 7.36258 6.91393 65
    endloop
  endfacet
  facet normal -0.844328 -0.535826 0
    outer loop
      vertex 8.8507 4.86571 66
      vertex 8.17107 5.93663 66
      vertex 8.8507 4.86571 65
    endloop
  endfacet
  facet normal -0.844328 -0.535826 0
    outer loop
      vertex 8.8507 4.86571 65
      vertex 8.17107 5.93663 66
      vertex 8.17107 5.93663 65
    endloop
  endfacet
  facet normal -0.904827 -0.42578 0
    outer loop
      vertex 9.39074 3.71806 66
      vertex 8.8507 4.86571 66
      vertex 9.39074 3.71806 65
    endloop
  endfacet
  facet normal -0.904827 -0.42578 0
    outer loop
      vertex 9.39074 3.71806 65
      vertex 8.8507 4.86571 66
      vertex 8.8507 4.86571 65
    endloop
  endfacet
  facet normal -0.951057 -0.309017 0
    outer loop
      vertex 9.78269 2.51177 66
      vertex 9.39074 3.71806 66
      vertex 9.78269 2.51177 65
    endloop
  endfacet
  facet normal -0.951057 -0.309017 0
    outer loop
      vertex 9.78269 2.51177 65
      vertex 9.39074 3.71806 66
      vertex 9.39074 3.71806 65
    endloop
  endfacet
  facet normal -0.982287 -0.187381 0
    outer loop
      vertex 10.0204 1.26587 66
      vertex 9.78269 2.51177 66
      vertex 10.0204 1.26587 65
    endloop
  endfacet
  facet normal -0.982287 -0.187381 0
    outer loop
      vertex 10.0204 1.26587 65
      vertex 9.78269 2.51177 66
      vertex 9.78269 2.51177 65
    endloop
  endfacet
  facet normal -0.998027 -0.0627909 0
    outer loop
      vertex 10.1 0 66
      vertex 10.0204 1.26587 66
      vertex 10.1 0 65
    endloop
  endfacet
  facet normal -0.998027 -0.0627909 0
    outer loop
      vertex 10.1 0 65
      vertex 10.0204 1.26587 66
      vertex 10.0204 1.26587 65
    endloop
  endfacet
  facet normal -0.998027 0.0627909 0
    outer loop
      vertex 10.1 0 66
      vertex 10.1 0 65
      vertex 10.0204 -1.26587 66
    endloop
  endfacet
  facet normal -0.998027 0.0627909 0
    outer loop
      vertex 10.0204 -1.26587 66
      vertex 10.1 0 65
      vertex 10.0204 -1.26587 65
    endloop
  endfacet
  facet normal -0.982287 0.187381 0
    outer loop
      vertex 10.0204 -1.26587 66
      vertex 10.0204 -1.26587 65
      vertex 9.78269 -2.51177 66
    endloop
  endfacet
  facet normal -0.982287 0.187381 0
    outer loop
      vertex 9.78269 -2.51177 66
      vertex 10.0204 -1.26587 65
      vertex 9.78269 -2.51177 65
    endloop
  endfacet
  facet normal -0.951057 0.309017 0
    outer loop
      vertex 9.78269 -2.51177 66
      vertex 9.78269 -2.51177 65
      vertex 9.39074 -3.71806 66
    endloop
  endfacet
  facet normal -0.951057 0.309017 0
    outer loop
      vertex 9.39074 -3.71806 66
      vertex 9.78269 -2.51177 65
      vertex 9.39074 -3.71806 65
    endloop
  endfacet
  facet normal -0.904827 0.42578 0
    outer loop
      vertex 9.39074 -3.71806 66
      vertex 9.39074 -3.71806 65
      vertex 8.8507 -4.86571 66
    endloop
  endfacet
  facet normal -0.904827 0.42578 0
    outer loop
      vertex 8.8507 -4.86571 66
      vertex 9.39074 -3.71806 65
      vertex 8.8507 -4.86571 65
    endloop
  endfacet
  facet normal -0.844328 0.535826 0
    outer loop
      vertex 8.8507 -4.86571 66
      vertex 8.8507 -4.86571 65
      vertex 8.17107 -5.93663 66
    endloop
  endfacet
  facet normal -0.844328 0.535826 0
    outer loop
      vertex 8.17107 -5.93663 66
      vertex 8.8507 -4.86571 65
      vertex 8.17107 -5.93663 65
    endloop
  endfacet
  facet normal -0.770513 0.637424 0
    outer loop
      vertex 8.17107 -5.93663 66
      vertex 8.17107 -5.93663 65
      vertex 7.36258 -6.91393 66
    endloop
  endfacet
  facet normal -0.770513 0.637424 0
    outer loop
      vertex 7.36258 -6.91393 66
      vertex 8.17107 -5.93663 65
      vertex 7.36258 -6.91393 65
    endloop
  endfacet
  facet normal -0.684547 0.728969 0
    outer loop
      vertex 7.36258 -6.91393 66
      vertex 7.36258 -6.91393 65
      vertex 6.43798 -7.78218 66
    endloop
  endfacet
  facet normal -0.684547 0.728969 0
    outer loop
      vertex 6.43798 -7.78218 66
      vertex 7.36258 -6.91393 65
      vertex 6.43798 -7.78218 65
    endloop
  endfacet
  facet normal -0.587785 0.809017 0
    outer loop
      vertex 6.43798 -7.78218 66
      vertex 6.43798 -7.78218 65
      vertex 5.41185 -8.52771 66
    endloop
  endfacet
  facet normal -0.587785 0.809017 0
    outer loop
      vertex 5.41185 -8.52771 66
      vertex 6.43798 -7.78218 65
      vertex 5.41185 -8.52771 65
    endloop
  endfacet
  facet normal -0.481753 0.876307 0
    outer loop
      vertex 5.41185 -8.52771 66
      vertex 5.41185 -8.52771 65
      vertex 4.30037 -9.13875 66
    endloop
  endfacet
  facet normal -0.481753 0.876307 0
    outer loop
      vertex 4.30037 -9.13875 66
      vertex 5.41185 -8.52771 65
      vertex 4.30037 -9.13875 65
    endloop
  endfacet
  facet normal -0.368125 0.929776 0
    outer loop
      vertex 4.30037 -9.13875 66
      vertex 4.30037 -9.13875 65
      vertex 3.12107 -9.60567 66
    endloop
  endfacet
  facet normal -0.368125 0.929776 0
    outer loop
      vertex 3.12107 -9.60567 66
      vertex 4.30037 -9.13875 65
      vertex 3.12107 -9.60567 65
    endloop
  endfacet
  facet normal -0.248689 0.968583 0
    outer loop
      vertex 3.12107 -9.60567 66
      vertex 3.12107 -9.60567 65
      vertex 1.89255 -9.9211 66
    endloop
  endfacet
  facet normal -0.248689 0.968583 0
    outer loop
      vertex 1.89255 -9.9211 66
      vertex 3.12107 -9.60567 65
      vertex 1.89255 -9.9211 65
    endloop
  endfacet
  facet normal -0.125333 -0.992115 -0
    outer loop
      vertex 1.72391 9.03704 66
      vertex 1.72391 9.03704 80.2
      vertex 0.577673 9.18185 80.2
    endloop
  endfacet
  facet normal -0.125333 -0.992115 -0
    outer loop
      vertex 0.577673 9.18185 66
      vertex 1.72391 9.03704 66
      vertex 0.577673 9.18185 80.2
    endloop
  endfacet
  facet normal -0.24869 -0.968583 -0
    outer loop
      vertex 2.84296 8.74972 66
      vertex 2.84296 8.74972 80.2
      vertex 1.72391 9.03704 80.2
    endloop
  endfacet
  facet normal -0.24869 -0.968583 -0
    outer loop
      vertex 1.72391 9.03704 66
      vertex 2.84296 8.74972 66
      vertex 1.72391 9.03704 80.2
    endloop
  endfacet
  facet normal -0.368125 -0.929776 -0
    outer loop
      vertex 3.91717 8.32441 66
      vertex 3.91717 8.32441 80.2
      vertex 2.84296 8.74972 80.2
    endloop
  endfacet
  facet normal -0.368125 -0.929776 -0
    outer loop
      vertex 2.84296 8.74972 66
      vertex 3.91717 8.32441 66
      vertex 2.84296 8.74972 80.2
    endloop
  endfacet
  facet normal -0.481753 -0.876307 -0
    outer loop
      vertex 4.92961 7.76782 66
      vertex 4.92961 7.76782 80.2
      vertex 3.91717 8.32441 80.2
    endloop
  endfacet
  facet normal -0.481753 -0.876307 -0
    outer loop
      vertex 3.91717 8.32441 66
      vertex 4.92961 7.76782 66
      vertex 3.91717 8.32441 80.2
    endloop
  endfacet
  facet normal -0.587785 -0.809017 -0
    outer loop
      vertex 5.8643 7.08872 66
      vertex 5.8643 7.08872 80.2
      vertex 4.92961 7.76782 80.2
    endloop
  endfacet
  facet normal -0.587785 -0.809017 -0
    outer loop
      vertex 4.92961 7.76782 66
      vertex 5.8643 7.08872 66
      vertex 4.92961 7.76782 80.2
    endloop
  endfacet
  facet normal -0.684548 -0.728968 -0
    outer loop
      vertex 6.70651 6.29783 66
      vertex 6.70651 6.29783 80.2
      vertex 5.8643 7.08872 80.2
    endloop
  endfacet
  facet normal -0.684548 -0.728968 -0
    outer loop
      vertex 5.8643 7.08872 66
      vertex 6.70651 6.29783 66
      vertex 5.8643 7.08872 80.2
    endloop
  endfacet
  facet normal -0.770513 -0.637424 0
    outer loop
      vertex 7.44296 5.40762 80.2
      vertex 6.70651 6.29783 80.2
      vertex 7.44296 5.40762 66
    endloop
  endfacet
  facet normal -0.770513 -0.637424 0
    outer loop
      vertex 7.44296 5.40762 66
      vertex 6.70651 6.29783 80.2
      vertex 6.70651 6.29783 66
    endloop
  endfacet
  facet normal -0.844328 -0.535827 0
    outer loop
      vertex 8.06202 4.43213 80.2
      vertex 7.44296 5.40762 80.2
      vertex 8.06202 4.43213 66
    endloop
  endfacet
  facet normal -0.844328 -0.535827 0
    outer loop
      vertex 8.06202 4.43213 66
      vertex 7.44296 5.40762 80.2
      vertex 7.44296 5.40762 66
    endloop
  endfacet
  facet normal -0.904827 -0.42578 0
    outer loop
      vertex 8.55394 3.38675 80.2
      vertex 8.06202 4.43213 80.2
      vertex 8.55394 3.38675 66
    endloop
  endfacet
  facet normal -0.904827 -0.42578 0
    outer loop
      vertex 8.55394 3.38675 66
      vertex 8.06202 4.43213 80.2
      vertex 8.06202 4.43213 66
    endloop
  endfacet
  facet normal -0.951057 -0.309017 0
    outer loop
      vertex 8.91096 2.28795 80.2
      vertex 8.55394 3.38675 80.2
      vertex 8.91096 2.28795 66
    endloop
  endfacet
  facet normal -0.951057 -0.309017 0
    outer loop
      vertex 8.91096 2.28795 66
      vertex 8.55394 3.38675 80.2
      vertex 8.55394 3.38675 66
    endloop
  endfacet
  facet normal -0.982287 -0.187381 0
    outer loop
      vertex 9.12745 1.15307 80.2
      vertex 8.91096 2.28795 80.2
      vertex 9.12745 1.15307 66
    endloop
  endfacet
  facet normal -0.982287 -0.187381 0
    outer loop
      vertex 9.12745 1.15307 66
      vertex 8.91096 2.28795 80.2
      vertex 8.91096 2.28795 66
    endloop
  endfacet
  facet normal -0.998027 -0.0627907 0
    outer loop
      vertex 9.2 0 80.2
      vertex 9.12745 1.15307 80.2
      vertex 9.2 0 66
    endloop
  endfacet
  facet normal -0.998027 -0.0627907 0
    outer loop
      vertex 9.2 0 66
      vertex 9.12745 1.15307 80.2
      vertex 9.12745 1.15307 66
    endloop
  endfacet
  facet normal -0.998027 0.0627907 0
    outer loop
      vertex 9.2 0 80.2
      vertex 9.2 0 66
      vertex 9.12745 -1.15307 80.2
    endloop
  endfacet
  facet normal -0.998027 0.0627907 0
    outer loop
      vertex 9.12745 -1.15307 80.2
      vertex 9.2 0 66
      vertex 9.12745 -1.15307 66
    endloop
  endfacet
  facet normal -0.982287 0.187381 0
    outer loop
      vertex 9.12745 -1.15307 80.2
      vertex 9.12745 -1.15307 66
      vertex 8.91096 -2.28795 80.2
    endloop
  endfacet
  facet normal -0.982287 0.187381 0
    outer loop
      vertex 8.91096 -2.28795 80.2
      vertex 9.12745 -1.15307 66
      vertex 8.91096 -2.28795 66
    endloop
  endfacet
  facet normal -0.951057 0.309017 0
    outer loop
      vertex 8.91096 -2.28795 80.2
      vertex 8.91096 -2.28795 66
      vertex 8.55394 -3.38675 80.2
    endloop
  endfacet
  facet normal -0.951057 0.309017 0
    outer loop
      vertex 8.55394 -3.38675 80.2
      vertex 8.91096 -2.28795 66
      vertex 8.55394 -3.38675 66
    endloop
  endfacet
  facet normal -0.904827 0.42578 0
    outer loop
      vertex 8.55394 -3.38675 80.2
      vertex 8.55394 -3.38675 66
      vertex 8.06202 -4.43213 80.2
    endloop
  endfacet
  facet normal -0.904827 0.42578 0
    outer loop
      vertex 8.06202 -4.43213 80.2
      vertex 8.55394 -3.38675 66
      vertex 8.06202 -4.43213 66
    endloop
  endfacet
  facet normal -0.844328 0.535827 0
    outer loop
      vertex 8.06202 -4.43213 80.2
      vertex 8.06202 -4.43213 66
      vertex 7.44296 -5.40762 80.2
    endloop
  endfacet
  facet normal -0.844328 0.535827 0
    outer loop
      vertex 7.44296 -5.40762 80.2
      vertex 8.06202 -4.43213 66
      vertex 7.44296 -5.40762 66
    endloop
  endfacet
  facet normal -0.770513 0.637424 0
    outer loop
      vertex 7.44296 -5.40762 80.2
      vertex 7.44296 -5.40762 66
      vertex 6.70651 -6.29783 80.2
    endloop
  endfacet
  facet normal -0.770513 0.637424 0
    outer loop
      vertex 6.70651 -6.29783 80.2
      vertex 7.44296 -5.40762 66
      vertex 6.70651 -6.29783 66
    endloop
  endfacet
  facet normal -0.684548 0.728968 0
    outer loop
      vertex 6.70651 -6.29783 80.2
      vertex 6.70651 -6.29783 66
      vertex 5.8643 -7.08872 80.2
    endloop
  endfacet
  facet normal -0.684548 0.728968 0
    outer loop
      vertex 5.8643 -7.08872 80.2
      vertex 6.70651 -6.29783 66
      vertex 5.8643 -7.08872 66
    endloop
  endfacet
  facet normal -0.587785 0.809017 0
    outer loop
      vertex 5.8643 -7.08872 80.2
      vertex 5.8643 -7.08872 66
      vertex 4.92961 -7.76782 80.2
    endloop
  endfacet
  facet normal -0.587785 0.809017 0
    outer loop
      vertex 4.92961 -7.76782 80.2
      vertex 5.8643 -7.08872 66
      vertex 4.92961 -7.76782 66
    endloop
  endfacet
  facet normal -0.481753 0.876307 0
    outer loop
      vertex 4.92961 -7.76782 80.2
      vertex 4.92961 -7.76782 66
      vertex 3.91717 -8.32441 80.2
    endloop
  endfacet
  facet normal -0.481753 0.876307 0
    outer loop
      vertex 3.91717 -8.32441 80.2
      vertex 4.92961 -7.76782 66
      vertex 3.91717 -8.32441 66
    endloop
  endfacet
  facet normal -0.368125 0.929776 0
    outer loop
      vertex 3.91717 -8.32441 80.2
      vertex 3.91717 -8.32441 66
      vertex 2.84296 -8.74972 80.2
    endloop
  endfacet
  facet normal -0.368125 0.929776 0
    outer loop
      vertex 2.84296 -8.74972 80.2
      vertex 3.91717 -8.32441 66
      vertex 2.84296 -8.74972 66
    endloop
  endfacet
  facet normal -0.24869 0.968583 0
    outer loop
      vertex 2.84296 -8.74972 80.2
      vertex 2.84296 -8.74972 66
      vertex 1.72391 -9.03704 80.2
    endloop
  endfacet
  facet normal -0.24869 0.968583 0
    outer loop
      vertex 1.72391 -9.03704 80.2
      vertex 2.84296 -8.74972 66
      vertex 1.72391 -9.03704 66
    endloop
  endfacet
  facet normal -0.125333 0.992115 0
    outer loop
      vertex 1.72391 -9.03704 80.2
      vertex 1.72391 -9.03704 66
      vertex 0.577673 -9.18185 80.2
    endloop
  endfacet
  facet normal -0.125333 0.992115 0
    outer loop
      vertex 0.577673 -9.18185 80.2
      vertex 1.72391 -9.03704 66
      vertex 0.577673 -9.18185 66
    endloop
  endfacet
endsolid OpenSCAD_Model
