solid OpenSCAD_Model
  facet normal -0 0 -1
    outer loop
      vertex -16.7 0 0
      vertex -16.5683 2.09306 0
      vertex -16.5683 -2.09306 0
    endloop
  endfacet
  facet normal 0 -0 -1
    outer loop
      vertex -16.5683 -2.09306 0
      vertex -16.5683 2.09306 0
      vertex -16.1753 4.15312 0
    endloop
  endfacet
  facet normal 0 0 -1
    outer loop
      vertex -16.5683 -2.09306 0
      vertex -16.1753 4.15312 0
      vertex -15.5273 6.14768 0
    endloop
  endfacet
  facet normal 0 0 -1
    outer loop
      vertex -16.5683 -2.09306 0
      vertex -15.5273 6.14768 0
      vertex -14.6343 8.04529 0
    endloop
  endfacet
  facet normal 0 0 -1
    outer loop
      vertex -16.5683 -2.09306 0
      vertex -14.6343 8.04529 0
      vertex -13.5106 9.81601 0
    endloop
  endfacet
  facet normal 0 0 -1
    outer loop
      vertex -16.5683 -2.09306 0
      vertex -13.5106 9.81601 0
      vertex -12.1738 11.4319 0
    endloop
  endfacet
  facet normal 0 0 -1
    outer loop
      vertex -16.5683 -2.09306 0
      vertex -12.1738 11.4319 0
      vertex -10.645 12.8676 0
    endloop
  endfacet
  facet normal 0 0 -1
    outer loop
      vertex -16.5683 -2.09306 0
      vertex -10.645 12.8676 0
      vertex -8.94831 14.1003 0
    endloop
  endfacet
  facet normal 0 0 -1
    outer loop
      vertex -16.5683 -2.09306 0
      vertex -8.94831 14.1003 0
      vertex -7.11051 15.1106 0
    endloop
  endfacet
  facet normal 0 0 -1
    outer loop
      vertex -16.5683 -2.09306 0
      vertex -7.11051 15.1106 0
      vertex -5.16058 15.8826 0
    endloop
  endfacet
  facet normal 0 0 -1
    outer loop
      vertex -16.5683 -2.09306 0
      vertex -5.16058 15.8826 0
      vertex -3.12927 16.4042 0
    endloop
  endfacet
  facet normal 0 0 -1
    outer loop
      vertex -16.5683 -2.09306 0
      vertex -3.12927 16.4042 0
      vertex -1.0486 16.667 0
    endloop
  endfacet
  facet normal 0 0 -1
    outer loop
      vertex -16.5683 -2.09306 0
      vertex -1.0486 16.667 0
      vertex 0 16.667 0
    endloop
  endfacet
  facet normal 0 -0 -1
    outer loop
      vertex 0 16.667 0
      vertex 0 16.7 0
      vertex 16.7 16.7 0
    endloop
  endfacet
  facet normal -0 0 -1
    outer loop
      vertex 0 16.667 0
      vertex 16.7 16.7 0
      vertex -16.5683 -2.09306 0
    endloop
  endfacet
  facet normal -0 0 -1
    outer loop
      vertex -16.5683 -2.09306 0
      vertex 16.7 16.7 0
      vertex 16.7 -16.7 0
    endloop
  endfacet
  facet normal 0 0 -1
    outer loop
      vertex 0 -16.667 0
      vertex 16.7 -16.7 0
      vertex 0 -16.7 0
    endloop
  endfacet
  facet normal 0 0 -1
    outer loop
      vertex -16.5683 -2.09306 0
      vertex 16.7 -16.7 0
      vertex 0 -16.667 0
    endloop
  endfacet
  facet normal 0 0 -1
    outer loop
      vertex -16.5683 -2.09306 0
      vertex -1.0486 -16.667 0
      vertex -3.12927 -16.4042 0
    endloop
  endfacet
  facet normal 0 0 -1
    outer loop
      vertex -16.5683 -2.09306 0
      vertex -3.12927 -16.4042 0
      vertex -5.16058 -15.8826 0
    endloop
  endfacet
  facet normal 0 0 -1
    outer loop
      vertex -16.5683 -2.09306 0
      vertex -5.16058 -15.8826 0
      vertex -7.11051 -15.1106 0
    endloop
  endfacet
  facet normal 0 0 -1
    outer loop
      vertex -16.5683 -2.09306 0
      vertex -7.11051 -15.1106 0
      vertex -8.94831 -14.1003 0
    endloop
  endfacet
  facet normal 0 0 -1
    outer loop
      vertex -16.5683 -2.09306 0
      vertex -8.94831 -14.1003 0
      vertex -10.645 -12.8676 0
    endloop
  endfacet
  facet normal 0 0 -1
    outer loop
      vertex -16.5683 -2.09306 0
      vertex -10.645 -12.8676 0
      vertex -12.1738 -11.4319 0
    endloop
  endfacet
  facet normal 0 0 -1
    outer loop
      vertex -16.5683 -2.09306 0
      vertex -12.1738 -11.4319 0
      vertex -13.5106 -9.81601 0
    endloop
  endfacet
  facet normal 0 0 -1
    outer loop
      vertex -16.5683 -2.09306 0
      vertex -13.5106 -9.81601 0
      vertex -14.6343 -8.04529 0
    endloop
  endfacet
  facet normal 0 0 -1
    outer loop
      vertex -16.5683 -2.09306 0
      vertex -14.6343 -8.04529 0
      vertex -15.5273 -6.14768 0
    endloop
  endfacet
  facet normal 0 0 -1
    outer loop
      vertex -16.5683 -2.09306 0
      vertex -15.5273 -6.14768 0
      vertex -16.1753 -4.15312 0
    endloop
  endfacet
  facet normal -0 -0 -1
    outer loop
      vertex -1.0486 -16.667 0
      vertex -16.5683 -2.09306 0
      vertex 0 -16.667 0
    endloop
  endfacet
  facet normal -0.998027 0.0627903 0
    outer loop
      vertex -16.7 0 0
      vertex -16.7 0 3
      vertex -16.5683 2.09306 0
    endloop
  endfacet
  facet normal -0.998027 0.0627903 0
    outer loop
      vertex -16.5683 2.09306 0
      vertex -16.7 0 3
      vertex -16.5683 2.09306 3
    endloop
  endfacet
  facet normal -0.998027 -0.0627903 -0
    outer loop
      vertex -16.7 0 0
      vertex -16.5683 -2.09306 0
      vertex -16.7 0 3
    endloop
  endfacet
  facet normal -0.998027 -0.0627903 0
    outer loop
      vertex -16.7 0 3
      vertex -16.5683 -2.09306 0
      vertex -16.5683 -2.09306 3
    endloop
  endfacet
  facet normal -0.982287 -0.187381 -0
    outer loop
      vertex -16.5683 -2.09306 0
      vertex -16.1753 -4.15312 0
      vertex -16.5683 -2.09306 3
    endloop
  endfacet
  facet normal -0.982287 -0.187381 0
    outer loop
      vertex -16.5683 -2.09306 3
      vertex -16.1753 -4.15312 0
      vertex -16.1753 -4.15312 3
    endloop
  endfacet
  facet normal -0.951056 -0.309017 -0
    outer loop
      vertex -16.1753 -4.15312 0
      vertex -15.5273 -6.14768 0
      vertex -16.1753 -4.15312 3
    endloop
  endfacet
  facet normal -0.951056 -0.309017 0
    outer loop
      vertex -16.1753 -4.15312 3
      vertex -15.5273 -6.14768 0
      vertex -15.5273 -6.14768 3
    endloop
  endfacet
  facet normal -0.904827 -0.425779 -0
    outer loop
      vertex -15.5273 -6.14768 0
      vertex -14.6343 -8.04529 0
      vertex -15.5273 -6.14768 3
    endloop
  endfacet
  facet normal -0.904827 -0.425779 0
    outer loop
      vertex -15.5273 -6.14768 3
      vertex -14.6343 -8.04529 0
      vertex -14.6343 -8.04529 3
    endloop
  endfacet
  facet normal -0.844328 -0.535827 -0
    outer loop
      vertex -14.6343 -8.04529 0
      vertex -13.5106 -9.81601 0
      vertex -14.6343 -8.04529 3
    endloop
  endfacet
  facet normal -0.844328 -0.535827 0
    outer loop
      vertex -14.6343 -8.04529 3
      vertex -13.5106 -9.81601 0
      vertex -13.5106 -9.81601 3
    endloop
  endfacet
  facet normal -0.770513 -0.637424 -0
    outer loop
      vertex -13.5106 -9.81601 0
      vertex -12.1738 -11.4319 0
      vertex -13.5106 -9.81601 3
    endloop
  endfacet
  facet normal -0.770513 -0.637424 0
    outer loop
      vertex -13.5106 -9.81601 3
      vertex -12.1738 -11.4319 0
      vertex -12.1738 -11.4319 3
    endloop
  endfacet
  facet normal -0.684547 -0.728969 0
    outer loop
      vertex -12.1738 -11.4319 3
      vertex -12.1738 -11.4319 0
      vertex -10.645 -12.8676 0
    endloop
  endfacet
  facet normal -0.684547 -0.728969 0
    outer loop
      vertex -10.645 -12.8676 3
      vertex -12.1738 -11.4319 3
      vertex -10.645 -12.8676 0
    endloop
  endfacet
  facet normal -0.587785 -0.809017 0
    outer loop
      vertex -10.645 -12.8676 3
      vertex -10.645 -12.8676 0
      vertex -8.94831 -14.1003 0
    endloop
  endfacet
  facet normal -0.587785 -0.809017 0
    outer loop
      vertex -8.94831 -14.1003 3
      vertex -10.645 -12.8676 3
      vertex -8.94831 -14.1003 0
    endloop
  endfacet
  facet normal -0.481754 -0.876307 0
    outer loop
      vertex -8.94831 -14.1003 3
      vertex -8.94831 -14.1003 0
      vertex -7.11051 -15.1106 0
    endloop
  endfacet
  facet normal -0.481754 -0.876307 0
    outer loop
      vertex -7.11051 -15.1106 3
      vertex -8.94831 -14.1003 3
      vertex -7.11051 -15.1106 0
    endloop
  endfacet
  facet normal -0.368125 -0.929776 0
    outer loop
      vertex -7.11051 -15.1106 3
      vertex -7.11051 -15.1106 0
      vertex -5.16058 -15.8826 0
    endloop
  endfacet
  facet normal -0.368125 -0.929776 0
    outer loop
      vertex -5.16058 -15.8826 3
      vertex -7.11051 -15.1106 3
      vertex -5.16058 -15.8826 0
    endloop
  endfacet
  facet normal -0.24869 -0.968583 0
    outer loop
      vertex -5.16058 -15.8826 3
      vertex -5.16058 -15.8826 0
      vertex -3.12927 -16.4042 0
    endloop
  endfacet
  facet normal -0.24869 -0.968583 0
    outer loop
      vertex -3.12927 -16.4042 3
      vertex -5.16058 -15.8826 3
      vertex -3.12927 -16.4042 0
    endloop
  endfacet
  facet normal -0.125333 -0.992115 0
    outer loop
      vertex -3.12927 -16.4042 3
      vertex -3.12927 -16.4042 0
      vertex -1.0486 -16.667 0
    endloop
  endfacet
  facet normal -0.125333 -0.992115 0
    outer loop
      vertex -1.0486 -16.667 3
      vertex -3.12927 -16.4042 3
      vertex -1.0486 -16.667 0
    endloop
  endfacet
  facet normal 0 -1 0
    outer loop
      vertex -1.0486 -16.667 3
      vertex -1.0486 -16.667 0
      vertex 0 -16.667 0
    endloop
  endfacet
  facet normal 0 -1 0
    outer loop
      vertex 0 -16.667 3
      vertex -1.0486 -16.667 3
      vertex 0 -16.667 0
    endloop
  endfacet
  facet normal -1 -0 -0
    outer loop
      vertex 0 -16.7 0
      vertex 0 -16.7 139.4
      vertex 0 -16.667 0
    endloop
  endfacet
  facet normal -1 0 -0
    outer loop
      vertex 0 -14.671 116
      vertex 0 -16.7 139.4
      vertex 0 -13.7728 139.4
    endloop
  endfacet
  facet normal -1 -0 0
    outer loop
      vertex 0 -16.667 3
      vertex 0 -13.7728 115
      vertex 0 -13.7728 3
    endloop
  endfacet
  facet normal -1 0 -0
    outer loop
      vertex 0 -16.667 3
      vertex 0 -16.7 139.4
      vertex 0 -14.671 116
    endloop
  endfacet
  facet normal -1 0 0
    outer loop
      vertex 0 -16.667 3
      vertex 0 -14.671 116
      vertex 0 -14.671 115
    endloop
  endfacet
  facet normal -1 0 0
    outer loop
      vertex 0 -16.667 0
      vertex 0 -16.7 139.4
      vertex 0 -16.667 3
    endloop
  endfacet
  facet normal -1 -0 0
    outer loop
      vertex 0 -14.671 116
      vertex 0 -13.7728 139.4
      vertex 0 -13.7728 116
    endloop
  endfacet
  facet normal -1 0 0
    outer loop
      vertex 0 -16.667 3
      vertex 0 -14.671 115
      vertex 0 -13.7728 115
    endloop
  endfacet
  facet normal 0 -1 0
    outer loop
      vertex 0 -16.7 139.4
      vertex 0 -16.7 0
      vertex 16.7 -16.7 0
    endloop
  endfacet
  facet normal 0 -1 0
    outer loop
      vertex 16.7 -16.7 139.4
      vertex 0 -16.7 139.4
      vertex 16.7 -16.7 0
    endloop
  endfacet
  facet normal 1 0 -0
    outer loop
      vertex 16.7 -16.7 139.4
      vertex 16.7 -16.7 0
      vertex 16.7 16.7 0
    endloop
  endfacet
  facet normal 1 0 0
    outer loop
      vertex 16.7 16.7 139.4
      vertex 16.7 -16.7 139.4
      vertex 16.7 16.7 0
    endloop
  endfacet
  facet normal 0 1 0
    outer loop
      vertex 0 16.7 0
      vertex 0 16.7 139.4
      vertex 16.7 16.7 0
    endloop
  endfacet
  facet normal 0 1 0
    outer loop
      vertex 16.7 16.7 0
      vertex 0 16.7 139.4
      vertex 16.7 16.7 139.4
    endloop
  endfacet
  facet normal -1 -0 -0
    outer loop
      vertex 0 13.7728 3
      vertex 0 13.7728 115
      vertex 0 16.667 3
    endloop
  endfacet
  facet normal -1 0 0
    outer loop
      vertex 0 16.667 3
      vertex 0 13.7728 115
      vertex 0 14.671 115
    endloop
  endfacet
  facet normal -1 0 0
    outer loop
      vertex 0 16.667 3
      vertex 0 14.671 115
      vertex 0 14.671 116
    endloop
  endfacet
  facet normal -1 0 0
    outer loop
      vertex 0 14.671 116
      vertex 0 13.7728 116
      vertex 0 13.7728 139.4
    endloop
  endfacet
  facet normal -1 0 -0
    outer loop
      vertex 0 14.671 116
      vertex 0 13.7728 139.4
      vertex 0 16.7 139.4
    endloop
  endfacet
  facet normal -1 -0 0
    outer loop
      vertex 0 14.671 116
      vertex 0 16.7 139.4
      vertex 0 16.667 3
    endloop
  endfacet
  facet normal -1 -0 0
    outer loop
      vertex 0 16.667 3
      vertex 0 16.7 139.4
      vertex 0 16.7 0
    endloop
  endfacet
  facet normal -1 0 0
    outer loop
      vertex 0 16.667 3
      vertex 0 16.7 0
      vertex 0 16.667 0
    endloop
  endfacet
  facet normal 0 1 0
    outer loop
      vertex -1.0486 16.667 0
      vertex -1.0486 16.667 3
      vertex 0 16.667 0
    endloop
  endfacet
  facet normal 0 1 0
    outer loop
      vertex 0 16.667 0
      vertex -1.0486 16.667 3
      vertex 0 16.667 3
    endloop
  endfacet
  facet normal -0.125333 0.992115 0
    outer loop
      vertex -3.12927 16.4042 0
      vertex -3.12927 16.4042 3
      vertex -1.0486 16.667 0
    endloop
  endfacet
  facet normal -0.125333 0.992115 0
    outer loop
      vertex -1.0486 16.667 0
      vertex -3.12927 16.4042 3
      vertex -1.0486 16.667 3
    endloop
  endfacet
  facet normal -0.24869 0.968583 0
    outer loop
      vertex -5.16058 15.8826 0
      vertex -5.16058 15.8826 3
      vertex -3.12927 16.4042 0
    endloop
  endfacet
  facet normal -0.24869 0.968583 0
    outer loop
      vertex -3.12927 16.4042 0
      vertex -5.16058 15.8826 3
      vertex -3.12927 16.4042 3
    endloop
  endfacet
  facet normal -0.368125 0.929776 0
    outer loop
      vertex -7.11051 15.1106 0
      vertex -7.11051 15.1106 3
      vertex -5.16058 15.8826 0
    endloop
  endfacet
  facet normal -0.368125 0.929776 0
    outer loop
      vertex -5.16058 15.8826 0
      vertex -7.11051 15.1106 3
      vertex -5.16058 15.8826 3
    endloop
  endfacet
  facet normal -0.481754 0.876307 0
    outer loop
      vertex -8.94831 14.1003 0
      vertex -8.94831 14.1003 3
      vertex -7.11051 15.1106 0
    endloop
  endfacet
  facet normal -0.481754 0.876307 0
    outer loop
      vertex -7.11051 15.1106 0
      vertex -8.94831 14.1003 3
      vertex -7.11051 15.1106 3
    endloop
  endfacet
  facet normal -0.587785 0.809017 0
    outer loop
      vertex -10.645 12.8676 0
      vertex -10.645 12.8676 3
      vertex -8.94831 14.1003 0
    endloop
  endfacet
  facet normal -0.587785 0.809017 0
    outer loop
      vertex -8.94831 14.1003 0
      vertex -10.645 12.8676 3
      vertex -8.94831 14.1003 3
    endloop
  endfacet
  facet normal -0.684547 0.728969 0
    outer loop
      vertex -12.1738 11.4319 0
      vertex -12.1738 11.4319 3
      vertex -10.645 12.8676 0
    endloop
  endfacet
  facet normal -0.684547 0.728969 0
    outer loop
      vertex -10.645 12.8676 0
      vertex -12.1738 11.4319 3
      vertex -10.645 12.8676 3
    endloop
  endfacet
  facet normal -0.770513 0.637424 0
    outer loop
      vertex -13.5106 9.81601 0
      vertex -13.5106 9.81601 3
      vertex -12.1738 11.4319 0
    endloop
  endfacet
  facet normal -0.770513 0.637424 0
    outer loop
      vertex -12.1738 11.4319 0
      vertex -13.5106 9.81601 3
      vertex -12.1738 11.4319 3
    endloop
  endfacet
  facet normal -0.844328 0.535827 0
    outer loop
      vertex -14.6343 8.04529 0
      vertex -14.6343 8.04529 3
      vertex -13.5106 9.81601 0
    endloop
  endfacet
  facet normal -0.844328 0.535827 0
    outer loop
      vertex -13.5106 9.81601 0
      vertex -14.6343 8.04529 3
      vertex -13.5106 9.81601 3
    endloop
  endfacet
  facet normal -0.904827 0.425779 0
    outer loop
      vertex -15.5273 6.14768 0
      vertex -15.5273 6.14768 3
      vertex -14.6343 8.04529 0
    endloop
  endfacet
  facet normal -0.904827 0.425779 0
    outer loop
      vertex -14.6343 8.04529 0
      vertex -15.5273 6.14768 3
      vertex -14.6343 8.04529 3
    endloop
  endfacet
  facet normal -0.951056 0.309017 0
    outer loop
      vertex -16.1753 4.15312 0
      vertex -16.1753 4.15312 3
      vertex -15.5273 6.14768 0
    endloop
  endfacet
  facet normal -0.951056 0.309017 0
    outer loop
      vertex -15.5273 6.14768 0
      vertex -16.1753 4.15312 3
      vertex -15.5273 6.14768 3
    endloop
  endfacet
  facet normal -0.982287 0.187381 0
    outer loop
      vertex -16.5683 2.09306 0
      vertex -16.5683 2.09306 3
      vertex -16.1753 4.15312 0
    endloop
  endfacet
  facet normal -0.982287 0.187381 0
    outer loop
      vertex -16.1753 4.15312 0
      vertex -16.5683 2.09306 3
      vertex -16.1753 4.15312 3
    endloop
  endfacet
  facet normal 0 0 1
    outer loop
      vertex -16.5683 2.09306 3
      vertex -16.7 0 3
      vertex -16.5683 -2.09306 3
    endloop
  endfacet
  facet normal 0 0 1
    outer loop
      vertex -15.5273 -6.14768 3
      vertex -16.5683 2.09306 3
      vertex -16.1753 -4.15312 3
    endloop
  endfacet
  facet normal 0 0 1
    outer loop
      vertex -16.1753 -4.15312 3
      vertex -16.5683 2.09306 3
      vertex -16.5683 -2.09306 3
    endloop
  endfacet
  facet normal 0 0 1
    outer loop
      vertex -14.6343 -8.04529 3
      vertex -16.5683 2.09306 3
      vertex -15.5273 -6.14768 3
    endloop
  endfacet
  facet normal 0 0 1
    outer loop
      vertex -13.5106 -9.81601 3
      vertex -16.5683 2.09306 3
      vertex -14.6343 -8.04529 3
    endloop
  endfacet
  facet normal 0 0 1
    outer loop
      vertex -12.1738 -11.4319 3
      vertex -16.5683 2.09306 3
      vertex -13.5106 -9.81601 3
    endloop
  endfacet
  facet normal 0 0 1
    outer loop
      vertex -10.645 -12.8676 3
      vertex -16.5683 2.09306 3
      vertex -12.1738 -11.4319 3
    endloop
  endfacet
  facet normal 0 0 1
    outer loop
      vertex -8.94831 -14.1003 3
      vertex -16.5683 2.09306 3
      vertex -10.645 -12.8676 3
    endloop
  endfacet
  facet normal 0 0 1
    outer loop
      vertex -7.11051 -15.1106 3
      vertex -16.5683 2.09306 3
      vertex -8.94831 -14.1003 3
    endloop
  endfacet
  facet normal 0 0 1
    outer loop
      vertex -5.16058 -15.8826 3
      vertex -16.5683 2.09306 3
      vertex -7.11051 -15.1106 3
    endloop
  endfacet
  facet normal 0 0 1
    outer loop
      vertex -3.12927 -16.4042 3
      vertex -16.5683 2.09306 3
      vertex -5.16058 -15.8826 3
    endloop
  endfacet
  facet normal 0 0 1
    outer loop
      vertex -1.0486 -16.667 3
      vertex -16.5683 2.09306 3
      vertex -3.12927 -16.4042 3
    endloop
  endfacet
  facet normal -0 0 1
    outer loop
      vertex 0 -16.667 3
      vertex -16.5683 2.09306 3
      vertex -1.0486 -16.667 3
    endloop
  endfacet
  facet normal -0 0 1
    outer loop
      vertex 0 -13.7728 3
      vertex -16.5683 2.09306 3
      vertex 0 -16.667 3
    endloop
  endfacet
  facet normal -0 0 1
    outer loop
      vertex 0.866509 -13.7728 3
      vertex -16.5683 2.09306 3
      vertex 0 -13.7728 3
    endloop
  endfacet
  facet normal -0 0 1
    outer loop
      vertex 2.58586 -13.5556 3
      vertex -16.5683 2.09306 3
      vertex 0.866509 -13.7728 3
    endloop
  endfacet
  facet normal -0 0 1
    outer loop
      vertex 4.26443 -13.1246 3
      vertex -16.5683 2.09306 3
      vertex 2.58586 -13.5556 3
    endloop
  endfacet
  facet normal -0 0 1
    outer loop
      vertex 5.87575 -12.4866 3
      vertex -16.5683 2.09306 3
      vertex 4.26443 -13.1246 3
    endloop
  endfacet
  facet normal -0 0 1
    outer loop
      vertex 7.39441 -11.6517 3
      vertex -16.5683 2.09306 3
      vertex 5.87575 -12.4866 3
    endloop
  endfacet
  facet normal -0 0 1
    outer loop
      vertex 8.79645 -10.6331 3
      vertex -16.5683 2.09306 3
      vertex 7.39441 -11.6517 3
    endloop
  endfacet
  facet normal -0 0 1
    outer loop
      vertex 10.0598 -9.44675 3
      vertex -16.5683 2.09306 3
      vertex 8.79645 -10.6331 3
    endloop
  endfacet
  facet normal -0 0 1
    outer loop
      vertex 11.1644 -8.11144 3
      vertex -16.5683 2.09306 3
      vertex 10.0598 -9.44675 3
    endloop
  endfacet
  facet normal -0 0 1
    outer loop
      vertex 12.093 -6.6482 3
      vertex -16.5683 2.09306 3
      vertex 11.1644 -8.11144 3
    endloop
  endfacet
  facet normal -0 0 1
    outer loop
      vertex 12.8309 -5.08012 3
      vertex -16.5683 2.09306 3
      vertex 12.093 -6.6482 3
    endloop
  endfacet
  facet normal -0 0 1
    outer loop
      vertex 13.3664 -3.43192 3
      vertex -16.5683 2.09306 3
      vertex 12.8309 -5.08012 3
    endloop
  endfacet
  facet normal -0 0 1
    outer loop
      vertex 13.6912 -1.7296 3
      vertex -16.5683 2.09306 3
      vertex 13.3664 -3.43192 3
    endloop
  endfacet
  facet normal -0 0 1
    outer loop
      vertex 13.8 0 3
      vertex -16.5683 2.09306 3
      vertex 13.6912 -1.7296 3
    endloop
  endfacet
  facet normal -0 -0 1
    outer loop
      vertex 13.6912 1.7296 3
      vertex -16.5683 2.09306 3
      vertex 13.8 0 3
    endloop
  endfacet
  facet normal 0 -0 1
    outer loop
      vertex 13.3664 3.43192 3
      vertex -16.5683 2.09306 3
      vertex 13.6912 1.7296 3
    endloop
  endfacet
  facet normal 0 -0 1
    outer loop
      vertex 12.8309 5.08012 3
      vertex -16.5683 2.09306 3
      vertex 13.3664 3.43192 3
    endloop
  endfacet
  facet normal 0 -0 1
    outer loop
      vertex 12.093 6.6482 3
      vertex -16.5683 2.09306 3
      vertex 12.8309 5.08012 3
    endloop
  endfacet
  facet normal 0 -0 1
    outer loop
      vertex 11.1644 8.11144 3
      vertex -16.5683 2.09306 3
      vertex 12.093 6.6482 3
    endloop
  endfacet
  facet normal 0 -0 1
    outer loop
      vertex 10.0598 9.44675 3
      vertex -16.5683 2.09306 3
      vertex 11.1644 8.11144 3
    endloop
  endfacet
  facet normal 0 -0 1
    outer loop
      vertex 8.79645 10.6331 3
      vertex -16.5683 2.09306 3
      vertex 10.0598 9.44675 3
    endloop
  endfacet
  facet normal 0 -0 1
    outer loop
      vertex 7.39441 11.6517 3
      vertex -16.5683 2.09306 3
      vertex 8.79645 10.6331 3
    endloop
  endfacet
  facet normal 0 -0 1
    outer loop
      vertex 5.87575 12.4866 3
      vertex -16.5683 2.09306 3
      vertex 7.39441 11.6517 3
    endloop
  endfacet
  facet normal 0 -0 1
    outer loop
      vertex 4.26443 13.1246 3
      vertex -16.5683 2.09306 3
      vertex 5.87575 12.4866 3
    endloop
  endfacet
  facet normal 0 -0 1
    outer loop
      vertex 2.58586 13.5556 3
      vertex -16.5683 2.09306 3
      vertex 4.26443 13.1246 3
    endloop
  endfacet
  facet normal 0 -0 1
    outer loop
      vertex 0.866509 13.7728 3
      vertex -16.5683 2.09306 3
      vertex 2.58586 13.5556 3
    endloop
  endfacet
  facet normal 0 -0 1
    outer loop
      vertex 0 13.7728 3
      vertex -16.5683 2.09306 3
      vertex 0.866509 13.7728 3
    endloop
  endfacet
  facet normal 0 0 1
    outer loop
      vertex 0 16.667 3
      vertex -16.5683 2.09306 3
      vertex 0 13.7728 3
    endloop
  endfacet
  facet normal 0 -0 1
    outer loop
      vertex -1.0486 16.667 3
      vertex -16.5683 2.09306 3
      vertex 0 16.667 3
    endloop
  endfacet
  facet normal 0 -0 1
    outer loop
      vertex -3.12927 16.4042 3
      vertex -16.5683 2.09306 3
      vertex -1.0486 16.667 3
    endloop
  endfacet
  facet normal 0 -0 1
    outer loop
      vertex -5.16058 15.8826 3
      vertex -16.5683 2.09306 3
      vertex -3.12927 16.4042 3
    endloop
  endfacet
  facet normal 0 -0 1
    outer loop
      vertex -7.11051 15.1106 3
      vertex -16.5683 2.09306 3
      vertex -5.16058 15.8826 3
    endloop
  endfacet
  facet normal 0 -0 1
    outer loop
      vertex -8.94831 14.1003 3
      vertex -16.5683 2.09306 3
      vertex -7.11051 15.1106 3
    endloop
  endfacet
  facet normal 0 -0 1
    outer loop
      vertex -10.645 12.8676 3
      vertex -16.5683 2.09306 3
      vertex -8.94831 14.1003 3
    endloop
  endfacet
  facet normal 0 -0 1
    outer loop
      vertex -12.1738 11.4319 3
      vertex -16.5683 2.09306 3
      vertex -10.645 12.8676 3
    endloop
  endfacet
  facet normal 0 -0 1
    outer loop
      vertex -13.5106 9.81601 3
      vertex -16.5683 2.09306 3
      vertex -12.1738 11.4319 3
    endloop
  endfacet
  facet normal 0 -0 1
    outer loop
      vertex -14.6343 8.04529 3
      vertex -16.5683 2.09306 3
      vertex -13.5106 9.81601 3
    endloop
  endfacet
  facet normal 0 -0 1
    outer loop
      vertex -15.5273 6.14768 3
      vertex -16.5683 2.09306 3
      vertex -14.6343 8.04529 3
    endloop
  endfacet
  facet normal 0 -0 1
    outer loop
      vertex -16.1753 4.15312 3
      vertex -16.5683 2.09306 3
      vertex -15.5273 6.14768 3
    endloop
  endfacet
  facet normal 0 1 0
    outer loop
      vertex 0.866509 -13.7728 115
      vertex 0.866509 -13.7728 3
      vertex 0 -13.7728 115
    endloop
  endfacet
  facet normal 0 1 -0
    outer loop
      vertex 0 -13.7728 115
      vertex 0.866509 -13.7728 3
      vertex 0 -13.7728 3
    endloop
  endfacet
  facet normal 0 0 1
    outer loop
      vertex 0.923021 -14.671 115
      vertex 2.7545 -14.4396 115
      vertex 4.54255 -13.9805 115
    endloop
  endfacet
  facet normal 0 0 1
    outer loop
      vertex 7.87665 -12.4116 115
      vertex 0.923021 -14.671 115
      vertex 6.25896 -13.301 115
    endloop
  endfacet
  facet normal 0 0 1
    outer loop
      vertex 6.25896 -13.301 115
      vertex 0.923021 -14.671 115
      vertex 4.54255 -13.9805 115
    endloop
  endfacet
  facet normal 0 0 1
    outer loop
      vertex 9.37013 -11.3265 115
      vertex 0.923021 -14.671 115
      vertex 7.87665 -12.4116 115
    endloop
  endfacet
  facet normal 0 -0 1
    outer loop
      vertex 5.87575 -12.4866 115
      vertex 0.923021 -14.671 115
      vertex 9.37013 -11.3265 115
    endloop
  endfacet
  facet normal 0 -0 1
    outer loop
      vertex 8.79645 -10.6331 115
      vertex 7.39441 -11.6517 115
      vertex 10.7158 -10.0628 115
    endloop
  endfacet
  facet normal 0 -0 1
    outer loop
      vertex 10.0598 -9.44675 115
      vertex 8.79645 -10.6331 115
      vertex 11.8925 -8.64044 115
    endloop
  endfacet
  facet normal 0 -0 1
    outer loop
      vertex 11.1644 -8.11144 115
      vertex 10.0598 -9.44675 115
      vertex 12.8817 -7.08178 115
    endloop
  endfacet
  facet normal 0 -0 1
    outer loop
      vertex 12.8309 -5.08012 115
      vertex 12.093 -6.6482 115
      vertex 13.6677 -5.41143 115
    endloop
  endfacet
  facet normal 0 -0 1
    outer loop
      vertex 13.3664 -3.43192 115
      vertex 12.8309 -5.08012 115
      vertex 14.2382 -3.65574 115
    endloop
  endfacet
  facet normal 0 -0 1
    outer loop
      vertex 13.6912 -1.7296 115
      vertex 13.3664 -3.43192 115
      vertex 14.5841 -1.8424 115
    endloop
  endfacet
  facet normal 0 -0 1
    outer loop
      vertex 13.8 0 115
      vertex 13.6912 -1.7296 115
      vertex 14.7 0 115
    endloop
  endfacet
  facet normal 0 0 1
    outer loop
      vertex 13.6912 1.7296 115
      vertex 13.8 0 115
      vertex 14.5841 1.8424 115
    endloop
  endfacet
  facet normal 0 0 1
    outer loop
      vertex 13.3664 3.43192 115
      vertex 13.6912 1.7296 115
      vertex 14.2382 3.65574 115
    endloop
  endfacet
  facet normal 0 0 1
    outer loop
      vertex 12.8309 5.08012 115
      vertex 13.3664 3.43192 115
      vertex 13.6677 5.41143 115
    endloop
  endfacet
  facet normal 0 0 1
    outer loop
      vertex 12.093 6.6482 115
      vertex 12.8309 5.08012 115
      vertex 12.8817 7.08178 115
    endloop
  endfacet
  facet normal 0 0 1
    outer loop
      vertex 11.1644 8.11144 115
      vertex 12.093 6.6482 115
      vertex 11.8925 8.64044 115
    endloop
  endfacet
  facet normal 0 0 1
    outer loop
      vertex 10.0598 9.44675 115
      vertex 11.1644 8.11144 115
      vertex 10.7158 10.0628 115
    endloop
  endfacet
  facet normal 0 0 1
    outer loop
      vertex 8.79645 10.6331 115
      vertex 10.0598 9.44675 115
      vertex 9.37013 11.3265 115
    endloop
  endfacet
  facet normal 0 0 1
    outer loop
      vertex 7.39441 11.6517 115
      vertex 8.79645 10.6331 115
      vertex 7.87665 12.4116 115
    endloop
  endfacet
  facet normal 0 0 1
    outer loop
      vertex 5.87575 12.4866 115
      vertex 7.39441 11.6517 115
      vertex 6.25896 13.301 115
    endloop
  endfacet
  facet normal 0 0 1
    outer loop
      vertex 4.26443 13.1246 115
      vertex 5.87575 12.4866 115
      vertex 4.54255 13.9805 115
    endloop
  endfacet
  facet normal 0 0 1
    outer loop
      vertex 2.58586 13.5556 115
      vertex 4.26443 13.1246 115
      vertex 2.7545 14.4396 115
    endloop
  endfacet
  facet normal 0 0 1
    outer loop
      vertex 0.866509 13.7728 115
      vertex 2.58586 13.5556 115
      vertex 0.923021 14.671 115
    endloop
  endfacet
  facet normal 0 0 1
    outer loop
      vertex 0 14.671 115
      vertex 0.866509 13.7728 115
      vertex 0.923021 14.671 115
    endloop
  endfacet
  facet normal 0 0 1
    outer loop
      vertex 0.923021 14.671 115
      vertex 2.58586 13.5556 115
      vertex 2.7545 14.4396 115
    endloop
  endfacet
  facet normal 0 0 1
    outer loop
      vertex 2.7545 14.4396 115
      vertex 4.26443 13.1246 115
      vertex 4.54255 13.9805 115
    endloop
  endfacet
  facet normal 0 0 1
    outer loop
      vertex 4.54255 13.9805 115
      vertex 5.87575 12.4866 115
      vertex 6.25896 13.301 115
    endloop
  endfacet
  facet normal 0 0 1
    outer loop
      vertex 6.25896 13.301 115
      vertex 7.39441 11.6517 115
      vertex 7.87665 12.4116 115
    endloop
  endfacet
  facet normal 0 0 1
    outer loop
      vertex 7.87665 12.4116 115
      vertex 8.79645 10.6331 115
      vertex 9.37013 11.3265 115
    endloop
  endfacet
  facet normal 0 0 1
    outer loop
      vertex 9.37013 11.3265 115
      vertex 10.0598 9.44675 115
      vertex 10.7158 10.0628 115
    endloop
  endfacet
  facet normal 0 0 1
    outer loop
      vertex 10.7158 10.0628 115
      vertex 11.1644 8.11144 115
      vertex 11.8925 8.64044 115
    endloop
  endfacet
  facet normal 0 0 1
    outer loop
      vertex 11.8925 8.64044 115
      vertex 12.093 6.6482 115
      vertex 12.8817 7.08178 115
    endloop
  endfacet
  facet normal 0 -0 1
    outer loop
      vertex 12.8817 7.08178 115
      vertex 12.8309 5.08012 115
      vertex 13.6677 5.41143 115
    endloop
  endfacet
  facet normal 0 -0 1
    outer loop
      vertex 13.6677 5.41143 115
      vertex 13.3664 3.43192 115
      vertex 14.2382 3.65574 115
    endloop
  endfacet
  facet normal 0 -0 1
    outer loop
      vertex 14.2382 3.65574 115
      vertex 13.6912 1.7296 115
      vertex 14.5841 1.8424 115
    endloop
  endfacet
  facet normal 0 -0 1
    outer loop
      vertex 14.5841 1.8424 115
      vertex 13.8 0 115
      vertex 14.7 0 115
    endloop
  endfacet
  facet normal 0 0 1
    outer loop
      vertex 14.7 0 115
      vertex 13.6912 -1.7296 115
      vertex 14.5841 -1.8424 115
    endloop
  endfacet
  facet normal 0 0 1
    outer loop
      vertex 14.5841 -1.8424 115
      vertex 13.3664 -3.43192 115
      vertex 14.2382 -3.65574 115
    endloop
  endfacet
  facet normal 0 0 1
    outer loop
      vertex 14.2382 -3.65574 115
      vertex 12.8309 -5.08012 115
      vertex 13.6677 -5.41143 115
    endloop
  endfacet
  facet normal 0 0 1
    outer loop
      vertex 13.6677 -5.41143 115
      vertex 12.093 -6.6482 115
      vertex 12.8817 -7.08178 115
    endloop
  endfacet
  facet normal 0 -0 1
    outer loop
      vertex 12.093 -6.6482 115
      vertex 11.1644 -8.11144 115
      vertex 12.8817 -7.08178 115
    endloop
  endfacet
  facet normal 0 0 1
    outer loop
      vertex 12.8817 -7.08178 115
      vertex 10.0598 -9.44675 115
      vertex 11.8925 -8.64044 115
    endloop
  endfacet
  facet normal 0 0 1
    outer loop
      vertex 11.8925 -8.64044 115
      vertex 8.79645 -10.6331 115
      vertex 10.7158 -10.0628 115
    endloop
  endfacet
  facet normal 0 0 1
    outer loop
      vertex 10.7158 -10.0628 115
      vertex 7.39441 -11.6517 115
      vertex 9.37013 -11.3265 115
    endloop
  endfacet
  facet normal 0 -0 1
    outer loop
      vertex 7.39441 -11.6517 115
      vertex 5.87575 -12.4866 115
      vertex 9.37013 -11.3265 115
    endloop
  endfacet
  facet normal 0 -0 1
    outer loop
      vertex 4.26443 -13.1246 115
      vertex 0.923021 -14.671 115
      vertex 5.87575 -12.4866 115
    endloop
  endfacet
  facet normal 0 0 1
    outer loop
      vertex 0 -13.7728 115
      vertex 0.923021 -14.671 115
      vertex 0.866509 -13.7728 115
    endloop
  endfacet
  facet normal 0 0 1
    outer loop
      vertex 0 -14.671 115
      vertex 0.923021 -14.671 115
      vertex 0 -13.7728 115
    endloop
  endfacet
  facet normal 0 0 1
    outer loop
      vertex 0 13.7728 115
      vertex 0.866509 13.7728 115
      vertex 0 14.671 115
    endloop
  endfacet
  facet normal 0 0 1
    outer loop
      vertex 4.26443 -13.1246 115
      vertex 2.58586 -13.5556 115
      vertex 0.923021 -14.671 115
    endloop
  endfacet
  facet normal 0 0 1
    outer loop
      vertex 2.58586 -13.5556 115
      vertex 0.866509 -13.7728 115
      vertex 0.923021 -14.671 115
    endloop
  endfacet
  facet normal 0 1 0
    outer loop
      vertex 0.923021 -14.671 116
      vertex 0.923021 -14.671 115
      vertex 0 -14.671 116
    endloop
  endfacet
  facet normal 0 1 -0
    outer loop
      vertex 0 -14.671 116
      vertex 0.923021 -14.671 115
      vertex 0 -14.671 115
    endloop
  endfacet
  facet normal 0 -0 -1
    outer loop
      vertex 6.25896 -13.301 116
      vertex 2.58586 -13.5556 116
      vertex 7.87665 -12.4116 116
    endloop
  endfacet
  facet normal 0 -0 -1
    outer loop
      vertex 7.87665 -12.4116 116
      vertex 4.26443 -13.1246 116
      vertex 9.37013 -11.3265 116
    endloop
  endfacet
  facet normal 0 -0 -1
    outer loop
      vertex 9.37013 -11.3265 116
      vertex 5.87575 -12.4866 116
      vertex 10.7158 -10.0628 116
    endloop
  endfacet
  facet normal 0 -0 -1
    outer loop
      vertex 10.7158 -10.0628 116
      vertex 7.39441 -11.6517 116
      vertex 11.8925 -8.64044 116
    endloop
  endfacet
  facet normal 0 -0 -1
    outer loop
      vertex 11.8925 -8.64044 116
      vertex 8.79645 -10.6331 116
      vertex 12.8817 -7.08178 116
    endloop
  endfacet
  facet normal 0 -0 -1
    outer loop
      vertex 12.8817 -7.08178 116
      vertex 10.0598 -9.44675 116
      vertex 13.6677 -5.41143 116
    endloop
  endfacet
  facet normal 0 -0 -1
    outer loop
      vertex 13.6677 -5.41143 116
      vertex 11.1644 -8.11144 116
      vertex 14.2382 -3.65574 116
    endloop
  endfacet
  facet normal 0 -0 -1
    outer loop
      vertex 14.2382 -3.65574 116
      vertex 12.093 -6.6482 116
      vertex 14.5841 -1.8424 116
    endloop
  endfacet
  facet normal 0 -0 -1
    outer loop
      vertex 14.5841 -1.8424 116
      vertex 12.8309 -5.08012 116
      vertex 14.7 0 116
    endloop
  endfacet
  facet normal 0 0 -1
    outer loop
      vertex 14.7 0 116
      vertex 13.3664 -3.43192 116
      vertex 14.5841 1.8424 116
    endloop
  endfacet
  facet normal 0 0 -1
    outer loop
      vertex 14.5841 1.8424 116
      vertex 13.6912 -1.7296 116
      vertex 14.2382 3.65574 116
    endloop
  endfacet
  facet normal 0 0 -1
    outer loop
      vertex 14.2382 3.65574 116
      vertex 13.8 0 116
      vertex 13.6677 5.41143 116
    endloop
  endfacet
  facet normal 0 0 -1
    outer loop
      vertex 13.6677 5.41143 116
      vertex 13.6912 1.7296 116
      vertex 12.8817 7.08178 116
    endloop
  endfacet
  facet normal 0 0 -1
    outer loop
      vertex 12.8817 7.08178 116
      vertex 13.3664 3.43192 116
      vertex 11.8925 8.64044 116
    endloop
  endfacet
  facet normal 0 0 -1
    outer loop
      vertex 11.8925 8.64044 116
      vertex 12.8309 5.08012 116
      vertex 10.7158 10.0628 116
    endloop
  endfacet
  facet normal 0 0 -1
    outer loop
      vertex 10.7158 10.0628 116
      vertex 12.093 6.6482 116
      vertex 9.37013 11.3265 116
    endloop
  endfacet
  facet normal 0 0 -1
    outer loop
      vertex 9.37013 11.3265 116
      vertex 11.1644 8.11144 116
      vertex 7.87665 12.4116 116
    endloop
  endfacet
  facet normal 0 0 -1
    outer loop
      vertex 7.87665 12.4116 116
      vertex 10.0598 9.44675 116
      vertex 6.25896 13.301 116
    endloop
  endfacet
  facet normal 0 0 -1
    outer loop
      vertex 6.25896 13.301 116
      vertex 8.79645 10.6331 116
      vertex 4.54255 13.9805 116
    endloop
  endfacet
  facet normal 0 0 -1
    outer loop
      vertex 4.54255 13.9805 116
      vertex 7.39441 11.6517 116
      vertex 2.7545 14.4396 116
    endloop
  endfacet
  facet normal 0 0 -1
    outer loop
      vertex 2.7545 14.4396 116
      vertex 5.87575 12.4866 116
      vertex 0.923021 14.671 116
    endloop
  endfacet
  facet normal 0 0 -1
    outer loop
      vertex 0.923021 14.671 116
      vertex 4.26443 13.1246 116
      vertex 0 14.671 116
    endloop
  endfacet
  facet normal 0 0 -1
    outer loop
      vertex 4.26443 13.1246 116
      vertex 2.58586 13.5556 116
      vertex 0 14.671 116
    endloop
  endfacet
  facet normal 0 0 -1
    outer loop
      vertex 0 14.671 116
      vertex 0.866509 13.7728 116
      vertex 0 13.7728 116
    endloop
  endfacet
  facet normal 0 0 -1
    outer loop
      vertex 2.58586 13.5556 116
      vertex 0.866509 13.7728 116
      vertex 0 14.671 116
    endloop
  endfacet
  facet normal 0 0 -1
    outer loop
      vertex 5.87575 12.4866 116
      vertex 4.26443 13.1246 116
      vertex 0.923021 14.671 116
    endloop
  endfacet
  facet normal 0 0 -1
    outer loop
      vertex 7.39441 11.6517 116
      vertex 5.87575 12.4866 116
      vertex 2.7545 14.4396 116
    endloop
  endfacet
  facet normal 0 0 -1
    outer loop
      vertex 8.79645 10.6331 116
      vertex 7.39441 11.6517 116
      vertex 4.54255 13.9805 116
    endloop
  endfacet
  facet normal 0 0 -1
    outer loop
      vertex 10.0598 9.44675 116
      vertex 8.79645 10.6331 116
      vertex 6.25896 13.301 116
    endloop
  endfacet
  facet normal 0 0 -1
    outer loop
      vertex 11.1644 8.11144 116
      vertex 10.0598 9.44675 116
      vertex 7.87665 12.4116 116
    endloop
  endfacet
  facet normal 0 0 -1
    outer loop
      vertex 12.093 6.6482 116
      vertex 11.1644 8.11144 116
      vertex 9.37013 11.3265 116
    endloop
  endfacet
  facet normal 0 0 -1
    outer loop
      vertex 12.8309 5.08012 116
      vertex 12.093 6.6482 116
      vertex 10.7158 10.0628 116
    endloop
  endfacet
  facet normal 0 0 -1
    outer loop
      vertex 13.3664 3.43192 116
      vertex 12.8309 5.08012 116
      vertex 11.8925 8.64044 116
    endloop
  endfacet
  facet normal 0 0 -1
    outer loop
      vertex 13.6912 1.7296 116
      vertex 13.3664 3.43192 116
      vertex 12.8817 7.08178 116
    endloop
  endfacet
  facet normal 0 0 -1
    outer loop
      vertex 13.8 0 116
      vertex 13.6912 1.7296 116
      vertex 13.6677 5.41143 116
    endloop
  endfacet
  facet normal 0 0 -1
    outer loop
      vertex 13.6912 -1.7296 116
      vertex 13.8 0 116
      vertex 14.2382 3.65574 116
    endloop
  endfacet
  facet normal 0 0 -1
    outer loop
      vertex 13.3664 -3.43192 116
      vertex 13.6912 -1.7296 116
      vertex 14.5841 1.8424 116
    endloop
  endfacet
  facet normal 0 0 -1
    outer loop
      vertex 12.8309 -5.08012 116
      vertex 13.3664 -3.43192 116
      vertex 14.7 0 116
    endloop
  endfacet
  facet normal 0 0 -1
    outer loop
      vertex 12.093 -6.6482 116
      vertex 12.8309 -5.08012 116
      vertex 14.5841 -1.8424 116
    endloop
  endfacet
  facet normal 0 0 -1
    outer loop
      vertex 11.1644 -8.11144 116
      vertex 12.093 -6.6482 116
      vertex 14.2382 -3.65574 116
    endloop
  endfacet
  facet normal 0 0 -1
    outer loop
      vertex 10.0598 -9.44675 116
      vertex 11.1644 -8.11144 116
      vertex 13.6677 -5.41143 116
    endloop
  endfacet
  facet normal 0 0 -1
    outer loop
      vertex 8.79645 -10.6331 116
      vertex 10.0598 -9.44675 116
      vertex 12.8817 -7.08178 116
    endloop
  endfacet
  facet normal 0 0 -1
    outer loop
      vertex 7.39441 -11.6517 116
      vertex 8.79645 -10.6331 116
      vertex 11.8925 -8.64044 116
    endloop
  endfacet
  facet normal 0 0 -1
    outer loop
      vertex 5.87575 -12.4866 116
      vertex 7.39441 -11.6517 116
      vertex 10.7158 -10.0628 116
    endloop
  endfacet
  facet normal 0 0 -1
    outer loop
      vertex 4.26443 -13.1246 116
      vertex 5.87575 -12.4866 116
      vertex 9.37013 -11.3265 116
    endloop
  endfacet
  facet normal 0 0 -1
    outer loop
      vertex 2.58586 -13.5556 116
      vertex 4.26443 -13.1246 116
      vertex 7.87665 -12.4116 116
    endloop
  endfacet
  facet normal 0 0 -1
    outer loop
      vertex 0.866509 -13.7728 116
      vertex 2.58586 -13.5556 116
      vertex 6.25896 -13.301 116
    endloop
  endfacet
  facet normal -0 0 -1
    outer loop
      vertex 0.866509 -13.7728 116
      vertex 6.25896 -13.301 116
      vertex 4.54255 -13.9805 116
    endloop
  endfacet
  facet normal 0 0 -1
    outer loop
      vertex 0.866509 -13.7728 116
      vertex 4.54255 -13.9805 116
      vertex 0 -13.7728 116
    endloop
  endfacet
  facet normal 0 0 -1
    outer loop
      vertex 4.54255 -13.9805 116
      vertex 2.7545 -14.4396 116
      vertex 0 -13.7728 116
    endloop
  endfacet
  facet normal 0 0 -1
    outer loop
      vertex 2.7545 -14.4396 116
      vertex 0.923021 -14.671 116
      vertex 0 -13.7728 116
    endloop
  endfacet
  facet normal 0 0 -1
    outer loop
      vertex 0.923021 -14.671 116
      vertex 0 -14.671 116
      vertex 0 -13.7728 116
    endloop
  endfacet
  facet normal 0 1 0
    outer loop
      vertex 0.866509 -13.7728 139.4
      vertex 0.866509 -13.7728 116
      vertex 0 -13.7728 139.4
    endloop
  endfacet
  facet normal 0 1 -0
    outer loop
      vertex 0 -13.7728 139.4
      vertex 0.866509 -13.7728 116
      vertex 0 -13.7728 116
    endloop
  endfacet
  facet normal 0 -0 1
    outer loop
      vertex 0 -13.7728 139.4
      vertex 0 -16.7 139.4
      vertex 16.7 -16.7 139.4
    endloop
  endfacet
  facet normal 0 0 1
    outer loop
      vertex 13.6912 1.7296 139.4
      vertex 13.8 0 139.4
      vertex 16.7 -16.7 139.4
    endloop
  endfacet
  facet normal 0 -0 1
    outer loop
      vertex 0.866509 -13.7728 139.4
      vertex 0 -13.7728 139.4
      vertex 16.7 -16.7 139.4
    endloop
  endfacet
  facet normal 0 -0 1
    outer loop
      vertex 0 16.7 139.4
      vertex 0 13.7728 139.4
      vertex 16.7 16.7 139.4
    endloop
  endfacet
  facet normal 0 0 1
    outer loop
      vertex 0 13.7728 139.4
      vertex 0.866509 13.7728 139.4
      vertex 16.7 16.7 139.4
    endloop
  endfacet
  facet normal 0 0 1
    outer loop
      vertex 0.866509 13.7728 139.4
      vertex 2.58586 13.5556 139.4
      vertex 16.7 16.7 139.4
    endloop
  endfacet
  facet normal 0 0 1
    outer loop
      vertex 2.58586 13.5556 139.4
      vertex 4.26443 13.1246 139.4
      vertex 16.7 16.7 139.4
    endloop
  endfacet
  facet normal 0 0 1
    outer loop
      vertex 4.26443 13.1246 139.4
      vertex 5.87575 12.4866 139.4
      vertex 16.7 16.7 139.4
    endloop
  endfacet
  facet normal 0 0 1
    outer loop
      vertex 5.87575 12.4866 139.4
      vertex 7.39441 11.6517 139.4
      vertex 16.7 16.7 139.4
    endloop
  endfacet
  facet normal 0 0 1
    outer loop
      vertex 7.39441 11.6517 139.4
      vertex 8.79645 10.6331 139.4
      vertex 16.7 16.7 139.4
    endloop
  endfacet
  facet normal 0 0 1
    outer loop
      vertex 8.79645 10.6331 139.4
      vertex 10.0598 9.44675 139.4
      vertex 16.7 16.7 139.4
    endloop
  endfacet
  facet normal 0 0 1
    outer loop
      vertex 10.0598 9.44675 139.4
      vertex 11.1644 8.11144 139.4
      vertex 16.7 16.7 139.4
    endloop
  endfacet
  facet normal 0 0 1
    outer loop
      vertex 16.7 16.7 139.4
      vertex 12.093 6.6482 139.4
      vertex 12.8309 5.08012 139.4
    endloop
  endfacet
  facet normal 0 0 1
    outer loop
      vertex 16.7 16.7 139.4
      vertex 12.8309 5.08012 139.4
      vertex 13.3664 3.43192 139.4
    endloop
  endfacet
  facet normal 0 0 1
    outer loop
      vertex 16.7 16.7 139.4
      vertex 13.6912 1.7296 139.4
      vertex 16.7 -16.7 139.4
    endloop
  endfacet
  facet normal 0 0 1
    outer loop
      vertex 16.7 16.7 139.4
      vertex 13.3664 3.43192 139.4
      vertex 13.6912 1.7296 139.4
    endloop
  endfacet
  facet normal 0 -0 1
    outer loop
      vertex 13.6912 -1.7296 139.4
      vertex 13.3664 -3.43192 139.4
      vertex 16.7 -16.7 139.4
    endloop
  endfacet
  facet normal 0 -0 1
    outer loop
      vertex 13.3664 -3.43192 139.4
      vertex 12.8309 -5.08012 139.4
      vertex 16.7 -16.7 139.4
    endloop
  endfacet
  facet normal 0 -0 1
    outer loop
      vertex 12.8309 -5.08012 139.4
      vertex 12.093 -6.6482 139.4
      vertex 16.7 -16.7 139.4
    endloop
  endfacet
  facet normal 0 -0 1
    outer loop
      vertex 12.093 -6.6482 139.4
      vertex 11.1644 -8.11144 139.4
      vertex 16.7 -16.7 139.4
    endloop
  endfacet
  facet normal 0 -0 1
    outer loop
      vertex 11.1644 -8.11144 139.4
      vertex 10.0598 -9.44675 139.4
      vertex 16.7 -16.7 139.4
    endloop
  endfacet
  facet normal 0 -0 1
    outer loop
      vertex 10.0598 -9.44675 139.4
      vertex 8.79645 -10.6331 139.4
      vertex 16.7 -16.7 139.4
    endloop
  endfacet
  facet normal 0 -0 1
    outer loop
      vertex 8.79645 -10.6331 139.4
      vertex 7.39441 -11.6517 139.4
      vertex 16.7 -16.7 139.4
    endloop
  endfacet
  facet normal 0 -0 1
    outer loop
      vertex 7.39441 -11.6517 139.4
      vertex 5.87575 -12.4866 139.4
      vertex 16.7 -16.7 139.4
    endloop
  endfacet
  facet normal 0 -0 1
    outer loop
      vertex 5.87575 -12.4866 139.4
      vertex 4.26443 -13.1246 139.4
      vertex 16.7 -16.7 139.4
    endloop
  endfacet
  facet normal 0 -0 1
    outer loop
      vertex 4.26443 -13.1246 139.4
      vertex 2.58586 -13.5556 139.4
      vertex 16.7 -16.7 139.4
    endloop
  endfacet
  facet normal 0 -0 1
    outer loop
      vertex 2.58586 -13.5556 139.4
      vertex 0.866509 -13.7728 139.4
      vertex 16.7 -16.7 139.4
    endloop
  endfacet
  facet normal 0 0 1
    outer loop
      vertex 11.1644 8.11144 139.4
      vertex 12.093 6.6482 139.4
      vertex 16.7 16.7 139.4
    endloop
  endfacet
  facet normal 0 -0 1
    outer loop
      vertex 13.8 0 139.4
      vertex 13.6912 -1.7296 139.4
      vertex 16.7 -16.7 139.4
    endloop
  endfacet
  facet normal 0 -1 0
    outer loop
      vertex 0.866509 13.7728 116
      vertex 0.866509 13.7728 139.4
      vertex 0 13.7728 139.4
    endloop
  endfacet
  facet normal -0 -1 -0
    outer loop
      vertex 0 13.7728 116
      vertex 0.866509 13.7728 116
      vertex 0 13.7728 139.4
    endloop
  endfacet
  facet normal 0 -1 0
    outer loop
      vertex 0.923021 14.671 115
      vertex 0.923021 14.671 116
      vertex 0 14.671 116
    endloop
  endfacet
  facet normal -0 -1 -0
    outer loop
      vertex 0 14.671 115
      vertex 0.923021 14.671 115
      vertex 0 14.671 116
    endloop
  endfacet
  facet normal 0 -1 0
    outer loop
      vertex 0.866509 13.7728 3
      vertex 0.866509 13.7728 115
      vertex 0 13.7728 115
    endloop
  endfacet
  facet normal -0 -1 -0
    outer loop
      vertex 0 13.7728 3
      vertex 0.866509 13.7728 3
      vertex 0 13.7728 115
    endloop
  endfacet
  facet normal -0.125333 -0.992115 -0
    outer loop
      vertex 2.58586 13.5556 3
      vertex 2.58586 13.5556 115
      vertex 0.866509 13.7728 115
    endloop
  endfacet
  facet normal -0.125333 -0.992115 -0
    outer loop
      vertex 0.866509 13.7728 3
      vertex 2.58586 13.5556 3
      vertex 0.866509 13.7728 115
    endloop
  endfacet
  facet normal -0.24869 -0.968583 -0
    outer loop
      vertex 4.26443 13.1246 3
      vertex 4.26443 13.1246 115
      vertex 2.58586 13.5556 115
    endloop
  endfacet
  facet normal -0.24869 -0.968583 -0
    outer loop
      vertex 2.58586 13.5556 3
      vertex 4.26443 13.1246 3
      vertex 2.58586 13.5556 115
    endloop
  endfacet
  facet normal -0.368125 -0.929776 -0
    outer loop
      vertex 5.87575 12.4866 3
      vertex 5.87575 12.4866 115
      vertex 4.26443 13.1246 115
    endloop
  endfacet
  facet normal -0.368125 -0.929776 -0
    outer loop
      vertex 4.26443 13.1246 3
      vertex 5.87575 12.4866 3
      vertex 4.26443 13.1246 115
    endloop
  endfacet
  facet normal -0.481754 -0.876307 -0
    outer loop
      vertex 7.39441 11.6517 3
      vertex 7.39441 11.6517 115
      vertex 5.87575 12.4866 115
    endloop
  endfacet
  facet normal -0.481754 -0.876307 -0
    outer loop
      vertex 5.87575 12.4866 3
      vertex 7.39441 11.6517 3
      vertex 5.87575 12.4866 115
    endloop
  endfacet
  facet normal -0.587785 -0.809017 -0
    outer loop
      vertex 8.79645 10.6331 3
      vertex 8.79645 10.6331 115
      vertex 7.39441 11.6517 115
    endloop
  endfacet
  facet normal -0.587785 -0.809017 -0
    outer loop
      vertex 7.39441 11.6517 3
      vertex 8.79645 10.6331 3
      vertex 7.39441 11.6517 115
    endloop
  endfacet
  facet normal -0.684547 -0.728969 -0
    outer loop
      vertex 10.0598 9.44675 3
      vertex 10.0598 9.44675 115
      vertex 8.79645 10.6331 115
    endloop
  endfacet
  facet normal -0.684547 -0.728969 -0
    outer loop
      vertex 8.79645 10.6331 3
      vertex 10.0598 9.44675 3
      vertex 8.79645 10.6331 115
    endloop
  endfacet
  facet normal -0.770513 -0.637424 0
    outer loop
      vertex 11.1644 8.11144 115
      vertex 10.0598 9.44675 115
      vertex 11.1644 8.11144 3
    endloop
  endfacet
  facet normal -0.770513 -0.637424 0
    outer loop
      vertex 11.1644 8.11144 3
      vertex 10.0598 9.44675 115
      vertex 10.0598 9.44675 3
    endloop
  endfacet
  facet normal -0.844328 -0.535827 0
    outer loop
      vertex 12.093 6.6482 115
      vertex 11.1644 8.11144 115
      vertex 12.093 6.6482 3
    endloop
  endfacet
  facet normal -0.844328 -0.535827 0
    outer loop
      vertex 12.093 6.6482 3
      vertex 11.1644 8.11144 115
      vertex 11.1644 8.11144 3
    endloop
  endfacet
  facet normal -0.904827 -0.42578 0
    outer loop
      vertex 12.8309 5.08012 115
      vertex 12.093 6.6482 115
      vertex 12.8309 5.08012 3
    endloop
  endfacet
  facet normal -0.904827 -0.42578 0
    outer loop
      vertex 12.8309 5.08012 3
      vertex 12.093 6.6482 115
      vertex 12.093 6.6482 3
    endloop
  endfacet
  facet normal -0.951057 -0.309017 0
    outer loop
      vertex 13.3664 3.43192 115
      vertex 12.8309 5.08012 115
      vertex 13.3664 3.43192 3
    endloop
  endfacet
  facet normal -0.951057 -0.309017 0
    outer loop
      vertex 13.3664 3.43192 3
      vertex 12.8309 5.08012 115
      vertex 12.8309 5.08012 3
    endloop
  endfacet
  facet normal -0.982287 -0.187381 0
    outer loop
      vertex 13.6912 1.7296 115
      vertex 13.3664 3.43192 115
      vertex 13.6912 1.7296 3
    endloop
  endfacet
  facet normal -0.982287 -0.187381 0
    outer loop
      vertex 13.6912 1.7296 3
      vertex 13.3664 3.43192 115
      vertex 13.3664 3.43192 3
    endloop
  endfacet
  facet normal -0.998027 -0.0627904 0
    outer loop
      vertex 13.8 0 115
      vertex 13.6912 1.7296 115
      vertex 13.8 0 3
    endloop
  endfacet
  facet normal -0.998027 -0.0627904 0
    outer loop
      vertex 13.8 0 3
      vertex 13.6912 1.7296 115
      vertex 13.6912 1.7296 3
    endloop
  endfacet
  facet normal -0.998027 0.0627904 0
    outer loop
      vertex 13.8 0 115
      vertex 13.8 0 3
      vertex 13.6912 -1.7296 115
    endloop
  endfacet
  facet normal -0.998027 0.0627904 0
    outer loop
      vertex 13.6912 -1.7296 115
      vertex 13.8 0 3
      vertex 13.6912 -1.7296 3
    endloop
  endfacet
  facet normal -0.982287 0.187381 0
    outer loop
      vertex 13.6912 -1.7296 115
      vertex 13.6912 -1.7296 3
      vertex 13.3664 -3.43192 115
    endloop
  endfacet
  facet normal -0.982287 0.187381 0
    outer loop
      vertex 13.3664 -3.43192 115
      vertex 13.6912 -1.7296 3
      vertex 13.3664 -3.43192 3
    endloop
  endfacet
  facet normal -0.951057 0.309017 0
    outer loop
      vertex 13.3664 -3.43192 115
      vertex 13.3664 -3.43192 3
      vertex 12.8309 -5.08012 115
    endloop
  endfacet
  facet normal -0.951057 0.309017 0
    outer loop
      vertex 12.8309 -5.08012 115
      vertex 13.3664 -3.43192 3
      vertex 12.8309 -5.08012 3
    endloop
  endfacet
  facet normal -0.904827 0.42578 0
    outer loop
      vertex 12.8309 -5.08012 115
      vertex 12.8309 -5.08012 3
      vertex 12.093 -6.6482 115
    endloop
  endfacet
  facet normal -0.904827 0.42578 0
    outer loop
      vertex 12.093 -6.6482 115
      vertex 12.8309 -5.08012 3
      vertex 12.093 -6.6482 3
    endloop
  endfacet
  facet normal -0.844328 0.535827 0
    outer loop
      vertex 12.093 -6.6482 115
      vertex 12.093 -6.6482 3
      vertex 11.1644 -8.11144 115
    endloop
  endfacet
  facet normal -0.844328 0.535827 0
    outer loop
      vertex 11.1644 -8.11144 115
      vertex 12.093 -6.6482 3
      vertex 11.1644 -8.11144 3
    endloop
  endfacet
  facet normal -0.770513 0.637424 0
    outer loop
      vertex 11.1644 -8.11144 115
      vertex 11.1644 -8.11144 3
      vertex 10.0598 -9.44675 115
    endloop
  endfacet
  facet normal -0.770513 0.637424 0
    outer loop
      vertex 10.0598 -9.44675 115
      vertex 11.1644 -8.11144 3
      vertex 10.0598 -9.44675 3
    endloop
  endfacet
  facet normal -0.684547 0.728969 0
    outer loop
      vertex 10.0598 -9.44675 115
      vertex 10.0598 -9.44675 3
      vertex 8.79645 -10.6331 115
    endloop
  endfacet
  facet normal -0.684547 0.728969 0
    outer loop
      vertex 8.79645 -10.6331 115
      vertex 10.0598 -9.44675 3
      vertex 8.79645 -10.6331 3
    endloop
  endfacet
  facet normal -0.587785 0.809017 0
    outer loop
      vertex 8.79645 -10.6331 115
      vertex 8.79645 -10.6331 3
      vertex 7.39441 -11.6517 115
    endloop
  endfacet
  facet normal -0.587785 0.809017 0
    outer loop
      vertex 7.39441 -11.6517 115
      vertex 8.79645 -10.6331 3
      vertex 7.39441 -11.6517 3
    endloop
  endfacet
  facet normal -0.481754 0.876307 0
    outer loop
      vertex 7.39441 -11.6517 115
      vertex 7.39441 -11.6517 3
      vertex 5.87575 -12.4866 115
    endloop
  endfacet
  facet normal -0.481754 0.876307 0
    outer loop
      vertex 5.87575 -12.4866 115
      vertex 7.39441 -11.6517 3
      vertex 5.87575 -12.4866 3
    endloop
  endfacet
  facet normal -0.368125 0.929776 0
    outer loop
      vertex 5.87575 -12.4866 115
      vertex 5.87575 -12.4866 3
      vertex 4.26443 -13.1246 115
    endloop
  endfacet
  facet normal -0.368125 0.929776 0
    outer loop
      vertex 4.26443 -13.1246 115
      vertex 5.87575 -12.4866 3
      vertex 4.26443 -13.1246 3
    endloop
  endfacet
  facet normal -0.24869 0.968583 0
    outer loop
      vertex 4.26443 -13.1246 115
      vertex 4.26443 -13.1246 3
      vertex 2.58586 -13.5556 115
    endloop
  endfacet
  facet normal -0.24869 0.968583 0
    outer loop
      vertex 2.58586 -13.5556 115
      vertex 4.26443 -13.1246 3
      vertex 2.58586 -13.5556 3
    endloop
  endfacet
  facet normal -0.125333 0.992115 0
    outer loop
      vertex 2.58586 -13.5556 115
      vertex 2.58586 -13.5556 3
      vertex 0.866509 -13.7728 115
    endloop
  endfacet
  facet normal -0.125333 0.992115 0
    outer loop
      vertex 0.866509 -13.7728 115
      vertex 2.58586 -13.5556 3
      vertex 0.866509 -13.7728 3
    endloop
  endfacet
  facet normal -0.125333 0.992115 0
    outer loop
      vertex 2.7545 -14.4396 116
      vertex 2.7545 -14.4396 115
      vertex 0.923021 -14.671 116
    endloop
  endfacet
  facet normal -0.125333 0.992115 0
    outer loop
      vertex 0.923021 -14.671 116
      vertex 2.7545 -14.4396 115
      vertex 0.923021 -14.671 115
    endloop
  endfacet
  facet normal -0.125333 -0.992115 -0
    outer loop
      vertex 2.7545 14.4396 115
      vertex 2.7545 14.4396 116
      vertex 0.923021 14.671 116
    endloop
  endfacet
  facet normal -0.125333 -0.992115 -0
    outer loop
      vertex 0.923021 14.671 115
      vertex 2.7545 14.4396 115
      vertex 0.923021 14.671 116
    endloop
  endfacet
  facet normal -0.24869 -0.968583 -0
    outer loop
      vertex 4.54255 13.9805 115
      vertex 4.54255 13.9805 116
      vertex 2.7545 14.4396 116
    endloop
  endfacet
  facet normal -0.24869 -0.968583 -0
    outer loop
      vertex 2.7545 14.4396 115
      vertex 4.54255 13.9805 115
      vertex 2.7545 14.4396 116
    endloop
  endfacet
  facet normal -0.368124 -0.929777 -0
    outer loop
      vertex 6.25896 13.301 115
      vertex 6.25896 13.301 116
      vertex 4.54255 13.9805 116
    endloop
  endfacet
  facet normal -0.368124 -0.929777 -0
    outer loop
      vertex 4.54255 13.9805 115
      vertex 6.25896 13.301 115
      vertex 4.54255 13.9805 116
    endloop
  endfacet
  facet normal -0.481754 -0.876307 -0
    outer loop
      vertex 7.87665 12.4116 115
      vertex 7.87665 12.4116 116
      vertex 6.25896 13.301 116
    endloop
  endfacet
  facet normal -0.481754 -0.876307 -0
    outer loop
      vertex 6.25896 13.301 115
      vertex 7.87665 12.4116 115
      vertex 6.25896 13.301 116
    endloop
  endfacet
  facet normal -0.587785 -0.809017 -0
    outer loop
      vertex 9.37013 11.3265 115
      vertex 9.37013 11.3265 116
      vertex 7.87665 12.4116 116
    endloop
  endfacet
  facet normal -0.587785 -0.809017 -0
    outer loop
      vertex 7.87665 12.4116 115
      vertex 9.37013 11.3265 115
      vertex 7.87665 12.4116 116
    endloop
  endfacet
  facet normal -0.684547 -0.728968 -0
    outer loop
      vertex 10.7158 10.0628 115
      vertex 10.7158 10.0628 116
      vertex 9.37013 11.3265 116
    endloop
  endfacet
  facet normal -0.684547 -0.728968 -0
    outer loop
      vertex 9.37013 11.3265 115
      vertex 10.7158 10.0628 115
      vertex 9.37013 11.3265 116
    endloop
  endfacet
  facet normal -0.770513 -0.637424 0
    outer loop
      vertex 11.8925 8.64044 116
      vertex 10.7158 10.0628 116
      vertex 11.8925 8.64044 115
    endloop
  endfacet
  facet normal -0.770513 -0.637424 0
    outer loop
      vertex 11.8925 8.64044 115
      vertex 10.7158 10.0628 116
      vertex 10.7158 10.0628 115
    endloop
  endfacet
  facet normal -0.844328 -0.535827 0
    outer loop
      vertex 12.8817 7.08178 116
      vertex 11.8925 8.64044 116
      vertex 12.8817 7.08178 115
    endloop
  endfacet
  facet normal -0.844328 -0.535827 0
    outer loop
      vertex 12.8817 7.08178 115
      vertex 11.8925 8.64044 116
      vertex 11.8925 8.64044 115
    endloop
  endfacet
  facet normal -0.904827 -0.425779 0
    outer loop
      vertex 13.6677 5.41143 116
      vertex 12.8817 7.08178 116
      vertex 13.6677 5.41143 115
    endloop
  endfacet
  facet normal -0.904827 -0.425779 0
    outer loop
      vertex 13.6677 5.41143 115
      vertex 12.8817 7.08178 116
      vertex 12.8817 7.08178 115
    endloop
  endfacet
  facet normal -0.951057 -0.309017 0
    outer loop
      vertex 14.2382 3.65574 116
      vertex 13.6677 5.41143 116
      vertex 14.2382 3.65574 115
    endloop
  endfacet
  facet normal -0.951057 -0.309017 0
    outer loop
      vertex 14.2382 3.65574 115
      vertex 13.6677 5.41143 116
      vertex 13.6677 5.41143 115
    endloop
  endfacet
  facet normal -0.982287 -0.187382 0
    outer loop
      vertex 14.5841 1.8424 116
      vertex 14.2382 3.65574 116
      vertex 14.5841 1.8424 115
    endloop
  endfacet
  facet normal -0.982287 -0.187382 0
    outer loop
      vertex 14.5841 1.8424 115
      vertex 14.2382 3.65574 116
      vertex 14.2382 3.65574 115
    endloop
  endfacet
  facet normal -0.998027 -0.0627906 0
    outer loop
      vertex 14.7 0 116
      vertex 14.5841 1.8424 116
      vertex 14.7 0 115
    endloop
  endfacet
  facet normal -0.998027 -0.0627906 0
    outer loop
      vertex 14.7 0 115
      vertex 14.5841 1.8424 116
      vertex 14.5841 1.8424 115
    endloop
  endfacet
  facet normal -0.998027 0.0627906 0
    outer loop
      vertex 14.7 0 116
      vertex 14.7 0 115
      vertex 14.5841 -1.8424 116
    endloop
  endfacet
  facet normal -0.998027 0.0627906 0
    outer loop
      vertex 14.5841 -1.8424 116
      vertex 14.7 0 115
      vertex 14.5841 -1.8424 115
    endloop
  endfacet
  facet normal -0.982287 0.187382 0
    outer loop
      vertex 14.5841 -1.8424 116
      vertex 14.5841 -1.8424 115
      vertex 14.2382 -3.65574 116
    endloop
  endfacet
  facet normal -0.982287 0.187382 0
    outer loop
      vertex 14.2382 -3.65574 116
      vertex 14.5841 -1.8424 115
      vertex 14.2382 -3.65574 115
    endloop
  endfacet
  facet normal -0.951057 0.309017 0
    outer loop
      vertex 14.2382 -3.65574 116
      vertex 14.2382 -3.65574 115
      vertex 13.6677 -5.41143 116
    endloop
  endfacet
  facet normal -0.951057 0.309017 0
    outer loop
      vertex 13.6677 -5.41143 116
      vertex 14.2382 -3.65574 115
      vertex 13.6677 -5.41143 115
    endloop
  endfacet
  facet normal -0.904827 0.425779 0
    outer loop
      vertex 13.6677 -5.41143 116
      vertex 13.6677 -5.41143 115
      vertex 12.8817 -7.08178 116
    endloop
  endfacet
  facet normal -0.904827 0.425779 0
    outer loop
      vertex 12.8817 -7.08178 116
      vertex 13.6677 -5.41143 115
      vertex 12.8817 -7.08178 115
    endloop
  endfacet
  facet normal -0.844328 0.535827 0
    outer loop
      vertex 12.8817 -7.08178 116
      vertex 12.8817 -7.08178 115
      vertex 11.8925 -8.64044 116
    endloop
  endfacet
  facet normal -0.844328 0.535827 0
    outer loop
      vertex 11.8925 -8.64044 116
      vertex 12.8817 -7.08178 115
      vertex 11.8925 -8.64044 115
    endloop
  endfacet
  facet normal -0.770513 0.637424 0
    outer loop
      vertex 11.8925 -8.64044 116
      vertex 11.8925 -8.64044 115
      vertex 10.7158 -10.0628 116
    endloop
  endfacet
  facet normal -0.770513 0.637424 0
    outer loop
      vertex 10.7158 -10.0628 116
      vertex 11.8925 -8.64044 115
      vertex 10.7158 -10.0628 115
    endloop
  endfacet
  facet normal -0.684547 0.728968 0
    outer loop
      vertex 10.7158 -10.0628 116
      vertex 10.7158 -10.0628 115
      vertex 9.37013 -11.3265 116
    endloop
  endfacet
  facet normal -0.684547 0.728968 0
    outer loop
      vertex 9.37013 -11.3265 116
      vertex 10.7158 -10.0628 115
      vertex 9.37013 -11.3265 115
    endloop
  endfacet
  facet normal -0.587785 0.809017 0
    outer loop
      vertex 9.37013 -11.3265 116
      vertex 9.37013 -11.3265 115
      vertex 7.87665 -12.4116 116
    endloop
  endfacet
  facet normal -0.587785 0.809017 0
    outer loop
      vertex 7.87665 -12.4116 116
      vertex 9.37013 -11.3265 115
      vertex 7.87665 -12.4116 115
    endloop
  endfacet
  facet normal -0.481754 0.876307 0
    outer loop
      vertex 7.87665 -12.4116 116
      vertex 7.87665 -12.4116 115
      vertex 6.25896 -13.301 116
    endloop
  endfacet
  facet normal -0.481754 0.876307 0
    outer loop
      vertex 6.25896 -13.301 116
      vertex 7.87665 -12.4116 115
      vertex 6.25896 -13.301 115
    endloop
  endfacet
  facet normal -0.368124 0.929777 0
    outer loop
      vertex 6.25896 -13.301 116
      vertex 6.25896 -13.301 115
      vertex 4.54255 -13.9805 116
    endloop
  endfacet
  facet normal -0.368124 0.929777 0
    outer loop
      vertex 4.54255 -13.9805 116
      vertex 6.25896 -13.301 115
      vertex 4.54255 -13.9805 115
    endloop
  endfacet
  facet normal -0.24869 0.968583 0
    outer loop
      vertex 4.54255 -13.9805 116
      vertex 4.54255 -13.9805 115
      vertex 2.7545 -14.4396 116
    endloop
  endfacet
  facet normal -0.24869 0.968583 0
    outer loop
      vertex 2.7545 -14.4396 116
      vertex 4.54255 -13.9805 115
      vertex 2.7545 -14.4396 115
    endloop
  endfacet
  facet normal -0.125333 -0.992115 -0
    outer loop
      vertex 2.58586 13.5556 116
      vertex 2.58586 13.5556 139.4
      vertex 0.866509 13.7728 139.4
    endloop
  endfacet
  facet normal -0.125333 -0.992115 -0
    outer loop
      vertex 0.866509 13.7728 116
      vertex 2.58586 13.5556 116
      vertex 0.866509 13.7728 139.4
    endloop
  endfacet
  facet normal -0.24869 -0.968583 -0
    outer loop
      vertex 4.26443 13.1246 116
      vertex 4.26443 13.1246 139.4
      vertex 2.58586 13.5556 139.4
    endloop
  endfacet
  facet normal -0.24869 -0.968583 -0
    outer loop
      vertex 2.58586 13.5556 116
      vertex 4.26443 13.1246 116
      vertex 2.58586 13.5556 139.4
    endloop
  endfacet
  facet normal -0.368125 -0.929776 -0
    outer loop
      vertex 5.87575 12.4866 116
      vertex 5.87575 12.4866 139.4
      vertex 4.26443 13.1246 139.4
    endloop
  endfacet
  facet normal -0.368125 -0.929776 -0
    outer loop
      vertex 4.26443 13.1246 116
      vertex 5.87575 12.4866 116
      vertex 4.26443 13.1246 139.4
    endloop
  endfacet
  facet normal -0.481754 -0.876307 -0
    outer loop
      vertex 7.39441 11.6517 116
      vertex 7.39441 11.6517 139.4
      vertex 5.87575 12.4866 139.4
    endloop
  endfacet
  facet normal -0.481754 -0.876307 -0
    outer loop
      vertex 5.87575 12.4866 116
      vertex 7.39441 11.6517 116
      vertex 5.87575 12.4866 139.4
    endloop
  endfacet
  facet normal -0.587785 -0.809017 -0
    outer loop
      vertex 8.79645 10.6331 116
      vertex 8.79645 10.6331 139.4
      vertex 7.39441 11.6517 139.4
    endloop
  endfacet
  facet normal -0.587785 -0.809017 -0
    outer loop
      vertex 7.39441 11.6517 116
      vertex 8.79645 10.6331 116
      vertex 7.39441 11.6517 139.4
    endloop
  endfacet
  facet normal -0.684547 -0.728969 -0
    outer loop
      vertex 10.0598 9.44675 116
      vertex 10.0598 9.44675 139.4
      vertex 8.79645 10.6331 139.4
    endloop
  endfacet
  facet normal -0.684547 -0.728969 -0
    outer loop
      vertex 8.79645 10.6331 116
      vertex 10.0598 9.44675 116
      vertex 8.79645 10.6331 139.4
    endloop
  endfacet
  facet normal -0.770513 -0.637424 0
    outer loop
      vertex 11.1644 8.11144 139.4
      vertex 10.0598 9.44675 139.4
      vertex 11.1644 8.11144 116
    endloop
  endfacet
  facet normal -0.770513 -0.637424 0
    outer loop
      vertex 11.1644 8.11144 116
      vertex 10.0598 9.44675 139.4
      vertex 10.0598 9.44675 116
    endloop
  endfacet
  facet normal -0.844328 -0.535827 0
    outer loop
      vertex 12.093 6.6482 139.4
      vertex 11.1644 8.11144 139.4
      vertex 12.093 6.6482 116
    endloop
  endfacet
  facet normal -0.844328 -0.535827 0
    outer loop
      vertex 12.093 6.6482 116
      vertex 11.1644 8.11144 139.4
      vertex 11.1644 8.11144 116
    endloop
  endfacet
  facet normal -0.904827 -0.42578 0
    outer loop
      vertex 12.8309 5.08012 139.4
      vertex 12.093 6.6482 139.4
      vertex 12.8309 5.08012 116
    endloop
  endfacet
  facet normal -0.904827 -0.42578 0
    outer loop
      vertex 12.8309 5.08012 116
      vertex 12.093 6.6482 139.4
      vertex 12.093 6.6482 116
    endloop
  endfacet
  facet normal -0.951057 -0.309017 0
    outer loop
      vertex 13.3664 3.43192 139.4
      vertex 12.8309 5.08012 139.4
      vertex 13.3664 3.43192 116
    endloop
  endfacet
  facet normal -0.951057 -0.309017 0
    outer loop
      vertex 13.3664 3.43192 116
      vertex 12.8309 5.08012 139.4
      vertex 12.8309 5.08012 116
    endloop
  endfacet
  facet normal -0.982287 -0.187381 0
    outer loop
      vertex 13.6912 1.7296 139.4
      vertex 13.3664 3.43192 139.4
      vertex 13.6912 1.7296 116
    endloop
  endfacet
  facet normal -0.982287 -0.187381 0
    outer loop
      vertex 13.6912 1.7296 116
      vertex 13.3664 3.43192 139.4
      vertex 13.3664 3.43192 116
    endloop
  endfacet
  facet normal -0.998027 -0.0627904 0
    outer loop
      vertex 13.8 0 139.4
      vertex 13.6912 1.7296 139.4
      vertex 13.8 0 116
    endloop
  endfacet
  facet normal -0.998027 -0.0627904 0
    outer loop
      vertex 13.8 0 116
      vertex 13.6912 1.7296 139.4
      vertex 13.6912 1.7296 116
    endloop
  endfacet
  facet normal -0.998027 0.0627904 0
    outer loop
      vertex 13.8 0 139.4
      vertex 13.8 0 116
      vertex 13.6912 -1.7296 139.4
    endloop
  endfacet
  facet normal -0.998027 0.0627904 0
    outer loop
      vertex 13.6912 -1.7296 139.4
      vertex 13.8 0 116
      vertex 13.6912 -1.7296 116
    endloop
  endfacet
  facet normal -0.982287 0.187381 0
    outer loop
      vertex 13.6912 -1.7296 139.4
      vertex 13.6912 -1.7296 116
      vertex 13.3664 -3.43192 139.4
    endloop
  endfacet
  facet normal -0.982287 0.187381 0
    outer loop
      vertex 13.3664 -3.43192 139.4
      vertex 13.6912 -1.7296 116
      vertex 13.3664 -3.43192 116
    endloop
  endfacet
  facet normal -0.951057 0.309017 0
    outer loop
      vertex 13.3664 -3.43192 139.4
      vertex 13.3664 -3.43192 116
      vertex 12.8309 -5.08012 139.4
    endloop
  endfacet
  facet normal -0.951057 0.309017 0
    outer loop
      vertex 12.8309 -5.08012 139.4
      vertex 13.3664 -3.43192 116
      vertex 12.8309 -5.08012 116
    endloop
  endfacet
  facet normal -0.904827 0.42578 0
    outer loop
      vertex 12.8309 -5.08012 139.4
      vertex 12.8309 -5.08012 116
      vertex 12.093 -6.6482 139.4
    endloop
  endfacet
  facet normal -0.904827 0.42578 0
    outer loop
      vertex 12.093 -6.6482 139.4
      vertex 12.8309 -5.08012 116
      vertex 12.093 -6.6482 116
    endloop
  endfacet
  facet normal -0.844328 0.535827 0
    outer loop
      vertex 12.093 -6.6482 139.4
      vertex 12.093 -6.6482 116
      vertex 11.1644 -8.11144 139.4
    endloop
  endfacet
  facet normal -0.844328 0.535827 0
    outer loop
      vertex 11.1644 -8.11144 139.4
      vertex 12.093 -6.6482 116
      vertex 11.1644 -8.11144 116
    endloop
  endfacet
  facet normal -0.770513 0.637424 0
    outer loop
      vertex 11.1644 -8.11144 139.4
      vertex 11.1644 -8.11144 116
      vertex 10.0598 -9.44675 139.4
    endloop
  endfacet
  facet normal -0.770513 0.637424 0
    outer loop
      vertex 10.0598 -9.44675 139.4
      vertex 11.1644 -8.11144 116
      vertex 10.0598 -9.44675 116
    endloop
  endfacet
  facet normal -0.684547 0.728969 0
    outer loop
      vertex 10.0598 -9.44675 139.4
      vertex 10.0598 -9.44675 116
      vertex 8.79645 -10.6331 139.4
    endloop
  endfacet
  facet normal -0.684547 0.728969 0
    outer loop
      vertex 8.79645 -10.6331 139.4
      vertex 10.0598 -9.44675 116
      vertex 8.79645 -10.6331 116
    endloop
  endfacet
  facet normal -0.587785 0.809017 0
    outer loop
      vertex 8.79645 -10.6331 139.4
      vertex 8.79645 -10.6331 116
      vertex 7.39441 -11.6517 139.4
    endloop
  endfacet
  facet normal -0.587785 0.809017 0
    outer loop
      vertex 7.39441 -11.6517 139.4
      vertex 8.79645 -10.6331 116
      vertex 7.39441 -11.6517 116
    endloop
  endfacet
  facet normal -0.481754 0.876307 0
    outer loop
      vertex 7.39441 -11.6517 139.4
      vertex 7.39441 -11.6517 116
      vertex 5.87575 -12.4866 139.4
    endloop
  endfacet
  facet normal -0.481754 0.876307 0
    outer loop
      vertex 5.87575 -12.4866 139.4
      vertex 7.39441 -11.6517 116
      vertex 5.87575 -12.4866 116
    endloop
  endfacet
  facet normal -0.368125 0.929776 0
    outer loop
      vertex 5.87575 -12.4866 139.4
      vertex 5.87575 -12.4866 116
      vertex 4.26443 -13.1246 139.4
    endloop
  endfacet
  facet normal -0.368125 0.929776 0
    outer loop
      vertex 4.26443 -13.1246 139.4
      vertex 5.87575 -12.4866 116
      vertex 4.26443 -13.1246 116
    endloop
  endfacet
  facet normal -0.24869 0.968583 0
    outer loop
      vertex 4.26443 -13.1246 139.4
      vertex 4.26443 -13.1246 116
      vertex 2.58586 -13.5556 139.4
    endloop
  endfacet
  facet normal -0.24869 0.968583 0
    outer loop
      vertex 2.58586 -13.5556 139.4
      vertex 4.26443 -13.1246 116
      vertex 2.58586 -13.5556 116
    endloop
  endfacet
  facet normal -0.125333 0.992115 0
    outer loop
      vertex 2.58586 -13.5556 139.4
      vertex 2.58586 -13.5556 116
      vertex 0.866509 -13.7728 139.4
    endloop
  endfacet
  facet normal -0.125333 0.992115 0
    outer loop
      vertex 0.866509 -13.7728 139.4
      vertex 2.58586 -13.5556 116
      vertex 0.866509 -13.7728 116
    endloop
  endfacet
endsolid OpenSCAD_Model
